<?xml version="1.0" standalone="no"?>
 <!DOCTYPE svg PUBLIC "-//W3C//DTD SVG 1.1//EN" 
 "http://www.w3.org/Graphics/SVG/1.1/DTD/svg11.dtd"> 
<svg xmlns="http://www.w3.org/2000/svg" version="1.1" 
    width="20cm" height="15.0012cm" viewBox="0 0 78740 59060 ">
<title>SVG Picture created as anderson_distribution_board.sch.svg date 2018/06/14 22:43:54 </title>
  <desc>Picture generated by Eeschema-SVG </desc>
<g style="fill:#000000; fill-opacity:1;stroke:#000000; stroke-opacity:1;
stroke-linecap:round; stroke-linejoin:round; "
 transform="translate(0 0) scale(1 1)">
</g>
<g style="fill:#000000; fill-opacity:0.0; 
stroke:#000000; stroke-width:-10; stroke-opacity:1; 
stroke-linecap:round; stroke-linejoin:round;">
</g>
<g style="fill:#840000; fill-opacity:0.0; 
stroke:#840000; stroke-width:-10; stroke-opacity:1; 
stroke-linecap:round; stroke-linejoin:round;">
</g>
<g style="fill:#840000; fill-opacity:0.0; 
stroke:#840000; stroke-width:100; stroke-opacity:1; 
stroke-linecap:round; stroke-linejoin:round;">
</g>
<g style="fill:#840000; fill-opacity:0.0; 
stroke:#840000; stroke-width:60; stroke-opacity:1; 
stroke-linecap:round; stroke-linejoin:round;">
<rect x="31500" y="41740" width="42520" height="12600" rx="0" />
</g>
<g style="fill:#840000; fill-opacity:0.0; 
stroke:#840000; stroke-width:100; stroke-opacity:1; 
stroke-linecap:round; stroke-linejoin:round;">
</g>
<g style="fill:#840000; fill-opacity:0.0; 
stroke:#840000; stroke-width:60; stroke-opacity:1; 
stroke-linecap:round; stroke-linejoin:round;">
<rect x="3940" y="3940" width="70860" height="51180" rx="0" />
</g>
<g style="fill:#840000; fill-opacity:0.0; 
stroke:#840000; stroke-width:100; stroke-opacity:1; 
stroke-linecap:round; stroke-linejoin:round;">
</g>
<g style="fill:#840000; fill-opacity:0.0; 
stroke:#840000; stroke-width:60; stroke-opacity:1; 
stroke-linecap:round; stroke-linejoin:round;">
<rect x="4720" y="4720" width="69300" height="49620" rx="0" />
</g>
<g style="fill:#840000; fill-opacity:0.0; 
stroke:#840000; stroke-width:100; stroke-opacity:1; 
stroke-linecap:round; stroke-linejoin:round;">
</g>
<g style="fill:#840000; fill-opacity:0.0; 
stroke:#840000; stroke-width:60; stroke-opacity:1; 
stroke-linecap:round; stroke-linejoin:round;">
<path d="M23620 4720
L23620 3940
" />
</g>
<g style="fill:#840000; fill-opacity:0.0; 
stroke:#840000; stroke-width:100; stroke-opacity:1; 
stroke-linecap:round; stroke-linejoin:round;">
</g>
<g style="fill:#840000; fill-opacity:0.0; 
stroke:#840000; stroke-width:60; stroke-opacity:1; 
stroke-linecap:round; stroke-linejoin:round;">
<path d="M43310 4720
L43310 3940
" />
</g>
<g style="fill:#840000; fill-opacity:0.0; 
stroke:#840000; stroke-width:100; stroke-opacity:1; 
stroke-linecap:round; stroke-linejoin:round;">
</g>
<g style="fill:#840000; fill-opacity:0.0; 
stroke:#840000; stroke-width:60; stroke-opacity:1; 
stroke-linecap:round; stroke-linejoin:round;">
<path d="M62990 4720
L62990 3940
" />
</g>
<g style="fill:#840000; fill-opacity:0.0; 
stroke:#840000; stroke-width:100; stroke-opacity:1; 
stroke-linecap:round; stroke-linejoin:round;">
</g>
<g style="fill:#840000; fill-opacity:0.0; 
stroke:#840000; stroke-width:60; stroke-opacity:1; 
stroke-linecap:round; stroke-linejoin:round;">
<path d="M14170 4560
L13880 4560
" />
<path d="M14020 4560
L14020 4050
L13970 4120
L13930 4170
L13880 4190
" />
</g>
<g style="fill:#840000; fill-opacity:0.0; 
stroke:#840000; stroke-width:100; stroke-opacity:1; 
stroke-linecap:round; stroke-linejoin:round;">
</g>
<g style="fill:#840000; fill-opacity:0.0; 
stroke:#840000; stroke-width:60; stroke-opacity:1; 
stroke-linecap:round; stroke-linejoin:round;">
<path d="M33560 4090
L33580 4070
L33630 4050
L33750 4050
L33800 4070
L33820 4090
L33850 4140
L33850 4190
L33820 4260
L33530 4560
L33850 4560
" />
</g>
<g style="fill:#840000; fill-opacity:0.0; 
stroke:#840000; stroke-width:100; stroke-opacity:1; 
stroke-linecap:round; stroke-linejoin:round;">
</g>
<g style="fill:#840000; fill-opacity:0.0; 
stroke:#840000; stroke-width:60; stroke-opacity:1; 
stroke-linecap:round; stroke-linejoin:round;">
<path d="M53220 4050
L53540 4050
L53370 4240
L53440 4240
L53490 4260
L53510 4290
L53540 4340
L53540 4460
L53510 4510
L53490 4530
L53440 4560
L53300 4560
L53250 4530
L53220 4510
" />
</g>
<g style="fill:#840000; fill-opacity:0.0; 
stroke:#840000; stroke-width:100; stroke-opacity:1; 
stroke-linecap:round; stroke-linejoin:round;">
</g>
<g style="fill:#840000; fill-opacity:0.0; 
stroke:#840000; stroke-width:60; stroke-opacity:1; 
stroke-linecap:round; stroke-linejoin:round;">
<path d="M73170 4220
L73170 4560
" />
<path d="M73050 4020
L72930 4390
L73240 4390
" />
</g>
<g style="fill:#840000; fill-opacity:0.0; 
stroke:#840000; stroke-width:100; stroke-opacity:1; 
stroke-linecap:round; stroke-linejoin:round;">
</g>
<g style="fill:#840000; fill-opacity:0.0; 
stroke:#840000; stroke-width:60; stroke-opacity:1; 
stroke-linecap:round; stroke-linejoin:round;">
<path d="M23620 54340
L23620 55120
" />
</g>
<g style="fill:#840000; fill-opacity:0.0; 
stroke:#840000; stroke-width:100; stroke-opacity:1; 
stroke-linecap:round; stroke-linejoin:round;">
</g>
<g style="fill:#840000; fill-opacity:0.0; 
stroke:#840000; stroke-width:60; stroke-opacity:1; 
stroke-linecap:round; stroke-linejoin:round;">
<path d="M43310 54340
L43310 55120
" />
</g>
<g style="fill:#840000; fill-opacity:0.0; 
stroke:#840000; stroke-width:100; stroke-opacity:1; 
stroke-linecap:round; stroke-linejoin:round;">
</g>
<g style="fill:#840000; fill-opacity:0.0; 
stroke:#840000; stroke-width:60; stroke-opacity:1; 
stroke-linecap:round; stroke-linejoin:round;">
<path d="M62990 54340
L62990 55120
" />
</g>
<g style="fill:#840000; fill-opacity:0.0; 
stroke:#840000; stroke-width:100; stroke-opacity:1; 
stroke-linecap:round; stroke-linejoin:round;">
</g>
<g style="fill:#840000; fill-opacity:0.0; 
stroke:#840000; stroke-width:60; stroke-opacity:1; 
stroke-linecap:round; stroke-linejoin:round;">
<path d="M14170 54960
L13880 54960
" />
<path d="M14020 54960
L14020 54450
L13970 54520
L13930 54570
L13880 54590
" />
</g>
<g style="fill:#840000; fill-opacity:0.0; 
stroke:#840000; stroke-width:100; stroke-opacity:1; 
stroke-linecap:round; stroke-linejoin:round;">
</g>
<g style="fill:#840000; fill-opacity:0.0; 
stroke:#840000; stroke-width:60; stroke-opacity:1; 
stroke-linecap:round; stroke-linejoin:round;">
<path d="M33560 54490
L33580 54470
L33630 54450
L33750 54450
L33800 54470
L33820 54490
L33850 54540
L33850 54590
L33820 54660
L33530 54960
L33850 54960
" />
</g>
<g style="fill:#840000; fill-opacity:0.0; 
stroke:#840000; stroke-width:100; stroke-opacity:1; 
stroke-linecap:round; stroke-linejoin:round;">
</g>
<g style="fill:#840000; fill-opacity:0.0; 
stroke:#840000; stroke-width:60; stroke-opacity:1; 
stroke-linecap:round; stroke-linejoin:round;">
<path d="M53220 54450
L53540 54450
L53370 54640
L53440 54640
L53490 54660
L53510 54690
L53540 54740
L53540 54860
L53510 54910
L53490 54930
L53440 54960
L53300 54960
L53250 54930
L53220 54910
" />
</g>
<g style="fill:#840000; fill-opacity:0.0; 
stroke:#840000; stroke-width:100; stroke-opacity:1; 
stroke-linecap:round; stroke-linejoin:round;">
</g>
<g style="fill:#840000; fill-opacity:0.0; 
stroke:#840000; stroke-width:60; stroke-opacity:1; 
stroke-linecap:round; stroke-linejoin:round;">
<path d="M73170 54620
L73170 54960
" />
<path d="M73050 54420
L72930 54790
L73240 54790
" />
</g>
<g style="fill:#840000; fill-opacity:0.0; 
stroke:#840000; stroke-width:100; stroke-opacity:1; 
stroke-linecap:round; stroke-linejoin:round;">
</g>
<g style="fill:#840000; fill-opacity:0.0; 
stroke:#840000; stroke-width:60; stroke-opacity:1; 
stroke-linecap:round; stroke-linejoin:round;">
<path d="M3940 23620
L4720 23620
" />
</g>
<g style="fill:#840000; fill-opacity:0.0; 
stroke:#840000; stroke-width:100; stroke-opacity:1; 
stroke-linecap:round; stroke-linejoin:round;">
</g>
<g style="fill:#840000; fill-opacity:0.0; 
stroke:#840000; stroke-width:60; stroke-opacity:1; 
stroke-linecap:round; stroke-linejoin:round;">
<path d="M3940 43310
L4720 43310
" />
</g>
<g style="fill:#840000; fill-opacity:0.0; 
stroke:#840000; stroke-width:100; stroke-opacity:1; 
stroke-linecap:round; stroke-linejoin:round;">
</g>
<g style="fill:#840000; fill-opacity:0.0; 
stroke:#840000; stroke-width:60; stroke-opacity:1; 
stroke-linecap:round; stroke-linejoin:round;">
<path d="M4210 13860
L4450 13860
" />
<path d="M4160 14010
L4330 13500
L4500 14010
" />
</g>
<g style="fill:#840000; fill-opacity:0.0; 
stroke:#840000; stroke-width:100; stroke-opacity:1; 
stroke-linecap:round; stroke-linejoin:round;">
</g>
<g style="fill:#840000; fill-opacity:0.0; 
stroke:#840000; stroke-width:60; stroke-opacity:1; 
stroke-linecap:round; stroke-linejoin:round;">
<path d="M4370 33420
L4440 33440
L4470 33470
L4490 33520
L4490 33590
L4470 33640
L4440 33660
L4400 33690
L4200 33690
L4200 33180
L4370 33180
L4420 33200
L4440 33220
L4470 33270
L4470 33320
L4440 33370
L4420 33390
L4370 33420
L4200 33420
" />
</g>
<g style="fill:#840000; fill-opacity:0.0; 
stroke:#840000; stroke-width:100; stroke-opacity:1; 
stroke-linecap:round; stroke-linejoin:round;">
</g>
<g style="fill:#840000; fill-opacity:0.0; 
stroke:#840000; stroke-width:60; stroke-opacity:1; 
stroke-linecap:round; stroke-linejoin:round;">
<path d="M4490 53330
L4470 53350
L4400 53380
L4350 53380
L4270 53350
L4230 53300
L4200 53250
L4180 53160
L4180 53080
L4200 52990
L4230 52940
L4270 52890
L4350 52870
L4400 52870
L4470 52890
L4490 52910
" />
</g>
<g style="fill:#840000; fill-opacity:0.0; 
stroke:#840000; stroke-width:100; stroke-opacity:1; 
stroke-linecap:round; stroke-linejoin:round;">
</g>
<g style="fill:#840000; fill-opacity:0.0; 
stroke:#840000; stroke-width:60; stroke-opacity:1; 
stroke-linecap:round; stroke-linejoin:round;">
<path d="M74800 23620
L74020 23620
" />
</g>
<g style="fill:#840000; fill-opacity:0.0; 
stroke:#840000; stroke-width:100; stroke-opacity:1; 
stroke-linecap:round; stroke-linejoin:round;">
</g>
<g style="fill:#840000; fill-opacity:0.0; 
stroke:#840000; stroke-width:60; stroke-opacity:1; 
stroke-linecap:round; stroke-linejoin:round;">
<path d="M74800 43310
L74020 43310
" />
</g>
<g style="fill:#840000; fill-opacity:0.0; 
stroke:#840000; stroke-width:100; stroke-opacity:1; 
stroke-linecap:round; stroke-linejoin:round;">
</g>
<g style="fill:#840000; fill-opacity:0.0; 
stroke:#840000; stroke-width:60; stroke-opacity:1; 
stroke-linecap:round; stroke-linejoin:round;">
<path d="M74290 13860
L74530 13860
" />
<path d="M74240 14010
L74410 13500
L74580 14010
" />
</g>
<g style="fill:#840000; fill-opacity:0.0; 
stroke:#840000; stroke-width:100; stroke-opacity:1; 
stroke-linecap:round; stroke-linejoin:round;">
</g>
<g style="fill:#840000; fill-opacity:0.0; 
stroke:#840000; stroke-width:60; stroke-opacity:1; 
stroke-linecap:round; stroke-linejoin:round;">
<path d="M74450 33420
L74520 33440
L74550 33470
L74570 33520
L74570 33590
L74550 33640
L74520 33660
L74480 33690
L74280 33690
L74280 33180
L74450 33180
L74500 33200
L74520 33220
L74550 33270
L74550 33320
L74520 33370
L74500 33390
L74450 33420
L74280 33420
" />
</g>
<g style="fill:#840000; fill-opacity:0.0; 
stroke:#840000; stroke-width:100; stroke-opacity:1; 
stroke-linecap:round; stroke-linejoin:round;">
</g>
<g style="fill:#840000; fill-opacity:0.0; 
stroke:#840000; stroke-width:60; stroke-opacity:1; 
stroke-linecap:round; stroke-linejoin:round;">
<path d="M74570 53330
L74550 53350
L74480 53380
L74430 53380
L74350 53350
L74310 53300
L74280 53250
L74260 53160
L74260 53080
L74280 52990
L74310 52940
L74350 52890
L74430 52870
L74480 52870
L74550 52890
L74570 52910
" />
</g>
<g style="fill:#840000; fill-opacity:0.0; 
stroke:#840000; stroke-width:100; stroke-opacity:1; 
stroke-linecap:round; stroke-linejoin:round;">
</g>
<g style="fill:#840000; fill-opacity:0.0; 
stroke:#840000; stroke-width:60; stroke-opacity:1; 
stroke-linecap:round; stroke-linejoin:round;">
<path d="M40690 52670
L40690 52080
L40830 52080
L40920 52110
L40970 52170
L41000 52220
L41030 52330
L41030 52420
L41000 52530
L40970 52590
L40920 52640
L40830 52670
L40690 52670
" />
<path d="M41530 52670
L41530 52360
L41510 52310
L41450 52280
L41340 52280
L41280 52310
" />
<path d="M41530 52640
L41480 52670
L41340 52670
L41280 52640
L41250 52590
L41250 52530
L41280 52480
L41340 52450
L41480 52450
L41530 52420
" />
<path d="M41730 52280
L41950 52280
" />
<path d="M41810 52080
L41810 52590
L41840 52640
L41890 52670
L41950 52670
" />
<path d="M42380 52640
L42320 52670
L42210 52670
L42150 52640
L42120 52590
L42120 52360
L42150 52310
L42210 52280
L42320 52280
L42380 52310
L42400 52360
L42400 52420
L42120 52480
" />
<path d="M42660 52620
L42690 52640
L42660 52670
L42630 52640
L42660 52620
L42660 52670
" />
<path d="M42660 52310
L42690 52330
L42660 52360
L42630 52330
L42660 52310
L42660 52360
" />
</g>
<g style="fill:#840000; fill-opacity:0.0; 
stroke:#840000; stroke-width:100; stroke-opacity:1; 
stroke-linecap:round; stroke-linejoin:round;">
</g>
<g style="fill:#840000; fill-opacity:0.0; 
stroke:#840000; stroke-width:60; stroke-opacity:1; 
stroke-linecap:round; stroke-linejoin:round;">
<path d="M31500 52960
L74020 52960
" />
</g>
<g style="fill:#840000; fill-opacity:0.0; 
stroke:#840000; stroke-width:100; stroke-opacity:1; 
stroke-linecap:round; stroke-linejoin:round;">
</g>
<g style="fill:#840000; fill-opacity:0.0; 
stroke:#840000; stroke-width:60; stroke-opacity:1; 
stroke-linecap:round; stroke-linejoin:round;">
<path d="M32030 53770
L32030 53180
" />
<path d="M32370 53770
L32110 53430
" />
<path d="M32370 53180
L32030 53520
" />
<path d="M32620 53770
L32620 53380
" />
<path d="M32620 53180
L32590 53210
L32620 53240
L32650 53210
L32620 53180
L32620 53240
" />
<path d="M33240 53720
L33210 53740
L33130 53770
L33070 53770
L32980 53740
L32930 53690
L32900 53630
L32870 53520
L32870 53430
L32900 53320
L32930 53270
L32980 53210
L33070 53180
L33130 53180
L33210 53210
L33240 53240
" />
<path d="M33740 53770
L33740 53460
L33720 53410
L33660 53380
L33550 53380
L33490 53410
" />
<path d="M33740 53740
L33690 53770
L33550 53770
L33490 53740
L33460 53690
L33460 53630
L33490 53580
L33550 53550
L33690 53550
L33740 53520
" />
<path d="M34270 53770
L34270 53180
" />
<path d="M34270 53740
L34220 53770
L34100 53770
L34050 53740
L34020 53720
L33990 53660
L33990 53490
L34020 53430
L34050 53410
L34100 53380
L34220 53380
L34270 53410
" />
<path d="M35000 53460
L35200 53460
" />
<path d="M35280 53770
L35000 53770
L35000 53180
L35280 53180
" />
<path d="M35530 53720
L35560 53740
L35530 53770
L35500 53740
L35530 53720
L35530 53770
" />
<path d="M35810 53770
L35810 53180
L35950 53180
L36040 53210
L36090 53270
L36120 53320
L36150 53430
L36150 53520
L36120 53630
L36090 53690
L36040 53740
L35950 53770
L35810 53770
" />
<path d="M36400 53720
L36430 53740
L36400 53770
L36370 53740
L36400 53720
L36400 53770
" />
<path d="M36650 53600
L36930 53600
" />
<path d="M36600 53770
L36790 53180
L36990 53770
" />
<path d="M37190 53720
L37220 53740
L37190 53770
L37160 53740
L37190 53720
L37190 53770
" />
<path d="M38370 53770
L38370 53180
" />
<path d="M38430 53550
L38600 53770
" />
<path d="M38600 53380
L38370 53600
" />
<path d="M38850 53770
L38850 53380
" />
<path d="M38850 53180
L38820 53210
L38850 53240
L38880 53210
L38850 53180
L38850 53240
" />
<path d="M39380 53740
L39330 53770
L39210 53770
L39160 53740
L39130 53720
L39100 53660
L39100 53490
L39130 53430
L39160 53410
L39210 53380
L39330 53380
L39380 53410
" />
<path d="M39890 53770
L39890 53460
L39870 53410
L39810 53380
L39700 53380
L39640 53410
" />
<path d="M39890 53740
L39840 53770
L39700 53770
L39640 53740
L39610 53690
L39610 53630
L39640 53580
L39700 53550
L39840 53550
L39890 53520
" />
<path d="M40420 53770
L40420 53180
" />
<path d="M40420 53740
L40370 53770
L40250 53770
L40200 53740
L40170 53720
L40140 53660
L40140 53490
L40170 53430
L40200 53410
L40250 53380
L40370 53380
L40420 53410
" />
<path d="M41400 53380
L41400 53770
" />
<path d="M41260 53150
L41120 53580
L41490 53580
" />
<path d="M41710 53720
L41740 53740
L41710 53770
L41680 53740
L41710 53720
L41710 53770
" />
<path d="M42100 53180
L42160 53180
L42220 53210
L42240 53240
L42270 53290
L42300 53410
L42300 53550
L42270 53660
L42240 53720
L42220 53740
L42160 53770
L42100 53770
L42050 53740
L42020 53720
L41990 53660
L41960 53550
L41960 53410
L41990 53290
L42020 53240
L42050 53210
L42100 53180
" />
<path d="M42550 53720
L42580 53740
L42550 53770
L42520 53740
L42550 53720
L42550 53770
" />
<path d="M43080 53180
L42970 53180
L42910 53210
L42890 53240
L42830 53320
L42800 53430
L42800 53660
L42830 53720
L42860 53740
L42910 53770
L43030 53770
L43080 53740
L43110 53720
L43140 53660
L43140 53520
L43110 53460
L43080 53430
L43030 53410
L42910 53410
L42860 53430
L42830 53460
L42800 53520
" />
<path d="M43390 53550
L43840 53550
" />
<path d="M43620 53770
L43620 53320
" />
<path d="M44370 53770
L44370 53180
" />
<path d="M44370 53740
L44320 53770
L44200 53770
L44150 53740
L44120 53720
L44090 53660
L44090 53490
L44120 53430
L44150 53410
L44200 53380
L44320 53380
L44370 53410
" />
<path d="M44570 53380
L44790 53380
" />
<path d="M44650 53770
L44650 53270
L44680 53210
L44730 53180
L44790 53180
" />
<path d="M44960 53740
L45020 53770
L45130 53770
L45190 53740
L45220 53690
L45220 53660
L45190 53600
L45130 53580
L45050 53580
L44990 53550
L44960 53490
L44960 53460
L44990 53410
L45050 53380
L45130 53380
L45190 53410
" />
<path d="M45720 53380
L45720 53860
L45700 53910
L45670 53940
L45610 53970
L45530 53970
L45470 53940
" />
<path d="M45720 53740
L45670 53770
L45550 53770
L45500 53740
L45470 53720
L45440 53660
L45440 53490
L45470 53430
L45500 53410
L45550 53380
L45670 53380
L45720 53410
" />
<path d="M46310 53770
L45970 53770
" />
<path d="M46140 53770
L46140 53180
L46080 53270
L46030 53320
L45970 53350
" />
<path d="M46560 53550
L47010 53550
" />
<path d="M47600 53770
L47260 53770
" />
<path d="M47430 53770
L47430 53180
L47370 53270
L47320 53320
L47260 53350
" />
</g>
<g style="fill:#840000; fill-opacity:0.0; 
stroke:#840000; stroke-width:100; stroke-opacity:1; 
stroke-linecap:round; stroke-linejoin:round;">
</g>
<g style="fill:#840000; fill-opacity:0.0; 
stroke:#840000; stroke-width:60; stroke-opacity:1; 
stroke-linecap:round; stroke-linejoin:round;">
<path d="M31500 51780
L74020 51780
" />
</g>
<g style="fill:#840000; fill-opacity:0.0; 
stroke:#840000; stroke-width:100; stroke-opacity:1; 
stroke-linecap:round; stroke-linejoin:round;">
</g>
<g style="fill:#840000; fill-opacity:0.0; 
stroke:#840000; stroke-width:120; stroke-opacity:1; 
stroke-linecap:round; stroke-linejoin:round;">
<path d="M65830 52670
L65630 52390
" />
<path d="M65490 52670
L65490 52080
L65720 52080
L65770 52110
L65800 52140
L65830 52190
L65830 52280
L65800 52330
L65770 52360
L65720 52390
L65490 52390
" />
<path d="M66310 52640
L66250 52670
L66140 52670
L66080 52640
L66050 52590
L66050 52360
L66080 52310
L66140 52280
L66250 52280
L66310 52310
L66330 52360
L66330 52420
L66050 52480
" />
<path d="M66530 52280
L66670 52670
L66820 52280
" />
<path d="M67040 52620
L67070 52640
L67040 52670
L67010 52640
L67040 52620
L67040 52670
" />
<path d="M67040 52310
L67070 52330
L67040 52360
L67010 52330
L67040 52310
L67040 52360
" />
</g>
<g style="fill:#840000; fill-opacity:0.0; 
stroke:#840000; stroke-width:100; stroke-opacity:1; 
stroke-linecap:round; stroke-linejoin:round;">
</g>
<g style="fill:#840000; fill-opacity:0.0; 
stroke:#840000; stroke-width:60; stroke-opacity:1; 
stroke-linecap:round; stroke-linejoin:round;">
<path d="M32000 52640
L32090 52670
L32230 52670
L32280 52640
L32310 52620
L32340 52560
L32340 52500
L32310 52450
L32280 52420
L32230 52390
L32110 52360
L32060 52330
L32030 52310
L32000 52250
L32000 52190
L32030 52140
L32060 52110
L32110 52080
L32260 52080
L32340 52110
" />
<path d="M32590 52670
L32590 52280
" />
<path d="M32590 52080
L32560 52110
L32590 52140
L32620 52110
L32590 52080
L32590 52140
" />
<path d="M32810 52280
L33120 52280
L32810 52670
L33120 52670
" />
<path d="M33580 52640
L33520 52670
L33410 52670
L33350 52640
L33320 52590
L33320 52360
L33350 52310
L33410 52280
L33520 52280
L33580 52310
L33600 52360
L33600 52420
L33320 52480
" />
<path d="M33860 52620
L33890 52640
L33860 52670
L33830 52640
L33860 52620
L33860 52670
" />
<path d="M33860 52310
L33890 52330
L33860 52360
L33830 52330
L33860 52310
L33860 52360
" />
<path d="M34590 52080
L34590 52560
L34620 52620
L34650 52640
L34700 52670
L34820 52670
L34870 52640
L34900 52620
L34930 52560
L34930 52080
" />
<path d="M35180 52640
L35240 52670
L35350 52670
L35410 52640
L35440 52590
L35440 52560
L35410 52500
L35350 52480
L35270 52480
L35210 52450
L35180 52390
L35180 52360
L35210 52310
L35270 52280
L35350 52280
L35410 52310
" />
<path d="M35920 52640
L35860 52670
L35750 52670
L35690 52640
L35660 52590
L35660 52360
L35690 52310
L35750 52280
L35860 52280
L35920 52310
L35940 52360
L35940 52420
L35660 52480
" />
<path d="M36200 52670
L36200 52280
" />
<path d="M36200 52390
L36230 52330
L36260 52310
L36310 52280
L36370 52280
" />
</g>
<g style="fill:#840000; fill-opacity:0.0; 
stroke:#840000; stroke-width:100; stroke-opacity:1; 
stroke-linecap:round; stroke-linejoin:round;">
</g>
<g style="fill:#840000; fill-opacity:0.0; 
stroke:#840000; stroke-width:60; stroke-opacity:1; 
stroke-linecap:round; stroke-linejoin:round;">
<path d="M65490 53770
L65490 53180
" />
<path d="M66020 53770
L66020 53180
" />
<path d="M66020 53740
L65970 53770
L65850 53770
L65800 53740
L65770 53720
L65740 53660
L65740 53490
L65770 53430
L65800 53410
L65850 53380
L65970 53380
L66020 53410
" />
<path d="M66300 53720
L66330 53740
L66300 53770
L66270 53740
L66300 53720
L66300 53770
" />
<path d="M66300 53410
L66330 53430
L66300 53460
L66270 53430
L66300 53410
L66300 53460
" />
<path d="M67340 53770
L67000 53770
" />
<path d="M67170 53770
L67170 53180
L67110 53270
L67060 53320
L67000 53350
" />
<path d="M68010 53150
L67510 53910
" />
<path d="M68520 53770
L68180 53770
" />
<path d="M68350 53770
L68350 53180
L68290 53270
L68240 53320
L68180 53350
" />
</g>
<g style="fill:#840000; fill-opacity:0.0; 
stroke:#840000; stroke-width:100; stroke-opacity:1; 
stroke-linecap:round; stroke-linejoin:round;">
</g>
<g style="fill:#840000; fill-opacity:0.0; 
stroke:#840000; stroke-width:60; stroke-opacity:1; 
stroke-linecap:round; stroke-linejoin:round;">
<path d="M31500 50200
L74020 50200
" />
</g>
<g style="fill:#840000; fill-opacity:0.0; 
stroke:#840000; stroke-width:100; stroke-opacity:1; 
stroke-linecap:round; stroke-linejoin:round;">
</g>
<g style="fill:#840000; fill-opacity:0.0; 
stroke:#840000; stroke-width:160; stroke-opacity:1; 
stroke-linecap:round; stroke-linejoin:round;">
<path d="M32070 50470
L32520 50470
" />
<path d="M32200 51260
L32290 50470
" />
<path d="M32690 51260
L32750 50740
" />
<path d="M32780 50470
L32740 50510
L32770 50550
L32820 50510
L32780 50470
L32770 50550
" />
<path d="M33020 50740
L33320 50740
" />
<path d="M33160 50470
L33080 51150
L33110 51220
L33180 51260
L33260 51260
" />
<path d="M33630 51260
L33560 51220
L33530 51150
L33610 50470
" />
<path d="M34230 51220
L34150 51260
L34000 51260
L33930 51220
L33900 51150
L33940 50850
L33990 50770
L34060 50740
L34210 50740
L34290 50770
L34320 50850
L34310 50920
L33920 51000
" />
<path d="M34610 51190
L34650 51220
L34610 51260
L34570 51220
L34610 51190
L34610 51260
" />
<path d="M34670 50770
L34700 50810
L34660 50850
L34620 50810
L34670 50770
L34660 50850
" />
</g>
<g style="fill:#840000; fill-opacity:0.0; 
stroke:#840000; stroke-width:100; stroke-opacity:1; 
stroke-linecap:round; stroke-linejoin:round;">
</g>
<g style="fill:#840000; fill-opacity:0.0; 
stroke:#840000; stroke-width:60; stroke-opacity:1; 
stroke-linecap:round; stroke-linejoin:round;">
<path d="M32230 49440
L32030 49440
" />
<path d="M32030 49750
L32030 49160
L32310 49160
" />
<path d="M32540 49750
L32540 49360
" />
<path d="M32540 49160
L32510 49190
L32540 49220
L32570 49190
L32540 49160
L32540 49220
" />
<path d="M32900 49750
L32850 49720
L32820 49670
L32820 49160
" />
<path d="M33360 49720
L33300 49750
L33190 49750
L33130 49720
L33100 49670
L33100 49440
L33130 49390
L33190 49360
L33300 49360
L33360 49390
L33380 49440
L33380 49500
L33100 49560
" />
<path d="M33640 49700
L33670 49720
L33640 49750
L33610 49720
L33640 49700
L33640 49750
" />
<path d="M33640 49390
L33670 49410
L33640 49440
L33610 49410
L33640 49390
L33640 49440
" />
<path d="M34620 49750
L34620 49440
L34600 49390
L34540 49360
L34430 49360
L34370 49390
" />
<path d="M34620 49720
L34570 49750
L34430 49750
L34370 49720
L34340 49670
L34340 49610
L34370 49560
L34430 49530
L34570 49530
L34620 49500
" />
<path d="M34900 49360
L34900 49750
" />
<path d="M34900 49410
L34930 49390
L34980 49360
L35070 49360
L35130 49390
L35150 49440
L35150 49750
" />
<path d="M35680 49750
L35680 49160
" />
<path d="M35680 49720
L35630 49750
L35510 49750
L35460 49720
L35430 49700
L35400 49640
L35400 49470
L35430 49410
L35460 49390
L35510 49360
L35630 49360
L35680 49390
" />
<path d="M36190 49720
L36130 49750
L36020 49750
L35960 49720
L35930 49670
L35930 49440
L35960 49390
L36020 49360
L36130 49360
L36190 49390
L36210 49440
L36210 49500
L35930 49560
" />
<path d="M36470 49750
L36470 49360
" />
<path d="M36470 49470
L36500 49410
L36530 49390
L36580 49360
L36640 49360
" />
<path d="M36810 49720
L36870 49750
L36980 49750
L37040 49720
L37070 49670
L37070 49640
L37040 49580
L36980 49560
L36900 49560
L36840 49530
L36810 49470
L36810 49440
L36840 49390
L36900 49360
L36980 49360
L37040 49390
" />
<path d="M37400 49750
L37350 49720
L37320 49700
L37290 49640
L37290 49470
L37320 49410
L37350 49390
L37400 49360
L37490 49360
L37550 49390
L37570 49410
L37600 49470
L37600 49640
L37570 49700
L37550 49720
L37490 49750
L37400 49750
" />
<path d="M37850 49360
L37850 49750
" />
<path d="M37850 49410
L37880 49390
L37930 49360
L38020 49360
L38080 49390
L38100 49440
L38100 49750
" />
<path d="M38240 49810
L38690 49810
" />
<path d="M39080 49750
L39080 49160
" />
<path d="M39080 49720
L39030 49750
L38910 49750
L38860 49720
L38830 49700
L38800 49640
L38800 49470
L38830 49410
L38860 49390
L38910 49360
L39030 49360
L39080 49390
" />
<path d="M39360 49750
L39360 49360
" />
<path d="M39360 49160
L39330 49190
L39360 49220
L39390 49190
L39360 49160
L39360 49220
" />
<path d="M39610 49720
L39670 49750
L39780 49750
L39840 49720
L39870 49670
L39870 49640
L39840 49580
L39780 49560
L39700 49560
L39640 49530
L39610 49470
L39610 49440
L39640 49390
L39700 49360
L39780 49360
L39840 49390
" />
<path d="M40040 49360
L40260 49360
" />
<path d="M40120 49160
L40120 49670
L40150 49720
L40200 49750
L40260 49750
" />
<path d="M40460 49750
L40460 49360
" />
<path d="M40460 49470
L40490 49410
L40520 49390
L40570 49360
L40630 49360
" />
<path d="M40830 49750
L40830 49360
" />
<path d="M40830 49160
L40800 49190
L40830 49220
L40860 49190
L40830 49160
L40830 49220
" />
<path d="M41110 49750
L41110 49160
" />
<path d="M41110 49390
L41170 49360
L41280 49360
L41340 49390
L41360 49410
L41390 49470
L41390 49640
L41360 49700
L41340 49720
L41280 49750
L41170 49750
L41110 49720
" />
<path d="M41890 49360
L41890 49750
" />
<path d="M41640 49360
L41640 49670
L41670 49720
L41720 49750
L41810 49750
L41870 49720
L41890 49700
" />
<path d="M42090 49360
L42310 49360
" />
<path d="M42170 49160
L42170 49670
L42200 49720
L42250 49750
L42310 49750
" />
<path d="M42510 49750
L42510 49360
" />
<path d="M42510 49160
L42480 49190
L42510 49220
L42540 49190
L42510 49160
L42510 49220
" />
<path d="M42870 49750
L42820 49720
L42790 49700
L42760 49640
L42760 49470
L42790 49410
L42820 49390
L42870 49360
L42960 49360
L43020 49390
L43040 49410
L43070 49470
L43070 49640
L43040 49700
L43020 49720
L42960 49750
L42870 49750
" />
<path d="M43320 49360
L43320 49750
" />
<path d="M43320 49410
L43350 49390
L43400 49360
L43490 49360
L43550 49390
L43570 49440
L43570 49750
" />
<path d="M43710 49810
L44160 49810
" />
<path d="M44300 49750
L44300 49160
" />
<path d="M44300 49390
L44360 49360
L44470 49360
L44530 49390
L44550 49410
L44580 49470
L44580 49640
L44550 49700
L44530 49720
L44470 49750
L44360 49750
L44300 49720
" />
<path d="M44910 49750
L44860 49720
L44830 49700
L44800 49640
L44800 49470
L44830 49410
L44860 49390
L44910 49360
L45000 49360
L45060 49390
L45080 49410
L45110 49470
L45110 49640
L45080 49700
L45060 49720
L45000 49750
L44910 49750
" />
<path d="M45610 49750
L45610 49440
L45590 49390
L45530 49360
L45420 49360
L45360 49390
" />
<path d="M45610 49720
L45560 49750
L45420 49750
L45360 49720
L45330 49670
L45330 49610
L45360 49560
L45420 49530
L45560 49530
L45610 49500
" />
<path d="M45890 49750
L45890 49360
" />
<path d="M45890 49470
L45920 49410
L45950 49390
L46000 49360
L46060 49360
" />
<path d="M46510 49750
L46510 49160
" />
<path d="M46510 49720
L46460 49750
L46340 49750
L46290 49720
L46260 49700
L46230 49640
L46230 49470
L46260 49410
L46290 49390
L46340 49360
L46460 49360
L46510 49390
" />
<path d="M46790 49700
L46820 49720
L46790 49750
L46760 49720
L46790 49700
L46790 49750
" />
<path d="M47040 49720
L47100 49750
L47210 49750
L47270 49720
L47300 49670
L47300 49640
L47270 49580
L47210 49560
L47130 49560
L47070 49530
L47040 49470
L47040 49440
L47070 49390
L47130 49360
L47210 49360
L47270 49390
" />
<path d="M47800 49720
L47750 49750
L47630 49750
L47580 49720
L47550 49700
L47520 49640
L47520 49470
L47550 49410
L47580 49390
L47630 49360
L47750 49360
L47800 49390
" />
<path d="M48060 49750
L48060 49160
" />
<path d="M48310 49750
L48310 49440
L48290 49390
L48230 49360
L48140 49360
L48090 49390
L48060 49410
" />
</g>
<g style="fill:#840000; fill-opacity:0.0; 
stroke:#840000; stroke-width:100; stroke-opacity:1; 
stroke-linecap:round; stroke-linejoin:round;">
</g>
<g style="fill:#840000; fill-opacity:0.0; 
stroke:#840000; stroke-width:60; stroke-opacity:1; 
stroke-linecap:round; stroke-linejoin:round;">
<path d="M31500 47840
L74020 47840
" />
</g>
<g style="fill:#840000; fill-opacity:0.0; 
stroke:#840000; stroke-width:100; stroke-opacity:1; 
stroke-linecap:round; stroke-linejoin:round;">
</g>
<g style="fill:#840000; fill-opacity:0.0; 
stroke:#840000; stroke-width:60; stroke-opacity:1; 
stroke-linecap:round; stroke-linejoin:round;">
<path d="M32000 48660
L32090 48690
L32230 48690
L32280 48660
L32310 48640
L32340 48580
L32340 48520
L32310 48470
L32280 48440
L32230 48410
L32110 48380
L32060 48350
L32030 48330
L32000 48270
L32000 48210
L32030 48160
L32060 48130
L32110 48100
L32260 48100
L32340 48130
" />
<path d="M32590 48690
L32590 48100
" />
<path d="M32840 48690
L32840 48380
L32820 48330
L32760 48300
L32670 48300
L32620 48330
L32590 48350
" />
<path d="M33350 48660
L33290 48690
L33180 48690
L33120 48660
L33090 48610
L33090 48380
L33120 48330
L33180 48300
L33290 48300
L33350 48330
L33370 48380
L33370 48440
L33090 48500
" />
<path d="M33860 48660
L33800 48690
L33690 48690
L33630 48660
L33600 48610
L33600 48380
L33630 48330
L33690 48300
L33800 48300
L33860 48330
L33880 48380
L33880 48440
L33600 48500
" />
<path d="M34060 48300
L34280 48300
" />
<path d="M34140 48100
L34140 48610
L34170 48660
L34220 48690
L34280 48690
" />
<path d="M34480 48640
L34510 48660
L34480 48690
L34450 48660
L34480 48640
L34480 48690
" />
<path d="M34480 48330
L34510 48350
L34480 48380
L34450 48350
L34480 48330
L34480 48380
" />
<path d="M35630 48070
L35130 48830
" />
</g>
<g style="fill:#840000; fill-opacity:0.0; 
stroke:#840000; stroke-width:100; stroke-opacity:1; 
stroke-linecap:round; stroke-linejoin:round;">
</g>
<g style="fill:#840000; fill-opacity:0.0; 
stroke:#840000; stroke-width:60; stroke-opacity:1; 
stroke-linecap:round; stroke-linejoin:round;">
<path d="M39370 51780
L39370 52960
" />
</g>
<g style="fill:#840000; fill-opacity:0.0; 
stroke:#840000; stroke-width:100; stroke-opacity:1; 
stroke-linecap:round; stroke-linejoin:round;">
</g>
<g style="fill:#840000; fill-opacity:0.0; 
stroke:#840000; stroke-width:60; stroke-opacity:1; 
stroke-linecap:round; stroke-linejoin:round;">
<path d="M64570 51780
L64570 54340
" />
</g>
<g style="fill:#840000; fill-opacity:0.0; 
stroke:#840000; stroke-width:0; stroke-opacity:1; 
stroke-linecap:round; stroke-linejoin:round;">
</g>
<g style="fill:#840000; fill-opacity:0.0; 
stroke:#840000; stroke-width:60; stroke-opacity:1; 
stroke-linecap:round; stroke-linejoin:round;">
<rect x="14000" y="15500" width="3000" height="2000" rx="0" />
<path d="M17000 17000
L19000 17000
" />
<path d="M18140 16880
L17860 16880
" />
<path d="M18000 16880
L18000 16380
L17950 16450
L17900 16500
L17860 16520
" />
<path d="M17000 16000
L19000 16000
" />
<path d="M17860 15420
L17880 15400
L17930 15380
L18050 15380
L18090 15400
L18120 15420
L18140 15470
L18140 15520
L18120 15590
L17830 15880
L18140 15880
" />
</g>
<g style="fill:#008484; fill-opacity:0.0; 
stroke:#008484; stroke-width:60; stroke-opacity:1; 
stroke-linecap:round; stroke-linejoin:round;">
<path d="M15290 14630
L15290 15060
L15270 15150
L15210 15200
L15120 15230
L15070 15230
" />
<path d="M15900 15230
L15550 15230
" />
<path d="M15730 15230
L15730 14630
L15670 14720
L15610 14770
L15550 14800
" />
<path d="M10470 18060
L10760 18060
" />
<path d="M10420 18230
L10620 17630
L10820 18230
" />
<path d="M11010 17830
L11010 18230
" />
<path d="M11010 17890
L11040 17860
L11100 17830
L11180 17830
L11240 17860
L11270 17920
L11270 18230
" />
<path d="M11810 18230
L11810 17630
" />
<path d="M11810 18200
L11750 18230
L11640 18230
L11580 18200
L11550 18170
L11520 18120
L11520 17950
L11550 17890
L11580 17860
L11640 17830
L11750 17830
L11810 17860
" />
<path d="M12320 18200
L12260 18230
L12150 18230
L12090 18200
L12060 18150
L12060 17920
L12090 17860
L12150 17830
L12260 17830
L12320 17860
L12350 17920
L12350 17970
L12060 18030
" />
<path d="M12600 18230
L12600 17830
" />
<path d="M12600 17950
L12630 17890
L12660 17860
L12720 17830
L12770 17830
" />
<path d="M12940 18200
L13000 18230
L13120 18230
L13170 18200
L13200 18150
L13200 18120
L13170 18060
L13120 18030
L13030 18030
L12970 18000
L12940 17950
L12940 17920
L12970 17860
L13030 17830
L13120 17830
L13170 17860
" />
<path d="M13550 18230
L13490 18200
L13460 18170
L13430 18120
L13430 17950
L13460 17890
L13490 17860
L13550 17830
L13630 17830
L13690 17860
L13720 17890
L13750 17950
L13750 18120
L13720 18170
L13690 18200
L13630 18230
L13550 18230
" />
<path d="M14000 17830
L14000 18230
" />
<path d="M14000 17890
L14030 17860
L14090 17830
L14170 17830
L14230 17860
L14260 17920
L14260 18230
" />
<path d="M14400 18290
L14860 18290
" />
<path d="M14920 17830
L15150 17830
" />
<path d="M15000 17630
L15000 18150
L15030 18200
L15090 18230
L15150 18230
" />
<path d="M15290 17830
L15400 18230
L15510 17950
L15630 18230
L15740 17830
" />
<path d="M16060 18230
L16000 18200
L15970 18170
L15940 18120
L15940 17950
L15970 17890
L16000 17860
L16060 17830
L16140 17830
L16200 17860
L16230 17890
L16260 17950
L16260 18120
L16230 18170
L16200 18200
L16140 18230
L16060 18230
" />
<path d="M16370 18290
L16830 18290
" />
<path d="M16970 18230
L16970 17830
" />
<path d="M16970 17950
L17000 17890
L17030 17860
L17090 17830
L17140 17830
" />
<path d="M17570 18200
L17510 18230
L17400 18230
L17340 18200
L17310 18150
L17310 17920
L17340 17860
L17400 17830
L17510 17830
L17570 17860
L17600 17920
L17600 17970
L17310 18030
" />
<path d="M18110 18230
L18110 17630
" />
<path d="M18110 18200
L18050 18230
L17940 18230
L17880 18200
L17850 18170
L17820 18120
L17820 17950
L17850 17890
L17880 17860
L17940 17830
L18050 17830
L18110 17860
" />
<path d="M18390 18230
L18390 17630
" />
<path d="M18390 17860
L18450 17830
L18560 17830
L18620 17860
L18650 17890
L18680 17950
L18680 18120
L18650 18170
L18620 18200
L18560 18230
L18450 18230
L18390 18200
" />
<path d="M19020 18230
L18960 18200
L18930 18150
L18930 17630
" />
<path d="M19500 18230
L19500 17920
L19470 17860
L19410 17830
L19300 17830
L19240 17860
" />
<path d="M19500 18200
L19440 18230
L19300 18230
L19240 18200
L19210 18150
L19210 18090
L19240 18030
L19300 18000
L19440 18000
L19500 17970
" />
<path d="M20040 18200
L19980 18230
L19870 18230
L19810 18200
L19780 18170
L19750 18120
L19750 17950
L19780 17890
L19810 17860
L19870 17830
L19980 17830
L20040 17860
" />
<path d="M20290 18230
L20290 17630
" />
<path d="M20350 18000
L20520 18230
" />
<path d="M20520 17830
L20290 18060
" />
</g>
<g style="fill:#008484; fill-opacity:0.0; 
stroke:#008484; stroke-width:0; stroke-opacity:1; 
stroke-linecap:round; stroke-linejoin:round;">
</g>
<g style="fill:#840000; fill-opacity:0.0; 
stroke:#840000; stroke-width:0; stroke-opacity:1; 
stroke-linecap:round; stroke-linejoin:round;">
</g>
<g style="fill:#840000; fill-opacity:0.0; 
stroke:#840000; stroke-width:60; stroke-opacity:1; 
stroke-linecap:round; stroke-linejoin:round;">
<rect x="26500" y="16500" width="3000" height="2000" rx="0" />
<path d="M26500 17000
L24500 17000
" />
<path d="M25640 16880
L25360 16880
" />
<path d="M25500 16880
L25500 16380
L25450 16450
L25400 16500
L25360 16520
" />
<path d="M26500 18000
L24500 18000
" />
<path d="M25360 17420
L25380 17400
L25430 17380
L25550 17380
L25590 17400
L25620 17420
L25640 17470
L25640 17520
L25620 17590
L25330 17880
L25640 17880
" />
</g>
<g style="fill:#008484; fill-opacity:0.0; 
stroke:#008484; stroke-width:60; stroke-opacity:1; 
stroke-linecap:round; stroke-linejoin:round;">
<path d="M27800 18710
L27800 19140
L27780 19230
L27720 19280
L27630 19310
L27580 19310
" />
<path d="M28060 18770
L28090 18740
L28150 18710
L28290 18710
L28350 18740
L28380 18770
L28410 18830
L28410 18880
L28380 18970
L28040 19310
L28410 19310
" />
<path d="M22970 16140
L23260 16140
" />
<path d="M22920 16310
L23120 15710
L23320 16310
" />
<path d="M23510 15910
L23510 16310
" />
<path d="M23510 15970
L23540 15940
L23600 15910
L23680 15910
L23740 15940
L23770 16000
L23770 16310
" />
<path d="M24310 16310
L24310 15710
" />
<path d="M24310 16280
L24250 16310
L24140 16310
L24080 16280
L24050 16250
L24020 16200
L24020 16030
L24050 15970
L24080 15940
L24140 15910
L24250 15910
L24310 15940
" />
<path d="M24820 16280
L24760 16310
L24650 16310
L24590 16280
L24560 16230
L24560 16000
L24590 15940
L24650 15910
L24760 15910
L24820 15940
L24850 16000
L24850 16050
L24560 16110
" />
<path d="M25100 16310
L25100 15910
" />
<path d="M25100 16030
L25130 15970
L25160 15940
L25220 15910
L25270 15910
" />
<path d="M25440 16280
L25500 16310
L25620 16310
L25670 16280
L25700 16230
L25700 16200
L25670 16140
L25620 16110
L25530 16110
L25470 16080
L25440 16030
L25440 16000
L25470 15940
L25530 15910
L25620 15910
L25670 15940
" />
<path d="M26050 16310
L25990 16280
L25960 16250
L25930 16200
L25930 16030
L25960 15970
L25990 15940
L26050 15910
L26130 15910
L26190 15940
L26220 15970
L26250 16030
L26250 16200
L26220 16250
L26190 16280
L26130 16310
L26050 16310
" />
<path d="M26500 15910
L26500 16310
" />
<path d="M26500 15970
L26530 15940
L26590 15910
L26670 15910
L26730 15940
L26760 16000
L26760 16310
" />
<path d="M26900 16370
L27360 16370
" />
<path d="M27420 15910
L27650 15910
" />
<path d="M27500 15710
L27500 16230
L27530 16280
L27590 16310
L27650 16310
" />
<path d="M27790 15910
L27900 16310
L28010 16030
L28130 16310
L28240 15910
" />
<path d="M28560 16310
L28500 16280
L28470 16250
L28440 16200
L28440 16030
L28470 15970
L28500 15940
L28560 15910
L28640 15910
L28700 15940
L28730 15970
L28760 16030
L28760 16200
L28730 16250
L28700 16280
L28640 16310
L28560 16310
" />
<path d="M28870 16370
L29330 16370
" />
<path d="M29470 16310
L29470 15910
" />
<path d="M29470 16030
L29500 15970
L29530 15940
L29590 15910
L29640 15910
" />
<path d="M30070 16280
L30010 16310
L29900 16310
L29840 16280
L29810 16230
L29810 16000
L29840 15940
L29900 15910
L30010 15910
L30070 15940
L30100 16000
L30100 16050
L29810 16110
" />
<path d="M30610 16310
L30610 15710
" />
<path d="M30610 16280
L30550 16310
L30440 16310
L30380 16280
L30350 16250
L30320 16200
L30320 16030
L30350 15970
L30380 15940
L30440 15910
L30550 15910
L30610 15940
" />
<path d="M30890 16310
L30890 15710
" />
<path d="M30890 15940
L30950 15910
L31060 15910
L31120 15940
L31150 15970
L31180 16030
L31180 16200
L31150 16250
L31120 16280
L31060 16310
L30950 16310
L30890 16280
" />
<path d="M31520 16310
L31460 16280
L31430 16230
L31430 15710
" />
<path d="M32000 16310
L32000 16000
L31970 15940
L31910 15910
L31800 15910
L31740 15940
" />
<path d="M32000 16280
L31940 16310
L31800 16310
L31740 16280
L31710 16230
L31710 16170
L31740 16110
L31800 16080
L31940 16080
L32000 16050
" />
<path d="M32540 16280
L32480 16310
L32370 16310
L32310 16280
L32280 16250
L32250 16200
L32250 16030
L32280 15970
L32310 15940
L32370 15910
L32480 15910
L32540 15940
" />
<path d="M32790 16310
L32790 15710
" />
<path d="M32850 16080
L33020 16310
" />
<path d="M33020 15910
L32790 16140
" />
</g>
<g style="fill:#008484; fill-opacity:0.0; 
stroke:#008484; stroke-width:0; stroke-opacity:1; 
stroke-linecap:round; stroke-linejoin:round;">
</g>
<g style="fill:#840000; fill-opacity:0.0; 
stroke:#840000; stroke-width:0; stroke-opacity:1; 
stroke-linecap:round; stroke-linejoin:round;">
</g>
<g style="fill:#840000; fill-opacity:0.0; 
stroke:#840000; stroke-width:60; stroke-opacity:1; 
stroke-linecap:round; stroke-linejoin:round;">
<rect x="26500" y="21000" width="3000" height="2000" rx="0" />
<path d="M26500 21500
L24500 21500
" />
<path d="M25640 21380
L25360 21380
" />
<path d="M25500 21380
L25500 20880
L25450 20950
L25400 21000
L25360 21020
" />
<path d="M26500 22500
L24500 22500
" />
<path d="M25360 21920
L25380 21900
L25430 21880
L25550 21880
L25590 21900
L25620 21920
L25640 21970
L25640 22020
L25620 22090
L25330 22380
L25640 22380
" />
</g>
<g style="fill:#008484; fill-opacity:0.0; 
stroke:#008484; stroke-width:60; stroke-opacity:1; 
stroke-linecap:round; stroke-linejoin:round;">
<path d="M27800 23210
L27800 23640
L27780 23730
L27720 23780
L27630 23810
L27580 23810
" />
<path d="M28040 23210
L28410 23210
L28210 23440
L28290 23440
L28350 23470
L28380 23500
L28410 23550
L28410 23700
L28380 23750
L28350 23780
L28290 23810
L28120 23810
L28060 23780
L28040 23750
" />
<path d="M22970 20640
L23260 20640
" />
<path d="M22920 20810
L23120 20210
L23320 20810
" />
<path d="M23510 20410
L23510 20810
" />
<path d="M23510 20470
L23540 20440
L23600 20410
L23680 20410
L23740 20440
L23770 20500
L23770 20810
" />
<path d="M24310 20810
L24310 20210
" />
<path d="M24310 20780
L24250 20810
L24140 20810
L24080 20780
L24050 20750
L24020 20700
L24020 20530
L24050 20470
L24080 20440
L24140 20410
L24250 20410
L24310 20440
" />
<path d="M24820 20780
L24760 20810
L24650 20810
L24590 20780
L24560 20730
L24560 20500
L24590 20440
L24650 20410
L24760 20410
L24820 20440
L24850 20500
L24850 20550
L24560 20610
" />
<path d="M25100 20810
L25100 20410
" />
<path d="M25100 20530
L25130 20470
L25160 20440
L25220 20410
L25270 20410
" />
<path d="M25440 20780
L25500 20810
L25620 20810
L25670 20780
L25700 20730
L25700 20700
L25670 20640
L25620 20610
L25530 20610
L25470 20580
L25440 20530
L25440 20500
L25470 20440
L25530 20410
L25620 20410
L25670 20440
" />
<path d="M26050 20810
L25990 20780
L25960 20750
L25930 20700
L25930 20530
L25960 20470
L25990 20440
L26050 20410
L26130 20410
L26190 20440
L26220 20470
L26250 20530
L26250 20700
L26220 20750
L26190 20780
L26130 20810
L26050 20810
" />
<path d="M26500 20410
L26500 20810
" />
<path d="M26500 20470
L26530 20440
L26590 20410
L26670 20410
L26730 20440
L26760 20500
L26760 20810
" />
<path d="M26900 20870
L27360 20870
" />
<path d="M27420 20410
L27650 20410
" />
<path d="M27500 20210
L27500 20730
L27530 20780
L27590 20810
L27650 20810
" />
<path d="M27790 20410
L27900 20810
L28010 20530
L28130 20810
L28240 20410
" />
<path d="M28560 20810
L28500 20780
L28470 20750
L28440 20700
L28440 20530
L28470 20470
L28500 20440
L28560 20410
L28640 20410
L28700 20440
L28730 20470
L28760 20530
L28760 20700
L28730 20750
L28700 20780
L28640 20810
L28560 20810
" />
<path d="M28870 20870
L29330 20870
" />
<path d="M29470 20810
L29470 20410
" />
<path d="M29470 20530
L29500 20470
L29530 20440
L29590 20410
L29640 20410
" />
<path d="M30070 20780
L30010 20810
L29900 20810
L29840 20780
L29810 20730
L29810 20500
L29840 20440
L29900 20410
L30010 20410
L30070 20440
L30100 20500
L30100 20550
L29810 20610
" />
<path d="M30610 20810
L30610 20210
" />
<path d="M30610 20780
L30550 20810
L30440 20810
L30380 20780
L30350 20750
L30320 20700
L30320 20530
L30350 20470
L30380 20440
L30440 20410
L30550 20410
L30610 20440
" />
<path d="M30890 20810
L30890 20210
" />
<path d="M30890 20440
L30950 20410
L31060 20410
L31120 20440
L31150 20470
L31180 20530
L31180 20700
L31150 20750
L31120 20780
L31060 20810
L30950 20810
L30890 20780
" />
<path d="M31520 20810
L31460 20780
L31430 20730
L31430 20210
" />
<path d="M32000 20810
L32000 20500
L31970 20440
L31910 20410
L31800 20410
L31740 20440
" />
<path d="M32000 20780
L31940 20810
L31800 20810
L31740 20780
L31710 20730
L31710 20670
L31740 20610
L31800 20580
L31940 20580
L32000 20550
" />
<path d="M32540 20780
L32480 20810
L32370 20810
L32310 20780
L32280 20750
L32250 20700
L32250 20530
L32280 20470
L32310 20440
L32370 20410
L32480 20410
L32540 20440
" />
<path d="M32790 20810
L32790 20210
" />
<path d="M32850 20580
L33020 20810
" />
<path d="M33020 20410
L32790 20640
" />
</g>
<g style="fill:#008484; fill-opacity:0.0; 
stroke:#008484; stroke-width:0; stroke-opacity:1; 
stroke-linecap:round; stroke-linejoin:round;">
</g>
<g style="fill:#840000; fill-opacity:0.0; 
stroke:#840000; stroke-width:0; stroke-opacity:1; 
stroke-linecap:round; stroke-linejoin:round;">
</g>
<g style="fill:#840000; fill-opacity:0.0; 
stroke:#840000; stroke-width:60; stroke-opacity:1; 
stroke-linecap:round; stroke-linejoin:round;">
<rect x="26500" y="29000" width="3000" height="2000" rx="0" />
<path d="M26500 29500
L24500 29500
" />
<path d="M25640 29380
L25360 29380
" />
<path d="M25500 29380
L25500 28880
L25450 28950
L25400 29000
L25360 29020
" />
<path d="M26500 30500
L24500 30500
" />
<path d="M25360 29920
L25380 29900
L25430 29880
L25550 29880
L25590 29900
L25620 29920
L25640 29970
L25640 30020
L25620 30090
L25330 30380
L25640 30380
" />
</g>
<g style="fill:#008484; fill-opacity:0.0; 
stroke:#008484; stroke-width:60; stroke-opacity:1; 
stroke-linecap:round; stroke-linejoin:round;">
<path d="M27800 31210
L27800 31640
L27780 31730
L27720 31780
L27630 31810
L27580 31810
" />
<path d="M28380 31210
L28090 31210
L28060 31500
L28090 31470
L28150 31440
L28290 31440
L28350 31470
L28380 31500
L28410 31550
L28410 31700
L28380 31750
L28350 31780
L28290 31810
L28150 31810
L28090 31780
L28060 31750
" />
<path d="M22970 28640
L23260 28640
" />
<path d="M22920 28810
L23120 28210
L23320 28810
" />
<path d="M23510 28410
L23510 28810
" />
<path d="M23510 28470
L23540 28440
L23600 28410
L23680 28410
L23740 28440
L23770 28500
L23770 28810
" />
<path d="M24310 28810
L24310 28210
" />
<path d="M24310 28780
L24250 28810
L24140 28810
L24080 28780
L24050 28750
L24020 28700
L24020 28530
L24050 28470
L24080 28440
L24140 28410
L24250 28410
L24310 28440
" />
<path d="M24820 28780
L24760 28810
L24650 28810
L24590 28780
L24560 28730
L24560 28500
L24590 28440
L24650 28410
L24760 28410
L24820 28440
L24850 28500
L24850 28550
L24560 28610
" />
<path d="M25100 28810
L25100 28410
" />
<path d="M25100 28530
L25130 28470
L25160 28440
L25220 28410
L25270 28410
" />
<path d="M25440 28780
L25500 28810
L25620 28810
L25670 28780
L25700 28730
L25700 28700
L25670 28640
L25620 28610
L25530 28610
L25470 28580
L25440 28530
L25440 28500
L25470 28440
L25530 28410
L25620 28410
L25670 28440
" />
<path d="M26050 28810
L25990 28780
L25960 28750
L25930 28700
L25930 28530
L25960 28470
L25990 28440
L26050 28410
L26130 28410
L26190 28440
L26220 28470
L26250 28530
L26250 28700
L26220 28750
L26190 28780
L26130 28810
L26050 28810
" />
<path d="M26500 28410
L26500 28810
" />
<path d="M26500 28470
L26530 28440
L26590 28410
L26670 28410
L26730 28440
L26760 28500
L26760 28810
" />
<path d="M26900 28870
L27360 28870
" />
<path d="M27420 28410
L27650 28410
" />
<path d="M27500 28210
L27500 28730
L27530 28780
L27590 28810
L27650 28810
" />
<path d="M27790 28410
L27900 28810
L28010 28530
L28130 28810
L28240 28410
" />
<path d="M28560 28810
L28500 28780
L28470 28750
L28440 28700
L28440 28530
L28470 28470
L28500 28440
L28560 28410
L28640 28410
L28700 28440
L28730 28470
L28760 28530
L28760 28700
L28730 28750
L28700 28780
L28640 28810
L28560 28810
" />
<path d="M28870 28870
L29330 28870
" />
<path d="M29470 28810
L29470 28410
" />
<path d="M29470 28530
L29500 28470
L29530 28440
L29590 28410
L29640 28410
" />
<path d="M30070 28780
L30010 28810
L29900 28810
L29840 28780
L29810 28730
L29810 28500
L29840 28440
L29900 28410
L30010 28410
L30070 28440
L30100 28500
L30100 28550
L29810 28610
" />
<path d="M30610 28810
L30610 28210
" />
<path d="M30610 28780
L30550 28810
L30440 28810
L30380 28780
L30350 28750
L30320 28700
L30320 28530
L30350 28470
L30380 28440
L30440 28410
L30550 28410
L30610 28440
" />
<path d="M30890 28810
L30890 28210
" />
<path d="M30890 28440
L30950 28410
L31060 28410
L31120 28440
L31150 28470
L31180 28530
L31180 28700
L31150 28750
L31120 28780
L31060 28810
L30950 28810
L30890 28780
" />
<path d="M31520 28810
L31460 28780
L31430 28730
L31430 28210
" />
<path d="M32000 28810
L32000 28500
L31970 28440
L31910 28410
L31800 28410
L31740 28440
" />
<path d="M32000 28780
L31940 28810
L31800 28810
L31740 28780
L31710 28730
L31710 28670
L31740 28610
L31800 28580
L31940 28580
L32000 28550
" />
<path d="M32540 28780
L32480 28810
L32370 28810
L32310 28780
L32280 28750
L32250 28700
L32250 28530
L32280 28470
L32310 28440
L32370 28410
L32480 28410
L32540 28440
" />
<path d="M32790 28810
L32790 28210
" />
<path d="M32850 28580
L33020 28810
" />
<path d="M33020 28410
L32790 28640
" />
</g>
<g style="fill:#008400; fill-opacity:0.0; 
stroke:#008400; stroke-width:60; stroke-opacity:1; 
stroke-linecap:round; stroke-linejoin:round;">
<path d="M19000 16000
L21500 16000
" />
<path d="M21500 16000
L21500 30500
" />
<path d="M21500 30500
L24500 30500
" />
<path d="M24500 22500
L21500 22500
" />
</g>
<g style="fill:#008400; fill-opacity:0.0; 
stroke:#008400; stroke-width:0; stroke-opacity:1; 
stroke-linecap:round; stroke-linejoin:round;">
</g>
<g style="fill:#008400; fill-opacity:1.0; 
stroke:#008400; stroke-width:100; stroke-opacity:1; 
stroke-linecap:round; stroke-linejoin:round;">
<circle cx="21500" cy="22500" r="200" /> 
</g>
<g style="fill:#008400; fill-opacity:1.0; 
stroke:#008400; stroke-width:60; stroke-opacity:1; 
stroke-linecap:round; stroke-linejoin:round;">
</g>
<g style="fill:#008400; fill-opacity:0.0; 
stroke:#008400; stroke-width:60; stroke-opacity:1; 
stroke-linecap:round; stroke-linejoin:round;">
<path d="M24500 18000
L21500 18000
" />
</g>
<g style="fill:#008400; fill-opacity:0.0; 
stroke:#008400; stroke-width:0; stroke-opacity:1; 
stroke-linecap:round; stroke-linejoin:round;">
</g>
<g style="fill:#008400; fill-opacity:1.0; 
stroke:#008400; stroke-width:100; stroke-opacity:1; 
stroke-linecap:round; stroke-linejoin:round;">
<circle cx="21500" cy="18000" r="200" /> 
</g>
<g style="fill:#008400; fill-opacity:1.0; 
stroke:#008400; stroke-width:60; stroke-opacity:1; 
stroke-linecap:round; stroke-linejoin:round;">
</g>
<g style="fill:#008400; fill-opacity:0.0; 
stroke:#008400; stroke-width:60; stroke-opacity:1; 
stroke-linecap:round; stroke-linejoin:round;">
<path d="M19000 17000
L24500 17000
" />
<path d="M23000 17000
L23000 29500
" />
<path d="M23000 21500
L24500 21500
" />
</g>
<g style="fill:#008400; fill-opacity:0.0; 
stroke:#008400; stroke-width:0; stroke-opacity:1; 
stroke-linecap:round; stroke-linejoin:round;">
</g>
<g style="fill:#008400; fill-opacity:1.0; 
stroke:#008400; stroke-width:100; stroke-opacity:1; 
stroke-linecap:round; stroke-linejoin:round;">
<circle cx="23000" cy="17000" r="200" /> 
</g>
<g style="fill:#008400; fill-opacity:1.0; 
stroke:#008400; stroke-width:60; stroke-opacity:1; 
stroke-linecap:round; stroke-linejoin:round;">
</g>
<g style="fill:#008400; fill-opacity:0.0; 
stroke:#008400; stroke-width:60; stroke-opacity:1; 
stroke-linecap:round; stroke-linejoin:round;">
<path d="M23000 29500
L24500 29500
" />
</g>
<g style="fill:#008400; fill-opacity:0.0; 
stroke:#008400; stroke-width:0; stroke-opacity:1; 
stroke-linecap:round; stroke-linejoin:round;">
</g>
<g style="fill:#008400; fill-opacity:1.0; 
stroke:#008400; stroke-width:100; stroke-opacity:1; 
stroke-linecap:round; stroke-linejoin:round;">
<circle cx="23000" cy="21500" r="200" /> 
</g>
<g style="fill:#008400; fill-opacity:1.0; 
stroke:#008400; stroke-width:0; stroke-opacity:1; 
stroke-linecap:round; stroke-linejoin:round;">
</g>
<g style="fill:#840000; fill-opacity:1.0; 
stroke:#840000; stroke-width:0; stroke-opacity:1; 
stroke-linecap:round; stroke-linejoin:round;">
</g>
<g style="fill:#840000; fill-opacity:0.0; 
stroke:#840000; stroke-width:60; stroke-opacity:1; 
stroke-linecap:round; stroke-linejoin:round;">
<rect x="26500" y="25000" width="3000" height="2000" rx="0" />
<path d="M26500 25500
L24500 25500
" />
<path d="M25640 25380
L25360 25380
" />
<path d="M25500 25380
L25500 24880
L25450 24950
L25400 25000
L25360 25020
" />
<path d="M26500 26500
L24500 26500
" />
<path d="M25360 25920
L25380 25900
L25430 25880
L25550 25880
L25590 25900
L25620 25920
L25640 25970
L25640 26020
L25620 26090
L25330 26380
L25640 26380
" />
</g>
<g style="fill:#008484; fill-opacity:0.0; 
stroke:#008484; stroke-width:60; stroke-opacity:1; 
stroke-linecap:round; stroke-linejoin:round;">
<path d="M27800 27210
L27800 27640
L27780 27730
L27720 27780
L27630 27810
L27580 27810
" />
<path d="M28350 27410
L28350 27810
" />
<path d="M28210 27180
L28060 27610
L28440 27610
" />
<path d="M22970 24640
L23260 24640
" />
<path d="M22920 24810
L23120 24210
L23320 24810
" />
<path d="M23510 24410
L23510 24810
" />
<path d="M23510 24470
L23540 24440
L23600 24410
L23680 24410
L23740 24440
L23770 24500
L23770 24810
" />
<path d="M24310 24810
L24310 24210
" />
<path d="M24310 24780
L24250 24810
L24140 24810
L24080 24780
L24050 24750
L24020 24700
L24020 24530
L24050 24470
L24080 24440
L24140 24410
L24250 24410
L24310 24440
" />
<path d="M24820 24780
L24760 24810
L24650 24810
L24590 24780
L24560 24730
L24560 24500
L24590 24440
L24650 24410
L24760 24410
L24820 24440
L24850 24500
L24850 24550
L24560 24610
" />
<path d="M25100 24810
L25100 24410
" />
<path d="M25100 24530
L25130 24470
L25160 24440
L25220 24410
L25270 24410
" />
<path d="M25440 24780
L25500 24810
L25620 24810
L25670 24780
L25700 24730
L25700 24700
L25670 24640
L25620 24610
L25530 24610
L25470 24580
L25440 24530
L25440 24500
L25470 24440
L25530 24410
L25620 24410
L25670 24440
" />
<path d="M26050 24810
L25990 24780
L25960 24750
L25930 24700
L25930 24530
L25960 24470
L25990 24440
L26050 24410
L26130 24410
L26190 24440
L26220 24470
L26250 24530
L26250 24700
L26220 24750
L26190 24780
L26130 24810
L26050 24810
" />
<path d="M26500 24410
L26500 24810
" />
<path d="M26500 24470
L26530 24440
L26590 24410
L26670 24410
L26730 24440
L26760 24500
L26760 24810
" />
<path d="M26900 24870
L27360 24870
" />
<path d="M27420 24410
L27650 24410
" />
<path d="M27500 24210
L27500 24730
L27530 24780
L27590 24810
L27650 24810
" />
<path d="M27790 24410
L27900 24810
L28010 24530
L28130 24810
L28240 24410
" />
<path d="M28560 24810
L28500 24780
L28470 24750
L28440 24700
L28440 24530
L28470 24470
L28500 24440
L28560 24410
L28640 24410
L28700 24440
L28730 24470
L28760 24530
L28760 24700
L28730 24750
L28700 24780
L28640 24810
L28560 24810
" />
<path d="M28870 24870
L29330 24870
" />
<path d="M29470 24810
L29470 24410
" />
<path d="M29470 24530
L29500 24470
L29530 24440
L29590 24410
L29640 24410
" />
<path d="M30070 24780
L30010 24810
L29900 24810
L29840 24780
L29810 24730
L29810 24500
L29840 24440
L29900 24410
L30010 24410
L30070 24440
L30100 24500
L30100 24550
L29810 24610
" />
<path d="M30610 24810
L30610 24210
" />
<path d="M30610 24780
L30550 24810
L30440 24810
L30380 24780
L30350 24750
L30320 24700
L30320 24530
L30350 24470
L30380 24440
L30440 24410
L30550 24410
L30610 24440
" />
<path d="M30890 24810
L30890 24210
" />
<path d="M30890 24440
L30950 24410
L31060 24410
L31120 24440
L31150 24470
L31180 24530
L31180 24700
L31150 24750
L31120 24780
L31060 24810
L30950 24810
L30890 24780
" />
<path d="M31520 24810
L31460 24780
L31430 24730
L31430 24210
" />
<path d="M32000 24810
L32000 24500
L31970 24440
L31910 24410
L31800 24410
L31740 24440
" />
<path d="M32000 24780
L31940 24810
L31800 24810
L31740 24780
L31710 24730
L31710 24670
L31740 24610
L31800 24580
L31940 24580
L32000 24550
" />
<path d="M32540 24780
L32480 24810
L32370 24810
L32310 24780
L32280 24750
L32250 24700
L32250 24530
L32280 24470
L32310 24440
L32370 24410
L32480 24410
L32540 24440
" />
<path d="M32790 24810
L32790 24210
" />
<path d="M32850 24580
L33020 24810
" />
<path d="M33020 24410
L32790 24640
" />
</g>
<g style="fill:#008400; fill-opacity:0.0; 
stroke:#008400; stroke-width:60; stroke-opacity:1; 
stroke-linecap:round; stroke-linejoin:round;">
<path d="M23000 25500
L24500 25500
" />
<path d="M21500 26500
L24500 26500
" />
</g>
<g style="fill:#008400; fill-opacity:0.0; 
stroke:#008400; stroke-width:0; stroke-opacity:1; 
stroke-linecap:round; stroke-linejoin:round;">
</g>
<g style="fill:#008400; fill-opacity:1.0; 
stroke:#008400; stroke-width:100; stroke-opacity:1; 
stroke-linecap:round; stroke-linejoin:round;">
<circle cx="21500" cy="26500" r="200" /> 
</g>
<g style="fill:#008400; fill-opacity:1.0; 
stroke:#008400; stroke-width:0; stroke-opacity:1; 
stroke-linecap:round; stroke-linejoin:round;">
</g>
<g style="fill:#008400; fill-opacity:1.0; 
stroke:#008400; stroke-width:100; stroke-opacity:1; 
stroke-linecap:round; stroke-linejoin:round;">
<circle cx="23000" cy="25500" r="200" /> 
</g> 
</svg>
