<?xml version="1.0" standalone="no"?>
 <!DOCTYPE svg PUBLIC "-//W3C//DTD SVG 1.1//EN" 
 "http://www.w3.org/Graphics/SVG/1.1/DTD/svg11.dtd"> 
<svg xmlns="http://www.w3.org/2000/svg" version="1.1" 
    width="7.7343cm" height="2.21488cm" viewBox="0 0 30450 8720 ">
<title>SVG Picture created as anderson_distribution_board-brd.svg date 2018/06/14 22:42:29 </title>
  <desc>Picture generated by PCBNEW </desc>
<g style="fill:#000000; fill-opacity:1;stroke:#000000; stroke-opacity:1;
stroke-linecap:round; stroke-linejoin:round; "
 transform="translate(0 0) scale(1 1)">
</g>
<g style="fill:#000000; fill-opacity:0.0; 
stroke:#000000; stroke-width:-0.000393701; stroke-opacity:1; 
stroke-linecap:round; stroke-linejoin:round;">
</g>
<g style="fill:#840084; fill-opacity:0.0; 
stroke:#840084; stroke-width:-0.000393701; stroke-opacity:1; 
stroke-linecap:round; stroke-linejoin:round;">
</g>
<g style="fill:#840084; fill-opacity:0.0; 
stroke:#840084; stroke-width:275.591; stroke-opacity:1; 
stroke-linecap:round; stroke-linejoin:round;">
<path d="M22017 1716
L20967 2091
L22017 2466
" />
<path d="M20967 3891
L20967 2991
" />
<path d="M20967 3441
L22542 3441
L22317 3291
L22167 3141
L22092 2991
" />
<path d="M21117 4566
L21042 4641
L20967 4566
L21042 4491
L21117 4566
L20967 4566
" />
<path d="M22542 5616
L22542 5766
L22467 5916
L22392 5991
L22242 6066
L21942 6141
L21567 6141
L21267 6066
L21117 5991
L21042 5916
L20967 5766
L20967 5616
L21042 5466
L21117 5391
L21267 5316
L21567 5241
L21942 5241
L22242 5316
L22392 5391
L22467 5466
L22542 5616
" />
</g>
<g style="fill:#000000; fill-opacity:0.0; 
stroke:#000000; stroke-width:275.591; stroke-opacity:1; 
stroke-linecap:round; stroke-linejoin:round;">
</g>
<g style="fill:#840000; fill-opacity:0.0; 
stroke:#840000; stroke-width:275.591; stroke-opacity:1; 
stroke-linecap:round; stroke-linejoin:round;">
</g>
<g style="fill:#840000; fill-opacity:0.0; 
stroke:#840000; stroke-width:775.591; stroke-opacity:1; 
stroke-linecap:round; stroke-linejoin:round;">
<path d="M17546 6301
L17546 4742
" />
<path d="M17546 3190
L17546 1631
" />
</g>
<g style="fill:#840000; fill-opacity:1.0; 
stroke:#840000; stroke-width:0; stroke-opacity:1; 
stroke-linecap:round; stroke-linejoin:round;">
<circle cx="24727.6" cy="6875.98" r="374.016" /> 
</g>
<g style="fill:#840000; fill-opacity:1.0; 
stroke:#840000; stroke-width:39.3701; stroke-opacity:1; 
stroke-linecap:round; stroke-linejoin:round;">
</g>
<g style="fill:#840000; fill-opacity:1.0; 
stroke:#840000; stroke-width:0; stroke-opacity:1; 
stroke-linecap:round; stroke-linejoin:round;">
<circle cx="24727.6" cy="1057.09" r="374.016" /> 
</g>
<g style="fill:#840000; fill-opacity:1.0; 
stroke:#840000; stroke-width:39.3701; stroke-opacity:1; 
stroke-linecap:round; stroke-linejoin:round;">
</g>
<g style="fill:#840000; fill-opacity:1.0; 
stroke:#840000; stroke-width:775.591; stroke-opacity:1; 
stroke-linecap:round; stroke-linejoin:round;">
</g>
<g style="fill:#840000; fill-opacity:0.0; 
stroke:#840000; stroke-width:775.591; stroke-opacity:1; 
stroke-linecap:round; stroke-linejoin:round;">
<path d="M14396 6301
L14396 4742
" />
<path d="M14396 3190
L14396 1631
" />
<path d="M10459 6301
L10459 4742
" />
<path d="M10459 3190
L10459 1631
" />
<path d="M6522 6301
L6522 4742
" />
<path d="M6522 3190
L6522 1631
" />
<path d="M2585 6301
L2585 4742
" />
<path d="M2585 3190
L2585 1631
" />
</g>
<g style="fill:#008400; fill-opacity:0.0; 
stroke:#008400; stroke-width:775.591; stroke-opacity:1; 
stroke-linecap:round; stroke-linejoin:round;">
</g>
<g style="fill:#008400; fill-opacity:1.0; 
stroke:#008400; stroke-width:100; stroke-opacity:1; 
stroke-linecap:round; stroke-linejoin:round;">
<polyline style="fill-rule:evenodd;"
points="17962,4255
18116,4451
18184,4692
18184,5471
17596,5471
17596,5463
17496,5463
17496,5471
16908,5471
16908,4692
16976,4451
17130,4255
17206,4213
14736,4213
14812,4255
14966,4451
15034,4692
15034,5471
14446,5471
14446,5463
14346,5463
14346,5471
13759,5471
13759,4692
13826,4451
13981,4255
14056,4213
10799,4213
10875,4255
11029,4451
11097,4692
11097,5471
10509,5471
10509,5463
10409,5463
10409,5471
9822,5471
9822,4692
9889,4451
10044,4255
10119,4213
6862,4213
6938,4255
7092,4451
7160,4692
7160,5471
6572,5471
6572,5463
6472,5463
6472,5471
5885,5471
5885,4692
5952,4451
6107,4255
6182,4213
2925,4213
3001,4255
3155,4451
3223,4692
3223,5471
2635,5471
2635,5463
2535,5463
2535,5471
1948,5471
1948,4692
2015,4451
2170,4255
2245,4213
896,4213
896,7624
18677,7624
18677,5571
18184,5571
18184,6351
18116,6591
17962,6787
17744,6909
17695,6921
17596,6874
17596,5571
17496,5571
17496,6874
17397,6921
17348,6909
17130,6787
16976,6591
16908,6351
16908,5571
15034,5571
15034,6351
14966,6591
14812,6787
14594,6909
14545,6921
14446,6874
14446,5571
14346,5571
14346,6874
14247,6921
14198,6909
13981,6787
13826,6591
13759,6351
13759,5571
11097,5571
11097,6351
11029,6591
10875,6787
10657,6909
10608,6921
10509,6874
10509,5571
10409,5571
10409,6874
10310,6921
10261,6909
10044,6787
9889,6591
9822,6351
9822,5571
7160,5571
7160,6351
7092,6591
6938,6787
6720,6909
6671,6921
6572,6874
6572,5571
6472,5571
6472,6874
6373,6921
6324,6909
6107,6787
5952,6591
5885,6351
5885,5571
3223,5571
3223,6351
3155,6591
3001,6787
2783,6909
2734,6921
2635,6874
2635,5571
2535,5571
2535,6874
2436,6921
2387,6909
2170,6787
2015,6591
1948,6351
1948,5571
2535,5571
2635,5571
3223,5571
5885,5571
6472,5571
6572,5571
7160,5571
9822,5571
10409,5571
10509,5571
11097,5571
13759,5571
14346,5571
14446,5571
15034,5571
16908,5571
17496,5571
17596,5571
18184,5571
18677,5571
18677,4213
17886,4213
17962,4255
" /> 
<polyline style="fill-rule:evenodd;"
points="896,3719
2245,3719
2170,3677
2015,3481
1948,3240
1948,2461
2535,2461
2535,2469
2635,2469
2635,2461
3223,2461
3223,3240
3155,3481
3001,3677
2925,3719
6182,3719
6107,3677
5952,3481
5885,3240
5885,2461
6472,2461
6472,2469
6572,2469
6572,2461
7160,2461
7160,3240
7092,3481
6938,3677
6862,3719
10119,3719
10044,3677
9889,3481
9822,3240
9822,2461
10409,2461
10409,2469
10509,2469
10509,2461
11097,2461
11097,3240
11029,3481
10875,3677
10799,3719
14056,3719
13981,3677
13826,3481
13759,3240
13759,2461
14346,2461
14346,2469
14446,2469
14446,2461
15034,2461
15034,3240
14966,3481
14812,3677
14736,3719
17206,3719
17130,3677
16976,3481
16908,3240
16908,2461
17496,2461
17496,2469
17596,2469
17596,2461
18184,2461
18184,3240
18116,3481
17962,3677
17886,3719
18677,3719
18677,1581
18184,1581
18184,2361
17596,2361
17596,1058
17496,1058
17496,2361
16908,2361
16908,1581
15034,1581
15034,2361
14446,2361
14446,1058
14346,1058
14346,2361
13759,2361
13759,1581
11097,1581
11097,2361
10509,2361
10509,1058
10409,1058
10409,2361
9822,2361
9822,1581
7160,1581
7160,2361
6572,2361
6572,1058
6472,1058
6472,2361
5885,2361
5885,1581
3223,1581
3223,2361
2635,2361
2635,1058
2535,1058
2535,2361
1948,2361
1948,1581
2015,1341
2170,1145
2387,1023
2436,1011
2535,1058
2635,1058
2734,1011
2783,1023
3001,1145
3155,1341
3223,1581
5885,1581
5952,1341
6107,1145
6324,1023
6373,1011
6472,1058
6572,1058
6671,1011
6720,1023
6938,1145
7092,1341
7160,1581
9822,1581
9889,1341
10044,1145
10261,1023
10310,1011
10409,1058
10509,1058
10608,1011
10657,1023
10875,1145
11029,1341
11097,1581
13759,1581
13826,1341
13981,1145
14198,1023
14247,1011
14346,1058
14446,1058
14545,1011
14594,1023
14812,1145
14966,1341
15034,1581
16908,1581
16976,1341
17130,1145
17348,1023
17397,1011
17496,1058
17596,1058
17695,1011
17744,1023
17962,1145
18116,1341
18184,1581
18677,1581
18677,309
896,309
896,3719
" /> 
</g>
<g style="fill:#FFFFFF; fill-opacity:1.0; 
stroke:#FFFFFF; stroke-width:100; stroke-opacity:1; 
stroke-linecap:round; stroke-linejoin:round;">
</g>
<g style="fill:#FFFFFF; fill-opacity:1.0; 
stroke:#FFFFFF; stroke-width:500; stroke-opacity:1; 
stroke-linecap:round; stroke-linejoin:round;">
</g>
<g style="fill:#FFFFFF; fill-opacity:0.0; 
stroke:#FFFFFF; stroke-width:500; stroke-opacity:1; 
stroke-linecap:round; stroke-linejoin:round;">
<path d="M17546 6301
L17546 4742
" />
<path d="M17546 3190
L17546 1631
" />
</g>
<g style="fill:#FFFFFF; fill-opacity:1.0; 
stroke:#FFFFFF; stroke-width:0; stroke-opacity:1; 
stroke-linecap:round; stroke-linejoin:round;">
<circle cx="24727.6" cy="6875.98" r="236.22" /> 
</g>
<g style="fill:#FFFFFF; fill-opacity:1.0; 
stroke:#FFFFFF; stroke-width:39.3701; stroke-opacity:1; 
stroke-linecap:round; stroke-linejoin:round;">
</g>
<g style="fill:#FFFFFF; fill-opacity:1.0; 
stroke:#FFFFFF; stroke-width:0; stroke-opacity:1; 
stroke-linecap:round; stroke-linejoin:round;">
<circle cx="24727.6" cy="1057.09" r="236.22" /> 
</g>
<g style="fill:#FFFFFF; fill-opacity:1.0; 
stroke:#FFFFFF; stroke-width:39.3701; stroke-opacity:1; 
stroke-linecap:round; stroke-linejoin:round;">
</g>
<g style="fill:#FFFFFF; fill-opacity:1.0; 
stroke:#FFFFFF; stroke-width:500; stroke-opacity:1; 
stroke-linecap:round; stroke-linejoin:round;">
</g>
<g style="fill:#FFFFFF; fill-opacity:0.0; 
stroke:#FFFFFF; stroke-width:500; stroke-opacity:1; 
stroke-linecap:round; stroke-linejoin:round;">
<path d="M14396 6301
L14396 4742
" />
<path d="M14396 3190
L14396 1631
" />
<path d="M10459 6301
L10459 4742
" />
<path d="M10459 3190
L10459 1631
" />
<path d="M6522 6301
L6522 4742
" />
<path d="M6522 3190
L6522 1631
" />
<path d="M2585 6301
L2585 4742
" />
<path d="M2585 3190
L2585 1631
" />
</g>
<g style="fill:#000000; fill-opacity:0.0; 
stroke:#000000; stroke-width:500; stroke-opacity:1; 
stroke-linecap:round; stroke-linejoin:round;">
</g>
<g style="fill:#840000; fill-opacity:0.0; 
stroke:#840000; stroke-width:500; stroke-opacity:1; 
stroke-linecap:round; stroke-linejoin:round;">
</g>
<g style="fill:#840000; fill-opacity:0.0; 
stroke:#840000; stroke-width:775.591; stroke-opacity:1; 
stroke-linecap:round; stroke-linejoin:round;">
<path d="M17546 6301
L17546 4742
" />
<path d="M17546 3190
L17546 1631
" />
</g>
<g style="fill:#840000; fill-opacity:1.0; 
stroke:#840000; stroke-width:0; stroke-opacity:1; 
stroke-linecap:round; stroke-linejoin:round;">
<circle cx="24727.6" cy="6875.98" r="374.016" /> 
</g>
<g style="fill:#840000; fill-opacity:1.0; 
stroke:#840000; stroke-width:39.3701; stroke-opacity:1; 
stroke-linecap:round; stroke-linejoin:round;">
</g>
<g style="fill:#840000; fill-opacity:1.0; 
stroke:#840000; stroke-width:0; stroke-opacity:1; 
stroke-linecap:round; stroke-linejoin:round;">
<circle cx="24727.6" cy="1057.09" r="374.016" /> 
</g>
<g style="fill:#840000; fill-opacity:1.0; 
stroke:#840000; stroke-width:39.3701; stroke-opacity:1; 
stroke-linecap:round; stroke-linejoin:round;">
</g>
<g style="fill:#840000; fill-opacity:1.0; 
stroke:#840000; stroke-width:775.591; stroke-opacity:1; 
stroke-linecap:round; stroke-linejoin:round;">
</g>
<g style="fill:#840000; fill-opacity:0.0; 
stroke:#840000; stroke-width:775.591; stroke-opacity:1; 
stroke-linecap:round; stroke-linejoin:round;">
<path d="M14396 6301
L14396 4742
" />
<path d="M14396 3190
L14396 1631
" />
<path d="M10459 6301
L10459 4742
" />
<path d="M10459 3190
L10459 1631
" />
<path d="M6522 6301
L6522 4742
" />
<path d="M6522 3190
L6522 1631
" />
<path d="M2585 6301
L2585 4742
" />
<path d="M2585 3190
L2585 1631
" />
</g>
<g style="fill:#840000; fill-opacity:1.0; 
stroke:#840000; stroke-width:100; stroke-opacity:1; 
stroke-linecap:round; stroke-linejoin:round;">
<polyline style="fill-rule:evenodd;"
points="17962,4255
18116,4451
18184,4692
18184,5471
17596,5471
17596,5463
17496,5463
17496,5471
16908,5471
16908,4692
16976,4451
17130,4255
17206,4213
14736,4213
14812,4255
14966,4451
15034,4692
15034,5471
14446,5471
14446,5463
14346,5463
14346,5471
13759,5471
13759,4692
13826,4451
13981,4255
14056,4213
10799,4213
10875,4255
11029,4451
11097,4692
11097,5471
10509,5471
10509,5463
10409,5463
10409,5471
9822,5471
9822,4692
9889,4451
10044,4255
10119,4213
6862,4213
6938,4255
7092,4451
7160,4692
7160,5471
6572,5471
6572,5463
6472,5463
6472,5471
5885,5471
5885,4692
5952,4451
6107,4255
6182,4213
2925,4213
3001,4255
3155,4451
3223,4692
3223,5471
2635,5471
2635,5463
2535,5463
2535,5471
1948,5471
1948,4692
2015,4451
2170,4255
2245,4213
896,4213
896,7624
18677,7624
18677,5571
18184,5571
18184,6351
18116,6591
17962,6787
17744,6909
17695,6921
17596,6874
17596,5571
17496,5571
17496,6874
17397,6921
17348,6909
17130,6787
16976,6591
16908,6351
16908,5571
15034,5571
15034,6351
14966,6591
14812,6787
14594,6909
14545,6921
14446,6874
14446,5571
14346,5571
14346,6874
14247,6921
14198,6909
13981,6787
13826,6591
13759,6351
13759,5571
11097,5571
11097,6351
11029,6591
10875,6787
10657,6909
10608,6921
10509,6874
10509,5571
10409,5571
10409,6874
10310,6921
10261,6909
10044,6787
9889,6591
9822,6351
9822,5571
7160,5571
7160,6351
7092,6591
6938,6787
6720,6909
6671,6921
6572,6874
6572,5571
6472,5571
6472,6874
6373,6921
6324,6909
6107,6787
5952,6591
5885,6351
5885,5571
3223,5571
3223,6351
3155,6591
3001,6787
2783,6909
2734,6921
2635,6874
2635,5571
2535,5571
2535,6874
2436,6921
2387,6909
2170,6787
2015,6591
1948,6351
1948,5571
2535,5571
2635,5571
3223,5571
5885,5571
6472,5571
6572,5571
7160,5571
9822,5571
10409,5571
10509,5571
11097,5571
13759,5571
14346,5571
14446,5571
15034,5571
16908,5571
17496,5571
17596,5571
18184,5571
18677,5571
18677,4213
17886,4213
17962,4255
" /> 
<polyline style="fill-rule:evenodd;"
points="896,3719
2245,3719
2170,3677
2015,3481
1948,3240
1948,2461
2535,2461
2535,2469
2635,2469
2635,2461
3223,2461
3223,3240
3155,3481
3001,3677
2925,3719
6182,3719
6107,3677
5952,3481
5885,3240
5885,2461
6472,2461
6472,2469
6572,2469
6572,2461
7160,2461
7160,3240
7092,3481
6938,3677
6862,3719
10119,3719
10044,3677
9889,3481
9822,3240
9822,2461
10409,2461
10409,2469
10509,2469
10509,2461
11097,2461
11097,3240
11029,3481
10875,3677
10799,3719
14056,3719
13981,3677
13826,3481
13759,3240
13759,2461
14346,2461
14346,2469
14446,2469
14446,2461
15034,2461
15034,3240
14966,3481
14812,3677
14736,3719
17206,3719
17130,3677
16976,3481
16908,3240
16908,2461
17496,2461
17496,2469
17596,2469
17596,2461
18184,2461
18184,3240
18116,3481
17962,3677
17886,3719
18677,3719
18677,1581
18184,1581
18184,2361
17596,2361
17596,1058
17496,1058
17496,2361
16908,2361
16908,1581
15034,1581
15034,2361
14446,2361
14446,1058
14346,1058
14346,2361
13759,2361
13759,1581
11097,1581
11097,2361
10509,2361
10509,1058
10409,1058
10409,2361
9822,2361
9822,1581
7160,1581
7160,2361
6572,2361
6572,1058
6472,1058
6472,2361
5885,2361
5885,1581
3223,1581
3223,2361
2635,2361
2635,1058
2535,1058
2535,2361
1948,2361
1948,1581
2015,1341
2170,1145
2387,1023
2436,1011
2535,1058
2635,1058
2734,1011
2783,1023
3001,1145
3155,1341
3223,1581
5885,1581
5952,1341
6107,1145
6324,1023
6373,1011
6472,1058
6572,1058
6671,1011
6720,1023
6938,1145
7092,1341
7160,1581
9822,1581
9889,1341
10044,1145
10261,1023
10310,1011
10409,1058
10509,1058
10608,1011
10657,1023
10875,1145
11029,1341
11097,1581
13759,1581
13826,1341
13981,1145
14198,1023
14247,1011
14346,1058
14446,1058
14545,1011
14594,1023
14812,1145
14966,1341
15034,1581
16908,1581
16976,1341
17130,1145
17348,1023
17397,1011
17496,1058
17596,1058
17695,1011
17744,1023
17962,1145
18116,1341
18184,1581
18677,1581
18677,309
896,309
896,3719
" /> 
</g>
<g style="fill:#FFFFFF; fill-opacity:1.0; 
stroke:#FFFFFF; stroke-width:100; stroke-opacity:1; 
stroke-linecap:round; stroke-linejoin:round;">
</g>
<g style="fill:#FFFFFF; fill-opacity:1.0; 
stroke:#FFFFFF; stroke-width:500; stroke-opacity:1; 
stroke-linecap:round; stroke-linejoin:round;">
</g>
<g style="fill:#FFFFFF; fill-opacity:0.0; 
stroke:#FFFFFF; stroke-width:500; stroke-opacity:1; 
stroke-linecap:round; stroke-linejoin:round;">
<path d="M17546 6301
L17546 4742
" />
<path d="M17546 3190
L17546 1631
" />
</g>
<g style="fill:#FFFFFF; fill-opacity:1.0; 
stroke:#FFFFFF; stroke-width:0; stroke-opacity:1; 
stroke-linecap:round; stroke-linejoin:round;">
<circle cx="24727.6" cy="6875.98" r="236.22" /> 
</g>
<g style="fill:#FFFFFF; fill-opacity:1.0; 
stroke:#FFFFFF; stroke-width:39.3701; stroke-opacity:1; 
stroke-linecap:round; stroke-linejoin:round;">
</g>
<g style="fill:#FFFFFF; fill-opacity:1.0; 
stroke:#FFFFFF; stroke-width:0; stroke-opacity:1; 
stroke-linecap:round; stroke-linejoin:round;">
<circle cx="24727.6" cy="1057.09" r="236.22" /> 
</g>
<g style="fill:#FFFFFF; fill-opacity:1.0; 
stroke:#FFFFFF; stroke-width:39.3701; stroke-opacity:1; 
stroke-linecap:round; stroke-linejoin:round;">
</g>
<g style="fill:#FFFFFF; fill-opacity:1.0; 
stroke:#FFFFFF; stroke-width:500; stroke-opacity:1; 
stroke-linecap:round; stroke-linejoin:round;">
</g>
<g style="fill:#FFFFFF; fill-opacity:0.0; 
stroke:#FFFFFF; stroke-width:500; stroke-opacity:1; 
stroke-linecap:round; stroke-linejoin:round;">
<path d="M14396 6301
L14396 4742
" />
<path d="M14396 3190
L14396 1631
" />
<path d="M10459 6301
L10459 4742
" />
<path d="M10459 3190
L10459 1631
" />
<path d="M6522 6301
L6522 4742
" />
<path d="M6522 3190
L6522 1631
" />
<path d="M2585 6301
L2585 4742
" />
<path d="M2585 3190
L2585 1631
" />
</g>
<g style="fill:#000000; fill-opacity:0.0; 
stroke:#000000; stroke-width:500; stroke-opacity:1; 
stroke-linecap:round; stroke-linejoin:round;">
</g>
<g style="fill:#008484; fill-opacity:0.0; 
stroke:#008484; stroke-width:500; stroke-opacity:1; 
stroke-linecap:round; stroke-linejoin:round;">
</g>
<g style="fill:#008484; fill-opacity:0.0; 
stroke:#008484; stroke-width:59.0551; stroke-opacity:1; 
stroke-linecap:round; stroke-linejoin:round;">
<path d="M16857 1013
L19514 1013
" />
<path d="M16857 6919
L16857 1013
" />
<path d="M19514 6919
L16857 6919
" />
<path d="M25125 1013
L28668 1013
" />
<path d="M24337 6919
L19514 6919
" />
<path d="M28570 3966
L19514 3966
" />
<path d="M19514 1013
L24337 1013
" />
<path d="M19514 6919
L19514 1013
" />
<path d="M28668 6919
L25125 6919
" />
<path d="M28625 6875
L28625 1057
" />
<path d="M24731 6427
L24731 1505
" />
<path d="M16001 757
L12792 757
" />
<path d="M12792 757
L12792 7175
" />
<path d="M12792 7175
L16001 7175
" />
<path d="M16001 7175
L16001 757
" />
<path d="M12064 757
L8855 757
" />
<path d="M8855 757
L8855 7175
" />
<path d="M8855 7175
L12064 7175
" />
<path d="M12064 7175
L12064 757
" />
<path d="M8127 757
L4918 757
" />
<path d="M4918 757
L4918 7175
" />
<path d="M4918 7175
L8127 7175
" />
<path d="M8127 7175
L8127 757
" />
<path d="M4190 757
L981 757
" />
<path d="M981 757
L981 7175
" />
<path d="M981 7175
L4190 7175
" />
<path d="M4190 7175
L4190 757
" />
</g>
<g style="fill:#C2C200; fill-opacity:0.0; 
stroke:#C2C200; stroke-width:59.0551; stroke-opacity:1; 
stroke-linecap:round; stroke-linejoin:round;">
<path d="M22500 404
L22500 685
L22519 741
L22556 779
L22613 798
L22650 798
" />
<path d="M22106 798
L22331 798
" />
<path d="M22219 798
L22219 404
L22256 460
L22294 498
L22331 516
" />
<path d="M12447 4097
L12165 4097
L12109 4116
L12072 4154
L12053 4210
L12053 4247
" />
<path d="M12409 3929
L12428 3910
L12447 3872
L12447 3779
L12428 3741
L12409 3722
L12372 3704
L12334 3704
L12278 3722
L12053 3947
L12053 3704
" />
<path d="M8510 4097
L8228 4097
L8172 4116
L8135 4154
L8116 4210
L8116 4247
" />
<path d="M8510 3947
L8510 3704
L8360 3835
L8360 3779
L8341 3741
L8322 3722
L8285 3704
L8191 3704
L8153 3722
L8135 3741
L8116 3779
L8116 3891
L8135 3929
L8153 3947
" />
<path d="M4573 4097
L4291 4097
L4235 4116
L4198 4154
L4179 4210
L4179 4247
" />
<path d="M4441 3741
L4179 3741
" />
<path d="M4591 3835
L4310 3929
L4310 3685
" />
<path d="M636 4097
L354 4097
L298 4116
L261 4154
L242 4210
L242 4247
" />
<path d="M636 3722
L636 3910
L448 3929
L467 3910
L486 3872
L486 3779
L467 3741
L448 3722
L411 3704
L317 3704
L279 3722
L261 3741
L242 3779
L242 3872
L261 3910
L279 3929
" />
</g>
<g style="fill:#000000; fill-opacity:0.0; 
stroke:#000000; stroke-width:59.0551; stroke-opacity:1; 
stroke-linecap:round; stroke-linejoin:round;">
</g>
<g style="fill:#C2C200; fill-opacity:0.0; 
stroke:#C2C200; stroke-width:59.0551; stroke-opacity:1; 
stroke-linecap:round; stroke-linejoin:round;">
<path d="M29910 8362
L29723 8362
" />
<path d="M29948 8475
L29816 8081
L29685 8475
" />
<path d="M29554 8212
L29554 8475
" />
<path d="M29554 8250
L29535 8231
L29498 8212
L29441 8212
L29404 8231
L29385 8269
L29385 8475
" />
<path d="M29029 8475
L29029 8081
" />
<path d="M29029 8456
L29066 8475
L29141 8475
L29179 8456
L29198 8437
L29216 8400
L29216 8287
L29198 8250
L29179 8231
L29141 8212
L29066 8212
L29029 8231
" />
<path d="M28691 8456
L28729 8475
L28804 8475
L28841 8456
L28860 8419
L28860 8269
L28841 8231
L28804 8212
L28729 8212
L28691 8231
L28673 8269
L28673 8306
L28860 8344
" />
<path d="M28504 8475
L28504 8212
" />
<path d="M28504 8287
L28485 8250
L28466 8231
L28429 8212
L28391 8212
" />
<path d="M28279 8456
L28241 8475
L28167 8475
L28129 8456
L28110 8419
L28110 8400
L28129 8362
L28167 8344
L28223 8344
L28260 8325
L28279 8287
L28279 8269
L28260 8231
L28223 8212
L28167 8212
L28129 8231
" />
<path d="M27885 8475
L27923 8456
L27942 8437
L27960 8400
L27960 8287
L27942 8250
L27923 8231
L27885 8212
L27829 8212
L27792 8231
L27773 8250
L27754 8287
L27754 8400
L27773 8437
L27792 8456
L27829 8475
L27885 8475
" />
<path d="M27585 8212
L27585 8475
" />
<path d="M27585 8250
L27567 8231
L27529 8212
L27473 8212
L27435 8231
L27417 8269
L27417 8475
" />
<path d="M27323 8512
L27023 8512
" />
<path d="M26985 8212
L26835 8212
" />
<path d="M26929 8081
L26929 8419
L26910 8456
L26873 8475
L26835 8475
" />
<path d="M26742 8212
L26667 8475
L26592 8287
L26517 8475
L26442 8212
" />
<path d="M26235 8475
L26273 8456
L26292 8437
L26310 8400
L26310 8287
L26292 8250
L26273 8231
L26235 8212
L26179 8212
L26142 8231
L26123 8250
L26104 8287
L26104 8400
L26123 8437
L26142 8456
L26179 8475
L26235 8475
" />
<path d="M26029 8512
L25729 8512
" />
<path d="M25636 8475
L25636 8212
" />
<path d="M25636 8287
L25617 8250
L25598 8231
L25561 8212
L25523 8212
" />
<path d="M25242 8456
L25279 8475
L25354 8475
L25392 8456
L25411 8419
L25411 8269
L25392 8231
L25354 8212
L25279 8212
L25242 8231
L25223 8269
L25223 8306
L25411 8344
" />
<path d="M24886 8475
L24886 8081
" />
<path d="M24886 8456
L24923 8475
L24998 8475
L25036 8456
L25054 8437
L25073 8400
L25073 8287
L25054 8250
L25036 8231
L24998 8212
L24923 8212
L24886 8231
" />
<path d="M24698 8475
L24698 8081
" />
<path d="M24698 8231
L24661 8212
L24586 8212
L24548 8231
L24529 8250
L24511 8287
L24511 8400
L24529 8437
L24548 8456
L24586 8475
L24661 8475
L24698 8456
" />
<path d="M24286 8475
L24323 8456
L24342 8419
L24342 8081
" />
<path d="M23967 8475
L23967 8269
L23986 8231
L24023 8212
L24098 8212
L24136 8231
" />
<path d="M23967 8456
L24005 8475
L24098 8475
L24136 8456
L24155 8419
L24155 8381
L24136 8344
L24098 8325
L24005 8325
L23967 8306
" />
<path d="M23611 8456
L23648 8475
L23723 8475
L23761 8456
L23780 8437
L23798 8400
L23798 8287
L23780 8250
L23761 8231
L23723 8212
L23648 8212
L23611 8231
" />
<path d="M23442 8475
L23442 8081
" />
<path d="M23405 8325
L23292 8475
" />
<path d="M23292 8212
L23442 8362
" />
<path d="M16398 7078
L16398 6891
" />
<path d="M16285 7116
L16679 6984
L16285 6853
" />
<path d="M16548 6722
L16285 6722
" />
<path d="M16510 6722
L16529 6703
L16548 6666
L16548 6609
L16529 6572
L16491 6553
L16285 6553
" />
<path d="M16285 6197
L16679 6197
" />
<path d="M16304 6197
L16285 6235
L16285 6309
L16304 6347
L16323 6366
L16360 6384
L16473 6384
L16510 6366
L16529 6347
L16548 6309
L16548 6235
L16529 6197
" />
<path d="M16304 5860
L16285 5897
L16285 5972
L16304 6010
L16341 6028
L16491 6028
L16529 6010
L16548 5972
L16548 5897
L16529 5860
L16491 5841
L16454 5841
L16416 6028
" />
<path d="M16285 5672
L16548 5672
" />
<path d="M16473 5672
L16510 5653
L16529 5635
L16548 5597
L16548 5560
" />
<path d="M16304 5447
L16285 5410
L16285 5335
L16304 5297
L16341 5278
L16360 5278
L16398 5297
L16416 5335
L16416 5391
L16435 5428
L16473 5447
L16491 5447
L16529 5428
L16548 5391
L16548 5335
L16529 5297
" />
<path d="M16285 5053
L16304 5091
L16323 5110
L16360 5128
L16473 5128
L16510 5110
L16529 5091
L16548 5053
L16548 4997
L16529 4960
L16510 4941
L16473 4922
L16360 4922
L16323 4941
L16304 4960
L16285 4997
L16285 5053
" />
<path d="M16548 4753
L16285 4753
" />
<path d="M16510 4753
L16529 4735
L16548 4697
L16548 4641
L16529 4603
L16491 4585
L16285 4585
" />
<path d="M16248 4491
L16248 4191
" />
<path d="M16548 4154
L16548 4004
" />
<path d="M16679 4097
L16341 4097
L16304 4079
L16285 4041
L16285 4004
" />
<path d="M16548 3910
L16285 3835
L16473 3760
L16285 3685
L16548 3610
" />
<path d="M16285 3404
L16304 3441
L16323 3460
L16360 3479
L16473 3479
L16510 3460
L16529 3441
L16548 3404
L16548 3347
L16529 3310
L16510 3291
L16473 3272
L16360 3272
L16323 3291
L16304 3310
L16285 3347
L16285 3404
" />
<path d="M16248 3197
L16248 2897
" />
<path d="M16285 2804
L16548 2804
" />
<path d="M16473 2804
L16510 2785
L16529 2766
L16548 2729
L16548 2691
" />
<path d="M16304 2410
L16285 2447
L16285 2522
L16304 2560
L16341 2579
L16491 2579
L16529 2560
L16548 2522
L16548 2447
L16529 2410
L16491 2391
L16454 2391
L16416 2579
" />
<path d="M16285 2054
L16679 2054
" />
<path d="M16304 2054
L16285 2091
L16285 2166
L16304 2204
L16323 2223
L16360 2241
L16473 2241
L16510 2223
L16529 2204
L16548 2166
L16548 2091
L16529 2054
" />
<path d="M16285 1866
L16679 1866
" />
<path d="M16529 1866
L16548 1829
L16548 1754
L16529 1716
L16510 1698
L16473 1679
L16360 1679
L16323 1698
L16304 1716
L16285 1754
L16285 1829
L16304 1866
" />
<path d="M16285 1454
L16304 1491
L16341 1510
L16679 1510
" />
<path d="M16285 1135
L16491 1135
L16529 1154
L16548 1191
L16548 1266
L16529 1304
" />
<path d="M16304 1135
L16285 1173
L16285 1266
L16304 1304
L16341 1323
L16379 1323
L16416 1304
L16435 1266
L16435 1173
L16454 1135
" />
<path d="M16304 779
L16285 816
L16285 891
L16304 929
L16323 948
L16360 966
L16473 966
L16510 948
L16529 929
L16548 891
L16548 816
L16529 779
" />
<path d="M16285 610
L16679 610
" />
<path d="M16435 573
L16285 460
" />
<path d="M16548 460
L16398 610
" />
<path d="M12461 7078
L12461 6891
" />
<path d="M12348 7116
L12742 6984
L12348 6853
" />
<path d="M12611 6722
L12348 6722
" />
<path d="M12573 6722
L12592 6703
L12611 6666
L12611 6609
L12592 6572
L12554 6553
L12348 6553
" />
<path d="M12348 6197
L12742 6197
" />
<path d="M12367 6197
L12348 6235
L12348 6309
L12367 6347
L12386 6366
L12423 6384
L12536 6384
L12573 6366
L12592 6347
L12611 6309
L12611 6235
L12592 6197
" />
<path d="M12367 5860
L12348 5897
L12348 5972
L12367 6010
L12404 6028
L12554 6028
L12592 6010
L12611 5972
L12611 5897
L12592 5860
L12554 5841
L12517 5841
L12479 6028
" />
<path d="M12348 5672
L12611 5672
" />
<path d="M12536 5672
L12573 5653
L12592 5635
L12611 5597
L12611 5560
" />
<path d="M12367 5447
L12348 5410
L12348 5335
L12367 5297
L12404 5278
L12423 5278
L12461 5297
L12479 5335
L12479 5391
L12498 5428
L12536 5447
L12554 5447
L12592 5428
L12611 5391
L12611 5335
L12592 5297
" />
<path d="M12348 5053
L12367 5091
L12386 5110
L12423 5128
L12536 5128
L12573 5110
L12592 5091
L12611 5053
L12611 4997
L12592 4960
L12573 4941
L12536 4922
L12423 4922
L12386 4941
L12367 4960
L12348 4997
L12348 5053
" />
<path d="M12611 4753
L12348 4753
" />
<path d="M12573 4753
L12592 4735
L12611 4697
L12611 4641
L12592 4603
L12554 4585
L12348 4585
" />
<path d="M12311 4491
L12311 4191
" />
<path d="M12611 4154
L12611 4004
" />
<path d="M12742 4097
L12404 4097
L12367 4079
L12348 4041
L12348 4004
" />
<path d="M12611 3910
L12348 3835
L12536 3760
L12348 3685
L12611 3610
" />
<path d="M12348 3404
L12367 3441
L12386 3460
L12423 3479
L12536 3479
L12573 3460
L12592 3441
L12611 3404
L12611 3347
L12592 3310
L12573 3291
L12536 3272
L12423 3272
L12386 3291
L12367 3310
L12348 3347
L12348 3404
" />
<path d="M12311 3197
L12311 2897
" />
<path d="M12348 2804
L12611 2804
" />
<path d="M12536 2804
L12573 2785
L12592 2766
L12611 2729
L12611 2691
" />
<path d="M12367 2410
L12348 2447
L12348 2522
L12367 2560
L12404 2579
L12554 2579
L12592 2560
L12611 2522
L12611 2447
L12592 2410
L12554 2391
L12517 2391
L12479 2579
" />
<path d="M12348 2054
L12742 2054
" />
<path d="M12367 2054
L12348 2091
L12348 2166
L12367 2204
L12386 2223
L12423 2241
L12536 2241
L12573 2223
L12592 2204
L12611 2166
L12611 2091
L12592 2054
" />
<path d="M12348 1866
L12742 1866
" />
<path d="M12592 1866
L12611 1829
L12611 1754
L12592 1716
L12573 1698
L12536 1679
L12423 1679
L12386 1698
L12367 1716
L12348 1754
L12348 1829
L12367 1866
" />
<path d="M12348 1454
L12367 1491
L12404 1510
L12742 1510
" />
<path d="M12348 1135
L12554 1135
L12592 1154
L12611 1191
L12611 1266
L12592 1304
" />
<path d="M12367 1135
L12348 1173
L12348 1266
L12367 1304
L12404 1323
L12442 1323
L12479 1304
L12498 1266
L12498 1173
L12517 1135
" />
<path d="M12367 779
L12348 816
L12348 891
L12367 929
L12386 948
L12423 966
L12536 966
L12573 948
L12592 929
L12611 891
L12611 816
L12592 779
" />
<path d="M12348 610
L12742 610
" />
<path d="M12498 573
L12348 460
" />
<path d="M12611 460
L12461 610
" />
<path d="M8524 7078
L8524 6891
" />
<path d="M8411 7116
L8805 6984
L8411 6853
" />
<path d="M8674 6722
L8411 6722
" />
<path d="M8636 6722
L8655 6703
L8674 6666
L8674 6609
L8655 6572
L8617 6553
L8411 6553
" />
<path d="M8411 6197
L8805 6197
" />
<path d="M8430 6197
L8411 6235
L8411 6309
L8430 6347
L8449 6366
L8486 6384
L8599 6384
L8636 6366
L8655 6347
L8674 6309
L8674 6235
L8655 6197
" />
<path d="M8430 5860
L8411 5897
L8411 5972
L8430 6010
L8467 6028
L8617 6028
L8655 6010
L8674 5972
L8674 5897
L8655 5860
L8617 5841
L8580 5841
L8542 6028
" />
<path d="M8411 5672
L8674 5672
" />
<path d="M8599 5672
L8636 5653
L8655 5635
L8674 5597
L8674 5560
" />
<path d="M8430 5447
L8411 5410
L8411 5335
L8430 5297
L8467 5278
L8486 5278
L8524 5297
L8542 5335
L8542 5391
L8561 5428
L8599 5447
L8617 5447
L8655 5428
L8674 5391
L8674 5335
L8655 5297
" />
<path d="M8411 5053
L8430 5091
L8449 5110
L8486 5128
L8599 5128
L8636 5110
L8655 5091
L8674 5053
L8674 4997
L8655 4960
L8636 4941
L8599 4922
L8486 4922
L8449 4941
L8430 4960
L8411 4997
L8411 5053
" />
<path d="M8674 4753
L8411 4753
" />
<path d="M8636 4753
L8655 4735
L8674 4697
L8674 4641
L8655 4603
L8617 4585
L8411 4585
" />
<path d="M8374 4491
L8374 4191
" />
<path d="M8674 4154
L8674 4004
" />
<path d="M8805 4097
L8467 4097
L8430 4079
L8411 4041
L8411 4004
" />
<path d="M8674 3910
L8411 3835
L8599 3760
L8411 3685
L8674 3610
" />
<path d="M8411 3404
L8430 3441
L8449 3460
L8486 3479
L8599 3479
L8636 3460
L8655 3441
L8674 3404
L8674 3347
L8655 3310
L8636 3291
L8599 3272
L8486 3272
L8449 3291
L8430 3310
L8411 3347
L8411 3404
" />
<path d="M8374 3197
L8374 2897
" />
<path d="M8411 2804
L8674 2804
" />
<path d="M8599 2804
L8636 2785
L8655 2766
L8674 2729
L8674 2691
" />
<path d="M8430 2410
L8411 2447
L8411 2522
L8430 2560
L8467 2579
L8617 2579
L8655 2560
L8674 2522
L8674 2447
L8655 2410
L8617 2391
L8580 2391
L8542 2579
" />
<path d="M8411 2054
L8805 2054
" />
<path d="M8430 2054
L8411 2091
L8411 2166
L8430 2204
L8449 2223
L8486 2241
L8599 2241
L8636 2223
L8655 2204
L8674 2166
L8674 2091
L8655 2054
" />
<path d="M8411 1866
L8805 1866
" />
<path d="M8655 1866
L8674 1829
L8674 1754
L8655 1716
L8636 1698
L8599 1679
L8486 1679
L8449 1698
L8430 1716
L8411 1754
L8411 1829
L8430 1866
" />
<path d="M8411 1454
L8430 1491
L8467 1510
L8805 1510
" />
<path d="M8411 1135
L8617 1135
L8655 1154
L8674 1191
L8674 1266
L8655 1304
" />
<path d="M8430 1135
L8411 1173
L8411 1266
L8430 1304
L8467 1323
L8505 1323
L8542 1304
L8561 1266
L8561 1173
L8580 1135
" />
<path d="M8430 779
L8411 816
L8411 891
L8430 929
L8449 948
L8486 966
L8599 966
L8636 948
L8655 929
L8674 891
L8674 816
L8655 779
" />
<path d="M8411 610
L8805 610
" />
<path d="M8561 573
L8411 460
" />
<path d="M8674 460
L8524 610
" />
<path d="M4587 7078
L4587 6891
" />
<path d="M4474 7116
L4868 6984
L4474 6853
" />
<path d="M4737 6722
L4474 6722
" />
<path d="M4699 6722
L4718 6703
L4737 6666
L4737 6609
L4718 6572
L4680 6553
L4474 6553
" />
<path d="M4474 6197
L4868 6197
" />
<path d="M4493 6197
L4474 6235
L4474 6309
L4493 6347
L4512 6366
L4549 6384
L4662 6384
L4699 6366
L4718 6347
L4737 6309
L4737 6235
L4718 6197
" />
<path d="M4493 5860
L4474 5897
L4474 5972
L4493 6010
L4530 6028
L4680 6028
L4718 6010
L4737 5972
L4737 5897
L4718 5860
L4680 5841
L4643 5841
L4605 6028
" />
<path d="M4474 5672
L4737 5672
" />
<path d="M4662 5672
L4699 5653
L4718 5635
L4737 5597
L4737 5560
" />
<path d="M4493 5447
L4474 5410
L4474 5335
L4493 5297
L4530 5278
L4549 5278
L4587 5297
L4605 5335
L4605 5391
L4624 5428
L4662 5447
L4680 5447
L4718 5428
L4737 5391
L4737 5335
L4718 5297
" />
<path d="M4474 5053
L4493 5091
L4512 5110
L4549 5128
L4662 5128
L4699 5110
L4718 5091
L4737 5053
L4737 4997
L4718 4960
L4699 4941
L4662 4922
L4549 4922
L4512 4941
L4493 4960
L4474 4997
L4474 5053
" />
<path d="M4737 4753
L4474 4753
" />
<path d="M4699 4753
L4718 4735
L4737 4697
L4737 4641
L4718 4603
L4680 4585
L4474 4585
" />
<path d="M4437 4491
L4437 4191
" />
<path d="M4737 4154
L4737 4004
" />
<path d="M4868 4097
L4530 4097
L4493 4079
L4474 4041
L4474 4004
" />
<path d="M4737 3910
L4474 3835
L4662 3760
L4474 3685
L4737 3610
" />
<path d="M4474 3404
L4493 3441
L4512 3460
L4549 3479
L4662 3479
L4699 3460
L4718 3441
L4737 3404
L4737 3347
L4718 3310
L4699 3291
L4662 3272
L4549 3272
L4512 3291
L4493 3310
L4474 3347
L4474 3404
" />
<path d="M4437 3197
L4437 2897
" />
<path d="M4474 2804
L4737 2804
" />
<path d="M4662 2804
L4699 2785
L4718 2766
L4737 2729
L4737 2691
" />
<path d="M4493 2410
L4474 2447
L4474 2522
L4493 2560
L4530 2579
L4680 2579
L4718 2560
L4737 2522
L4737 2447
L4718 2410
L4680 2391
L4643 2391
L4605 2579
" />
<path d="M4474 2054
L4868 2054
" />
<path d="M4493 2054
L4474 2091
L4474 2166
L4493 2204
L4512 2223
L4549 2241
L4662 2241
L4699 2223
L4718 2204
L4737 2166
L4737 2091
L4718 2054
" />
<path d="M4474 1866
L4868 1866
" />
<path d="M4718 1866
L4737 1829
L4737 1754
L4718 1716
L4699 1698
L4662 1679
L4549 1679
L4512 1698
L4493 1716
L4474 1754
L4474 1829
L4493 1866
" />
<path d="M4474 1454
L4493 1491
L4530 1510
L4868 1510
" />
<path d="M4474 1135
L4680 1135
L4718 1154
L4737 1191
L4737 1266
L4718 1304
" />
<path d="M4493 1135
L4474 1173
L4474 1266
L4493 1304
L4530 1323
L4568 1323
L4605 1304
L4624 1266
L4624 1173
L4643 1135
" />
<path d="M4493 779
L4474 816
L4474 891
L4493 929
L4512 948
L4549 966
L4662 966
L4699 948
L4718 929
L4737 891
L4737 816
L4718 779
" />
<path d="M4474 610
L4868 610
" />
<path d="M4624 573
L4474 460
" />
<path d="M4737 460
L4587 610
" />
</g>
<g style="fill:#000000; fill-opacity:0.0; 
stroke:#000000; stroke-width:59.0551; stroke-opacity:1; 
stroke-linecap:round; stroke-linejoin:round;">
</g>
<g style="fill:#C2C200; fill-opacity:0.0; 
stroke:#C2C200; stroke-width:59.0551; stroke-opacity:1; 
stroke-linecap:round; stroke-linejoin:round;">
<path d="M26207 29
L617 29
" />
<path d="M26207 7903
L26207 29
" />
<path d="M617 7903
L26207 7903
" />
<path d="M617 29
L617 7903
" />
</g> 
</svg>
