M48
; DRILL file {KiCad 5.1.2-f72e74a~84~ubuntu18.04.1} date Wed 08 May 2019 07:06:05 PM MDT
; FORMAT={-:-/ absolute / inch / decimal}
; #@! TF.CreationDate,2019-05-08T19:06:05-06:00
; #@! TF.GenerationSoftware,Kicad,Pcbnew,5.1.2-f72e74a~84~ubuntu18.04.1
; #@! TF.FileFunction,Plated,1,2,PTH
FMAT,2
INCH
T1C0.0500
T2C0.0890
%
G90
G05
T2
X3.3465Y-5.2965
X3.7063Y-5.2965
X3.3465Y-4.6465
X3.7063Y-4.6465
X3.3465Y-3.3465
X3.7063Y-3.3465
X3.3465Y-3.9965
X3.7063Y-3.9965
T1
G00X4.176Y-4.1535
M15
G01X4.3319Y-4.1535
M16
G05
G00X4.176Y-3.5039
M15
G01X4.3319Y-3.5039
M16
G05
G00X4.487Y-3.5039
M15
G01X4.6429Y-3.5039
M16
G05
G00X4.176Y-5.4528
M15
G01X4.3319Y-5.4528
M16
G05
G00X4.487Y-5.4528
M15
G01X4.6429Y-5.4528
M16
G05
G00X4.176Y-2.874
M15
G01X4.3319Y-2.874
M16
G05
G00X4.487Y-2.874
M15
G01X4.6429Y-2.874
M16
G05
G00X4.487Y-4.1535
M15
G01X4.6429Y-4.1535
M16
G05
G00X4.176Y-4.8031
M15
G01X4.3319Y-4.8031
M16
G05
G00X4.487Y-4.8031
M15
G01X4.6429Y-4.8031
M16
G05
T0
M30
