G04 #@! TF.GenerationSoftware,KiCad,Pcbnew,5.1.5-52549c5~84~ubuntu18.04.1*
G04 #@! TF.CreationDate,2020-02-24T22:59:15-07:00*
G04 #@! TF.ProjectId,anderson_fuse_board,616e6465-7273-46f6-9e5f-667573655f62,rev?*
G04 #@! TF.SameCoordinates,Original*
G04 #@! TF.FileFunction,Soldermask,Bot*
G04 #@! TF.FilePolarity,Negative*
%FSLAX46Y46*%
G04 Gerber Fmt 4.6, Leading zero omitted, Abs format (unit mm)*
G04 Created by KiCad (PCBNEW 5.1.5-52549c5~84~ubuntu18.04.1) date 2020-02-24 22:59:15*
%MOMM*%
%LPD*%
G04 APERTURE LIST*
%ADD10C,0.100000*%
G04 APERTURE END LIST*
D10*
G36*
X116948903Y-151743213D02*
G01*
X117171177Y-151787426D01*
X117589932Y-151960880D01*
X117966802Y-152212696D01*
X118287304Y-152533198D01*
X118539120Y-152910068D01*
X118712574Y-153328823D01*
X118801000Y-153773371D01*
X118801000Y-154226629D01*
X118712574Y-154671177D01*
X118539120Y-155089932D01*
X118287304Y-155466802D01*
X117966802Y-155787304D01*
X117589932Y-156039120D01*
X117171177Y-156212574D01*
X116948903Y-156256787D01*
X116726630Y-156301000D01*
X116273370Y-156301000D01*
X116051097Y-156256787D01*
X115828823Y-156212574D01*
X115410068Y-156039120D01*
X115033198Y-155787304D01*
X114712696Y-155466802D01*
X114460880Y-155089932D01*
X114287426Y-154671177D01*
X114199000Y-154226629D01*
X114199000Y-153773371D01*
X114287426Y-153328823D01*
X114460880Y-152910068D01*
X114712696Y-152533198D01*
X115033198Y-152212696D01*
X115410068Y-151960880D01*
X115828823Y-151787426D01*
X116051097Y-151743213D01*
X116273370Y-151699000D01*
X116726630Y-151699000D01*
X116948903Y-151743213D01*
G37*
G36*
X79448903Y-151743213D02*
G01*
X79671177Y-151787426D01*
X80089932Y-151960880D01*
X80466802Y-152212696D01*
X80787304Y-152533198D01*
X81039120Y-152910068D01*
X81212574Y-153328823D01*
X81301000Y-153773371D01*
X81301000Y-154226629D01*
X81212574Y-154671177D01*
X81039120Y-155089932D01*
X80787304Y-155466802D01*
X80466802Y-155787304D01*
X80089932Y-156039120D01*
X79671177Y-156212574D01*
X79448903Y-156256787D01*
X79226630Y-156301000D01*
X78773370Y-156301000D01*
X78551097Y-156256787D01*
X78328823Y-156212574D01*
X77910068Y-156039120D01*
X77533198Y-155787304D01*
X77212696Y-155466802D01*
X76960880Y-155089932D01*
X76787426Y-154671177D01*
X76699000Y-154226629D01*
X76699000Y-153773371D01*
X76787426Y-153328823D01*
X76960880Y-152910068D01*
X77212696Y-152533198D01*
X77533198Y-152212696D01*
X77910068Y-151960880D01*
X78328823Y-151787426D01*
X78551097Y-151743213D01*
X78773370Y-151699000D01*
X79226630Y-151699000D01*
X79448903Y-151743213D01*
G37*
G36*
X110233089Y-137478990D02*
G01*
X110428381Y-137538231D01*
X110608354Y-137634429D01*
X110766107Y-137763893D01*
X110895571Y-137921646D01*
X110991769Y-138101619D01*
X111051010Y-138296911D01*
X111071012Y-138500000D01*
X111051010Y-138703089D01*
X110991769Y-138898381D01*
X110895571Y-139078354D01*
X110766107Y-139236107D01*
X110608354Y-139365571D01*
X110428381Y-139461769D01*
X110233089Y-139521010D01*
X110080891Y-139536000D01*
X106019109Y-139536000D01*
X105866911Y-139521010D01*
X105671619Y-139461769D01*
X105491646Y-139365571D01*
X105333893Y-139236107D01*
X105204429Y-139078354D01*
X105108231Y-138898381D01*
X105048990Y-138703089D01*
X105028988Y-138500000D01*
X105048990Y-138296911D01*
X105108231Y-138101619D01*
X105204429Y-137921646D01*
X105333893Y-137763893D01*
X105491646Y-137634429D01*
X105671619Y-137538231D01*
X105866911Y-137478990D01*
X106019109Y-137464000D01*
X110080891Y-137464000D01*
X110233089Y-137478990D01*
G37*
G36*
X118133089Y-137478990D02*
G01*
X118328381Y-137538231D01*
X118508354Y-137634429D01*
X118666107Y-137763893D01*
X118795571Y-137921646D01*
X118891769Y-138101619D01*
X118951010Y-138296911D01*
X118971012Y-138500000D01*
X118951010Y-138703089D01*
X118891769Y-138898381D01*
X118795571Y-139078354D01*
X118666107Y-139236107D01*
X118508354Y-139365571D01*
X118328381Y-139461769D01*
X118133089Y-139521010D01*
X117980891Y-139536000D01*
X113919109Y-139536000D01*
X113766911Y-139521010D01*
X113571619Y-139461769D01*
X113391646Y-139365571D01*
X113233893Y-139236107D01*
X113104429Y-139078354D01*
X113008231Y-138898381D01*
X112948990Y-138703089D01*
X112928988Y-138500000D01*
X112948990Y-138296911D01*
X113008231Y-138101619D01*
X113104429Y-137921646D01*
X113233893Y-137763893D01*
X113391646Y-137634429D01*
X113571619Y-137538231D01*
X113766911Y-137478990D01*
X113919109Y-137464000D01*
X117980891Y-137464000D01*
X118133089Y-137478990D01*
G37*
G36*
X92507985Y-132823860D02*
G01*
X92620748Y-132846290D01*
X92752741Y-132900963D01*
X92939408Y-132978283D01*
X93226196Y-133169909D01*
X93470091Y-133413804D01*
X93661717Y-133700592D01*
X93793710Y-134019253D01*
X93861000Y-134357540D01*
X93861000Y-134702460D01*
X93793710Y-135040747D01*
X93661717Y-135359408D01*
X93470091Y-135646196D01*
X93226196Y-135890091D01*
X92939408Y-136081717D01*
X92752741Y-136159037D01*
X92620748Y-136213710D01*
X92507985Y-136236140D01*
X92282460Y-136281000D01*
X91937540Y-136281000D01*
X91712015Y-136236140D01*
X91599252Y-136213710D01*
X91467259Y-136159037D01*
X91280592Y-136081717D01*
X90993804Y-135890091D01*
X90749909Y-135646196D01*
X90558283Y-135359408D01*
X90426290Y-135040747D01*
X90359000Y-134702460D01*
X90359000Y-134357540D01*
X90426290Y-134019253D01*
X90558283Y-133700592D01*
X90749909Y-133413804D01*
X90993804Y-133169909D01*
X91280592Y-132978283D01*
X91467259Y-132900963D01*
X91599252Y-132846290D01*
X91712015Y-132823860D01*
X91937540Y-132779000D01*
X92282460Y-132779000D01*
X92507985Y-132823860D01*
G37*
G36*
X87427985Y-132823860D02*
G01*
X87540748Y-132846290D01*
X87672741Y-132900963D01*
X87859408Y-132978283D01*
X88146196Y-133169909D01*
X88390091Y-133413804D01*
X88581717Y-133700592D01*
X88713710Y-134019253D01*
X88781000Y-134357540D01*
X88781000Y-134702460D01*
X88713710Y-135040747D01*
X88581717Y-135359408D01*
X88390091Y-135646196D01*
X88146196Y-135890091D01*
X87859408Y-136081717D01*
X87672741Y-136159037D01*
X87540748Y-136213710D01*
X87427985Y-136236140D01*
X87202460Y-136281000D01*
X86857540Y-136281000D01*
X86632015Y-136236140D01*
X86519252Y-136213710D01*
X86387259Y-136159037D01*
X86200592Y-136081717D01*
X85913804Y-135890091D01*
X85669909Y-135646196D01*
X85478283Y-135359408D01*
X85346290Y-135040747D01*
X85279000Y-134702460D01*
X85279000Y-134357540D01*
X85346290Y-134019253D01*
X85478283Y-133700592D01*
X85669909Y-133413804D01*
X85913804Y-133169909D01*
X86200592Y-132978283D01*
X86387259Y-132900963D01*
X86519252Y-132846290D01*
X86632015Y-132823860D01*
X86857540Y-132779000D01*
X87202460Y-132779000D01*
X87427985Y-132823860D01*
G37*
G36*
X83367985Y-132823860D02*
G01*
X83480748Y-132846290D01*
X83612741Y-132900963D01*
X83799408Y-132978283D01*
X84086196Y-133169909D01*
X84330091Y-133413804D01*
X84521717Y-133700592D01*
X84653710Y-134019253D01*
X84721000Y-134357540D01*
X84721000Y-134702460D01*
X84653710Y-135040747D01*
X84521717Y-135359408D01*
X84330091Y-135646196D01*
X84086196Y-135890091D01*
X83799408Y-136081717D01*
X83612741Y-136159037D01*
X83480748Y-136213710D01*
X83367985Y-136236140D01*
X83142460Y-136281000D01*
X82797540Y-136281000D01*
X82572015Y-136236140D01*
X82459252Y-136213710D01*
X82327259Y-136159037D01*
X82140592Y-136081717D01*
X81853804Y-135890091D01*
X81609909Y-135646196D01*
X81418283Y-135359408D01*
X81286290Y-135040747D01*
X81219000Y-134702460D01*
X81219000Y-134357540D01*
X81286290Y-134019253D01*
X81418283Y-133700592D01*
X81609909Y-133413804D01*
X81853804Y-133169909D01*
X82140592Y-132978283D01*
X82327259Y-132900963D01*
X82459252Y-132846290D01*
X82572015Y-132823860D01*
X82797540Y-132779000D01*
X83142460Y-132779000D01*
X83367985Y-132823860D01*
G37*
G36*
X78287985Y-132823860D02*
G01*
X78400748Y-132846290D01*
X78532741Y-132900963D01*
X78719408Y-132978283D01*
X79006196Y-133169909D01*
X79250091Y-133413804D01*
X79441717Y-133700592D01*
X79573710Y-134019253D01*
X79641000Y-134357540D01*
X79641000Y-134702460D01*
X79573710Y-135040747D01*
X79441717Y-135359408D01*
X79250091Y-135646196D01*
X79006196Y-135890091D01*
X78719408Y-136081717D01*
X78532741Y-136159037D01*
X78400748Y-136213710D01*
X78287985Y-136236140D01*
X78062460Y-136281000D01*
X77717540Y-136281000D01*
X77492015Y-136236140D01*
X77379252Y-136213710D01*
X77247259Y-136159037D01*
X77060592Y-136081717D01*
X76773804Y-135890091D01*
X76529909Y-135646196D01*
X76338283Y-135359408D01*
X76206290Y-135040747D01*
X76139000Y-134702460D01*
X76139000Y-134357540D01*
X76206290Y-134019253D01*
X76338283Y-133700592D01*
X76529909Y-133413804D01*
X76773804Y-133169909D01*
X77060592Y-132978283D01*
X77247259Y-132900963D01*
X77379252Y-132846290D01*
X77492015Y-132823860D01*
X77717540Y-132779000D01*
X78062460Y-132779000D01*
X78287985Y-132823860D01*
G37*
G36*
X110233089Y-120978990D02*
G01*
X110428381Y-121038231D01*
X110608354Y-121134429D01*
X110766107Y-121263893D01*
X110895571Y-121421646D01*
X110991769Y-121601619D01*
X111051010Y-121796911D01*
X111071012Y-122000000D01*
X111051010Y-122203089D01*
X110991769Y-122398381D01*
X110895571Y-122578354D01*
X110766107Y-122736107D01*
X110608354Y-122865571D01*
X110428381Y-122961769D01*
X110233089Y-123021010D01*
X110080891Y-123036000D01*
X106019109Y-123036000D01*
X105866911Y-123021010D01*
X105671619Y-122961769D01*
X105491646Y-122865571D01*
X105333893Y-122736107D01*
X105204429Y-122578354D01*
X105108231Y-122398381D01*
X105048990Y-122203089D01*
X105028988Y-122000000D01*
X105048990Y-121796911D01*
X105108231Y-121601619D01*
X105204429Y-121421646D01*
X105333893Y-121263893D01*
X105491646Y-121134429D01*
X105671619Y-121038231D01*
X105866911Y-120978990D01*
X106019109Y-120964000D01*
X110080891Y-120964000D01*
X110233089Y-120978990D01*
G37*
G36*
X118133089Y-120978990D02*
G01*
X118328381Y-121038231D01*
X118508354Y-121134429D01*
X118666107Y-121263893D01*
X118795571Y-121421646D01*
X118891769Y-121601619D01*
X118951010Y-121796911D01*
X118971012Y-122000000D01*
X118951010Y-122203089D01*
X118891769Y-122398381D01*
X118795571Y-122578354D01*
X118666107Y-122736107D01*
X118508354Y-122865571D01*
X118328381Y-122961769D01*
X118133089Y-123021010D01*
X117980891Y-123036000D01*
X113919109Y-123036000D01*
X113766911Y-123021010D01*
X113571619Y-122961769D01*
X113391646Y-122865571D01*
X113233893Y-122736107D01*
X113104429Y-122578354D01*
X113008231Y-122398381D01*
X112948990Y-122203089D01*
X112928988Y-122000000D01*
X112948990Y-121796911D01*
X113008231Y-121601619D01*
X113104429Y-121421646D01*
X113233893Y-121263893D01*
X113391646Y-121134429D01*
X113571619Y-121038231D01*
X113766911Y-120978990D01*
X113919109Y-120964000D01*
X117980891Y-120964000D01*
X118133089Y-120978990D01*
G37*
G36*
X92507985Y-116313860D02*
G01*
X92620748Y-116336290D01*
X92752741Y-116390963D01*
X92939408Y-116468283D01*
X93226196Y-116659909D01*
X93470091Y-116903804D01*
X93661717Y-117190592D01*
X93793710Y-117509253D01*
X93861000Y-117847540D01*
X93861000Y-118192460D01*
X93793710Y-118530747D01*
X93661717Y-118849408D01*
X93470091Y-119136196D01*
X93226196Y-119380091D01*
X92939408Y-119571717D01*
X92752741Y-119649037D01*
X92620748Y-119703710D01*
X92507985Y-119726140D01*
X92282460Y-119771000D01*
X91937540Y-119771000D01*
X91712015Y-119726140D01*
X91599252Y-119703710D01*
X91467259Y-119649037D01*
X91280592Y-119571717D01*
X90993804Y-119380091D01*
X90749909Y-119136196D01*
X90558283Y-118849408D01*
X90426290Y-118530747D01*
X90359000Y-118192460D01*
X90359000Y-117847540D01*
X90426290Y-117509253D01*
X90558283Y-117190592D01*
X90749909Y-116903804D01*
X90993804Y-116659909D01*
X91280592Y-116468283D01*
X91467259Y-116390963D01*
X91599252Y-116336290D01*
X91712015Y-116313860D01*
X91937540Y-116269000D01*
X92282460Y-116269000D01*
X92507985Y-116313860D01*
G37*
G36*
X78287985Y-116313860D02*
G01*
X78400748Y-116336290D01*
X78532741Y-116390963D01*
X78719408Y-116468283D01*
X79006196Y-116659909D01*
X79250091Y-116903804D01*
X79441717Y-117190592D01*
X79573710Y-117509253D01*
X79641000Y-117847540D01*
X79641000Y-118192460D01*
X79573710Y-118530747D01*
X79441717Y-118849408D01*
X79250091Y-119136196D01*
X79006196Y-119380091D01*
X78719408Y-119571717D01*
X78532741Y-119649037D01*
X78400748Y-119703710D01*
X78287985Y-119726140D01*
X78062460Y-119771000D01*
X77717540Y-119771000D01*
X77492015Y-119726140D01*
X77379252Y-119703710D01*
X77247259Y-119649037D01*
X77060592Y-119571717D01*
X76773804Y-119380091D01*
X76529909Y-119136196D01*
X76338283Y-118849408D01*
X76206290Y-118530747D01*
X76139000Y-118192460D01*
X76139000Y-117847540D01*
X76206290Y-117509253D01*
X76338283Y-117190592D01*
X76529909Y-116903804D01*
X76773804Y-116659909D01*
X77060592Y-116468283D01*
X77247259Y-116390963D01*
X77379252Y-116336290D01*
X77492015Y-116313860D01*
X77717540Y-116269000D01*
X78062460Y-116269000D01*
X78287985Y-116313860D01*
G37*
G36*
X83367985Y-116313860D02*
G01*
X83480748Y-116336290D01*
X83612741Y-116390963D01*
X83799408Y-116468283D01*
X84086196Y-116659909D01*
X84330091Y-116903804D01*
X84521717Y-117190592D01*
X84653710Y-117509253D01*
X84721000Y-117847540D01*
X84721000Y-118192460D01*
X84653710Y-118530747D01*
X84521717Y-118849408D01*
X84330091Y-119136196D01*
X84086196Y-119380091D01*
X83799408Y-119571717D01*
X83612741Y-119649037D01*
X83480748Y-119703710D01*
X83367985Y-119726140D01*
X83142460Y-119771000D01*
X82797540Y-119771000D01*
X82572015Y-119726140D01*
X82459252Y-119703710D01*
X82327259Y-119649037D01*
X82140592Y-119571717D01*
X81853804Y-119380091D01*
X81609909Y-119136196D01*
X81418283Y-118849408D01*
X81286290Y-118530747D01*
X81219000Y-118192460D01*
X81219000Y-117847540D01*
X81286290Y-117509253D01*
X81418283Y-117190592D01*
X81609909Y-116903804D01*
X81853804Y-116659909D01*
X82140592Y-116468283D01*
X82327259Y-116390963D01*
X82459252Y-116336290D01*
X82572015Y-116313860D01*
X82797540Y-116269000D01*
X83142460Y-116269000D01*
X83367985Y-116313860D01*
G37*
G36*
X87427985Y-116313860D02*
G01*
X87540748Y-116336290D01*
X87672741Y-116390963D01*
X87859408Y-116468283D01*
X88146196Y-116659909D01*
X88390091Y-116903804D01*
X88581717Y-117190592D01*
X88713710Y-117509253D01*
X88781000Y-117847540D01*
X88781000Y-118192460D01*
X88713710Y-118530747D01*
X88581717Y-118849408D01*
X88390091Y-119136196D01*
X88146196Y-119380091D01*
X87859408Y-119571717D01*
X87672741Y-119649037D01*
X87540748Y-119703710D01*
X87427985Y-119726140D01*
X87202460Y-119771000D01*
X86857540Y-119771000D01*
X86632015Y-119726140D01*
X86519252Y-119703710D01*
X86387259Y-119649037D01*
X86200592Y-119571717D01*
X85913804Y-119380091D01*
X85669909Y-119136196D01*
X85478283Y-118849408D01*
X85346290Y-118530747D01*
X85279000Y-118192460D01*
X85279000Y-117847540D01*
X85346290Y-117509253D01*
X85478283Y-117190592D01*
X85669909Y-116903804D01*
X85913804Y-116659909D01*
X86200592Y-116468283D01*
X86387259Y-116390963D01*
X86519252Y-116336290D01*
X86632015Y-116313860D01*
X86857540Y-116269000D01*
X87202460Y-116269000D01*
X87427985Y-116313860D01*
G37*
G36*
X110233089Y-104478990D02*
G01*
X110428381Y-104538231D01*
X110608354Y-104634429D01*
X110766107Y-104763893D01*
X110895571Y-104921646D01*
X110991769Y-105101619D01*
X111051010Y-105296911D01*
X111071012Y-105500000D01*
X111051010Y-105703089D01*
X110991769Y-105898381D01*
X110895571Y-106078354D01*
X110766107Y-106236107D01*
X110608354Y-106365571D01*
X110428381Y-106461769D01*
X110233089Y-106521010D01*
X110080891Y-106536000D01*
X106019109Y-106536000D01*
X105866911Y-106521010D01*
X105671619Y-106461769D01*
X105491646Y-106365571D01*
X105333893Y-106236107D01*
X105204429Y-106078354D01*
X105108231Y-105898381D01*
X105048990Y-105703089D01*
X105028988Y-105500000D01*
X105048990Y-105296911D01*
X105108231Y-105101619D01*
X105204429Y-104921646D01*
X105333893Y-104763893D01*
X105491646Y-104634429D01*
X105671619Y-104538231D01*
X105866911Y-104478990D01*
X106019109Y-104464000D01*
X110080891Y-104464000D01*
X110233089Y-104478990D01*
G37*
G36*
X118133089Y-104478990D02*
G01*
X118328381Y-104538231D01*
X118508354Y-104634429D01*
X118666107Y-104763893D01*
X118795571Y-104921646D01*
X118891769Y-105101619D01*
X118951010Y-105296911D01*
X118971012Y-105500000D01*
X118951010Y-105703089D01*
X118891769Y-105898381D01*
X118795571Y-106078354D01*
X118666107Y-106236107D01*
X118508354Y-106365571D01*
X118328381Y-106461769D01*
X118133089Y-106521010D01*
X117980891Y-106536000D01*
X113919109Y-106536000D01*
X113766911Y-106521010D01*
X113571619Y-106461769D01*
X113391646Y-106365571D01*
X113233893Y-106236107D01*
X113104429Y-106078354D01*
X113008231Y-105898381D01*
X112948990Y-105703089D01*
X112928988Y-105500000D01*
X112948990Y-105296911D01*
X113008231Y-105101619D01*
X113104429Y-104921646D01*
X113233893Y-104763893D01*
X113391646Y-104634429D01*
X113571619Y-104538231D01*
X113766911Y-104478990D01*
X113919109Y-104464000D01*
X117980891Y-104464000D01*
X118133089Y-104478990D01*
G37*
G36*
X83367985Y-99803860D02*
G01*
X83480748Y-99826290D01*
X83612741Y-99880963D01*
X83799408Y-99958283D01*
X84086196Y-100149909D01*
X84330091Y-100393804D01*
X84521717Y-100680592D01*
X84653710Y-100999253D01*
X84721000Y-101337540D01*
X84721000Y-101682460D01*
X84653710Y-102020747D01*
X84521717Y-102339408D01*
X84330091Y-102626196D01*
X84086196Y-102870091D01*
X83799408Y-103061717D01*
X83612741Y-103139037D01*
X83480748Y-103193710D01*
X83367985Y-103216140D01*
X83142460Y-103261000D01*
X82797540Y-103261000D01*
X82572015Y-103216140D01*
X82459252Y-103193710D01*
X82327259Y-103139037D01*
X82140592Y-103061717D01*
X81853804Y-102870091D01*
X81609909Y-102626196D01*
X81418283Y-102339408D01*
X81286290Y-102020747D01*
X81219000Y-101682460D01*
X81219000Y-101337540D01*
X81286290Y-100999253D01*
X81418283Y-100680592D01*
X81609909Y-100393804D01*
X81853804Y-100149909D01*
X82140592Y-99958283D01*
X82327259Y-99880963D01*
X82459252Y-99826290D01*
X82572015Y-99803860D01*
X82797540Y-99759000D01*
X83142460Y-99759000D01*
X83367985Y-99803860D01*
G37*
G36*
X92507985Y-99803860D02*
G01*
X92620748Y-99826290D01*
X92752741Y-99880963D01*
X92939408Y-99958283D01*
X93226196Y-100149909D01*
X93470091Y-100393804D01*
X93661717Y-100680592D01*
X93793710Y-100999253D01*
X93861000Y-101337540D01*
X93861000Y-101682460D01*
X93793710Y-102020747D01*
X93661717Y-102339408D01*
X93470091Y-102626196D01*
X93226196Y-102870091D01*
X92939408Y-103061717D01*
X92752741Y-103139037D01*
X92620748Y-103193710D01*
X92507985Y-103216140D01*
X92282460Y-103261000D01*
X91937540Y-103261000D01*
X91712015Y-103216140D01*
X91599252Y-103193710D01*
X91467259Y-103139037D01*
X91280592Y-103061717D01*
X90993804Y-102870091D01*
X90749909Y-102626196D01*
X90558283Y-102339408D01*
X90426290Y-102020747D01*
X90359000Y-101682460D01*
X90359000Y-101337540D01*
X90426290Y-100999253D01*
X90558283Y-100680592D01*
X90749909Y-100393804D01*
X90993804Y-100149909D01*
X91280592Y-99958283D01*
X91467259Y-99880963D01*
X91599252Y-99826290D01*
X91712015Y-99803860D01*
X91937540Y-99759000D01*
X92282460Y-99759000D01*
X92507985Y-99803860D01*
G37*
G36*
X87427985Y-99803860D02*
G01*
X87540748Y-99826290D01*
X87672741Y-99880963D01*
X87859408Y-99958283D01*
X88146196Y-100149909D01*
X88390091Y-100393804D01*
X88581717Y-100680592D01*
X88713710Y-100999253D01*
X88781000Y-101337540D01*
X88781000Y-101682460D01*
X88713710Y-102020747D01*
X88581717Y-102339408D01*
X88390091Y-102626196D01*
X88146196Y-102870091D01*
X87859408Y-103061717D01*
X87672741Y-103139037D01*
X87540748Y-103193710D01*
X87427985Y-103216140D01*
X87202460Y-103261000D01*
X86857540Y-103261000D01*
X86632015Y-103216140D01*
X86519252Y-103193710D01*
X86387259Y-103139037D01*
X86200592Y-103061717D01*
X85913804Y-102870091D01*
X85669909Y-102626196D01*
X85478283Y-102339408D01*
X85346290Y-102020747D01*
X85279000Y-101682460D01*
X85279000Y-101337540D01*
X85346290Y-100999253D01*
X85478283Y-100680592D01*
X85669909Y-100393804D01*
X85913804Y-100149909D01*
X86200592Y-99958283D01*
X86387259Y-99880963D01*
X86519252Y-99826290D01*
X86632015Y-99803860D01*
X86857540Y-99759000D01*
X87202460Y-99759000D01*
X87427985Y-99803860D01*
G37*
G36*
X78287985Y-99803860D02*
G01*
X78400748Y-99826290D01*
X78532741Y-99880963D01*
X78719408Y-99958283D01*
X79006196Y-100149909D01*
X79250091Y-100393804D01*
X79441717Y-100680592D01*
X79573710Y-100999253D01*
X79641000Y-101337540D01*
X79641000Y-101682460D01*
X79573710Y-102020747D01*
X79441717Y-102339408D01*
X79250091Y-102626196D01*
X79006196Y-102870091D01*
X78719408Y-103061717D01*
X78532741Y-103139037D01*
X78400748Y-103193710D01*
X78287985Y-103216140D01*
X78062460Y-103261000D01*
X77717540Y-103261000D01*
X77492015Y-103216140D01*
X77379252Y-103193710D01*
X77247259Y-103139037D01*
X77060592Y-103061717D01*
X76773804Y-102870091D01*
X76529909Y-102626196D01*
X76338283Y-102339408D01*
X76206290Y-102020747D01*
X76139000Y-101682460D01*
X76139000Y-101337540D01*
X76206290Y-100999253D01*
X76338283Y-100680592D01*
X76529909Y-100393804D01*
X76773804Y-100149909D01*
X77060592Y-99958283D01*
X77247259Y-99880963D01*
X77379252Y-99826290D01*
X77492015Y-99803860D01*
X77717540Y-99759000D01*
X78062460Y-99759000D01*
X78287985Y-99803860D01*
G37*
G36*
X118133089Y-87978990D02*
G01*
X118328381Y-88038231D01*
X118508354Y-88134429D01*
X118666107Y-88263893D01*
X118795571Y-88421646D01*
X118891769Y-88601619D01*
X118951010Y-88796911D01*
X118971012Y-89000000D01*
X118951010Y-89203089D01*
X118891769Y-89398381D01*
X118795571Y-89578354D01*
X118666107Y-89736107D01*
X118508354Y-89865571D01*
X118328381Y-89961769D01*
X118133089Y-90021010D01*
X117980891Y-90036000D01*
X113919109Y-90036000D01*
X113766911Y-90021010D01*
X113571619Y-89961769D01*
X113391646Y-89865571D01*
X113233893Y-89736107D01*
X113104429Y-89578354D01*
X113008231Y-89398381D01*
X112948990Y-89203089D01*
X112928988Y-89000000D01*
X112948990Y-88796911D01*
X113008231Y-88601619D01*
X113104429Y-88421646D01*
X113233893Y-88263893D01*
X113391646Y-88134429D01*
X113571619Y-88038231D01*
X113766911Y-87978990D01*
X113919109Y-87964000D01*
X117980891Y-87964000D01*
X118133089Y-87978990D01*
G37*
G36*
X110233089Y-87978990D02*
G01*
X110428381Y-88038231D01*
X110608354Y-88134429D01*
X110766107Y-88263893D01*
X110895571Y-88421646D01*
X110991769Y-88601619D01*
X111051010Y-88796911D01*
X111071012Y-89000000D01*
X111051010Y-89203089D01*
X110991769Y-89398381D01*
X110895571Y-89578354D01*
X110766107Y-89736107D01*
X110608354Y-89865571D01*
X110428381Y-89961769D01*
X110233089Y-90021010D01*
X110080891Y-90036000D01*
X106019109Y-90036000D01*
X105866911Y-90021010D01*
X105671619Y-89961769D01*
X105491646Y-89865571D01*
X105333893Y-89736107D01*
X105204429Y-89578354D01*
X105108231Y-89398381D01*
X105048990Y-89203089D01*
X105028988Y-89000000D01*
X105048990Y-88796911D01*
X105108231Y-88601619D01*
X105204429Y-88421646D01*
X105333893Y-88263893D01*
X105491646Y-88134429D01*
X105671619Y-88038231D01*
X105866911Y-87978990D01*
X106019109Y-87964000D01*
X110080891Y-87964000D01*
X110233089Y-87978990D01*
G37*
G36*
X83367985Y-83293860D02*
G01*
X83480748Y-83316290D01*
X83612741Y-83370963D01*
X83799408Y-83448283D01*
X84086196Y-83639909D01*
X84330091Y-83883804D01*
X84521717Y-84170592D01*
X84653710Y-84489253D01*
X84721000Y-84827540D01*
X84721000Y-85172460D01*
X84653710Y-85510747D01*
X84521717Y-85829408D01*
X84330091Y-86116196D01*
X84086196Y-86360091D01*
X83799408Y-86551717D01*
X83612741Y-86629037D01*
X83480748Y-86683710D01*
X83367985Y-86706140D01*
X83142460Y-86751000D01*
X82797540Y-86751000D01*
X82572015Y-86706140D01*
X82459252Y-86683710D01*
X82327259Y-86629037D01*
X82140592Y-86551717D01*
X81853804Y-86360091D01*
X81609909Y-86116196D01*
X81418283Y-85829408D01*
X81286290Y-85510747D01*
X81219000Y-85172460D01*
X81219000Y-84827540D01*
X81286290Y-84489253D01*
X81418283Y-84170592D01*
X81609909Y-83883804D01*
X81853804Y-83639909D01*
X82140592Y-83448283D01*
X82327259Y-83370963D01*
X82459252Y-83316290D01*
X82572015Y-83293860D01*
X82797540Y-83249000D01*
X83142460Y-83249000D01*
X83367985Y-83293860D01*
G37*
G36*
X92507985Y-83293860D02*
G01*
X92620748Y-83316290D01*
X92752741Y-83370963D01*
X92939408Y-83448283D01*
X93226196Y-83639909D01*
X93470091Y-83883804D01*
X93661717Y-84170592D01*
X93793710Y-84489253D01*
X93861000Y-84827540D01*
X93861000Y-85172460D01*
X93793710Y-85510747D01*
X93661717Y-85829408D01*
X93470091Y-86116196D01*
X93226196Y-86360091D01*
X92939408Y-86551717D01*
X92752741Y-86629037D01*
X92620748Y-86683710D01*
X92507985Y-86706140D01*
X92282460Y-86751000D01*
X91937540Y-86751000D01*
X91712015Y-86706140D01*
X91599252Y-86683710D01*
X91467259Y-86629037D01*
X91280592Y-86551717D01*
X90993804Y-86360091D01*
X90749909Y-86116196D01*
X90558283Y-85829408D01*
X90426290Y-85510747D01*
X90359000Y-85172460D01*
X90359000Y-84827540D01*
X90426290Y-84489253D01*
X90558283Y-84170592D01*
X90749909Y-83883804D01*
X90993804Y-83639909D01*
X91280592Y-83448283D01*
X91467259Y-83370963D01*
X91599252Y-83316290D01*
X91712015Y-83293860D01*
X91937540Y-83249000D01*
X92282460Y-83249000D01*
X92507985Y-83293860D01*
G37*
G36*
X87427985Y-83293860D02*
G01*
X87540748Y-83316290D01*
X87672741Y-83370963D01*
X87859408Y-83448283D01*
X88146196Y-83639909D01*
X88390091Y-83883804D01*
X88581717Y-84170592D01*
X88713710Y-84489253D01*
X88781000Y-84827540D01*
X88781000Y-85172460D01*
X88713710Y-85510747D01*
X88581717Y-85829408D01*
X88390091Y-86116196D01*
X88146196Y-86360091D01*
X87859408Y-86551717D01*
X87672741Y-86629037D01*
X87540748Y-86683710D01*
X87427985Y-86706140D01*
X87202460Y-86751000D01*
X86857540Y-86751000D01*
X86632015Y-86706140D01*
X86519252Y-86683710D01*
X86387259Y-86629037D01*
X86200592Y-86551717D01*
X85913804Y-86360091D01*
X85669909Y-86116196D01*
X85478283Y-85829408D01*
X85346290Y-85510747D01*
X85279000Y-85172460D01*
X85279000Y-84827540D01*
X85346290Y-84489253D01*
X85478283Y-84170592D01*
X85669909Y-83883804D01*
X85913804Y-83639909D01*
X86200592Y-83448283D01*
X86387259Y-83370963D01*
X86519252Y-83316290D01*
X86632015Y-83293860D01*
X86857540Y-83249000D01*
X87202460Y-83249000D01*
X87427985Y-83293860D01*
G37*
G36*
X78287985Y-83293860D02*
G01*
X78400748Y-83316290D01*
X78532741Y-83370963D01*
X78719408Y-83448283D01*
X79006196Y-83639909D01*
X79250091Y-83883804D01*
X79441717Y-84170592D01*
X79573710Y-84489253D01*
X79641000Y-84827540D01*
X79641000Y-85172460D01*
X79573710Y-85510747D01*
X79441717Y-85829408D01*
X79250091Y-86116196D01*
X79006196Y-86360091D01*
X78719408Y-86551717D01*
X78532741Y-86629037D01*
X78400748Y-86683710D01*
X78287985Y-86706140D01*
X78062460Y-86751000D01*
X77717540Y-86751000D01*
X77492015Y-86706140D01*
X77379252Y-86683710D01*
X77247259Y-86629037D01*
X77060592Y-86551717D01*
X76773804Y-86360091D01*
X76529909Y-86116196D01*
X76338283Y-85829408D01*
X76206290Y-85510747D01*
X76139000Y-85172460D01*
X76139000Y-84827540D01*
X76206290Y-84489253D01*
X76338283Y-84170592D01*
X76529909Y-83883804D01*
X76773804Y-83639909D01*
X77060592Y-83448283D01*
X77247259Y-83370963D01*
X77379252Y-83316290D01*
X77492015Y-83293860D01*
X77717540Y-83249000D01*
X78062460Y-83249000D01*
X78287985Y-83293860D01*
G37*
G36*
X110233089Y-71978990D02*
G01*
X110428381Y-72038231D01*
X110608354Y-72134429D01*
X110766107Y-72263893D01*
X110895571Y-72421646D01*
X110991769Y-72601619D01*
X111051010Y-72796911D01*
X111071012Y-73000000D01*
X111051010Y-73203089D01*
X110991769Y-73398381D01*
X110895571Y-73578354D01*
X110766107Y-73736107D01*
X110608354Y-73865571D01*
X110428381Y-73961769D01*
X110233089Y-74021010D01*
X110080891Y-74036000D01*
X106019109Y-74036000D01*
X105866911Y-74021010D01*
X105671619Y-73961769D01*
X105491646Y-73865571D01*
X105333893Y-73736107D01*
X105204429Y-73578354D01*
X105108231Y-73398381D01*
X105048990Y-73203089D01*
X105028988Y-73000000D01*
X105048990Y-72796911D01*
X105108231Y-72601619D01*
X105204429Y-72421646D01*
X105333893Y-72263893D01*
X105491646Y-72134429D01*
X105671619Y-72038231D01*
X105866911Y-71978990D01*
X106019109Y-71964000D01*
X110080891Y-71964000D01*
X110233089Y-71978990D01*
G37*
G36*
X118133089Y-71978990D02*
G01*
X118328381Y-72038231D01*
X118508354Y-72134429D01*
X118666107Y-72263893D01*
X118795571Y-72421646D01*
X118891769Y-72601619D01*
X118951010Y-72796911D01*
X118971012Y-73000000D01*
X118951010Y-73203089D01*
X118891769Y-73398381D01*
X118795571Y-73578354D01*
X118666107Y-73736107D01*
X118508354Y-73865571D01*
X118328381Y-73961769D01*
X118133089Y-74021010D01*
X117980891Y-74036000D01*
X113919109Y-74036000D01*
X113766911Y-74021010D01*
X113571619Y-73961769D01*
X113391646Y-73865571D01*
X113233893Y-73736107D01*
X113104429Y-73578354D01*
X113008231Y-73398381D01*
X112948990Y-73203089D01*
X112928988Y-73000000D01*
X112948990Y-72796911D01*
X113008231Y-72601619D01*
X113104429Y-72421646D01*
X113233893Y-72263893D01*
X113391646Y-72134429D01*
X113571619Y-72038231D01*
X113766911Y-71978990D01*
X113919109Y-71964000D01*
X117980891Y-71964000D01*
X118133089Y-71978990D01*
G37*
G36*
X116948903Y-57743213D02*
G01*
X117171177Y-57787426D01*
X117589932Y-57960880D01*
X117966802Y-58212696D01*
X118287304Y-58533198D01*
X118539120Y-58910068D01*
X118712574Y-59328823D01*
X118801000Y-59773371D01*
X118801000Y-60226629D01*
X118712574Y-60671177D01*
X118539120Y-61089932D01*
X118287304Y-61466802D01*
X117966802Y-61787304D01*
X117589932Y-62039120D01*
X117171177Y-62212574D01*
X116948903Y-62256787D01*
X116726630Y-62301000D01*
X116273370Y-62301000D01*
X116051097Y-62256787D01*
X115828823Y-62212574D01*
X115410068Y-62039120D01*
X115033198Y-61787304D01*
X114712696Y-61466802D01*
X114460880Y-61089932D01*
X114287426Y-60671177D01*
X114199000Y-60226629D01*
X114199000Y-59773371D01*
X114287426Y-59328823D01*
X114460880Y-58910068D01*
X114712696Y-58533198D01*
X115033198Y-58212696D01*
X115410068Y-57960880D01*
X115828823Y-57787426D01*
X116051097Y-57743213D01*
X116273370Y-57699000D01*
X116726630Y-57699000D01*
X116948903Y-57743213D01*
G37*
G36*
X79448903Y-57743213D02*
G01*
X79671177Y-57787426D01*
X80089932Y-57960880D01*
X80466802Y-58212696D01*
X80787304Y-58533198D01*
X81039120Y-58910068D01*
X81212574Y-59328823D01*
X81301000Y-59773371D01*
X81301000Y-60226629D01*
X81212574Y-60671177D01*
X81039120Y-61089932D01*
X80787304Y-61466802D01*
X80466802Y-61787304D01*
X80089932Y-62039120D01*
X79671177Y-62212574D01*
X79448903Y-62256787D01*
X79226630Y-62301000D01*
X78773370Y-62301000D01*
X78551097Y-62256787D01*
X78328823Y-62212574D01*
X77910068Y-62039120D01*
X77533198Y-61787304D01*
X77212696Y-61466802D01*
X76960880Y-61089932D01*
X76787426Y-60671177D01*
X76699000Y-60226629D01*
X76699000Y-59773371D01*
X76787426Y-59328823D01*
X76960880Y-58910068D01*
X77212696Y-58533198D01*
X77533198Y-58212696D01*
X77910068Y-57960880D01*
X78328823Y-57787426D01*
X78551097Y-57743213D01*
X78773370Y-57699000D01*
X79226630Y-57699000D01*
X79448903Y-57743213D01*
G37*
M02*
