G04 #@! TF.GenerationSoftware,KiCad,Pcbnew,5.1.2-f72e74a~84~ubuntu18.04.1*
G04 #@! TF.CreationDate,2019-05-08T19:05:58-06:00*
G04 #@! TF.ProjectId,anderson_fuse_board,616e6465-7273-46f6-9e5f-667573655f62,rev?*
G04 #@! TF.SameCoordinates,Original*
G04 #@! TF.FileFunction,Copper,L2,Bot*
G04 #@! TF.FilePolarity,Positive*
%FSLAX46Y46*%
G04 Gerber Fmt 4.6, Leading zero omitted, Abs format (unit mm)*
G04 Created by KiCad (PCBNEW 5.1.2-f72e74a~84~ubuntu18.04.1) date 2019-05-08 19:05:58*
%MOMM*%
%LPD*%
G04 APERTURE LIST*
%ADD10C,3.300000*%
%ADD11O,5.930000X1.970000*%
%ADD12C,8.000000*%
%ADD13C,6.000000*%
G04 APERTURE END LIST*
D10*
X85000000Y-85000000D03*
X94140000Y-85000000D03*
X94140000Y-101510000D03*
X85000000Y-101510000D03*
X85000000Y-118020000D03*
X94140000Y-118020000D03*
X94140000Y-134530000D03*
X85000000Y-134530000D03*
D11*
X108050000Y-73000000D03*
X115950000Y-73000000D03*
X115950000Y-89000000D03*
X108050000Y-89000000D03*
X108050000Y-105500000D03*
X115950000Y-105500000D03*
X115950000Y-122000000D03*
X108050000Y-122000000D03*
X108050000Y-138500000D03*
X115950000Y-138500000D03*
D12*
X85000000Y-79000000D02*
X85000000Y-85000000D01*
X108050000Y-73000000D02*
X91000000Y-73000000D01*
X91000000Y-73000000D02*
X85000000Y-79000000D01*
X85000000Y-85000000D02*
X85000000Y-101510000D01*
X85000000Y-101510000D02*
X85000000Y-118020000D01*
X85000000Y-118020000D02*
X85000000Y-134530000D01*
X94140000Y-85000000D02*
X104050000Y-85000000D01*
X104050000Y-85000000D02*
X108050000Y-89000000D01*
D13*
X94140000Y-85000000D02*
X100640000Y-91500000D01*
X105550000Y-91500000D02*
X108050000Y-89000000D01*
X100640000Y-91500000D02*
X105550000Y-91500000D01*
D12*
X104060000Y-101510000D02*
X108050000Y-105500000D01*
X94140000Y-101510000D02*
X104060000Y-101510000D01*
D13*
X94140000Y-101510000D02*
X100630000Y-108000000D01*
X105550000Y-108000000D02*
X108050000Y-105500000D01*
X100630000Y-108000000D02*
X105550000Y-108000000D01*
D12*
X104070000Y-118020000D02*
X108050000Y-122000000D01*
X94140000Y-118020000D02*
X104070000Y-118020000D01*
D13*
X94140000Y-118020000D02*
X101120000Y-125000000D01*
X105050000Y-125000000D02*
X108050000Y-122000000D01*
X101120000Y-125000000D02*
X105050000Y-125000000D01*
D12*
X104080000Y-134530000D02*
X108050000Y-138500000D01*
X94140000Y-134530000D02*
X104080000Y-134530000D01*
D13*
X94140000Y-134530000D02*
X101610000Y-142000000D01*
X104550000Y-142000000D02*
X108050000Y-138500000D01*
X101610000Y-142000000D02*
X104550000Y-142000000D01*
X115950000Y-73000000D02*
X115950000Y-89000000D01*
X115950000Y-89000000D02*
X115950000Y-105500000D01*
X115950000Y-105500000D02*
X115950000Y-122000000D01*
X115950000Y-122000000D02*
X115950000Y-138500000D01*
X115950000Y-73000000D02*
X117000000Y-73000000D01*
X117000000Y-73000000D02*
X118500000Y-74500000D01*
X118500000Y-74500000D02*
X118500000Y-138500000D01*
M02*
