G04 #@! TF.GenerationSoftware,KiCad,Pcbnew,5.1.5-52549c5~84~ubuntu18.04.1*
G04 #@! TF.CreationDate,2020-03-21T09:19:16-06:00*
G04 #@! TF.ProjectId,anderson_fuse_board,616e6465-7273-46f6-9e5f-667573655f62,rev?*
G04 #@! TF.SameCoordinates,Original*
G04 #@! TF.FileFunction,Soldermask,Top*
G04 #@! TF.FilePolarity,Negative*
%FSLAX46Y46*%
G04 Gerber Fmt 4.6, Leading zero omitted, Abs format (unit mm)*
G04 Created by KiCad (PCBNEW 5.1.5-52549c5~84~ubuntu18.04.1) date 2020-03-21 09:19:16*
%MOMM*%
%LPD*%
G04 APERTURE LIST*
%ADD10C,0.100000*%
G04 APERTURE END LIST*
D10*
G36*
X116948903Y-151743213D02*
G01*
X117171177Y-151787426D01*
X117589932Y-151960880D01*
X117966802Y-152212696D01*
X118287304Y-152533198D01*
X118539120Y-152910068D01*
X118712574Y-153328823D01*
X118801000Y-153773371D01*
X118801000Y-154226629D01*
X118712574Y-154671177D01*
X118539120Y-155089932D01*
X118287304Y-155466802D01*
X117966802Y-155787304D01*
X117589932Y-156039120D01*
X117171177Y-156212574D01*
X116948903Y-156256787D01*
X116726630Y-156301000D01*
X116273370Y-156301000D01*
X116051097Y-156256787D01*
X115828823Y-156212574D01*
X115410068Y-156039120D01*
X115033198Y-155787304D01*
X114712696Y-155466802D01*
X114460880Y-155089932D01*
X114287426Y-154671177D01*
X114199000Y-154226629D01*
X114199000Y-153773371D01*
X114287426Y-153328823D01*
X114460880Y-152910068D01*
X114712696Y-152533198D01*
X115033198Y-152212696D01*
X115410068Y-151960880D01*
X115828823Y-151787426D01*
X116051097Y-151743213D01*
X116273370Y-151699000D01*
X116726630Y-151699000D01*
X116948903Y-151743213D01*
G37*
G36*
X79448903Y-151743213D02*
G01*
X79671177Y-151787426D01*
X80089932Y-151960880D01*
X80466802Y-152212696D01*
X80787304Y-152533198D01*
X81039120Y-152910068D01*
X81212574Y-153328823D01*
X81301000Y-153773371D01*
X81301000Y-154226629D01*
X81212574Y-154671177D01*
X81039120Y-155089932D01*
X80787304Y-155466802D01*
X80466802Y-155787304D01*
X80089932Y-156039120D01*
X79671177Y-156212574D01*
X79448903Y-156256787D01*
X79226630Y-156301000D01*
X78773370Y-156301000D01*
X78551097Y-156256787D01*
X78328823Y-156212574D01*
X77910068Y-156039120D01*
X77533198Y-155787304D01*
X77212696Y-155466802D01*
X76960880Y-155089932D01*
X76787426Y-154671177D01*
X76699000Y-154226629D01*
X76699000Y-153773371D01*
X76787426Y-153328823D01*
X76960880Y-152910068D01*
X77212696Y-152533198D01*
X77533198Y-152212696D01*
X77910068Y-151960880D01*
X78328823Y-151787426D01*
X78551097Y-151743213D01*
X78773370Y-151699000D01*
X79226630Y-151699000D01*
X79448903Y-151743213D01*
G37*
G36*
X110136528Y-138819238D02*
G01*
X110242893Y-138829714D01*
X110447605Y-138891813D01*
X110636268Y-138992655D01*
X110687647Y-139034821D01*
X110801634Y-139128366D01*
X110895179Y-139242353D01*
X110937345Y-139293732D01*
X111038187Y-139482395D01*
X111100286Y-139687107D01*
X111121254Y-139900000D01*
X111100286Y-140112893D01*
X111038187Y-140317605D01*
X110937345Y-140506268D01*
X110895179Y-140557647D01*
X110801634Y-140671634D01*
X110687647Y-140765179D01*
X110636268Y-140807345D01*
X110447605Y-140908187D01*
X110242893Y-140970286D01*
X110136528Y-140980762D01*
X110083346Y-140986000D01*
X106016654Y-140986000D01*
X105963472Y-140980762D01*
X105857107Y-140970286D01*
X105652395Y-140908187D01*
X105463732Y-140807345D01*
X105412353Y-140765179D01*
X105298366Y-140671634D01*
X105204821Y-140557647D01*
X105162655Y-140506268D01*
X105061813Y-140317605D01*
X104999714Y-140112893D01*
X104978746Y-139900000D01*
X104999714Y-139687107D01*
X105061813Y-139482395D01*
X105162655Y-139293732D01*
X105204821Y-139242353D01*
X105298366Y-139128366D01*
X105412353Y-139034821D01*
X105463732Y-138992655D01*
X105652395Y-138891813D01*
X105857107Y-138829714D01*
X105963472Y-138819238D01*
X106016654Y-138814000D01*
X110083346Y-138814000D01*
X110136528Y-138819238D01*
G37*
G36*
X118036528Y-138819238D02*
G01*
X118142893Y-138829714D01*
X118347605Y-138891813D01*
X118536268Y-138992655D01*
X118587647Y-139034821D01*
X118701634Y-139128366D01*
X118795179Y-139242353D01*
X118837345Y-139293732D01*
X118938187Y-139482395D01*
X119000286Y-139687107D01*
X119021254Y-139900000D01*
X119000286Y-140112893D01*
X118938187Y-140317605D01*
X118837345Y-140506268D01*
X118795179Y-140557647D01*
X118701634Y-140671634D01*
X118587647Y-140765179D01*
X118536268Y-140807345D01*
X118347605Y-140908187D01*
X118142893Y-140970286D01*
X118036528Y-140980762D01*
X117983346Y-140986000D01*
X113916654Y-140986000D01*
X113863472Y-140980762D01*
X113757107Y-140970286D01*
X113552395Y-140908187D01*
X113363732Y-140807345D01*
X113312353Y-140765179D01*
X113198366Y-140671634D01*
X113104821Y-140557647D01*
X113062655Y-140506268D01*
X112961813Y-140317605D01*
X112899714Y-140112893D01*
X112878746Y-139900000D01*
X112899714Y-139687107D01*
X112961813Y-139482395D01*
X113062655Y-139293732D01*
X113104821Y-139242353D01*
X113198366Y-139128366D01*
X113312353Y-139034821D01*
X113363732Y-138992655D01*
X113552395Y-138891813D01*
X113757107Y-138829714D01*
X113863472Y-138819238D01*
X113916654Y-138814000D01*
X117983346Y-138814000D01*
X118036528Y-138819238D01*
G37*
G36*
X92507985Y-132823860D02*
G01*
X92620748Y-132846290D01*
X92752741Y-132900963D01*
X92939408Y-132978283D01*
X93226196Y-133169909D01*
X93470091Y-133413804D01*
X93661717Y-133700592D01*
X93793710Y-134019253D01*
X93861000Y-134357540D01*
X93861000Y-134702460D01*
X93793710Y-135040747D01*
X93661717Y-135359408D01*
X93470091Y-135646196D01*
X93226196Y-135890091D01*
X92939408Y-136081717D01*
X92752741Y-136159037D01*
X92620748Y-136213710D01*
X92507985Y-136236140D01*
X92282460Y-136281000D01*
X91937540Y-136281000D01*
X91712015Y-136236140D01*
X91599252Y-136213710D01*
X91467259Y-136159037D01*
X91280592Y-136081717D01*
X90993804Y-135890091D01*
X90749909Y-135646196D01*
X90558283Y-135359408D01*
X90426290Y-135040747D01*
X90359000Y-134702460D01*
X90359000Y-134357540D01*
X90426290Y-134019253D01*
X90558283Y-133700592D01*
X90749909Y-133413804D01*
X90993804Y-133169909D01*
X91280592Y-132978283D01*
X91467259Y-132900963D01*
X91599252Y-132846290D01*
X91712015Y-132823860D01*
X91937540Y-132779000D01*
X92282460Y-132779000D01*
X92507985Y-132823860D01*
G37*
G36*
X87427985Y-132823860D02*
G01*
X87540748Y-132846290D01*
X87672741Y-132900963D01*
X87859408Y-132978283D01*
X88146196Y-133169909D01*
X88390091Y-133413804D01*
X88581717Y-133700592D01*
X88713710Y-134019253D01*
X88781000Y-134357540D01*
X88781000Y-134702460D01*
X88713710Y-135040747D01*
X88581717Y-135359408D01*
X88390091Y-135646196D01*
X88146196Y-135890091D01*
X87859408Y-136081717D01*
X87672741Y-136159037D01*
X87540748Y-136213710D01*
X87427985Y-136236140D01*
X87202460Y-136281000D01*
X86857540Y-136281000D01*
X86632015Y-136236140D01*
X86519252Y-136213710D01*
X86387259Y-136159037D01*
X86200592Y-136081717D01*
X85913804Y-135890091D01*
X85669909Y-135646196D01*
X85478283Y-135359408D01*
X85346290Y-135040747D01*
X85279000Y-134702460D01*
X85279000Y-134357540D01*
X85346290Y-134019253D01*
X85478283Y-133700592D01*
X85669909Y-133413804D01*
X85913804Y-133169909D01*
X86200592Y-132978283D01*
X86387259Y-132900963D01*
X86519252Y-132846290D01*
X86632015Y-132823860D01*
X86857540Y-132779000D01*
X87202460Y-132779000D01*
X87427985Y-132823860D01*
G37*
G36*
X83367985Y-132823860D02*
G01*
X83480748Y-132846290D01*
X83612741Y-132900963D01*
X83799408Y-132978283D01*
X84086196Y-133169909D01*
X84330091Y-133413804D01*
X84521717Y-133700592D01*
X84653710Y-134019253D01*
X84721000Y-134357540D01*
X84721000Y-134702460D01*
X84653710Y-135040747D01*
X84521717Y-135359408D01*
X84330091Y-135646196D01*
X84086196Y-135890091D01*
X83799408Y-136081717D01*
X83612741Y-136159037D01*
X83480748Y-136213710D01*
X83367985Y-136236140D01*
X83142460Y-136281000D01*
X82797540Y-136281000D01*
X82572015Y-136236140D01*
X82459252Y-136213710D01*
X82327259Y-136159037D01*
X82140592Y-136081717D01*
X81853804Y-135890091D01*
X81609909Y-135646196D01*
X81418283Y-135359408D01*
X81286290Y-135040747D01*
X81219000Y-134702460D01*
X81219000Y-134357540D01*
X81286290Y-134019253D01*
X81418283Y-133700592D01*
X81609909Y-133413804D01*
X81853804Y-133169909D01*
X82140592Y-132978283D01*
X82327259Y-132900963D01*
X82459252Y-132846290D01*
X82572015Y-132823860D01*
X82797540Y-132779000D01*
X83142460Y-132779000D01*
X83367985Y-132823860D01*
G37*
G36*
X78287985Y-132823860D02*
G01*
X78400748Y-132846290D01*
X78532741Y-132900963D01*
X78719408Y-132978283D01*
X79006196Y-133169909D01*
X79250091Y-133413804D01*
X79441717Y-133700592D01*
X79573710Y-134019253D01*
X79641000Y-134357540D01*
X79641000Y-134702460D01*
X79573710Y-135040747D01*
X79441717Y-135359408D01*
X79250091Y-135646196D01*
X79006196Y-135890091D01*
X78719408Y-136081717D01*
X78532741Y-136159037D01*
X78400748Y-136213710D01*
X78287985Y-136236140D01*
X78062460Y-136281000D01*
X77717540Y-136281000D01*
X77492015Y-136236140D01*
X77379252Y-136213710D01*
X77247259Y-136159037D01*
X77060592Y-136081717D01*
X76773804Y-135890091D01*
X76529909Y-135646196D01*
X76338283Y-135359408D01*
X76206290Y-135040747D01*
X76139000Y-134702460D01*
X76139000Y-134357540D01*
X76206290Y-134019253D01*
X76338283Y-133700592D01*
X76529909Y-133413804D01*
X76773804Y-133169909D01*
X77060592Y-132978283D01*
X77247259Y-132900963D01*
X77379252Y-132846290D01*
X77492015Y-132823860D01*
X77717540Y-132779000D01*
X78062460Y-132779000D01*
X78287985Y-132823860D01*
G37*
G36*
X110136528Y-122319238D02*
G01*
X110242893Y-122329714D01*
X110447605Y-122391813D01*
X110636268Y-122492655D01*
X110687647Y-122534821D01*
X110801634Y-122628366D01*
X110895179Y-122742353D01*
X110937345Y-122793732D01*
X111038187Y-122982395D01*
X111100286Y-123187107D01*
X111121254Y-123400000D01*
X111100286Y-123612893D01*
X111038187Y-123817605D01*
X110937345Y-124006268D01*
X110895179Y-124057647D01*
X110801634Y-124171634D01*
X110687647Y-124265179D01*
X110636268Y-124307345D01*
X110447605Y-124408187D01*
X110242893Y-124470286D01*
X110136528Y-124480762D01*
X110083346Y-124486000D01*
X106016654Y-124486000D01*
X105963472Y-124480762D01*
X105857107Y-124470286D01*
X105652395Y-124408187D01*
X105463732Y-124307345D01*
X105412353Y-124265179D01*
X105298366Y-124171634D01*
X105204821Y-124057647D01*
X105162655Y-124006268D01*
X105061813Y-123817605D01*
X104999714Y-123612893D01*
X104978746Y-123400000D01*
X104999714Y-123187107D01*
X105061813Y-122982395D01*
X105162655Y-122793732D01*
X105204821Y-122742353D01*
X105298366Y-122628366D01*
X105412353Y-122534821D01*
X105463732Y-122492655D01*
X105652395Y-122391813D01*
X105857107Y-122329714D01*
X105963472Y-122319238D01*
X106016654Y-122314000D01*
X110083346Y-122314000D01*
X110136528Y-122319238D01*
G37*
G36*
X118036528Y-122319238D02*
G01*
X118142893Y-122329714D01*
X118347605Y-122391813D01*
X118536268Y-122492655D01*
X118587647Y-122534821D01*
X118701634Y-122628366D01*
X118795179Y-122742353D01*
X118837345Y-122793732D01*
X118938187Y-122982395D01*
X119000286Y-123187107D01*
X119021254Y-123400000D01*
X119000286Y-123612893D01*
X118938187Y-123817605D01*
X118837345Y-124006268D01*
X118795179Y-124057647D01*
X118701634Y-124171634D01*
X118587647Y-124265179D01*
X118536268Y-124307345D01*
X118347605Y-124408187D01*
X118142893Y-124470286D01*
X118036528Y-124480762D01*
X117983346Y-124486000D01*
X113916654Y-124486000D01*
X113863472Y-124480762D01*
X113757107Y-124470286D01*
X113552395Y-124408187D01*
X113363732Y-124307345D01*
X113312353Y-124265179D01*
X113198366Y-124171634D01*
X113104821Y-124057647D01*
X113062655Y-124006268D01*
X112961813Y-123817605D01*
X112899714Y-123612893D01*
X112878746Y-123400000D01*
X112899714Y-123187107D01*
X112961813Y-122982395D01*
X113062655Y-122793732D01*
X113104821Y-122742353D01*
X113198366Y-122628366D01*
X113312353Y-122534821D01*
X113363732Y-122492655D01*
X113552395Y-122391813D01*
X113757107Y-122329714D01*
X113863472Y-122319238D01*
X113916654Y-122314000D01*
X117983346Y-122314000D01*
X118036528Y-122319238D01*
G37*
G36*
X92507985Y-116313860D02*
G01*
X92620748Y-116336290D01*
X92752741Y-116390963D01*
X92939408Y-116468283D01*
X93226196Y-116659909D01*
X93470091Y-116903804D01*
X93661717Y-117190592D01*
X93793710Y-117509253D01*
X93861000Y-117847540D01*
X93861000Y-118192460D01*
X93793710Y-118530747D01*
X93661717Y-118849408D01*
X93470091Y-119136196D01*
X93226196Y-119380091D01*
X92939408Y-119571717D01*
X92752741Y-119649037D01*
X92620748Y-119703710D01*
X92507985Y-119726140D01*
X92282460Y-119771000D01*
X91937540Y-119771000D01*
X91712015Y-119726140D01*
X91599252Y-119703710D01*
X91467259Y-119649037D01*
X91280592Y-119571717D01*
X90993804Y-119380091D01*
X90749909Y-119136196D01*
X90558283Y-118849408D01*
X90426290Y-118530747D01*
X90359000Y-118192460D01*
X90359000Y-117847540D01*
X90426290Y-117509253D01*
X90558283Y-117190592D01*
X90749909Y-116903804D01*
X90993804Y-116659909D01*
X91280592Y-116468283D01*
X91467259Y-116390963D01*
X91599252Y-116336290D01*
X91712015Y-116313860D01*
X91937540Y-116269000D01*
X92282460Y-116269000D01*
X92507985Y-116313860D01*
G37*
G36*
X78287985Y-116313860D02*
G01*
X78400748Y-116336290D01*
X78532741Y-116390963D01*
X78719408Y-116468283D01*
X79006196Y-116659909D01*
X79250091Y-116903804D01*
X79441717Y-117190592D01*
X79573710Y-117509253D01*
X79641000Y-117847540D01*
X79641000Y-118192460D01*
X79573710Y-118530747D01*
X79441717Y-118849408D01*
X79250091Y-119136196D01*
X79006196Y-119380091D01*
X78719408Y-119571717D01*
X78532741Y-119649037D01*
X78400748Y-119703710D01*
X78287985Y-119726140D01*
X78062460Y-119771000D01*
X77717540Y-119771000D01*
X77492015Y-119726140D01*
X77379252Y-119703710D01*
X77247259Y-119649037D01*
X77060592Y-119571717D01*
X76773804Y-119380091D01*
X76529909Y-119136196D01*
X76338283Y-118849408D01*
X76206290Y-118530747D01*
X76139000Y-118192460D01*
X76139000Y-117847540D01*
X76206290Y-117509253D01*
X76338283Y-117190592D01*
X76529909Y-116903804D01*
X76773804Y-116659909D01*
X77060592Y-116468283D01*
X77247259Y-116390963D01*
X77379252Y-116336290D01*
X77492015Y-116313860D01*
X77717540Y-116269000D01*
X78062460Y-116269000D01*
X78287985Y-116313860D01*
G37*
G36*
X83367985Y-116313860D02*
G01*
X83480748Y-116336290D01*
X83612741Y-116390963D01*
X83799408Y-116468283D01*
X84086196Y-116659909D01*
X84330091Y-116903804D01*
X84521717Y-117190592D01*
X84653710Y-117509253D01*
X84721000Y-117847540D01*
X84721000Y-118192460D01*
X84653710Y-118530747D01*
X84521717Y-118849408D01*
X84330091Y-119136196D01*
X84086196Y-119380091D01*
X83799408Y-119571717D01*
X83612741Y-119649037D01*
X83480748Y-119703710D01*
X83367985Y-119726140D01*
X83142460Y-119771000D01*
X82797540Y-119771000D01*
X82572015Y-119726140D01*
X82459252Y-119703710D01*
X82327259Y-119649037D01*
X82140592Y-119571717D01*
X81853804Y-119380091D01*
X81609909Y-119136196D01*
X81418283Y-118849408D01*
X81286290Y-118530747D01*
X81219000Y-118192460D01*
X81219000Y-117847540D01*
X81286290Y-117509253D01*
X81418283Y-117190592D01*
X81609909Y-116903804D01*
X81853804Y-116659909D01*
X82140592Y-116468283D01*
X82327259Y-116390963D01*
X82459252Y-116336290D01*
X82572015Y-116313860D01*
X82797540Y-116269000D01*
X83142460Y-116269000D01*
X83367985Y-116313860D01*
G37*
G36*
X87427985Y-116313860D02*
G01*
X87540748Y-116336290D01*
X87672741Y-116390963D01*
X87859408Y-116468283D01*
X88146196Y-116659909D01*
X88390091Y-116903804D01*
X88581717Y-117190592D01*
X88713710Y-117509253D01*
X88781000Y-117847540D01*
X88781000Y-118192460D01*
X88713710Y-118530747D01*
X88581717Y-118849408D01*
X88390091Y-119136196D01*
X88146196Y-119380091D01*
X87859408Y-119571717D01*
X87672741Y-119649037D01*
X87540748Y-119703710D01*
X87427985Y-119726140D01*
X87202460Y-119771000D01*
X86857540Y-119771000D01*
X86632015Y-119726140D01*
X86519252Y-119703710D01*
X86387259Y-119649037D01*
X86200592Y-119571717D01*
X85913804Y-119380091D01*
X85669909Y-119136196D01*
X85478283Y-118849408D01*
X85346290Y-118530747D01*
X85279000Y-118192460D01*
X85279000Y-117847540D01*
X85346290Y-117509253D01*
X85478283Y-117190592D01*
X85669909Y-116903804D01*
X85913804Y-116659909D01*
X86200592Y-116468283D01*
X86387259Y-116390963D01*
X86519252Y-116336290D01*
X86632015Y-116313860D01*
X86857540Y-116269000D01*
X87202460Y-116269000D01*
X87427985Y-116313860D01*
G37*
G36*
X110136528Y-105819238D02*
G01*
X110242893Y-105829714D01*
X110447605Y-105891813D01*
X110636268Y-105992655D01*
X110687647Y-106034821D01*
X110801634Y-106128366D01*
X110895179Y-106242353D01*
X110937345Y-106293732D01*
X111038187Y-106482395D01*
X111100286Y-106687107D01*
X111121254Y-106900000D01*
X111100286Y-107112893D01*
X111038187Y-107317605D01*
X110937345Y-107506268D01*
X110895179Y-107557647D01*
X110801634Y-107671634D01*
X110687647Y-107765179D01*
X110636268Y-107807345D01*
X110447605Y-107908187D01*
X110242893Y-107970286D01*
X110136528Y-107980762D01*
X110083346Y-107986000D01*
X106016654Y-107986000D01*
X105963472Y-107980762D01*
X105857107Y-107970286D01*
X105652395Y-107908187D01*
X105463732Y-107807345D01*
X105412353Y-107765179D01*
X105298366Y-107671634D01*
X105204821Y-107557647D01*
X105162655Y-107506268D01*
X105061813Y-107317605D01*
X104999714Y-107112893D01*
X104978746Y-106900000D01*
X104999714Y-106687107D01*
X105061813Y-106482395D01*
X105162655Y-106293732D01*
X105204821Y-106242353D01*
X105298366Y-106128366D01*
X105412353Y-106034821D01*
X105463732Y-105992655D01*
X105652395Y-105891813D01*
X105857107Y-105829714D01*
X105963472Y-105819238D01*
X106016654Y-105814000D01*
X110083346Y-105814000D01*
X110136528Y-105819238D01*
G37*
G36*
X118036528Y-105819238D02*
G01*
X118142893Y-105829714D01*
X118347605Y-105891813D01*
X118536268Y-105992655D01*
X118587647Y-106034821D01*
X118701634Y-106128366D01*
X118795179Y-106242353D01*
X118837345Y-106293732D01*
X118938187Y-106482395D01*
X119000286Y-106687107D01*
X119021254Y-106900000D01*
X119000286Y-107112893D01*
X118938187Y-107317605D01*
X118837345Y-107506268D01*
X118795179Y-107557647D01*
X118701634Y-107671634D01*
X118587647Y-107765179D01*
X118536268Y-107807345D01*
X118347605Y-107908187D01*
X118142893Y-107970286D01*
X118036528Y-107980762D01*
X117983346Y-107986000D01*
X113916654Y-107986000D01*
X113863472Y-107980762D01*
X113757107Y-107970286D01*
X113552395Y-107908187D01*
X113363732Y-107807345D01*
X113312353Y-107765179D01*
X113198366Y-107671634D01*
X113104821Y-107557647D01*
X113062655Y-107506268D01*
X112961813Y-107317605D01*
X112899714Y-107112893D01*
X112878746Y-106900000D01*
X112899714Y-106687107D01*
X112961813Y-106482395D01*
X113062655Y-106293732D01*
X113104821Y-106242353D01*
X113198366Y-106128366D01*
X113312353Y-106034821D01*
X113363732Y-105992655D01*
X113552395Y-105891813D01*
X113757107Y-105829714D01*
X113863472Y-105819238D01*
X113916654Y-105814000D01*
X117983346Y-105814000D01*
X118036528Y-105819238D01*
G37*
G36*
X83367985Y-99803860D02*
G01*
X83480748Y-99826290D01*
X83612741Y-99880963D01*
X83799408Y-99958283D01*
X84086196Y-100149909D01*
X84330091Y-100393804D01*
X84521717Y-100680592D01*
X84653710Y-100999253D01*
X84721000Y-101337540D01*
X84721000Y-101682460D01*
X84653710Y-102020747D01*
X84521717Y-102339408D01*
X84330091Y-102626196D01*
X84086196Y-102870091D01*
X83799408Y-103061717D01*
X83612741Y-103139037D01*
X83480748Y-103193710D01*
X83367985Y-103216140D01*
X83142460Y-103261000D01*
X82797540Y-103261000D01*
X82572015Y-103216140D01*
X82459252Y-103193710D01*
X82327259Y-103139037D01*
X82140592Y-103061717D01*
X81853804Y-102870091D01*
X81609909Y-102626196D01*
X81418283Y-102339408D01*
X81286290Y-102020747D01*
X81219000Y-101682460D01*
X81219000Y-101337540D01*
X81286290Y-100999253D01*
X81418283Y-100680592D01*
X81609909Y-100393804D01*
X81853804Y-100149909D01*
X82140592Y-99958283D01*
X82327259Y-99880963D01*
X82459252Y-99826290D01*
X82572015Y-99803860D01*
X82797540Y-99759000D01*
X83142460Y-99759000D01*
X83367985Y-99803860D01*
G37*
G36*
X92507985Y-99803860D02*
G01*
X92620748Y-99826290D01*
X92752741Y-99880963D01*
X92939408Y-99958283D01*
X93226196Y-100149909D01*
X93470091Y-100393804D01*
X93661717Y-100680592D01*
X93793710Y-100999253D01*
X93861000Y-101337540D01*
X93861000Y-101682460D01*
X93793710Y-102020747D01*
X93661717Y-102339408D01*
X93470091Y-102626196D01*
X93226196Y-102870091D01*
X92939408Y-103061717D01*
X92752741Y-103139037D01*
X92620748Y-103193710D01*
X92507985Y-103216140D01*
X92282460Y-103261000D01*
X91937540Y-103261000D01*
X91712015Y-103216140D01*
X91599252Y-103193710D01*
X91467259Y-103139037D01*
X91280592Y-103061717D01*
X90993804Y-102870091D01*
X90749909Y-102626196D01*
X90558283Y-102339408D01*
X90426290Y-102020747D01*
X90359000Y-101682460D01*
X90359000Y-101337540D01*
X90426290Y-100999253D01*
X90558283Y-100680592D01*
X90749909Y-100393804D01*
X90993804Y-100149909D01*
X91280592Y-99958283D01*
X91467259Y-99880963D01*
X91599252Y-99826290D01*
X91712015Y-99803860D01*
X91937540Y-99759000D01*
X92282460Y-99759000D01*
X92507985Y-99803860D01*
G37*
G36*
X87427985Y-99803860D02*
G01*
X87540748Y-99826290D01*
X87672741Y-99880963D01*
X87859408Y-99958283D01*
X88146196Y-100149909D01*
X88390091Y-100393804D01*
X88581717Y-100680592D01*
X88713710Y-100999253D01*
X88781000Y-101337540D01*
X88781000Y-101682460D01*
X88713710Y-102020747D01*
X88581717Y-102339408D01*
X88390091Y-102626196D01*
X88146196Y-102870091D01*
X87859408Y-103061717D01*
X87672741Y-103139037D01*
X87540748Y-103193710D01*
X87427985Y-103216140D01*
X87202460Y-103261000D01*
X86857540Y-103261000D01*
X86632015Y-103216140D01*
X86519252Y-103193710D01*
X86387259Y-103139037D01*
X86200592Y-103061717D01*
X85913804Y-102870091D01*
X85669909Y-102626196D01*
X85478283Y-102339408D01*
X85346290Y-102020747D01*
X85279000Y-101682460D01*
X85279000Y-101337540D01*
X85346290Y-100999253D01*
X85478283Y-100680592D01*
X85669909Y-100393804D01*
X85913804Y-100149909D01*
X86200592Y-99958283D01*
X86387259Y-99880963D01*
X86519252Y-99826290D01*
X86632015Y-99803860D01*
X86857540Y-99759000D01*
X87202460Y-99759000D01*
X87427985Y-99803860D01*
G37*
G36*
X78287985Y-99803860D02*
G01*
X78400748Y-99826290D01*
X78532741Y-99880963D01*
X78719408Y-99958283D01*
X79006196Y-100149909D01*
X79250091Y-100393804D01*
X79441717Y-100680592D01*
X79573710Y-100999253D01*
X79641000Y-101337540D01*
X79641000Y-101682460D01*
X79573710Y-102020747D01*
X79441717Y-102339408D01*
X79250091Y-102626196D01*
X79006196Y-102870091D01*
X78719408Y-103061717D01*
X78532741Y-103139037D01*
X78400748Y-103193710D01*
X78287985Y-103216140D01*
X78062460Y-103261000D01*
X77717540Y-103261000D01*
X77492015Y-103216140D01*
X77379252Y-103193710D01*
X77247259Y-103139037D01*
X77060592Y-103061717D01*
X76773804Y-102870091D01*
X76529909Y-102626196D01*
X76338283Y-102339408D01*
X76206290Y-102020747D01*
X76139000Y-101682460D01*
X76139000Y-101337540D01*
X76206290Y-100999253D01*
X76338283Y-100680592D01*
X76529909Y-100393804D01*
X76773804Y-100149909D01*
X77060592Y-99958283D01*
X77247259Y-99880963D01*
X77379252Y-99826290D01*
X77492015Y-99803860D01*
X77717540Y-99759000D01*
X78062460Y-99759000D01*
X78287985Y-99803860D01*
G37*
G36*
X118036528Y-89319238D02*
G01*
X118142893Y-89329714D01*
X118347605Y-89391813D01*
X118536268Y-89492655D01*
X118587647Y-89534821D01*
X118701634Y-89628366D01*
X118795179Y-89742353D01*
X118837345Y-89793732D01*
X118938187Y-89982395D01*
X119000286Y-90187107D01*
X119021254Y-90400000D01*
X119000286Y-90612893D01*
X118938187Y-90817605D01*
X118837345Y-91006268D01*
X118795179Y-91057647D01*
X118701634Y-91171634D01*
X118587647Y-91265179D01*
X118536268Y-91307345D01*
X118347605Y-91408187D01*
X118142893Y-91470286D01*
X118036528Y-91480762D01*
X117983346Y-91486000D01*
X113916654Y-91486000D01*
X113863472Y-91480762D01*
X113757107Y-91470286D01*
X113552395Y-91408187D01*
X113363732Y-91307345D01*
X113312353Y-91265179D01*
X113198366Y-91171634D01*
X113104821Y-91057647D01*
X113062655Y-91006268D01*
X112961813Y-90817605D01*
X112899714Y-90612893D01*
X112878746Y-90400000D01*
X112899714Y-90187107D01*
X112961813Y-89982395D01*
X113062655Y-89793732D01*
X113104821Y-89742353D01*
X113198366Y-89628366D01*
X113312353Y-89534821D01*
X113363732Y-89492655D01*
X113552395Y-89391813D01*
X113757107Y-89329714D01*
X113863472Y-89319238D01*
X113916654Y-89314000D01*
X117983346Y-89314000D01*
X118036528Y-89319238D01*
G37*
G36*
X110136528Y-89319238D02*
G01*
X110242893Y-89329714D01*
X110447605Y-89391813D01*
X110636268Y-89492655D01*
X110687647Y-89534821D01*
X110801634Y-89628366D01*
X110895179Y-89742353D01*
X110937345Y-89793732D01*
X111038187Y-89982395D01*
X111100286Y-90187107D01*
X111121254Y-90400000D01*
X111100286Y-90612893D01*
X111038187Y-90817605D01*
X110937345Y-91006268D01*
X110895179Y-91057647D01*
X110801634Y-91171634D01*
X110687647Y-91265179D01*
X110636268Y-91307345D01*
X110447605Y-91408187D01*
X110242893Y-91470286D01*
X110136528Y-91480762D01*
X110083346Y-91486000D01*
X106016654Y-91486000D01*
X105963472Y-91480762D01*
X105857107Y-91470286D01*
X105652395Y-91408187D01*
X105463732Y-91307345D01*
X105412353Y-91265179D01*
X105298366Y-91171634D01*
X105204821Y-91057647D01*
X105162655Y-91006268D01*
X105061813Y-90817605D01*
X104999714Y-90612893D01*
X104978746Y-90400000D01*
X104999714Y-90187107D01*
X105061813Y-89982395D01*
X105162655Y-89793732D01*
X105204821Y-89742353D01*
X105298366Y-89628366D01*
X105412353Y-89534821D01*
X105463732Y-89492655D01*
X105652395Y-89391813D01*
X105857107Y-89329714D01*
X105963472Y-89319238D01*
X106016654Y-89314000D01*
X110083346Y-89314000D01*
X110136528Y-89319238D01*
G37*
G36*
X83367985Y-83293860D02*
G01*
X83480748Y-83316290D01*
X83612741Y-83370963D01*
X83799408Y-83448283D01*
X84086196Y-83639909D01*
X84330091Y-83883804D01*
X84521717Y-84170592D01*
X84653710Y-84489253D01*
X84721000Y-84827540D01*
X84721000Y-85172460D01*
X84653710Y-85510747D01*
X84521717Y-85829408D01*
X84330091Y-86116196D01*
X84086196Y-86360091D01*
X83799408Y-86551717D01*
X83612741Y-86629037D01*
X83480748Y-86683710D01*
X83367985Y-86706140D01*
X83142460Y-86751000D01*
X82797540Y-86751000D01*
X82572015Y-86706140D01*
X82459252Y-86683710D01*
X82327259Y-86629037D01*
X82140592Y-86551717D01*
X81853804Y-86360091D01*
X81609909Y-86116196D01*
X81418283Y-85829408D01*
X81286290Y-85510747D01*
X81219000Y-85172460D01*
X81219000Y-84827540D01*
X81286290Y-84489253D01*
X81418283Y-84170592D01*
X81609909Y-83883804D01*
X81853804Y-83639909D01*
X82140592Y-83448283D01*
X82327259Y-83370963D01*
X82459252Y-83316290D01*
X82572015Y-83293860D01*
X82797540Y-83249000D01*
X83142460Y-83249000D01*
X83367985Y-83293860D01*
G37*
G36*
X92507985Y-83293860D02*
G01*
X92620748Y-83316290D01*
X92752741Y-83370963D01*
X92939408Y-83448283D01*
X93226196Y-83639909D01*
X93470091Y-83883804D01*
X93661717Y-84170592D01*
X93793710Y-84489253D01*
X93861000Y-84827540D01*
X93861000Y-85172460D01*
X93793710Y-85510747D01*
X93661717Y-85829408D01*
X93470091Y-86116196D01*
X93226196Y-86360091D01*
X92939408Y-86551717D01*
X92752741Y-86629037D01*
X92620748Y-86683710D01*
X92507985Y-86706140D01*
X92282460Y-86751000D01*
X91937540Y-86751000D01*
X91712015Y-86706140D01*
X91599252Y-86683710D01*
X91467259Y-86629037D01*
X91280592Y-86551717D01*
X90993804Y-86360091D01*
X90749909Y-86116196D01*
X90558283Y-85829408D01*
X90426290Y-85510747D01*
X90359000Y-85172460D01*
X90359000Y-84827540D01*
X90426290Y-84489253D01*
X90558283Y-84170592D01*
X90749909Y-83883804D01*
X90993804Y-83639909D01*
X91280592Y-83448283D01*
X91467259Y-83370963D01*
X91599252Y-83316290D01*
X91712015Y-83293860D01*
X91937540Y-83249000D01*
X92282460Y-83249000D01*
X92507985Y-83293860D01*
G37*
G36*
X87427985Y-83293860D02*
G01*
X87540748Y-83316290D01*
X87672741Y-83370963D01*
X87859408Y-83448283D01*
X88146196Y-83639909D01*
X88390091Y-83883804D01*
X88581717Y-84170592D01*
X88713710Y-84489253D01*
X88781000Y-84827540D01*
X88781000Y-85172460D01*
X88713710Y-85510747D01*
X88581717Y-85829408D01*
X88390091Y-86116196D01*
X88146196Y-86360091D01*
X87859408Y-86551717D01*
X87672741Y-86629037D01*
X87540748Y-86683710D01*
X87427985Y-86706140D01*
X87202460Y-86751000D01*
X86857540Y-86751000D01*
X86632015Y-86706140D01*
X86519252Y-86683710D01*
X86387259Y-86629037D01*
X86200592Y-86551717D01*
X85913804Y-86360091D01*
X85669909Y-86116196D01*
X85478283Y-85829408D01*
X85346290Y-85510747D01*
X85279000Y-85172460D01*
X85279000Y-84827540D01*
X85346290Y-84489253D01*
X85478283Y-84170592D01*
X85669909Y-83883804D01*
X85913804Y-83639909D01*
X86200592Y-83448283D01*
X86387259Y-83370963D01*
X86519252Y-83316290D01*
X86632015Y-83293860D01*
X86857540Y-83249000D01*
X87202460Y-83249000D01*
X87427985Y-83293860D01*
G37*
G36*
X78287985Y-83293860D02*
G01*
X78400748Y-83316290D01*
X78532741Y-83370963D01*
X78719408Y-83448283D01*
X79006196Y-83639909D01*
X79250091Y-83883804D01*
X79441717Y-84170592D01*
X79573710Y-84489253D01*
X79641000Y-84827540D01*
X79641000Y-85172460D01*
X79573710Y-85510747D01*
X79441717Y-85829408D01*
X79250091Y-86116196D01*
X79006196Y-86360091D01*
X78719408Y-86551717D01*
X78532741Y-86629037D01*
X78400748Y-86683710D01*
X78287985Y-86706140D01*
X78062460Y-86751000D01*
X77717540Y-86751000D01*
X77492015Y-86706140D01*
X77379252Y-86683710D01*
X77247259Y-86629037D01*
X77060592Y-86551717D01*
X76773804Y-86360091D01*
X76529909Y-86116196D01*
X76338283Y-85829408D01*
X76206290Y-85510747D01*
X76139000Y-85172460D01*
X76139000Y-84827540D01*
X76206290Y-84489253D01*
X76338283Y-84170592D01*
X76529909Y-83883804D01*
X76773804Y-83639909D01*
X77060592Y-83448283D01*
X77247259Y-83370963D01*
X77379252Y-83316290D01*
X77492015Y-83293860D01*
X77717540Y-83249000D01*
X78062460Y-83249000D01*
X78287985Y-83293860D01*
G37*
G36*
X110136528Y-73319238D02*
G01*
X110242893Y-73329714D01*
X110447605Y-73391813D01*
X110636268Y-73492655D01*
X110687647Y-73534821D01*
X110801634Y-73628366D01*
X110895179Y-73742353D01*
X110937345Y-73793732D01*
X111038187Y-73982395D01*
X111100286Y-74187107D01*
X111121254Y-74400000D01*
X111100286Y-74612893D01*
X111038187Y-74817605D01*
X110937345Y-75006268D01*
X110895179Y-75057647D01*
X110801634Y-75171634D01*
X110687647Y-75265179D01*
X110636268Y-75307345D01*
X110447605Y-75408187D01*
X110242893Y-75470286D01*
X110136528Y-75480762D01*
X110083346Y-75486000D01*
X106016654Y-75486000D01*
X105963472Y-75480762D01*
X105857107Y-75470286D01*
X105652395Y-75408187D01*
X105463732Y-75307345D01*
X105412353Y-75265179D01*
X105298366Y-75171634D01*
X105204821Y-75057647D01*
X105162655Y-75006268D01*
X105061813Y-74817605D01*
X104999714Y-74612893D01*
X104978746Y-74400000D01*
X104999714Y-74187107D01*
X105061813Y-73982395D01*
X105162655Y-73793732D01*
X105204821Y-73742353D01*
X105298366Y-73628366D01*
X105412353Y-73534821D01*
X105463732Y-73492655D01*
X105652395Y-73391813D01*
X105857107Y-73329714D01*
X105963472Y-73319238D01*
X106016654Y-73314000D01*
X110083346Y-73314000D01*
X110136528Y-73319238D01*
G37*
G36*
X118036528Y-73319238D02*
G01*
X118142893Y-73329714D01*
X118347605Y-73391813D01*
X118536268Y-73492655D01*
X118587647Y-73534821D01*
X118701634Y-73628366D01*
X118795179Y-73742353D01*
X118837345Y-73793732D01*
X118938187Y-73982395D01*
X119000286Y-74187107D01*
X119021254Y-74400000D01*
X119000286Y-74612893D01*
X118938187Y-74817605D01*
X118837345Y-75006268D01*
X118795179Y-75057647D01*
X118701634Y-75171634D01*
X118587647Y-75265179D01*
X118536268Y-75307345D01*
X118347605Y-75408187D01*
X118142893Y-75470286D01*
X118036528Y-75480762D01*
X117983346Y-75486000D01*
X113916654Y-75486000D01*
X113863472Y-75480762D01*
X113757107Y-75470286D01*
X113552395Y-75408187D01*
X113363732Y-75307345D01*
X113312353Y-75265179D01*
X113198366Y-75171634D01*
X113104821Y-75057647D01*
X113062655Y-75006268D01*
X112961813Y-74817605D01*
X112899714Y-74612893D01*
X112878746Y-74400000D01*
X112899714Y-74187107D01*
X112961813Y-73982395D01*
X113062655Y-73793732D01*
X113104821Y-73742353D01*
X113198366Y-73628366D01*
X113312353Y-73534821D01*
X113363732Y-73492655D01*
X113552395Y-73391813D01*
X113757107Y-73329714D01*
X113863472Y-73319238D01*
X113916654Y-73314000D01*
X117983346Y-73314000D01*
X118036528Y-73319238D01*
G37*
G36*
X116948903Y-57743213D02*
G01*
X117171177Y-57787426D01*
X117589932Y-57960880D01*
X117966802Y-58212696D01*
X118287304Y-58533198D01*
X118539120Y-58910068D01*
X118712574Y-59328823D01*
X118801000Y-59773371D01*
X118801000Y-60226629D01*
X118712574Y-60671177D01*
X118539120Y-61089932D01*
X118287304Y-61466802D01*
X117966802Y-61787304D01*
X117589932Y-62039120D01*
X117171177Y-62212574D01*
X116948903Y-62256787D01*
X116726630Y-62301000D01*
X116273370Y-62301000D01*
X116051097Y-62256787D01*
X115828823Y-62212574D01*
X115410068Y-62039120D01*
X115033198Y-61787304D01*
X114712696Y-61466802D01*
X114460880Y-61089932D01*
X114287426Y-60671177D01*
X114199000Y-60226629D01*
X114199000Y-59773371D01*
X114287426Y-59328823D01*
X114460880Y-58910068D01*
X114712696Y-58533198D01*
X115033198Y-58212696D01*
X115410068Y-57960880D01*
X115828823Y-57787426D01*
X116051097Y-57743213D01*
X116273370Y-57699000D01*
X116726630Y-57699000D01*
X116948903Y-57743213D01*
G37*
G36*
X79448903Y-57743213D02*
G01*
X79671177Y-57787426D01*
X80089932Y-57960880D01*
X80466802Y-58212696D01*
X80787304Y-58533198D01*
X81039120Y-58910068D01*
X81212574Y-59328823D01*
X81301000Y-59773371D01*
X81301000Y-60226629D01*
X81212574Y-60671177D01*
X81039120Y-61089932D01*
X80787304Y-61466802D01*
X80466802Y-61787304D01*
X80089932Y-62039120D01*
X79671177Y-62212574D01*
X79448903Y-62256787D01*
X79226630Y-62301000D01*
X78773370Y-62301000D01*
X78551097Y-62256787D01*
X78328823Y-62212574D01*
X77910068Y-62039120D01*
X77533198Y-61787304D01*
X77212696Y-61466802D01*
X76960880Y-61089932D01*
X76787426Y-60671177D01*
X76699000Y-60226629D01*
X76699000Y-59773371D01*
X76787426Y-59328823D01*
X76960880Y-58910068D01*
X77212696Y-58533198D01*
X77533198Y-58212696D01*
X77910068Y-57960880D01*
X78328823Y-57787426D01*
X78551097Y-57743213D01*
X78773370Y-57699000D01*
X79226630Y-57699000D01*
X79448903Y-57743213D01*
G37*
M02*
