G04 #@! TF.GenerationSoftware,KiCad,Pcbnew,5.1.5-52549c5~84~ubuntu18.04.1*
G04 #@! TF.CreationDate,2020-03-21T09:25:11-06:00*
G04 #@! TF.ProjectId,anderson_distribution_board,616e6465-7273-46f6-9e5f-646973747269,rev?*
G04 #@! TF.SameCoordinates,Original*
G04 #@! TF.FileFunction,Copper,L1,Top*
G04 #@! TF.FilePolarity,Positive*
%FSLAX46Y46*%
G04 Gerber Fmt 4.6, Leading zero omitted, Abs format (unit mm)*
G04 Created by KiCad (PCBNEW 5.1.5-52549c5~84~ubuntu18.04.1) date 2020-03-21 09:25:11*
%MOMM*%
%LPD*%
G04 APERTURE LIST*
%ADD10O,2.070000X6.030000*%
%ADD11C,0.254000*%
G04 APERTURE END LIST*
D10*
X112000000Y-73050000D03*
X112000000Y-80950000D03*
X151400000Y-73050000D03*
X151400000Y-80950000D03*
X141400000Y-73050000D03*
X141400000Y-80950000D03*
X131400000Y-73050000D03*
X131400000Y-80950000D03*
X121400000Y-73050000D03*
X121400000Y-80950000D03*
D11*
G36*
X110908934Y-77699329D02*
G01*
X110682003Y-77936601D01*
X110505722Y-78213586D01*
X110386865Y-78519639D01*
X110330000Y-78843000D01*
X110330000Y-80823000D01*
X111873000Y-80823000D01*
X111873000Y-80803000D01*
X112127000Y-80803000D01*
X112127000Y-80823000D01*
X113670000Y-80823000D01*
X113670000Y-78843000D01*
X113613135Y-78519639D01*
X113494278Y-78213586D01*
X113317997Y-77936601D01*
X113091066Y-77699329D01*
X112987870Y-77627000D01*
X120412130Y-77627000D01*
X120308934Y-77699329D01*
X120082003Y-77936601D01*
X119905722Y-78213586D01*
X119786865Y-78519639D01*
X119730000Y-78843000D01*
X119730000Y-80823000D01*
X121273000Y-80823000D01*
X121273000Y-80803000D01*
X121527000Y-80803000D01*
X121527000Y-80823000D01*
X123070000Y-80823000D01*
X123070000Y-78843000D01*
X123013135Y-78519639D01*
X122894278Y-78213586D01*
X122717997Y-77936601D01*
X122491066Y-77699329D01*
X122387870Y-77627000D01*
X130412130Y-77627000D01*
X130308934Y-77699329D01*
X130082003Y-77936601D01*
X129905722Y-78213586D01*
X129786865Y-78519639D01*
X129730000Y-78843000D01*
X129730000Y-80823000D01*
X131273000Y-80823000D01*
X131273000Y-80803000D01*
X131527000Y-80803000D01*
X131527000Y-80823000D01*
X133070000Y-80823000D01*
X133070000Y-78843000D01*
X133013135Y-78519639D01*
X132894278Y-78213586D01*
X132717997Y-77936601D01*
X132491066Y-77699329D01*
X132387870Y-77627000D01*
X140412130Y-77627000D01*
X140308934Y-77699329D01*
X140082003Y-77936601D01*
X139905722Y-78213586D01*
X139786865Y-78519639D01*
X139730000Y-78843000D01*
X139730000Y-80823000D01*
X141273000Y-80823000D01*
X141273000Y-80803000D01*
X141527000Y-80803000D01*
X141527000Y-80823000D01*
X143070000Y-80823000D01*
X143070000Y-78843000D01*
X143013135Y-78519639D01*
X142894278Y-78213586D01*
X142717997Y-77936601D01*
X142491066Y-77699329D01*
X142387870Y-77627000D01*
X150412130Y-77627000D01*
X150308934Y-77699329D01*
X150082003Y-77936601D01*
X149905722Y-78213586D01*
X149786865Y-78519639D01*
X149730000Y-78843000D01*
X149730000Y-80823000D01*
X151273000Y-80823000D01*
X151273000Y-80803000D01*
X151527000Y-80803000D01*
X151527000Y-80823000D01*
X153070000Y-80823000D01*
X153070000Y-78843000D01*
X153013135Y-78519639D01*
X152894278Y-78213586D01*
X152717997Y-77936601D01*
X152491066Y-77699329D01*
X152387870Y-77627000D01*
X154290001Y-77627000D01*
X154290001Y-86290000D01*
X109127000Y-86290000D01*
X109127000Y-81077000D01*
X110330000Y-81077000D01*
X110330000Y-83057000D01*
X110386865Y-83380361D01*
X110505722Y-83686414D01*
X110682003Y-83963399D01*
X110908934Y-84200671D01*
X111177794Y-84389112D01*
X111478251Y-84521480D01*
X111614075Y-84554796D01*
X111873000Y-84435904D01*
X111873000Y-81077000D01*
X112127000Y-81077000D01*
X112127000Y-84435904D01*
X112385925Y-84554796D01*
X112521749Y-84521480D01*
X112822206Y-84389112D01*
X113091066Y-84200671D01*
X113317997Y-83963399D01*
X113494278Y-83686414D01*
X113613135Y-83380361D01*
X113670000Y-83057000D01*
X113670000Y-81077000D01*
X119730000Y-81077000D01*
X119730000Y-83057000D01*
X119786865Y-83380361D01*
X119905722Y-83686414D01*
X120082003Y-83963399D01*
X120308934Y-84200671D01*
X120577794Y-84389112D01*
X120878251Y-84521480D01*
X121014075Y-84554796D01*
X121273000Y-84435904D01*
X121273000Y-81077000D01*
X121527000Y-81077000D01*
X121527000Y-84435904D01*
X121785925Y-84554796D01*
X121921749Y-84521480D01*
X122222206Y-84389112D01*
X122491066Y-84200671D01*
X122717997Y-83963399D01*
X122894278Y-83686414D01*
X123013135Y-83380361D01*
X123070000Y-83057000D01*
X123070000Y-81077000D01*
X129730000Y-81077000D01*
X129730000Y-83057000D01*
X129786865Y-83380361D01*
X129905722Y-83686414D01*
X130082003Y-83963399D01*
X130308934Y-84200671D01*
X130577794Y-84389112D01*
X130878251Y-84521480D01*
X131014075Y-84554796D01*
X131273000Y-84435904D01*
X131273000Y-81077000D01*
X131527000Y-81077000D01*
X131527000Y-84435904D01*
X131785925Y-84554796D01*
X131921749Y-84521480D01*
X132222206Y-84389112D01*
X132491066Y-84200671D01*
X132717997Y-83963399D01*
X132894278Y-83686414D01*
X133013135Y-83380361D01*
X133070000Y-83057000D01*
X133070000Y-81077000D01*
X139730000Y-81077000D01*
X139730000Y-83057000D01*
X139786865Y-83380361D01*
X139905722Y-83686414D01*
X140082003Y-83963399D01*
X140308934Y-84200671D01*
X140577794Y-84389112D01*
X140878251Y-84521480D01*
X141014075Y-84554796D01*
X141273000Y-84435904D01*
X141273000Y-81077000D01*
X141527000Y-81077000D01*
X141527000Y-84435904D01*
X141785925Y-84554796D01*
X141921749Y-84521480D01*
X142222206Y-84389112D01*
X142491066Y-84200671D01*
X142717997Y-83963399D01*
X142894278Y-83686414D01*
X143013135Y-83380361D01*
X143070000Y-83057000D01*
X143070000Y-81077000D01*
X149730000Y-81077000D01*
X149730000Y-83057000D01*
X149786865Y-83380361D01*
X149905722Y-83686414D01*
X150082003Y-83963399D01*
X150308934Y-84200671D01*
X150577794Y-84389112D01*
X150878251Y-84521480D01*
X151014075Y-84554796D01*
X151273000Y-84435904D01*
X151273000Y-81077000D01*
X151527000Y-81077000D01*
X151527000Y-84435904D01*
X151785925Y-84554796D01*
X151921749Y-84521480D01*
X152222206Y-84389112D01*
X152491066Y-84200671D01*
X152717997Y-83963399D01*
X152894278Y-83686414D01*
X153013135Y-83380361D01*
X153070000Y-83057000D01*
X153070000Y-81077000D01*
X151527000Y-81077000D01*
X151273000Y-81077000D01*
X149730000Y-81077000D01*
X143070000Y-81077000D01*
X141527000Y-81077000D01*
X141273000Y-81077000D01*
X139730000Y-81077000D01*
X133070000Y-81077000D01*
X131527000Y-81077000D01*
X131273000Y-81077000D01*
X129730000Y-81077000D01*
X123070000Y-81077000D01*
X121527000Y-81077000D01*
X121273000Y-81077000D01*
X119730000Y-81077000D01*
X113670000Y-81077000D01*
X112127000Y-81077000D01*
X111873000Y-81077000D01*
X110330000Y-81077000D01*
X109127000Y-81077000D01*
X109127000Y-77627000D01*
X111012130Y-77627000D01*
X110908934Y-77699329D01*
G37*
X110908934Y-77699329D02*
X110682003Y-77936601D01*
X110505722Y-78213586D01*
X110386865Y-78519639D01*
X110330000Y-78843000D01*
X110330000Y-80823000D01*
X111873000Y-80823000D01*
X111873000Y-80803000D01*
X112127000Y-80803000D01*
X112127000Y-80823000D01*
X113670000Y-80823000D01*
X113670000Y-78843000D01*
X113613135Y-78519639D01*
X113494278Y-78213586D01*
X113317997Y-77936601D01*
X113091066Y-77699329D01*
X112987870Y-77627000D01*
X120412130Y-77627000D01*
X120308934Y-77699329D01*
X120082003Y-77936601D01*
X119905722Y-78213586D01*
X119786865Y-78519639D01*
X119730000Y-78843000D01*
X119730000Y-80823000D01*
X121273000Y-80823000D01*
X121273000Y-80803000D01*
X121527000Y-80803000D01*
X121527000Y-80823000D01*
X123070000Y-80823000D01*
X123070000Y-78843000D01*
X123013135Y-78519639D01*
X122894278Y-78213586D01*
X122717997Y-77936601D01*
X122491066Y-77699329D01*
X122387870Y-77627000D01*
X130412130Y-77627000D01*
X130308934Y-77699329D01*
X130082003Y-77936601D01*
X129905722Y-78213586D01*
X129786865Y-78519639D01*
X129730000Y-78843000D01*
X129730000Y-80823000D01*
X131273000Y-80823000D01*
X131273000Y-80803000D01*
X131527000Y-80803000D01*
X131527000Y-80823000D01*
X133070000Y-80823000D01*
X133070000Y-78843000D01*
X133013135Y-78519639D01*
X132894278Y-78213586D01*
X132717997Y-77936601D01*
X132491066Y-77699329D01*
X132387870Y-77627000D01*
X140412130Y-77627000D01*
X140308934Y-77699329D01*
X140082003Y-77936601D01*
X139905722Y-78213586D01*
X139786865Y-78519639D01*
X139730000Y-78843000D01*
X139730000Y-80823000D01*
X141273000Y-80823000D01*
X141273000Y-80803000D01*
X141527000Y-80803000D01*
X141527000Y-80823000D01*
X143070000Y-80823000D01*
X143070000Y-78843000D01*
X143013135Y-78519639D01*
X142894278Y-78213586D01*
X142717997Y-77936601D01*
X142491066Y-77699329D01*
X142387870Y-77627000D01*
X150412130Y-77627000D01*
X150308934Y-77699329D01*
X150082003Y-77936601D01*
X149905722Y-78213586D01*
X149786865Y-78519639D01*
X149730000Y-78843000D01*
X149730000Y-80823000D01*
X151273000Y-80823000D01*
X151273000Y-80803000D01*
X151527000Y-80803000D01*
X151527000Y-80823000D01*
X153070000Y-80823000D01*
X153070000Y-78843000D01*
X153013135Y-78519639D01*
X152894278Y-78213586D01*
X152717997Y-77936601D01*
X152491066Y-77699329D01*
X152387870Y-77627000D01*
X154290001Y-77627000D01*
X154290001Y-86290000D01*
X109127000Y-86290000D01*
X109127000Y-81077000D01*
X110330000Y-81077000D01*
X110330000Y-83057000D01*
X110386865Y-83380361D01*
X110505722Y-83686414D01*
X110682003Y-83963399D01*
X110908934Y-84200671D01*
X111177794Y-84389112D01*
X111478251Y-84521480D01*
X111614075Y-84554796D01*
X111873000Y-84435904D01*
X111873000Y-81077000D01*
X112127000Y-81077000D01*
X112127000Y-84435904D01*
X112385925Y-84554796D01*
X112521749Y-84521480D01*
X112822206Y-84389112D01*
X113091066Y-84200671D01*
X113317997Y-83963399D01*
X113494278Y-83686414D01*
X113613135Y-83380361D01*
X113670000Y-83057000D01*
X113670000Y-81077000D01*
X119730000Y-81077000D01*
X119730000Y-83057000D01*
X119786865Y-83380361D01*
X119905722Y-83686414D01*
X120082003Y-83963399D01*
X120308934Y-84200671D01*
X120577794Y-84389112D01*
X120878251Y-84521480D01*
X121014075Y-84554796D01*
X121273000Y-84435904D01*
X121273000Y-81077000D01*
X121527000Y-81077000D01*
X121527000Y-84435904D01*
X121785925Y-84554796D01*
X121921749Y-84521480D01*
X122222206Y-84389112D01*
X122491066Y-84200671D01*
X122717997Y-83963399D01*
X122894278Y-83686414D01*
X123013135Y-83380361D01*
X123070000Y-83057000D01*
X123070000Y-81077000D01*
X129730000Y-81077000D01*
X129730000Y-83057000D01*
X129786865Y-83380361D01*
X129905722Y-83686414D01*
X130082003Y-83963399D01*
X130308934Y-84200671D01*
X130577794Y-84389112D01*
X130878251Y-84521480D01*
X131014075Y-84554796D01*
X131273000Y-84435904D01*
X131273000Y-81077000D01*
X131527000Y-81077000D01*
X131527000Y-84435904D01*
X131785925Y-84554796D01*
X131921749Y-84521480D01*
X132222206Y-84389112D01*
X132491066Y-84200671D01*
X132717997Y-83963399D01*
X132894278Y-83686414D01*
X133013135Y-83380361D01*
X133070000Y-83057000D01*
X133070000Y-81077000D01*
X139730000Y-81077000D01*
X139730000Y-83057000D01*
X139786865Y-83380361D01*
X139905722Y-83686414D01*
X140082003Y-83963399D01*
X140308934Y-84200671D01*
X140577794Y-84389112D01*
X140878251Y-84521480D01*
X141014075Y-84554796D01*
X141273000Y-84435904D01*
X141273000Y-81077000D01*
X141527000Y-81077000D01*
X141527000Y-84435904D01*
X141785925Y-84554796D01*
X141921749Y-84521480D01*
X142222206Y-84389112D01*
X142491066Y-84200671D01*
X142717997Y-83963399D01*
X142894278Y-83686414D01*
X143013135Y-83380361D01*
X143070000Y-83057000D01*
X143070000Y-81077000D01*
X149730000Y-81077000D01*
X149730000Y-83057000D01*
X149786865Y-83380361D01*
X149905722Y-83686414D01*
X150082003Y-83963399D01*
X150308934Y-84200671D01*
X150577794Y-84389112D01*
X150878251Y-84521480D01*
X151014075Y-84554796D01*
X151273000Y-84435904D01*
X151273000Y-81077000D01*
X151527000Y-81077000D01*
X151527000Y-84435904D01*
X151785925Y-84554796D01*
X151921749Y-84521480D01*
X152222206Y-84389112D01*
X152491066Y-84200671D01*
X152717997Y-83963399D01*
X152894278Y-83686414D01*
X153013135Y-83380361D01*
X153070000Y-83057000D01*
X153070000Y-81077000D01*
X151527000Y-81077000D01*
X151273000Y-81077000D01*
X149730000Y-81077000D01*
X143070000Y-81077000D01*
X141527000Y-81077000D01*
X141273000Y-81077000D01*
X139730000Y-81077000D01*
X133070000Y-81077000D01*
X131527000Y-81077000D01*
X131273000Y-81077000D01*
X129730000Y-81077000D01*
X123070000Y-81077000D01*
X121527000Y-81077000D01*
X121273000Y-81077000D01*
X119730000Y-81077000D01*
X113670000Y-81077000D01*
X112127000Y-81077000D01*
X111873000Y-81077000D01*
X110330000Y-81077000D01*
X109127000Y-81077000D01*
X109127000Y-77627000D01*
X111012130Y-77627000D01*
X110908934Y-77699329D01*
G36*
X154290000Y-76373000D02*
G01*
X152387870Y-76373000D01*
X152491066Y-76300671D01*
X152717997Y-76063399D01*
X152894278Y-75786414D01*
X153013135Y-75480361D01*
X153070000Y-75157000D01*
X153070000Y-73177000D01*
X151527000Y-73177000D01*
X151527000Y-73197000D01*
X151273000Y-73197000D01*
X151273000Y-73177000D01*
X149730000Y-73177000D01*
X149730000Y-75157000D01*
X149786865Y-75480361D01*
X149905722Y-75786414D01*
X150082003Y-76063399D01*
X150308934Y-76300671D01*
X150412130Y-76373000D01*
X142387870Y-76373000D01*
X142491066Y-76300671D01*
X142717997Y-76063399D01*
X142894278Y-75786414D01*
X143013135Y-75480361D01*
X143070000Y-75157000D01*
X143070000Y-73177000D01*
X141527000Y-73177000D01*
X141527000Y-73197000D01*
X141273000Y-73197000D01*
X141273000Y-73177000D01*
X139730000Y-73177000D01*
X139730000Y-75157000D01*
X139786865Y-75480361D01*
X139905722Y-75786414D01*
X140082003Y-76063399D01*
X140308934Y-76300671D01*
X140412130Y-76373000D01*
X132387870Y-76373000D01*
X132491066Y-76300671D01*
X132717997Y-76063399D01*
X132894278Y-75786414D01*
X133013135Y-75480361D01*
X133070000Y-75157000D01*
X133070000Y-73177000D01*
X131527000Y-73177000D01*
X131527000Y-73197000D01*
X131273000Y-73197000D01*
X131273000Y-73177000D01*
X129730000Y-73177000D01*
X129730000Y-75157000D01*
X129786865Y-75480361D01*
X129905722Y-75786414D01*
X130082003Y-76063399D01*
X130308934Y-76300671D01*
X130412130Y-76373000D01*
X122387870Y-76373000D01*
X122491066Y-76300671D01*
X122717997Y-76063399D01*
X122894278Y-75786414D01*
X123013135Y-75480361D01*
X123070000Y-75157000D01*
X123070000Y-73177000D01*
X121527000Y-73177000D01*
X121527000Y-73197000D01*
X121273000Y-73197000D01*
X121273000Y-73177000D01*
X119730000Y-73177000D01*
X119730000Y-75157000D01*
X119786865Y-75480361D01*
X119905722Y-75786414D01*
X120082003Y-76063399D01*
X120308934Y-76300671D01*
X120412130Y-76373000D01*
X112987870Y-76373000D01*
X113091066Y-76300671D01*
X113317997Y-76063399D01*
X113494278Y-75786414D01*
X113613135Y-75480361D01*
X113670000Y-75157000D01*
X113670000Y-73177000D01*
X112127000Y-73177000D01*
X112127000Y-73197000D01*
X111873000Y-73197000D01*
X111873000Y-73177000D01*
X110330000Y-73177000D01*
X110330000Y-75157000D01*
X110386865Y-75480361D01*
X110505722Y-75786414D01*
X110682003Y-76063399D01*
X110908934Y-76300671D01*
X111012130Y-76373000D01*
X109127000Y-76373000D01*
X109127000Y-70943000D01*
X110330000Y-70943000D01*
X110330000Y-72923000D01*
X111873000Y-72923000D01*
X111873000Y-69564096D01*
X112127000Y-69564096D01*
X112127000Y-72923000D01*
X113670000Y-72923000D01*
X113670000Y-70943000D01*
X119730000Y-70943000D01*
X119730000Y-72923000D01*
X121273000Y-72923000D01*
X121273000Y-69564096D01*
X121527000Y-69564096D01*
X121527000Y-72923000D01*
X123070000Y-72923000D01*
X123070000Y-70943000D01*
X129730000Y-70943000D01*
X129730000Y-72923000D01*
X131273000Y-72923000D01*
X131273000Y-69564096D01*
X131527000Y-69564096D01*
X131527000Y-72923000D01*
X133070000Y-72923000D01*
X133070000Y-70943000D01*
X139730000Y-70943000D01*
X139730000Y-72923000D01*
X141273000Y-72923000D01*
X141273000Y-69564096D01*
X141527000Y-69564096D01*
X141527000Y-72923000D01*
X143070000Y-72923000D01*
X143070000Y-70943000D01*
X149730000Y-70943000D01*
X149730000Y-72923000D01*
X151273000Y-72923000D01*
X151273000Y-69564096D01*
X151527000Y-69564096D01*
X151527000Y-72923000D01*
X153070000Y-72923000D01*
X153070000Y-70943000D01*
X153013135Y-70619639D01*
X152894278Y-70313586D01*
X152717997Y-70036601D01*
X152491066Y-69799329D01*
X152222206Y-69610888D01*
X151921749Y-69478520D01*
X151785925Y-69445204D01*
X151527000Y-69564096D01*
X151273000Y-69564096D01*
X151014075Y-69445204D01*
X150878251Y-69478520D01*
X150577794Y-69610888D01*
X150308934Y-69799329D01*
X150082003Y-70036601D01*
X149905722Y-70313586D01*
X149786865Y-70619639D01*
X149730000Y-70943000D01*
X143070000Y-70943000D01*
X143013135Y-70619639D01*
X142894278Y-70313586D01*
X142717997Y-70036601D01*
X142491066Y-69799329D01*
X142222206Y-69610888D01*
X141921749Y-69478520D01*
X141785925Y-69445204D01*
X141527000Y-69564096D01*
X141273000Y-69564096D01*
X141014075Y-69445204D01*
X140878251Y-69478520D01*
X140577794Y-69610888D01*
X140308934Y-69799329D01*
X140082003Y-70036601D01*
X139905722Y-70313586D01*
X139786865Y-70619639D01*
X139730000Y-70943000D01*
X133070000Y-70943000D01*
X133013135Y-70619639D01*
X132894278Y-70313586D01*
X132717997Y-70036601D01*
X132491066Y-69799329D01*
X132222206Y-69610888D01*
X131921749Y-69478520D01*
X131785925Y-69445204D01*
X131527000Y-69564096D01*
X131273000Y-69564096D01*
X131014075Y-69445204D01*
X130878251Y-69478520D01*
X130577794Y-69610888D01*
X130308934Y-69799329D01*
X130082003Y-70036601D01*
X129905722Y-70313586D01*
X129786865Y-70619639D01*
X129730000Y-70943000D01*
X123070000Y-70943000D01*
X123013135Y-70619639D01*
X122894278Y-70313586D01*
X122717997Y-70036601D01*
X122491066Y-69799329D01*
X122222206Y-69610888D01*
X121921749Y-69478520D01*
X121785925Y-69445204D01*
X121527000Y-69564096D01*
X121273000Y-69564096D01*
X121014075Y-69445204D01*
X120878251Y-69478520D01*
X120577794Y-69610888D01*
X120308934Y-69799329D01*
X120082003Y-70036601D01*
X119905722Y-70313586D01*
X119786865Y-70619639D01*
X119730000Y-70943000D01*
X113670000Y-70943000D01*
X113613135Y-70619639D01*
X113494278Y-70313586D01*
X113317997Y-70036601D01*
X113091066Y-69799329D01*
X112822206Y-69610888D01*
X112521749Y-69478520D01*
X112385925Y-69445204D01*
X112127000Y-69564096D01*
X111873000Y-69564096D01*
X111614075Y-69445204D01*
X111478251Y-69478520D01*
X111177794Y-69610888D01*
X110908934Y-69799329D01*
X110682003Y-70036601D01*
X110505722Y-70313586D01*
X110386865Y-70619639D01*
X110330000Y-70943000D01*
X109127000Y-70943000D01*
X109127000Y-67710000D01*
X154290000Y-67710000D01*
X154290000Y-76373000D01*
G37*
X154290000Y-76373000D02*
X152387870Y-76373000D01*
X152491066Y-76300671D01*
X152717997Y-76063399D01*
X152894278Y-75786414D01*
X153013135Y-75480361D01*
X153070000Y-75157000D01*
X153070000Y-73177000D01*
X151527000Y-73177000D01*
X151527000Y-73197000D01*
X151273000Y-73197000D01*
X151273000Y-73177000D01*
X149730000Y-73177000D01*
X149730000Y-75157000D01*
X149786865Y-75480361D01*
X149905722Y-75786414D01*
X150082003Y-76063399D01*
X150308934Y-76300671D01*
X150412130Y-76373000D01*
X142387870Y-76373000D01*
X142491066Y-76300671D01*
X142717997Y-76063399D01*
X142894278Y-75786414D01*
X143013135Y-75480361D01*
X143070000Y-75157000D01*
X143070000Y-73177000D01*
X141527000Y-73177000D01*
X141527000Y-73197000D01*
X141273000Y-73197000D01*
X141273000Y-73177000D01*
X139730000Y-73177000D01*
X139730000Y-75157000D01*
X139786865Y-75480361D01*
X139905722Y-75786414D01*
X140082003Y-76063399D01*
X140308934Y-76300671D01*
X140412130Y-76373000D01*
X132387870Y-76373000D01*
X132491066Y-76300671D01*
X132717997Y-76063399D01*
X132894278Y-75786414D01*
X133013135Y-75480361D01*
X133070000Y-75157000D01*
X133070000Y-73177000D01*
X131527000Y-73177000D01*
X131527000Y-73197000D01*
X131273000Y-73197000D01*
X131273000Y-73177000D01*
X129730000Y-73177000D01*
X129730000Y-75157000D01*
X129786865Y-75480361D01*
X129905722Y-75786414D01*
X130082003Y-76063399D01*
X130308934Y-76300671D01*
X130412130Y-76373000D01*
X122387870Y-76373000D01*
X122491066Y-76300671D01*
X122717997Y-76063399D01*
X122894278Y-75786414D01*
X123013135Y-75480361D01*
X123070000Y-75157000D01*
X123070000Y-73177000D01*
X121527000Y-73177000D01*
X121527000Y-73197000D01*
X121273000Y-73197000D01*
X121273000Y-73177000D01*
X119730000Y-73177000D01*
X119730000Y-75157000D01*
X119786865Y-75480361D01*
X119905722Y-75786414D01*
X120082003Y-76063399D01*
X120308934Y-76300671D01*
X120412130Y-76373000D01*
X112987870Y-76373000D01*
X113091066Y-76300671D01*
X113317997Y-76063399D01*
X113494278Y-75786414D01*
X113613135Y-75480361D01*
X113670000Y-75157000D01*
X113670000Y-73177000D01*
X112127000Y-73177000D01*
X112127000Y-73197000D01*
X111873000Y-73197000D01*
X111873000Y-73177000D01*
X110330000Y-73177000D01*
X110330000Y-75157000D01*
X110386865Y-75480361D01*
X110505722Y-75786414D01*
X110682003Y-76063399D01*
X110908934Y-76300671D01*
X111012130Y-76373000D01*
X109127000Y-76373000D01*
X109127000Y-70943000D01*
X110330000Y-70943000D01*
X110330000Y-72923000D01*
X111873000Y-72923000D01*
X111873000Y-69564096D01*
X112127000Y-69564096D01*
X112127000Y-72923000D01*
X113670000Y-72923000D01*
X113670000Y-70943000D01*
X119730000Y-70943000D01*
X119730000Y-72923000D01*
X121273000Y-72923000D01*
X121273000Y-69564096D01*
X121527000Y-69564096D01*
X121527000Y-72923000D01*
X123070000Y-72923000D01*
X123070000Y-70943000D01*
X129730000Y-70943000D01*
X129730000Y-72923000D01*
X131273000Y-72923000D01*
X131273000Y-69564096D01*
X131527000Y-69564096D01*
X131527000Y-72923000D01*
X133070000Y-72923000D01*
X133070000Y-70943000D01*
X139730000Y-70943000D01*
X139730000Y-72923000D01*
X141273000Y-72923000D01*
X141273000Y-69564096D01*
X141527000Y-69564096D01*
X141527000Y-72923000D01*
X143070000Y-72923000D01*
X143070000Y-70943000D01*
X149730000Y-70943000D01*
X149730000Y-72923000D01*
X151273000Y-72923000D01*
X151273000Y-69564096D01*
X151527000Y-69564096D01*
X151527000Y-72923000D01*
X153070000Y-72923000D01*
X153070000Y-70943000D01*
X153013135Y-70619639D01*
X152894278Y-70313586D01*
X152717997Y-70036601D01*
X152491066Y-69799329D01*
X152222206Y-69610888D01*
X151921749Y-69478520D01*
X151785925Y-69445204D01*
X151527000Y-69564096D01*
X151273000Y-69564096D01*
X151014075Y-69445204D01*
X150878251Y-69478520D01*
X150577794Y-69610888D01*
X150308934Y-69799329D01*
X150082003Y-70036601D01*
X149905722Y-70313586D01*
X149786865Y-70619639D01*
X149730000Y-70943000D01*
X143070000Y-70943000D01*
X143013135Y-70619639D01*
X142894278Y-70313586D01*
X142717997Y-70036601D01*
X142491066Y-69799329D01*
X142222206Y-69610888D01*
X141921749Y-69478520D01*
X141785925Y-69445204D01*
X141527000Y-69564096D01*
X141273000Y-69564096D01*
X141014075Y-69445204D01*
X140878251Y-69478520D01*
X140577794Y-69610888D01*
X140308934Y-69799329D01*
X140082003Y-70036601D01*
X139905722Y-70313586D01*
X139786865Y-70619639D01*
X139730000Y-70943000D01*
X133070000Y-70943000D01*
X133013135Y-70619639D01*
X132894278Y-70313586D01*
X132717997Y-70036601D01*
X132491066Y-69799329D01*
X132222206Y-69610888D01*
X131921749Y-69478520D01*
X131785925Y-69445204D01*
X131527000Y-69564096D01*
X131273000Y-69564096D01*
X131014075Y-69445204D01*
X130878251Y-69478520D01*
X130577794Y-69610888D01*
X130308934Y-69799329D01*
X130082003Y-70036601D01*
X129905722Y-70313586D01*
X129786865Y-70619639D01*
X129730000Y-70943000D01*
X123070000Y-70943000D01*
X123013135Y-70619639D01*
X122894278Y-70313586D01*
X122717997Y-70036601D01*
X122491066Y-69799329D01*
X122222206Y-69610888D01*
X121921749Y-69478520D01*
X121785925Y-69445204D01*
X121527000Y-69564096D01*
X121273000Y-69564096D01*
X121014075Y-69445204D01*
X120878251Y-69478520D01*
X120577794Y-69610888D01*
X120308934Y-69799329D01*
X120082003Y-70036601D01*
X119905722Y-70313586D01*
X119786865Y-70619639D01*
X119730000Y-70943000D01*
X113670000Y-70943000D01*
X113613135Y-70619639D01*
X113494278Y-70313586D01*
X113317997Y-70036601D01*
X113091066Y-69799329D01*
X112822206Y-69610888D01*
X112521749Y-69478520D01*
X112385925Y-69445204D01*
X112127000Y-69564096D01*
X111873000Y-69564096D01*
X111614075Y-69445204D01*
X111478251Y-69478520D01*
X111177794Y-69610888D01*
X110908934Y-69799329D01*
X110682003Y-70036601D01*
X110505722Y-70313586D01*
X110386865Y-70619639D01*
X110330000Y-70943000D01*
X109127000Y-70943000D01*
X109127000Y-67710000D01*
X154290000Y-67710000D01*
X154290000Y-76373000D01*
M02*
