G04 #@! TF.FileFunction,Copper,L1,Top,Signal*
%FSLAX46Y46*%
G04 Gerber Fmt 4.6, Leading zero omitted, Abs format (unit mm)*
G04 Created by KiCad (PCBNEW 4.0.6+dfsg1-1) date Thu Jun 14 22:42:19 2018*
%MOMM*%
%LPD*%
G01*
G04 APERTURE LIST*
%ADD10C,0.100000*%
%ADD11O,1.970000X5.930000*%
%ADD12C,1.900000*%
%ADD13C,0.254000*%
G04 APERTURE END LIST*
D10*
D11*
X112000000Y-80950000D03*
X112000000Y-73050000D03*
D12*
X93760000Y-84390000D03*
X93760000Y-69610000D03*
D11*
X120000000Y-80950000D03*
X120000000Y-73050000D03*
X130000000Y-80950000D03*
X130000000Y-73050000D03*
X140000000Y-80950000D03*
X140000000Y-73050000D03*
X150000000Y-80950000D03*
X150000000Y-73050000D03*
D13*
G36*
X110944290Y-77734684D02*
X110551916Y-78232720D01*
X110380000Y-78843000D01*
X110380000Y-80823000D01*
X111873000Y-80823000D01*
X111873000Y-80803000D01*
X112127000Y-80803000D01*
X112127000Y-80823000D01*
X113620000Y-80823000D01*
X113620000Y-78843000D01*
X113448084Y-78232720D01*
X113055710Y-77734684D01*
X112863564Y-77627000D01*
X119136436Y-77627000D01*
X118944290Y-77734684D01*
X118551916Y-78232720D01*
X118380000Y-78843000D01*
X118380000Y-80823000D01*
X119873000Y-80823000D01*
X119873000Y-80803000D01*
X120127000Y-80803000D01*
X120127000Y-80823000D01*
X121620000Y-80823000D01*
X121620000Y-78843000D01*
X121448084Y-78232720D01*
X121055710Y-77734684D01*
X120863564Y-77627000D01*
X129136436Y-77627000D01*
X128944290Y-77734684D01*
X128551916Y-78232720D01*
X128380000Y-78843000D01*
X128380000Y-80823000D01*
X129873000Y-80823000D01*
X129873000Y-80803000D01*
X130127000Y-80803000D01*
X130127000Y-80823000D01*
X131620000Y-80823000D01*
X131620000Y-78843000D01*
X131448084Y-78232720D01*
X131055710Y-77734684D01*
X130863564Y-77627000D01*
X139136436Y-77627000D01*
X138944290Y-77734684D01*
X138551916Y-78232720D01*
X138380000Y-78843000D01*
X138380000Y-80823000D01*
X139873000Y-80823000D01*
X139873000Y-80803000D01*
X140127000Y-80803000D01*
X140127000Y-80823000D01*
X141620000Y-80823000D01*
X141620000Y-78843000D01*
X141448084Y-78232720D01*
X141055710Y-77734684D01*
X140863564Y-77627000D01*
X149136436Y-77627000D01*
X148944290Y-77734684D01*
X148551916Y-78232720D01*
X148380000Y-78843000D01*
X148380000Y-80823000D01*
X149873000Y-80823000D01*
X149873000Y-80803000D01*
X150127000Y-80803000D01*
X150127000Y-80823000D01*
X151620000Y-80823000D01*
X151620000Y-78843000D01*
X151448084Y-78232720D01*
X151055710Y-77734684D01*
X150863564Y-77627000D01*
X154290000Y-77627000D01*
X154290000Y-86290000D01*
X109127000Y-86290000D01*
X109127000Y-81077000D01*
X110380000Y-81077000D01*
X110380000Y-83057000D01*
X110551916Y-83667280D01*
X110944290Y-84165316D01*
X111497386Y-84475286D01*
X111621920Y-84505263D01*
X111873000Y-84385721D01*
X111873000Y-81077000D01*
X112127000Y-81077000D01*
X112127000Y-84385721D01*
X112378080Y-84505263D01*
X112502614Y-84475286D01*
X113055710Y-84165316D01*
X113448084Y-83667280D01*
X113620000Y-83057000D01*
X113620000Y-81077000D01*
X118380000Y-81077000D01*
X118380000Y-83057000D01*
X118551916Y-83667280D01*
X118944290Y-84165316D01*
X119497386Y-84475286D01*
X119621920Y-84505263D01*
X119873000Y-84385721D01*
X119873000Y-81077000D01*
X120127000Y-81077000D01*
X120127000Y-84385721D01*
X120378080Y-84505263D01*
X120502614Y-84475286D01*
X121055710Y-84165316D01*
X121448084Y-83667280D01*
X121620000Y-83057000D01*
X121620000Y-81077000D01*
X128380000Y-81077000D01*
X128380000Y-83057000D01*
X128551916Y-83667280D01*
X128944290Y-84165316D01*
X129497386Y-84475286D01*
X129621920Y-84505263D01*
X129873000Y-84385721D01*
X129873000Y-81077000D01*
X130127000Y-81077000D01*
X130127000Y-84385721D01*
X130378080Y-84505263D01*
X130502614Y-84475286D01*
X131055710Y-84165316D01*
X131448084Y-83667280D01*
X131620000Y-83057000D01*
X131620000Y-81077000D01*
X138380000Y-81077000D01*
X138380000Y-83057000D01*
X138551916Y-83667280D01*
X138944290Y-84165316D01*
X139497386Y-84475286D01*
X139621920Y-84505263D01*
X139873000Y-84385721D01*
X139873000Y-81077000D01*
X140127000Y-81077000D01*
X140127000Y-84385721D01*
X140378080Y-84505263D01*
X140502614Y-84475286D01*
X141055710Y-84165316D01*
X141448084Y-83667280D01*
X141620000Y-83057000D01*
X141620000Y-81077000D01*
X148380000Y-81077000D01*
X148380000Y-83057000D01*
X148551916Y-83667280D01*
X148944290Y-84165316D01*
X149497386Y-84475286D01*
X149621920Y-84505263D01*
X149873000Y-84385721D01*
X149873000Y-81077000D01*
X150127000Y-81077000D01*
X150127000Y-84385721D01*
X150378080Y-84505263D01*
X150502614Y-84475286D01*
X151055710Y-84165316D01*
X151448084Y-83667280D01*
X151620000Y-83057000D01*
X151620000Y-81077000D01*
X150127000Y-81077000D01*
X149873000Y-81077000D01*
X148380000Y-81077000D01*
X141620000Y-81077000D01*
X140127000Y-81077000D01*
X139873000Y-81077000D01*
X138380000Y-81077000D01*
X131620000Y-81077000D01*
X130127000Y-81077000D01*
X129873000Y-81077000D01*
X128380000Y-81077000D01*
X121620000Y-81077000D01*
X120127000Y-81077000D01*
X119873000Y-81077000D01*
X118380000Y-81077000D01*
X113620000Y-81077000D01*
X112127000Y-81077000D01*
X111873000Y-81077000D01*
X110380000Y-81077000D01*
X109127000Y-81077000D01*
X109127000Y-77627000D01*
X111136436Y-77627000D01*
X110944290Y-77734684D01*
X110944290Y-77734684D01*
G37*
X110944290Y-77734684D02*
X110551916Y-78232720D01*
X110380000Y-78843000D01*
X110380000Y-80823000D01*
X111873000Y-80823000D01*
X111873000Y-80803000D01*
X112127000Y-80803000D01*
X112127000Y-80823000D01*
X113620000Y-80823000D01*
X113620000Y-78843000D01*
X113448084Y-78232720D01*
X113055710Y-77734684D01*
X112863564Y-77627000D01*
X119136436Y-77627000D01*
X118944290Y-77734684D01*
X118551916Y-78232720D01*
X118380000Y-78843000D01*
X118380000Y-80823000D01*
X119873000Y-80823000D01*
X119873000Y-80803000D01*
X120127000Y-80803000D01*
X120127000Y-80823000D01*
X121620000Y-80823000D01*
X121620000Y-78843000D01*
X121448084Y-78232720D01*
X121055710Y-77734684D01*
X120863564Y-77627000D01*
X129136436Y-77627000D01*
X128944290Y-77734684D01*
X128551916Y-78232720D01*
X128380000Y-78843000D01*
X128380000Y-80823000D01*
X129873000Y-80823000D01*
X129873000Y-80803000D01*
X130127000Y-80803000D01*
X130127000Y-80823000D01*
X131620000Y-80823000D01*
X131620000Y-78843000D01*
X131448084Y-78232720D01*
X131055710Y-77734684D01*
X130863564Y-77627000D01*
X139136436Y-77627000D01*
X138944290Y-77734684D01*
X138551916Y-78232720D01*
X138380000Y-78843000D01*
X138380000Y-80823000D01*
X139873000Y-80823000D01*
X139873000Y-80803000D01*
X140127000Y-80803000D01*
X140127000Y-80823000D01*
X141620000Y-80823000D01*
X141620000Y-78843000D01*
X141448084Y-78232720D01*
X141055710Y-77734684D01*
X140863564Y-77627000D01*
X149136436Y-77627000D01*
X148944290Y-77734684D01*
X148551916Y-78232720D01*
X148380000Y-78843000D01*
X148380000Y-80823000D01*
X149873000Y-80823000D01*
X149873000Y-80803000D01*
X150127000Y-80803000D01*
X150127000Y-80823000D01*
X151620000Y-80823000D01*
X151620000Y-78843000D01*
X151448084Y-78232720D01*
X151055710Y-77734684D01*
X150863564Y-77627000D01*
X154290000Y-77627000D01*
X154290000Y-86290000D01*
X109127000Y-86290000D01*
X109127000Y-81077000D01*
X110380000Y-81077000D01*
X110380000Y-83057000D01*
X110551916Y-83667280D01*
X110944290Y-84165316D01*
X111497386Y-84475286D01*
X111621920Y-84505263D01*
X111873000Y-84385721D01*
X111873000Y-81077000D01*
X112127000Y-81077000D01*
X112127000Y-84385721D01*
X112378080Y-84505263D01*
X112502614Y-84475286D01*
X113055710Y-84165316D01*
X113448084Y-83667280D01*
X113620000Y-83057000D01*
X113620000Y-81077000D01*
X118380000Y-81077000D01*
X118380000Y-83057000D01*
X118551916Y-83667280D01*
X118944290Y-84165316D01*
X119497386Y-84475286D01*
X119621920Y-84505263D01*
X119873000Y-84385721D01*
X119873000Y-81077000D01*
X120127000Y-81077000D01*
X120127000Y-84385721D01*
X120378080Y-84505263D01*
X120502614Y-84475286D01*
X121055710Y-84165316D01*
X121448084Y-83667280D01*
X121620000Y-83057000D01*
X121620000Y-81077000D01*
X128380000Y-81077000D01*
X128380000Y-83057000D01*
X128551916Y-83667280D01*
X128944290Y-84165316D01*
X129497386Y-84475286D01*
X129621920Y-84505263D01*
X129873000Y-84385721D01*
X129873000Y-81077000D01*
X130127000Y-81077000D01*
X130127000Y-84385721D01*
X130378080Y-84505263D01*
X130502614Y-84475286D01*
X131055710Y-84165316D01*
X131448084Y-83667280D01*
X131620000Y-83057000D01*
X131620000Y-81077000D01*
X138380000Y-81077000D01*
X138380000Y-83057000D01*
X138551916Y-83667280D01*
X138944290Y-84165316D01*
X139497386Y-84475286D01*
X139621920Y-84505263D01*
X139873000Y-84385721D01*
X139873000Y-81077000D01*
X140127000Y-81077000D01*
X140127000Y-84385721D01*
X140378080Y-84505263D01*
X140502614Y-84475286D01*
X141055710Y-84165316D01*
X141448084Y-83667280D01*
X141620000Y-83057000D01*
X141620000Y-81077000D01*
X148380000Y-81077000D01*
X148380000Y-83057000D01*
X148551916Y-83667280D01*
X148944290Y-84165316D01*
X149497386Y-84475286D01*
X149621920Y-84505263D01*
X149873000Y-84385721D01*
X149873000Y-81077000D01*
X150127000Y-81077000D01*
X150127000Y-84385721D01*
X150378080Y-84505263D01*
X150502614Y-84475286D01*
X151055710Y-84165316D01*
X151448084Y-83667280D01*
X151620000Y-83057000D01*
X151620000Y-81077000D01*
X150127000Y-81077000D01*
X149873000Y-81077000D01*
X148380000Y-81077000D01*
X141620000Y-81077000D01*
X140127000Y-81077000D01*
X139873000Y-81077000D01*
X138380000Y-81077000D01*
X131620000Y-81077000D01*
X130127000Y-81077000D01*
X129873000Y-81077000D01*
X128380000Y-81077000D01*
X121620000Y-81077000D01*
X120127000Y-81077000D01*
X119873000Y-81077000D01*
X118380000Y-81077000D01*
X113620000Y-81077000D01*
X112127000Y-81077000D01*
X111873000Y-81077000D01*
X110380000Y-81077000D01*
X109127000Y-81077000D01*
X109127000Y-77627000D01*
X111136436Y-77627000D01*
X110944290Y-77734684D01*
G36*
X154290000Y-76373000D02*
X150863564Y-76373000D01*
X151055710Y-76265316D01*
X151448084Y-75767280D01*
X151620000Y-75157000D01*
X151620000Y-73177000D01*
X150127000Y-73177000D01*
X150127000Y-73197000D01*
X149873000Y-73197000D01*
X149873000Y-73177000D01*
X148380000Y-73177000D01*
X148380000Y-75157000D01*
X148551916Y-75767280D01*
X148944290Y-76265316D01*
X149136436Y-76373000D01*
X140863564Y-76373000D01*
X141055710Y-76265316D01*
X141448084Y-75767280D01*
X141620000Y-75157000D01*
X141620000Y-73177000D01*
X140127000Y-73177000D01*
X140127000Y-73197000D01*
X139873000Y-73197000D01*
X139873000Y-73177000D01*
X138380000Y-73177000D01*
X138380000Y-75157000D01*
X138551916Y-75767280D01*
X138944290Y-76265316D01*
X139136436Y-76373000D01*
X130863564Y-76373000D01*
X131055710Y-76265316D01*
X131448084Y-75767280D01*
X131620000Y-75157000D01*
X131620000Y-73177000D01*
X130127000Y-73177000D01*
X130127000Y-73197000D01*
X129873000Y-73197000D01*
X129873000Y-73177000D01*
X128380000Y-73177000D01*
X128380000Y-75157000D01*
X128551916Y-75767280D01*
X128944290Y-76265316D01*
X129136436Y-76373000D01*
X120863564Y-76373000D01*
X121055710Y-76265316D01*
X121448084Y-75767280D01*
X121620000Y-75157000D01*
X121620000Y-73177000D01*
X120127000Y-73177000D01*
X120127000Y-73197000D01*
X119873000Y-73197000D01*
X119873000Y-73177000D01*
X118380000Y-73177000D01*
X118380000Y-75157000D01*
X118551916Y-75767280D01*
X118944290Y-76265316D01*
X119136436Y-76373000D01*
X112863564Y-76373000D01*
X113055710Y-76265316D01*
X113448084Y-75767280D01*
X113620000Y-75157000D01*
X113620000Y-73177000D01*
X112127000Y-73177000D01*
X112127000Y-73197000D01*
X111873000Y-73197000D01*
X111873000Y-73177000D01*
X110380000Y-73177000D01*
X110380000Y-75157000D01*
X110551916Y-75767280D01*
X110944290Y-76265316D01*
X111136436Y-76373000D01*
X109127000Y-76373000D01*
X109127000Y-70943000D01*
X110380000Y-70943000D01*
X110380000Y-72923000D01*
X111873000Y-72923000D01*
X111873000Y-69614279D01*
X112127000Y-69614279D01*
X112127000Y-72923000D01*
X113620000Y-72923000D01*
X113620000Y-70943000D01*
X118380000Y-70943000D01*
X118380000Y-72923000D01*
X119873000Y-72923000D01*
X119873000Y-69614279D01*
X120127000Y-69614279D01*
X120127000Y-72923000D01*
X121620000Y-72923000D01*
X121620000Y-70943000D01*
X128380000Y-70943000D01*
X128380000Y-72923000D01*
X129873000Y-72923000D01*
X129873000Y-69614279D01*
X130127000Y-69614279D01*
X130127000Y-72923000D01*
X131620000Y-72923000D01*
X131620000Y-70943000D01*
X138380000Y-70943000D01*
X138380000Y-72923000D01*
X139873000Y-72923000D01*
X139873000Y-69614279D01*
X140127000Y-69614279D01*
X140127000Y-72923000D01*
X141620000Y-72923000D01*
X141620000Y-70943000D01*
X148380000Y-70943000D01*
X148380000Y-72923000D01*
X149873000Y-72923000D01*
X149873000Y-69614279D01*
X150127000Y-69614279D01*
X150127000Y-72923000D01*
X151620000Y-72923000D01*
X151620000Y-70943000D01*
X151448084Y-70332720D01*
X151055710Y-69834684D01*
X150502614Y-69524714D01*
X150378080Y-69494737D01*
X150127000Y-69614279D01*
X149873000Y-69614279D01*
X149621920Y-69494737D01*
X149497386Y-69524714D01*
X148944290Y-69834684D01*
X148551916Y-70332720D01*
X148380000Y-70943000D01*
X141620000Y-70943000D01*
X141448084Y-70332720D01*
X141055710Y-69834684D01*
X140502614Y-69524714D01*
X140378080Y-69494737D01*
X140127000Y-69614279D01*
X139873000Y-69614279D01*
X139621920Y-69494737D01*
X139497386Y-69524714D01*
X138944290Y-69834684D01*
X138551916Y-70332720D01*
X138380000Y-70943000D01*
X131620000Y-70943000D01*
X131448084Y-70332720D01*
X131055710Y-69834684D01*
X130502614Y-69524714D01*
X130378080Y-69494737D01*
X130127000Y-69614279D01*
X129873000Y-69614279D01*
X129621920Y-69494737D01*
X129497386Y-69524714D01*
X128944290Y-69834684D01*
X128551916Y-70332720D01*
X128380000Y-70943000D01*
X121620000Y-70943000D01*
X121448084Y-70332720D01*
X121055710Y-69834684D01*
X120502614Y-69524714D01*
X120378080Y-69494737D01*
X120127000Y-69614279D01*
X119873000Y-69614279D01*
X119621920Y-69494737D01*
X119497386Y-69524714D01*
X118944290Y-69834684D01*
X118551916Y-70332720D01*
X118380000Y-70943000D01*
X113620000Y-70943000D01*
X113448084Y-70332720D01*
X113055710Y-69834684D01*
X112502614Y-69524714D01*
X112378080Y-69494737D01*
X112127000Y-69614279D01*
X111873000Y-69614279D01*
X111621920Y-69494737D01*
X111497386Y-69524714D01*
X110944290Y-69834684D01*
X110551916Y-70332720D01*
X110380000Y-70943000D01*
X109127000Y-70943000D01*
X109127000Y-67710000D01*
X154290000Y-67710000D01*
X154290000Y-76373000D01*
X154290000Y-76373000D01*
G37*
X154290000Y-76373000D02*
X150863564Y-76373000D01*
X151055710Y-76265316D01*
X151448084Y-75767280D01*
X151620000Y-75157000D01*
X151620000Y-73177000D01*
X150127000Y-73177000D01*
X150127000Y-73197000D01*
X149873000Y-73197000D01*
X149873000Y-73177000D01*
X148380000Y-73177000D01*
X148380000Y-75157000D01*
X148551916Y-75767280D01*
X148944290Y-76265316D01*
X149136436Y-76373000D01*
X140863564Y-76373000D01*
X141055710Y-76265316D01*
X141448084Y-75767280D01*
X141620000Y-75157000D01*
X141620000Y-73177000D01*
X140127000Y-73177000D01*
X140127000Y-73197000D01*
X139873000Y-73197000D01*
X139873000Y-73177000D01*
X138380000Y-73177000D01*
X138380000Y-75157000D01*
X138551916Y-75767280D01*
X138944290Y-76265316D01*
X139136436Y-76373000D01*
X130863564Y-76373000D01*
X131055710Y-76265316D01*
X131448084Y-75767280D01*
X131620000Y-75157000D01*
X131620000Y-73177000D01*
X130127000Y-73177000D01*
X130127000Y-73197000D01*
X129873000Y-73197000D01*
X129873000Y-73177000D01*
X128380000Y-73177000D01*
X128380000Y-75157000D01*
X128551916Y-75767280D01*
X128944290Y-76265316D01*
X129136436Y-76373000D01*
X120863564Y-76373000D01*
X121055710Y-76265316D01*
X121448084Y-75767280D01*
X121620000Y-75157000D01*
X121620000Y-73177000D01*
X120127000Y-73177000D01*
X120127000Y-73197000D01*
X119873000Y-73197000D01*
X119873000Y-73177000D01*
X118380000Y-73177000D01*
X118380000Y-75157000D01*
X118551916Y-75767280D01*
X118944290Y-76265316D01*
X119136436Y-76373000D01*
X112863564Y-76373000D01*
X113055710Y-76265316D01*
X113448084Y-75767280D01*
X113620000Y-75157000D01*
X113620000Y-73177000D01*
X112127000Y-73177000D01*
X112127000Y-73197000D01*
X111873000Y-73197000D01*
X111873000Y-73177000D01*
X110380000Y-73177000D01*
X110380000Y-75157000D01*
X110551916Y-75767280D01*
X110944290Y-76265316D01*
X111136436Y-76373000D01*
X109127000Y-76373000D01*
X109127000Y-70943000D01*
X110380000Y-70943000D01*
X110380000Y-72923000D01*
X111873000Y-72923000D01*
X111873000Y-69614279D01*
X112127000Y-69614279D01*
X112127000Y-72923000D01*
X113620000Y-72923000D01*
X113620000Y-70943000D01*
X118380000Y-70943000D01*
X118380000Y-72923000D01*
X119873000Y-72923000D01*
X119873000Y-69614279D01*
X120127000Y-69614279D01*
X120127000Y-72923000D01*
X121620000Y-72923000D01*
X121620000Y-70943000D01*
X128380000Y-70943000D01*
X128380000Y-72923000D01*
X129873000Y-72923000D01*
X129873000Y-69614279D01*
X130127000Y-69614279D01*
X130127000Y-72923000D01*
X131620000Y-72923000D01*
X131620000Y-70943000D01*
X138380000Y-70943000D01*
X138380000Y-72923000D01*
X139873000Y-72923000D01*
X139873000Y-69614279D01*
X140127000Y-69614279D01*
X140127000Y-72923000D01*
X141620000Y-72923000D01*
X141620000Y-70943000D01*
X148380000Y-70943000D01*
X148380000Y-72923000D01*
X149873000Y-72923000D01*
X149873000Y-69614279D01*
X150127000Y-69614279D01*
X150127000Y-72923000D01*
X151620000Y-72923000D01*
X151620000Y-70943000D01*
X151448084Y-70332720D01*
X151055710Y-69834684D01*
X150502614Y-69524714D01*
X150378080Y-69494737D01*
X150127000Y-69614279D01*
X149873000Y-69614279D01*
X149621920Y-69494737D01*
X149497386Y-69524714D01*
X148944290Y-69834684D01*
X148551916Y-70332720D01*
X148380000Y-70943000D01*
X141620000Y-70943000D01*
X141448084Y-70332720D01*
X141055710Y-69834684D01*
X140502614Y-69524714D01*
X140378080Y-69494737D01*
X140127000Y-69614279D01*
X139873000Y-69614279D01*
X139621920Y-69494737D01*
X139497386Y-69524714D01*
X138944290Y-69834684D01*
X138551916Y-70332720D01*
X138380000Y-70943000D01*
X131620000Y-70943000D01*
X131448084Y-70332720D01*
X131055710Y-69834684D01*
X130502614Y-69524714D01*
X130378080Y-69494737D01*
X130127000Y-69614279D01*
X129873000Y-69614279D01*
X129621920Y-69494737D01*
X129497386Y-69524714D01*
X128944290Y-69834684D01*
X128551916Y-70332720D01*
X128380000Y-70943000D01*
X121620000Y-70943000D01*
X121448084Y-70332720D01*
X121055710Y-69834684D01*
X120502614Y-69524714D01*
X120378080Y-69494737D01*
X120127000Y-69614279D01*
X119873000Y-69614279D01*
X119621920Y-69494737D01*
X119497386Y-69524714D01*
X118944290Y-69834684D01*
X118551916Y-70332720D01*
X118380000Y-70943000D01*
X113620000Y-70943000D01*
X113448084Y-70332720D01*
X113055710Y-69834684D01*
X112502614Y-69524714D01*
X112378080Y-69494737D01*
X112127000Y-69614279D01*
X111873000Y-69614279D01*
X111621920Y-69494737D01*
X111497386Y-69524714D01*
X110944290Y-69834684D01*
X110551916Y-70332720D01*
X110380000Y-70943000D01*
X109127000Y-70943000D01*
X109127000Y-67710000D01*
X154290000Y-67710000D01*
X154290000Y-76373000D01*
M02*
