M48
; DRILL file {KiCad 5.1.5-52549c5~84~ubuntu18.04.1} date Sat 21 Mar 2020 09:25:13 AM MDT
; FORMAT={-:-/ absolute / inch / decimal}
; #@! TF.CreationDate,2020-03-21T09:25:13-06:00
; #@! TF.GenerationSoftware,Kicad,Pcbnew,5.1.5-52549c5~84~ubuntu18.04.1
; #@! TF.FileFunction,Plated,1,2,PTH
FMAT,2
INCH
T1C0.0500
%
G90
G05
T1
G00X5.5669Y-2.9539
M15
G01X5.5669Y-2.798
M16
G05
G00X5.5669Y-3.265
M15
G01X5.5669Y-3.1091
M16
G05
G00X4.7795Y-2.9539
M15
G01X4.7795Y-2.798
M16
G05
G00X4.7795Y-3.265
M15
G01X4.7795Y-3.1091
M16
G05
G00X5.1732Y-2.9539
M15
G01X5.1732Y-2.798
M16
G05
G00X5.1732Y-3.265
M15
G01X5.1732Y-3.1091
M16
G05
G00X5.9606Y-2.9539
M15
G01X5.9606Y-2.798
M16
G05
G00X5.9606Y-3.265
M15
G01X5.9606Y-3.1091
M16
G05
G00X4.4094Y-2.9539
M15
G01X4.4094Y-2.798
M16
G05
G00X4.4094Y-3.265
M15
G01X4.4094Y-3.1091
M16
G05
T0
M30
