G04 #@! TF.GenerationSoftware,KiCad,Pcbnew,5.1.5-52549c5~84~ubuntu18.04.1*
G04 #@! TF.CreationDate,2020-02-24T22:32:57-07:00*
G04 #@! TF.ProjectId,anderson_distribution_board,616e6465-7273-46f6-9e5f-646973747269,rev?*
G04 #@! TF.SameCoordinates,Original*
G04 #@! TF.FileFunction,Legend,Top*
G04 #@! TF.FilePolarity,Positive*
%FSLAX46Y46*%
G04 Gerber Fmt 4.6, Leading zero omitted, Abs format (unit mm)*
G04 Created by KiCad (PCBNEW 5.1.5-52549c5~84~ubuntu18.04.1) date 2020-02-24 22:32:57*
%MOMM*%
%LPD*%
G04 APERTURE LIST*
%ADD10C,0.150000*%
G04 APERTURE END LIST*
D10*
X144300000Y-85150000D02*
X144300000Y-68850000D01*
X152900000Y-85150000D02*
X144300000Y-85150000D01*
X152900000Y-68850000D02*
X152900000Y-85150000D01*
X144300000Y-68850000D02*
X152900000Y-68850000D01*
X134300000Y-85150000D02*
X134300000Y-68850000D01*
X142900000Y-85150000D02*
X134300000Y-85150000D01*
X142900000Y-68850000D02*
X142900000Y-85150000D01*
X134300000Y-68850000D02*
X142900000Y-68850000D01*
X124300000Y-85150000D02*
X124300000Y-68850000D01*
X132900000Y-85150000D02*
X124300000Y-85150000D01*
X132900000Y-68850000D02*
X132900000Y-85150000D01*
X124300000Y-68850000D02*
X132900000Y-68850000D01*
X114300000Y-85150000D02*
X114300000Y-68850000D01*
X122900000Y-85150000D02*
X114300000Y-85150000D01*
X122900000Y-68850000D02*
X122900000Y-85150000D01*
X114300000Y-68850000D02*
X122900000Y-68850000D01*
X113750000Y-69500000D02*
X107000000Y-69500000D01*
X113750000Y-84500000D02*
X113750000Y-69500000D01*
X107000000Y-84500000D02*
X113750000Y-84500000D01*
X92750000Y-69500000D02*
X83750000Y-69500000D01*
X94750000Y-84500000D02*
X107000000Y-84500000D01*
X84000000Y-77000000D02*
X107000000Y-77000000D01*
X107000000Y-69500000D02*
X94750000Y-69500000D01*
X107000000Y-84500000D02*
X107000000Y-69500000D01*
X83750000Y-84500000D02*
X92750000Y-84500000D01*
X83860000Y-84390000D02*
X83860000Y-69610000D01*
X93750000Y-83250000D02*
X93750000Y-70750000D01*
X147428571Y-73178571D02*
X147476190Y-73035714D01*
X147523809Y-72988095D01*
X147619047Y-72940476D01*
X147761904Y-72940476D01*
X147857142Y-72988095D01*
X147904761Y-73035714D01*
X147952380Y-73130952D01*
X147952380Y-73511904D01*
X146952380Y-73511904D01*
X146952380Y-73178571D01*
X147000000Y-73083333D01*
X147047619Y-73035714D01*
X147142857Y-72988095D01*
X147238095Y-72988095D01*
X147333333Y-73035714D01*
X147380952Y-73083333D01*
X147428571Y-73178571D01*
X147428571Y-73511904D01*
X147952380Y-80690476D02*
X147476190Y-81023809D01*
X147952380Y-81261904D02*
X146952380Y-81261904D01*
X146952380Y-80880952D01*
X147000000Y-80785714D01*
X147047619Y-80738095D01*
X147142857Y-80690476D01*
X147285714Y-80690476D01*
X147380952Y-80738095D01*
X147428571Y-80785714D01*
X147476190Y-80880952D01*
X147476190Y-81261904D01*
X137428571Y-73178571D02*
X137476190Y-73035714D01*
X137523809Y-72988095D01*
X137619047Y-72940476D01*
X137761904Y-72940476D01*
X137857142Y-72988095D01*
X137904761Y-73035714D01*
X137952380Y-73130952D01*
X137952380Y-73511904D01*
X136952380Y-73511904D01*
X136952380Y-73178571D01*
X137000000Y-73083333D01*
X137047619Y-73035714D01*
X137142857Y-72988095D01*
X137238095Y-72988095D01*
X137333333Y-73035714D01*
X137380952Y-73083333D01*
X137428571Y-73178571D01*
X137428571Y-73511904D01*
X137952380Y-80690476D02*
X137476190Y-81023809D01*
X137952380Y-81261904D02*
X136952380Y-81261904D01*
X136952380Y-80880952D01*
X137000000Y-80785714D01*
X137047619Y-80738095D01*
X137142857Y-80690476D01*
X137285714Y-80690476D01*
X137380952Y-80738095D01*
X137428571Y-80785714D01*
X137476190Y-80880952D01*
X137476190Y-81261904D01*
X127428571Y-73178571D02*
X127476190Y-73035714D01*
X127523809Y-72988095D01*
X127619047Y-72940476D01*
X127761904Y-72940476D01*
X127857142Y-72988095D01*
X127904761Y-73035714D01*
X127952380Y-73130952D01*
X127952380Y-73511904D01*
X126952380Y-73511904D01*
X126952380Y-73178571D01*
X127000000Y-73083333D01*
X127047619Y-73035714D01*
X127142857Y-72988095D01*
X127238095Y-72988095D01*
X127333333Y-73035714D01*
X127380952Y-73083333D01*
X127428571Y-73178571D01*
X127428571Y-73511904D01*
X127952380Y-80690476D02*
X127476190Y-81023809D01*
X127952380Y-81261904D02*
X126952380Y-81261904D01*
X126952380Y-80880952D01*
X127000000Y-80785714D01*
X127047619Y-80738095D01*
X127142857Y-80690476D01*
X127285714Y-80690476D01*
X127380952Y-80738095D01*
X127428571Y-80785714D01*
X127476190Y-80880952D01*
X127476190Y-81261904D01*
X117428571Y-73178571D02*
X117476190Y-73035714D01*
X117523809Y-72988095D01*
X117619047Y-72940476D01*
X117761904Y-72940476D01*
X117857142Y-72988095D01*
X117904761Y-73035714D01*
X117952380Y-73130952D01*
X117952380Y-73511904D01*
X116952380Y-73511904D01*
X116952380Y-73178571D01*
X117000000Y-73083333D01*
X117047619Y-73035714D01*
X117142857Y-72988095D01*
X117238095Y-72988095D01*
X117333333Y-73035714D01*
X117380952Y-73083333D01*
X117428571Y-73178571D01*
X117428571Y-73511904D01*
X117952380Y-80690476D02*
X117476190Y-81023809D01*
X117952380Y-81261904D02*
X116952380Y-81261904D01*
X116952380Y-80880952D01*
X117000000Y-80785714D01*
X117047619Y-80738095D01*
X117142857Y-80690476D01*
X117285714Y-80690476D01*
X117380952Y-80738095D01*
X117428571Y-80785714D01*
X117476190Y-80880952D01*
X117476190Y-81261904D01*
M02*
