M48
; DRILL file {KiCad 5.1.5-52549c5~84~ubuntu18.04.1} date Mon 24 Feb 2020 10:32:59 PM MST
; FORMAT={-:-/ absolute / inch / decimal}
; #@! TF.CreationDate,2020-02-24T22:32:59-07:00
; #@! TF.GenerationSoftware,Kicad,Pcbnew,5.1.5-52549c5~84~ubuntu18.04.1
; #@! TF.FileFunction,Plated,1,2,PTH
FMAT,2
INCH
T1C0.0472
T2C0.0500
%
G90
G05
T1
X3.6913Y-2.7406
X3.6913Y-3.3224
T2
G00X4.4094Y-2.9539
M15
G01X4.4094Y-2.798
M16
G05
G00X4.4094Y-3.265
M15
G01X4.4094Y-3.1091
M16
G05
G00X4.7244Y-2.9539
M15
G01X4.7244Y-2.798
M16
G05
G00X5.5118Y-2.9539
M15
G01X5.5118Y-2.798
M16
G05
G00X5.5118Y-3.265
M15
G01X5.5118Y-3.1091
M16
G05
G00X5.9055Y-2.9539
M15
G01X5.9055Y-2.798
M16
G05
G00X5.9055Y-3.265
M15
G01X5.9055Y-3.1091
M16
G05
G00X5.1181Y-2.9539
M15
G01X5.1181Y-2.798
M16
G05
G00X5.1181Y-3.265
M15
G01X5.1181Y-3.1091
M16
G05
G00X4.7244Y-3.265
M15
G01X4.7244Y-3.1091
M16
G05
T0
M30
