G04 #@! TF.GenerationSoftware,KiCad,Pcbnew,5.1.5-52549c5~84~ubuntu18.04.1*
G04 #@! TF.CreationDate,2020-03-14T18:31:45-06:00*
G04 #@! TF.ProjectId,fuse-board-large,66757365-2d62-46f6-9172-642d6c617267,rev?*
G04 #@! TF.SameCoordinates,Original*
G04 #@! TF.FileFunction,Soldermask,Top*
G04 #@! TF.FilePolarity,Negative*
%FSLAX46Y46*%
G04 Gerber Fmt 4.6, Leading zero omitted, Abs format (unit mm)*
G04 Created by KiCad (PCBNEW 5.1.5-52549c5~84~ubuntu18.04.1) date 2020-03-14 18:31:45*
%MOMM*%
%LPD*%
G04 APERTURE LIST*
%ADD10C,0.100000*%
G04 APERTURE END LIST*
D10*
G36*
X132517184Y-183399938D02*
G01*
X132773268Y-183450876D01*
X132973105Y-183533651D01*
X133255718Y-183650713D01*
X133255719Y-183650714D01*
X133689914Y-183940834D01*
X134059166Y-184310086D01*
X134059167Y-184310088D01*
X134349287Y-184744282D01*
X134549124Y-185226733D01*
X134651000Y-185738898D01*
X134651000Y-186261102D01*
X134549124Y-186773267D01*
X134349287Y-187255718D01*
X134349286Y-187255719D01*
X134059166Y-187689914D01*
X133689914Y-188059166D01*
X133471341Y-188205212D01*
X133255718Y-188349287D01*
X132973105Y-188466349D01*
X132773268Y-188549124D01*
X132517184Y-188600062D01*
X132261102Y-188651000D01*
X131738898Y-188651000D01*
X131482816Y-188600062D01*
X131226732Y-188549124D01*
X131026895Y-188466349D01*
X130744282Y-188349287D01*
X130528659Y-188205212D01*
X130310086Y-188059166D01*
X129940834Y-187689914D01*
X129650714Y-187255719D01*
X129650713Y-187255718D01*
X129450876Y-186773267D01*
X129349000Y-186261102D01*
X129349000Y-185738898D01*
X129450876Y-185226733D01*
X129650713Y-184744282D01*
X129940833Y-184310088D01*
X129940834Y-184310086D01*
X130310086Y-183940834D01*
X130744281Y-183650714D01*
X130744282Y-183650713D01*
X131026895Y-183533651D01*
X131226732Y-183450876D01*
X131482816Y-183399938D01*
X131738898Y-183349000D01*
X132261102Y-183349000D01*
X132517184Y-183399938D01*
G37*
G36*
X38517184Y-183399938D02*
G01*
X38773268Y-183450876D01*
X38973105Y-183533651D01*
X39255718Y-183650713D01*
X39255719Y-183650714D01*
X39689914Y-183940834D01*
X40059166Y-184310086D01*
X40059167Y-184310088D01*
X40349287Y-184744282D01*
X40549124Y-185226733D01*
X40651000Y-185738898D01*
X40651000Y-186261102D01*
X40549124Y-186773267D01*
X40349287Y-187255718D01*
X40349286Y-187255719D01*
X40059166Y-187689914D01*
X39689914Y-188059166D01*
X39471341Y-188205212D01*
X39255718Y-188349287D01*
X38973105Y-188466349D01*
X38773268Y-188549124D01*
X38517184Y-188600062D01*
X38261102Y-188651000D01*
X37738898Y-188651000D01*
X37482816Y-188600062D01*
X37226732Y-188549124D01*
X37026895Y-188466349D01*
X36744282Y-188349287D01*
X36528659Y-188205212D01*
X36310086Y-188059166D01*
X35940834Y-187689914D01*
X35650714Y-187255719D01*
X35650713Y-187255718D01*
X35450876Y-186773267D01*
X35349000Y-186261102D01*
X35349000Y-185738898D01*
X35450876Y-185226733D01*
X35650713Y-184744282D01*
X35940833Y-184310088D01*
X35940834Y-184310086D01*
X36310086Y-183940834D01*
X36744281Y-183650714D01*
X36744282Y-183650713D01*
X37026895Y-183533651D01*
X37226732Y-183450876D01*
X37482816Y-183399938D01*
X37738898Y-183349000D01*
X38261102Y-183349000D01*
X38517184Y-183399938D01*
G37*
G36*
X76036528Y-175319238D02*
G01*
X76142893Y-175329714D01*
X76347605Y-175391813D01*
X76536268Y-175492655D01*
X76558313Y-175510747D01*
X76701634Y-175628366D01*
X76795179Y-175742353D01*
X76837345Y-175793732D01*
X76938187Y-175982395D01*
X77000286Y-176187107D01*
X77021254Y-176400000D01*
X77000286Y-176612893D01*
X76938187Y-176817605D01*
X76837345Y-177006268D01*
X76795179Y-177057647D01*
X76701634Y-177171634D01*
X76587647Y-177265179D01*
X76536268Y-177307345D01*
X76347605Y-177408187D01*
X76142893Y-177470286D01*
X76036528Y-177480762D01*
X75983346Y-177486000D01*
X71916654Y-177486000D01*
X71863472Y-177480762D01*
X71757107Y-177470286D01*
X71552395Y-177408187D01*
X71363732Y-177307345D01*
X71312353Y-177265179D01*
X71198366Y-177171634D01*
X71104821Y-177057647D01*
X71062655Y-177006268D01*
X70961813Y-176817605D01*
X70899714Y-176612893D01*
X70878746Y-176400000D01*
X70899714Y-176187107D01*
X70961813Y-175982395D01*
X71062655Y-175793732D01*
X71104821Y-175742353D01*
X71198366Y-175628366D01*
X71341687Y-175510747D01*
X71363732Y-175492655D01*
X71552395Y-175391813D01*
X71757107Y-175329714D01*
X71863472Y-175319238D01*
X71916654Y-175314000D01*
X75983346Y-175314000D01*
X76036528Y-175319238D01*
G37*
G36*
X68136528Y-175319238D02*
G01*
X68242893Y-175329714D01*
X68447605Y-175391813D01*
X68636268Y-175492655D01*
X68658313Y-175510747D01*
X68801634Y-175628366D01*
X68895179Y-175742353D01*
X68937345Y-175793732D01*
X69038187Y-175982395D01*
X69100286Y-176187107D01*
X69121254Y-176400000D01*
X69100286Y-176612893D01*
X69038187Y-176817605D01*
X68937345Y-177006268D01*
X68895179Y-177057647D01*
X68801634Y-177171634D01*
X68687647Y-177265179D01*
X68636268Y-177307345D01*
X68447605Y-177408187D01*
X68242893Y-177470286D01*
X68136528Y-177480762D01*
X68083346Y-177486000D01*
X64016654Y-177486000D01*
X63963472Y-177480762D01*
X63857107Y-177470286D01*
X63652395Y-177408187D01*
X63463732Y-177307345D01*
X63412353Y-177265179D01*
X63298366Y-177171634D01*
X63204821Y-177057647D01*
X63162655Y-177006268D01*
X63061813Y-176817605D01*
X62999714Y-176612893D01*
X62978746Y-176400000D01*
X62999714Y-176187107D01*
X63061813Y-175982395D01*
X63162655Y-175793732D01*
X63204821Y-175742353D01*
X63298366Y-175628366D01*
X63441687Y-175510747D01*
X63463732Y-175492655D01*
X63652395Y-175391813D01*
X63857107Y-175329714D01*
X63963472Y-175319238D01*
X64016654Y-175314000D01*
X68083346Y-175314000D01*
X68136528Y-175319238D01*
G37*
G36*
X38287985Y-173293860D02*
G01*
X38400748Y-173316290D01*
X38532741Y-173370963D01*
X38719408Y-173448283D01*
X39006196Y-173639909D01*
X39250091Y-173883804D01*
X39441717Y-174170592D01*
X39456494Y-174206267D01*
X39573710Y-174489252D01*
X39641000Y-174827542D01*
X39641000Y-175172458D01*
X39573710Y-175510748D01*
X39519037Y-175642741D01*
X39441717Y-175829408D01*
X39250091Y-176116196D01*
X39006196Y-176360091D01*
X38719408Y-176551717D01*
X38571720Y-176612891D01*
X38400748Y-176683710D01*
X38287985Y-176706140D01*
X38062460Y-176751000D01*
X37717540Y-176751000D01*
X37492015Y-176706140D01*
X37379252Y-176683710D01*
X37208280Y-176612891D01*
X37060592Y-176551717D01*
X36773804Y-176360091D01*
X36529909Y-176116196D01*
X36338283Y-175829408D01*
X36260963Y-175642741D01*
X36206290Y-175510748D01*
X36139000Y-175172458D01*
X36139000Y-174827542D01*
X36206290Y-174489252D01*
X36323506Y-174206267D01*
X36338283Y-174170592D01*
X36529909Y-173883804D01*
X36773804Y-173639909D01*
X37060592Y-173448283D01*
X37247259Y-173370963D01*
X37379252Y-173316290D01*
X37492015Y-173293860D01*
X37717540Y-173249000D01*
X38062460Y-173249000D01*
X38287985Y-173293860D01*
G37*
G36*
X52507985Y-173293860D02*
G01*
X52620748Y-173316290D01*
X52752741Y-173370963D01*
X52939408Y-173448283D01*
X53226196Y-173639909D01*
X53470091Y-173883804D01*
X53661717Y-174170592D01*
X53676494Y-174206267D01*
X53793710Y-174489252D01*
X53861000Y-174827542D01*
X53861000Y-175172458D01*
X53793710Y-175510748D01*
X53739037Y-175642741D01*
X53661717Y-175829408D01*
X53470091Y-176116196D01*
X53226196Y-176360091D01*
X52939408Y-176551717D01*
X52791720Y-176612891D01*
X52620748Y-176683710D01*
X52507985Y-176706140D01*
X52282460Y-176751000D01*
X51937540Y-176751000D01*
X51712015Y-176706140D01*
X51599252Y-176683710D01*
X51428280Y-176612891D01*
X51280592Y-176551717D01*
X50993804Y-176360091D01*
X50749909Y-176116196D01*
X50558283Y-175829408D01*
X50480963Y-175642741D01*
X50426290Y-175510748D01*
X50359000Y-175172458D01*
X50359000Y-174827542D01*
X50426290Y-174489252D01*
X50543506Y-174206267D01*
X50558283Y-174170592D01*
X50749909Y-173883804D01*
X50993804Y-173639909D01*
X51280592Y-173448283D01*
X51467259Y-173370963D01*
X51599252Y-173316290D01*
X51712015Y-173293860D01*
X51937540Y-173249000D01*
X52282460Y-173249000D01*
X52507985Y-173293860D01*
G37*
G36*
X47427985Y-173293860D02*
G01*
X47540748Y-173316290D01*
X47672741Y-173370963D01*
X47859408Y-173448283D01*
X48146196Y-173639909D01*
X48390091Y-173883804D01*
X48581717Y-174170592D01*
X48596494Y-174206267D01*
X48713710Y-174489252D01*
X48781000Y-174827542D01*
X48781000Y-175172458D01*
X48713710Y-175510748D01*
X48659037Y-175642741D01*
X48581717Y-175829408D01*
X48390091Y-176116196D01*
X48146196Y-176360091D01*
X47859408Y-176551717D01*
X47711720Y-176612891D01*
X47540748Y-176683710D01*
X47427985Y-176706140D01*
X47202460Y-176751000D01*
X46857540Y-176751000D01*
X46632015Y-176706140D01*
X46519252Y-176683710D01*
X46348280Y-176612891D01*
X46200592Y-176551717D01*
X45913804Y-176360091D01*
X45669909Y-176116196D01*
X45478283Y-175829408D01*
X45400963Y-175642741D01*
X45346290Y-175510748D01*
X45279000Y-175172458D01*
X45279000Y-174827542D01*
X45346290Y-174489252D01*
X45463506Y-174206267D01*
X45478283Y-174170592D01*
X45669909Y-173883804D01*
X45913804Y-173639909D01*
X46200592Y-173448283D01*
X46387259Y-173370963D01*
X46519252Y-173316290D01*
X46632015Y-173293860D01*
X46857540Y-173249000D01*
X47202460Y-173249000D01*
X47427985Y-173293860D01*
G37*
G36*
X43367985Y-173293860D02*
G01*
X43480748Y-173316290D01*
X43612741Y-173370963D01*
X43799408Y-173448283D01*
X44086196Y-173639909D01*
X44330091Y-173883804D01*
X44521717Y-174170592D01*
X44536494Y-174206267D01*
X44653710Y-174489252D01*
X44721000Y-174827542D01*
X44721000Y-175172458D01*
X44653710Y-175510748D01*
X44599037Y-175642741D01*
X44521717Y-175829408D01*
X44330091Y-176116196D01*
X44086196Y-176360091D01*
X43799408Y-176551717D01*
X43651720Y-176612891D01*
X43480748Y-176683710D01*
X43367985Y-176706140D01*
X43142460Y-176751000D01*
X42797540Y-176751000D01*
X42572015Y-176706140D01*
X42459252Y-176683710D01*
X42288280Y-176612891D01*
X42140592Y-176551717D01*
X41853804Y-176360091D01*
X41609909Y-176116196D01*
X41418283Y-175829408D01*
X41340963Y-175642741D01*
X41286290Y-175510748D01*
X41219000Y-175172458D01*
X41219000Y-174827542D01*
X41286290Y-174489252D01*
X41403506Y-174206267D01*
X41418283Y-174170592D01*
X41609909Y-173883804D01*
X41853804Y-173639909D01*
X42140592Y-173448283D01*
X42327259Y-173370963D01*
X42459252Y-173316290D01*
X42572015Y-173293860D01*
X42797540Y-173249000D01*
X43142460Y-173249000D01*
X43367985Y-173293860D01*
G37*
G36*
X118287985Y-173293860D02*
G01*
X118400748Y-173316290D01*
X118532741Y-173370963D01*
X118719408Y-173448283D01*
X119006196Y-173639909D01*
X119250091Y-173883804D01*
X119441717Y-174170592D01*
X119456494Y-174206267D01*
X119573710Y-174489252D01*
X119641000Y-174827542D01*
X119641000Y-175172458D01*
X119573710Y-175510748D01*
X119519037Y-175642741D01*
X119441717Y-175829408D01*
X119250091Y-176116196D01*
X119006196Y-176360091D01*
X118719408Y-176551717D01*
X118571720Y-176612891D01*
X118400748Y-176683710D01*
X118287985Y-176706140D01*
X118062460Y-176751000D01*
X117717540Y-176751000D01*
X117492015Y-176706140D01*
X117379252Y-176683710D01*
X117208280Y-176612891D01*
X117060592Y-176551717D01*
X116773804Y-176360091D01*
X116529909Y-176116196D01*
X116338283Y-175829408D01*
X116260963Y-175642741D01*
X116206290Y-175510748D01*
X116139000Y-175172458D01*
X116139000Y-174827542D01*
X116206290Y-174489252D01*
X116323506Y-174206267D01*
X116338283Y-174170592D01*
X116529909Y-173883804D01*
X116773804Y-173639909D01*
X117060592Y-173448283D01*
X117247259Y-173370963D01*
X117379252Y-173316290D01*
X117492015Y-173293860D01*
X117717540Y-173249000D01*
X118062460Y-173249000D01*
X118287985Y-173293860D01*
G37*
G36*
X132507985Y-173293860D02*
G01*
X132620748Y-173316290D01*
X132752741Y-173370963D01*
X132939408Y-173448283D01*
X133226196Y-173639909D01*
X133470091Y-173883804D01*
X133661717Y-174170592D01*
X133676494Y-174206267D01*
X133793710Y-174489252D01*
X133861000Y-174827542D01*
X133861000Y-175172458D01*
X133793710Y-175510748D01*
X133739037Y-175642741D01*
X133661717Y-175829408D01*
X133470091Y-176116196D01*
X133226196Y-176360091D01*
X132939408Y-176551717D01*
X132791720Y-176612891D01*
X132620748Y-176683710D01*
X132507985Y-176706140D01*
X132282460Y-176751000D01*
X131937540Y-176751000D01*
X131712015Y-176706140D01*
X131599252Y-176683710D01*
X131428280Y-176612891D01*
X131280592Y-176551717D01*
X130993804Y-176360091D01*
X130749909Y-176116196D01*
X130558283Y-175829408D01*
X130480963Y-175642741D01*
X130426290Y-175510748D01*
X130359000Y-175172458D01*
X130359000Y-174827542D01*
X130426290Y-174489252D01*
X130543506Y-174206267D01*
X130558283Y-174170592D01*
X130749909Y-173883804D01*
X130993804Y-173639909D01*
X131280592Y-173448283D01*
X131467259Y-173370963D01*
X131599252Y-173316290D01*
X131712015Y-173293860D01*
X131937540Y-173249000D01*
X132282460Y-173249000D01*
X132507985Y-173293860D01*
G37*
G36*
X123367985Y-173293860D02*
G01*
X123480748Y-173316290D01*
X123612741Y-173370963D01*
X123799408Y-173448283D01*
X124086196Y-173639909D01*
X124330091Y-173883804D01*
X124521717Y-174170592D01*
X124536494Y-174206267D01*
X124653710Y-174489252D01*
X124721000Y-174827542D01*
X124721000Y-175172458D01*
X124653710Y-175510748D01*
X124599037Y-175642741D01*
X124521717Y-175829408D01*
X124330091Y-176116196D01*
X124086196Y-176360091D01*
X123799408Y-176551717D01*
X123651720Y-176612891D01*
X123480748Y-176683710D01*
X123367985Y-176706140D01*
X123142460Y-176751000D01*
X122797540Y-176751000D01*
X122572015Y-176706140D01*
X122459252Y-176683710D01*
X122288280Y-176612891D01*
X122140592Y-176551717D01*
X121853804Y-176360091D01*
X121609909Y-176116196D01*
X121418283Y-175829408D01*
X121340963Y-175642741D01*
X121286290Y-175510748D01*
X121219000Y-175172458D01*
X121219000Y-174827542D01*
X121286290Y-174489252D01*
X121403506Y-174206267D01*
X121418283Y-174170592D01*
X121609909Y-173883804D01*
X121853804Y-173639909D01*
X122140592Y-173448283D01*
X122327259Y-173370963D01*
X122459252Y-173316290D01*
X122572015Y-173293860D01*
X122797540Y-173249000D01*
X123142460Y-173249000D01*
X123367985Y-173293860D01*
G37*
G36*
X127427985Y-173293860D02*
G01*
X127540748Y-173316290D01*
X127672741Y-173370963D01*
X127859408Y-173448283D01*
X128146196Y-173639909D01*
X128390091Y-173883804D01*
X128581717Y-174170592D01*
X128596494Y-174206267D01*
X128713710Y-174489252D01*
X128781000Y-174827542D01*
X128781000Y-175172458D01*
X128713710Y-175510748D01*
X128659037Y-175642741D01*
X128581717Y-175829408D01*
X128390091Y-176116196D01*
X128146196Y-176360091D01*
X127859408Y-176551717D01*
X127711720Y-176612891D01*
X127540748Y-176683710D01*
X127427985Y-176706140D01*
X127202460Y-176751000D01*
X126857540Y-176751000D01*
X126632015Y-176706140D01*
X126519252Y-176683710D01*
X126348280Y-176612891D01*
X126200592Y-176551717D01*
X125913804Y-176360091D01*
X125669909Y-176116196D01*
X125478283Y-175829408D01*
X125400963Y-175642741D01*
X125346290Y-175510748D01*
X125279000Y-175172458D01*
X125279000Y-174827542D01*
X125346290Y-174489252D01*
X125463506Y-174206267D01*
X125478283Y-174170592D01*
X125669909Y-173883804D01*
X125913804Y-173639909D01*
X126200592Y-173448283D01*
X126387259Y-173370963D01*
X126519252Y-173316290D01*
X126632015Y-173293860D01*
X126857540Y-173249000D01*
X127202460Y-173249000D01*
X127427985Y-173293860D01*
G37*
G36*
X98136528Y-172519238D02*
G01*
X98242893Y-172529714D01*
X98447605Y-172591813D01*
X98636268Y-172692655D01*
X98687647Y-172734821D01*
X98801634Y-172828366D01*
X98895179Y-172942353D01*
X98937345Y-172993732D01*
X99038187Y-173182395D01*
X99100286Y-173387107D01*
X99121254Y-173600000D01*
X99100286Y-173812893D01*
X99038187Y-174017605D01*
X98937345Y-174206268D01*
X98895179Y-174257647D01*
X98801634Y-174371634D01*
X98687647Y-174465179D01*
X98636268Y-174507345D01*
X98447605Y-174608187D01*
X98242893Y-174670286D01*
X98136528Y-174680762D01*
X98083346Y-174686000D01*
X94016654Y-174686000D01*
X93963472Y-174680762D01*
X93857107Y-174670286D01*
X93652395Y-174608187D01*
X93463732Y-174507345D01*
X93412353Y-174465179D01*
X93298366Y-174371634D01*
X93204821Y-174257647D01*
X93162655Y-174206268D01*
X93061813Y-174017605D01*
X92999714Y-173812893D01*
X92978746Y-173600000D01*
X92999714Y-173387107D01*
X93061813Y-173182395D01*
X93162655Y-172993732D01*
X93204821Y-172942353D01*
X93298366Y-172828366D01*
X93412353Y-172734821D01*
X93463732Y-172692655D01*
X93652395Y-172591813D01*
X93857107Y-172529714D01*
X93963472Y-172519238D01*
X94016654Y-172514000D01*
X98083346Y-172514000D01*
X98136528Y-172519238D01*
G37*
G36*
X106036528Y-172519238D02*
G01*
X106142893Y-172529714D01*
X106347605Y-172591813D01*
X106536268Y-172692655D01*
X106587647Y-172734821D01*
X106701634Y-172828366D01*
X106795179Y-172942353D01*
X106837345Y-172993732D01*
X106938187Y-173182395D01*
X107000286Y-173387107D01*
X107021254Y-173600000D01*
X107000286Y-173812893D01*
X106938187Y-174017605D01*
X106837345Y-174206268D01*
X106795179Y-174257647D01*
X106701634Y-174371634D01*
X106587647Y-174465179D01*
X106536268Y-174507345D01*
X106347605Y-174608187D01*
X106142893Y-174670286D01*
X106036528Y-174680762D01*
X105983346Y-174686000D01*
X101916654Y-174686000D01*
X101863472Y-174680762D01*
X101757107Y-174670286D01*
X101552395Y-174608187D01*
X101363732Y-174507345D01*
X101312353Y-174465179D01*
X101198366Y-174371634D01*
X101104821Y-174257647D01*
X101062655Y-174206268D01*
X100961813Y-174017605D01*
X100899714Y-173812893D01*
X100878746Y-173600000D01*
X100899714Y-173387107D01*
X100961813Y-173182395D01*
X101062655Y-172993732D01*
X101104821Y-172942353D01*
X101198366Y-172828366D01*
X101312353Y-172734821D01*
X101363732Y-172692655D01*
X101552395Y-172591813D01*
X101757107Y-172529714D01*
X101863472Y-172519238D01*
X101916654Y-172514000D01*
X105983346Y-172514000D01*
X106036528Y-172519238D01*
G37*
G36*
X76036528Y-150319238D02*
G01*
X76142893Y-150329714D01*
X76347605Y-150391813D01*
X76536268Y-150492655D01*
X76558313Y-150510747D01*
X76701634Y-150628366D01*
X76795179Y-150742353D01*
X76837345Y-150793732D01*
X76938187Y-150982395D01*
X77000286Y-151187107D01*
X77021254Y-151400000D01*
X77000286Y-151612893D01*
X76938187Y-151817605D01*
X76837345Y-152006268D01*
X76795179Y-152057647D01*
X76701634Y-152171634D01*
X76587647Y-152265179D01*
X76536268Y-152307345D01*
X76347605Y-152408187D01*
X76142893Y-152470286D01*
X76036528Y-152480762D01*
X75983346Y-152486000D01*
X71916654Y-152486000D01*
X71863472Y-152480762D01*
X71757107Y-152470286D01*
X71552395Y-152408187D01*
X71363732Y-152307345D01*
X71312353Y-152265179D01*
X71198366Y-152171634D01*
X71104821Y-152057647D01*
X71062655Y-152006268D01*
X70961813Y-151817605D01*
X70899714Y-151612893D01*
X70878746Y-151400000D01*
X70899714Y-151187107D01*
X70961813Y-150982395D01*
X71062655Y-150793732D01*
X71104821Y-150742353D01*
X71198366Y-150628366D01*
X71341687Y-150510747D01*
X71363732Y-150492655D01*
X71552395Y-150391813D01*
X71757107Y-150329714D01*
X71863472Y-150319238D01*
X71916654Y-150314000D01*
X75983346Y-150314000D01*
X76036528Y-150319238D01*
G37*
G36*
X68136528Y-150319238D02*
G01*
X68242893Y-150329714D01*
X68447605Y-150391813D01*
X68636268Y-150492655D01*
X68658313Y-150510747D01*
X68801634Y-150628366D01*
X68895179Y-150742353D01*
X68937345Y-150793732D01*
X69038187Y-150982395D01*
X69100286Y-151187107D01*
X69121254Y-151400000D01*
X69100286Y-151612893D01*
X69038187Y-151817605D01*
X68937345Y-152006268D01*
X68895179Y-152057647D01*
X68801634Y-152171634D01*
X68687647Y-152265179D01*
X68636268Y-152307345D01*
X68447605Y-152408187D01*
X68242893Y-152470286D01*
X68136528Y-152480762D01*
X68083346Y-152486000D01*
X64016654Y-152486000D01*
X63963472Y-152480762D01*
X63857107Y-152470286D01*
X63652395Y-152408187D01*
X63463732Y-152307345D01*
X63412353Y-152265179D01*
X63298366Y-152171634D01*
X63204821Y-152057647D01*
X63162655Y-152006268D01*
X63061813Y-151817605D01*
X62999714Y-151612893D01*
X62978746Y-151400000D01*
X62999714Y-151187107D01*
X63061813Y-150982395D01*
X63162655Y-150793732D01*
X63204821Y-150742353D01*
X63298366Y-150628366D01*
X63441687Y-150510747D01*
X63463732Y-150492655D01*
X63652395Y-150391813D01*
X63857107Y-150329714D01*
X63963472Y-150319238D01*
X64016654Y-150314000D01*
X68083346Y-150314000D01*
X68136528Y-150319238D01*
G37*
G36*
X38287985Y-148293860D02*
G01*
X38400748Y-148316290D01*
X38532741Y-148370963D01*
X38719408Y-148448283D01*
X39006196Y-148639909D01*
X39250091Y-148883804D01*
X39441717Y-149170592D01*
X39456494Y-149206267D01*
X39573710Y-149489252D01*
X39641000Y-149827542D01*
X39641000Y-150172458D01*
X39573710Y-150510748D01*
X39519037Y-150642741D01*
X39441717Y-150829408D01*
X39250091Y-151116196D01*
X39006196Y-151360091D01*
X38719408Y-151551717D01*
X38571720Y-151612891D01*
X38400748Y-151683710D01*
X38287985Y-151706140D01*
X38062460Y-151751000D01*
X37717540Y-151751000D01*
X37492015Y-151706140D01*
X37379252Y-151683710D01*
X37208280Y-151612891D01*
X37060592Y-151551717D01*
X36773804Y-151360091D01*
X36529909Y-151116196D01*
X36338283Y-150829408D01*
X36260963Y-150642741D01*
X36206290Y-150510748D01*
X36139000Y-150172458D01*
X36139000Y-149827542D01*
X36206290Y-149489252D01*
X36323506Y-149206267D01*
X36338283Y-149170592D01*
X36529909Y-148883804D01*
X36773804Y-148639909D01*
X37060592Y-148448283D01*
X37247259Y-148370963D01*
X37379252Y-148316290D01*
X37492015Y-148293860D01*
X37717540Y-148249000D01*
X38062460Y-148249000D01*
X38287985Y-148293860D01*
G37*
G36*
X123367985Y-148293860D02*
G01*
X123480748Y-148316290D01*
X123612741Y-148370963D01*
X123799408Y-148448283D01*
X124086196Y-148639909D01*
X124330091Y-148883804D01*
X124521717Y-149170592D01*
X124536494Y-149206267D01*
X124653710Y-149489252D01*
X124721000Y-149827542D01*
X124721000Y-150172458D01*
X124653710Y-150510748D01*
X124599037Y-150642741D01*
X124521717Y-150829408D01*
X124330091Y-151116196D01*
X124086196Y-151360091D01*
X123799408Y-151551717D01*
X123651720Y-151612891D01*
X123480748Y-151683710D01*
X123367985Y-151706140D01*
X123142460Y-151751000D01*
X122797540Y-151751000D01*
X122572015Y-151706140D01*
X122459252Y-151683710D01*
X122288280Y-151612891D01*
X122140592Y-151551717D01*
X121853804Y-151360091D01*
X121609909Y-151116196D01*
X121418283Y-150829408D01*
X121340963Y-150642741D01*
X121286290Y-150510748D01*
X121219000Y-150172458D01*
X121219000Y-149827542D01*
X121286290Y-149489252D01*
X121403506Y-149206267D01*
X121418283Y-149170592D01*
X121609909Y-148883804D01*
X121853804Y-148639909D01*
X122140592Y-148448283D01*
X122327259Y-148370963D01*
X122459252Y-148316290D01*
X122572015Y-148293860D01*
X122797540Y-148249000D01*
X123142460Y-148249000D01*
X123367985Y-148293860D01*
G37*
G36*
X132507985Y-148293860D02*
G01*
X132620748Y-148316290D01*
X132752741Y-148370963D01*
X132939408Y-148448283D01*
X133226196Y-148639909D01*
X133470091Y-148883804D01*
X133661717Y-149170592D01*
X133676494Y-149206267D01*
X133793710Y-149489252D01*
X133861000Y-149827542D01*
X133861000Y-150172458D01*
X133793710Y-150510748D01*
X133739037Y-150642741D01*
X133661717Y-150829408D01*
X133470091Y-151116196D01*
X133226196Y-151360091D01*
X132939408Y-151551717D01*
X132791720Y-151612891D01*
X132620748Y-151683710D01*
X132507985Y-151706140D01*
X132282460Y-151751000D01*
X131937540Y-151751000D01*
X131712015Y-151706140D01*
X131599252Y-151683710D01*
X131428280Y-151612891D01*
X131280592Y-151551717D01*
X130993804Y-151360091D01*
X130749909Y-151116196D01*
X130558283Y-150829408D01*
X130480963Y-150642741D01*
X130426290Y-150510748D01*
X130359000Y-150172458D01*
X130359000Y-149827542D01*
X130426290Y-149489252D01*
X130543506Y-149206267D01*
X130558283Y-149170592D01*
X130749909Y-148883804D01*
X130993804Y-148639909D01*
X131280592Y-148448283D01*
X131467259Y-148370963D01*
X131599252Y-148316290D01*
X131712015Y-148293860D01*
X131937540Y-148249000D01*
X132282460Y-148249000D01*
X132507985Y-148293860D01*
G37*
G36*
X118287985Y-148293860D02*
G01*
X118400748Y-148316290D01*
X118532741Y-148370963D01*
X118719408Y-148448283D01*
X119006196Y-148639909D01*
X119250091Y-148883804D01*
X119441717Y-149170592D01*
X119456494Y-149206267D01*
X119573710Y-149489252D01*
X119641000Y-149827542D01*
X119641000Y-150172458D01*
X119573710Y-150510748D01*
X119519037Y-150642741D01*
X119441717Y-150829408D01*
X119250091Y-151116196D01*
X119006196Y-151360091D01*
X118719408Y-151551717D01*
X118571720Y-151612891D01*
X118400748Y-151683710D01*
X118287985Y-151706140D01*
X118062460Y-151751000D01*
X117717540Y-151751000D01*
X117492015Y-151706140D01*
X117379252Y-151683710D01*
X117208280Y-151612891D01*
X117060592Y-151551717D01*
X116773804Y-151360091D01*
X116529909Y-151116196D01*
X116338283Y-150829408D01*
X116260963Y-150642741D01*
X116206290Y-150510748D01*
X116139000Y-150172458D01*
X116139000Y-149827542D01*
X116206290Y-149489252D01*
X116323506Y-149206267D01*
X116338283Y-149170592D01*
X116529909Y-148883804D01*
X116773804Y-148639909D01*
X117060592Y-148448283D01*
X117247259Y-148370963D01*
X117379252Y-148316290D01*
X117492015Y-148293860D01*
X117717540Y-148249000D01*
X118062460Y-148249000D01*
X118287985Y-148293860D01*
G37*
G36*
X43367985Y-148293860D02*
G01*
X43480748Y-148316290D01*
X43612741Y-148370963D01*
X43799408Y-148448283D01*
X44086196Y-148639909D01*
X44330091Y-148883804D01*
X44521717Y-149170592D01*
X44536494Y-149206267D01*
X44653710Y-149489252D01*
X44721000Y-149827542D01*
X44721000Y-150172458D01*
X44653710Y-150510748D01*
X44599037Y-150642741D01*
X44521717Y-150829408D01*
X44330091Y-151116196D01*
X44086196Y-151360091D01*
X43799408Y-151551717D01*
X43651720Y-151612891D01*
X43480748Y-151683710D01*
X43367985Y-151706140D01*
X43142460Y-151751000D01*
X42797540Y-151751000D01*
X42572015Y-151706140D01*
X42459252Y-151683710D01*
X42288280Y-151612891D01*
X42140592Y-151551717D01*
X41853804Y-151360091D01*
X41609909Y-151116196D01*
X41418283Y-150829408D01*
X41340963Y-150642741D01*
X41286290Y-150510748D01*
X41219000Y-150172458D01*
X41219000Y-149827542D01*
X41286290Y-149489252D01*
X41403506Y-149206267D01*
X41418283Y-149170592D01*
X41609909Y-148883804D01*
X41853804Y-148639909D01*
X42140592Y-148448283D01*
X42327259Y-148370963D01*
X42459252Y-148316290D01*
X42572015Y-148293860D01*
X42797540Y-148249000D01*
X43142460Y-148249000D01*
X43367985Y-148293860D01*
G37*
G36*
X47427985Y-148293860D02*
G01*
X47540748Y-148316290D01*
X47672741Y-148370963D01*
X47859408Y-148448283D01*
X48146196Y-148639909D01*
X48390091Y-148883804D01*
X48581717Y-149170592D01*
X48596494Y-149206267D01*
X48713710Y-149489252D01*
X48781000Y-149827542D01*
X48781000Y-150172458D01*
X48713710Y-150510748D01*
X48659037Y-150642741D01*
X48581717Y-150829408D01*
X48390091Y-151116196D01*
X48146196Y-151360091D01*
X47859408Y-151551717D01*
X47711720Y-151612891D01*
X47540748Y-151683710D01*
X47427985Y-151706140D01*
X47202460Y-151751000D01*
X46857540Y-151751000D01*
X46632015Y-151706140D01*
X46519252Y-151683710D01*
X46348280Y-151612891D01*
X46200592Y-151551717D01*
X45913804Y-151360091D01*
X45669909Y-151116196D01*
X45478283Y-150829408D01*
X45400963Y-150642741D01*
X45346290Y-150510748D01*
X45279000Y-150172458D01*
X45279000Y-149827542D01*
X45346290Y-149489252D01*
X45463506Y-149206267D01*
X45478283Y-149170592D01*
X45669909Y-148883804D01*
X45913804Y-148639909D01*
X46200592Y-148448283D01*
X46387259Y-148370963D01*
X46519252Y-148316290D01*
X46632015Y-148293860D01*
X46857540Y-148249000D01*
X47202460Y-148249000D01*
X47427985Y-148293860D01*
G37*
G36*
X127427985Y-148293860D02*
G01*
X127540748Y-148316290D01*
X127672741Y-148370963D01*
X127859408Y-148448283D01*
X128146196Y-148639909D01*
X128390091Y-148883804D01*
X128581717Y-149170592D01*
X128596494Y-149206267D01*
X128713710Y-149489252D01*
X128781000Y-149827542D01*
X128781000Y-150172458D01*
X128713710Y-150510748D01*
X128659037Y-150642741D01*
X128581717Y-150829408D01*
X128390091Y-151116196D01*
X128146196Y-151360091D01*
X127859408Y-151551717D01*
X127711720Y-151612891D01*
X127540748Y-151683710D01*
X127427985Y-151706140D01*
X127202460Y-151751000D01*
X126857540Y-151751000D01*
X126632015Y-151706140D01*
X126519252Y-151683710D01*
X126348280Y-151612891D01*
X126200592Y-151551717D01*
X125913804Y-151360091D01*
X125669909Y-151116196D01*
X125478283Y-150829408D01*
X125400963Y-150642741D01*
X125346290Y-150510748D01*
X125279000Y-150172458D01*
X125279000Y-149827542D01*
X125346290Y-149489252D01*
X125463506Y-149206267D01*
X125478283Y-149170592D01*
X125669909Y-148883804D01*
X125913804Y-148639909D01*
X126200592Y-148448283D01*
X126387259Y-148370963D01*
X126519252Y-148316290D01*
X126632015Y-148293860D01*
X126857540Y-148249000D01*
X127202460Y-148249000D01*
X127427985Y-148293860D01*
G37*
G36*
X52507985Y-148293860D02*
G01*
X52620748Y-148316290D01*
X52752741Y-148370963D01*
X52939408Y-148448283D01*
X53226196Y-148639909D01*
X53470091Y-148883804D01*
X53661717Y-149170592D01*
X53676494Y-149206267D01*
X53793710Y-149489252D01*
X53861000Y-149827542D01*
X53861000Y-150172458D01*
X53793710Y-150510748D01*
X53739037Y-150642741D01*
X53661717Y-150829408D01*
X53470091Y-151116196D01*
X53226196Y-151360091D01*
X52939408Y-151551717D01*
X52791720Y-151612891D01*
X52620748Y-151683710D01*
X52507985Y-151706140D01*
X52282460Y-151751000D01*
X51937540Y-151751000D01*
X51712015Y-151706140D01*
X51599252Y-151683710D01*
X51428280Y-151612891D01*
X51280592Y-151551717D01*
X50993804Y-151360091D01*
X50749909Y-151116196D01*
X50558283Y-150829408D01*
X50480963Y-150642741D01*
X50426290Y-150510748D01*
X50359000Y-150172458D01*
X50359000Y-149827542D01*
X50426290Y-149489252D01*
X50543506Y-149206267D01*
X50558283Y-149170592D01*
X50749909Y-148883804D01*
X50993804Y-148639909D01*
X51280592Y-148448283D01*
X51467259Y-148370963D01*
X51599252Y-148316290D01*
X51712015Y-148293860D01*
X51937540Y-148249000D01*
X52282460Y-148249000D01*
X52507985Y-148293860D01*
G37*
G36*
X106036528Y-147519238D02*
G01*
X106142893Y-147529714D01*
X106347605Y-147591813D01*
X106536268Y-147692655D01*
X106587647Y-147734821D01*
X106701634Y-147828366D01*
X106795179Y-147942353D01*
X106837345Y-147993732D01*
X106938187Y-148182395D01*
X107000286Y-148387107D01*
X107021254Y-148600000D01*
X107000286Y-148812893D01*
X106938187Y-149017605D01*
X106837345Y-149206268D01*
X106795179Y-149257647D01*
X106701634Y-149371634D01*
X106587647Y-149465179D01*
X106536268Y-149507345D01*
X106347605Y-149608187D01*
X106142893Y-149670286D01*
X106036528Y-149680762D01*
X105983346Y-149686000D01*
X101916654Y-149686000D01*
X101863472Y-149680762D01*
X101757107Y-149670286D01*
X101552395Y-149608187D01*
X101363732Y-149507345D01*
X101312353Y-149465179D01*
X101198366Y-149371634D01*
X101104821Y-149257647D01*
X101062655Y-149206268D01*
X100961813Y-149017605D01*
X100899714Y-148812893D01*
X100878746Y-148600000D01*
X100899714Y-148387107D01*
X100961813Y-148182395D01*
X101062655Y-147993732D01*
X101104821Y-147942353D01*
X101198366Y-147828366D01*
X101312353Y-147734821D01*
X101363732Y-147692655D01*
X101552395Y-147591813D01*
X101757107Y-147529714D01*
X101863472Y-147519238D01*
X101916654Y-147514000D01*
X105983346Y-147514000D01*
X106036528Y-147519238D01*
G37*
G36*
X98136528Y-147519238D02*
G01*
X98242893Y-147529714D01*
X98447605Y-147591813D01*
X98636268Y-147692655D01*
X98687647Y-147734821D01*
X98801634Y-147828366D01*
X98895179Y-147942353D01*
X98937345Y-147993732D01*
X99038187Y-148182395D01*
X99100286Y-148387107D01*
X99121254Y-148600000D01*
X99100286Y-148812893D01*
X99038187Y-149017605D01*
X98937345Y-149206268D01*
X98895179Y-149257647D01*
X98801634Y-149371634D01*
X98687647Y-149465179D01*
X98636268Y-149507345D01*
X98447605Y-149608187D01*
X98242893Y-149670286D01*
X98136528Y-149680762D01*
X98083346Y-149686000D01*
X94016654Y-149686000D01*
X93963472Y-149680762D01*
X93857107Y-149670286D01*
X93652395Y-149608187D01*
X93463732Y-149507345D01*
X93412353Y-149465179D01*
X93298366Y-149371634D01*
X93204821Y-149257647D01*
X93162655Y-149206268D01*
X93061813Y-149017605D01*
X92999714Y-148812893D01*
X92978746Y-148600000D01*
X92999714Y-148387107D01*
X93061813Y-148182395D01*
X93162655Y-147993732D01*
X93204821Y-147942353D01*
X93298366Y-147828366D01*
X93412353Y-147734821D01*
X93463732Y-147692655D01*
X93652395Y-147591813D01*
X93857107Y-147529714D01*
X93963472Y-147519238D01*
X94016654Y-147514000D01*
X98083346Y-147514000D01*
X98136528Y-147519238D01*
G37*
G36*
X76036528Y-125319238D02*
G01*
X76142893Y-125329714D01*
X76347605Y-125391813D01*
X76536268Y-125492655D01*
X76558313Y-125510747D01*
X76701634Y-125628366D01*
X76795179Y-125742353D01*
X76837345Y-125793732D01*
X76938187Y-125982395D01*
X77000286Y-126187107D01*
X77021254Y-126400000D01*
X77000286Y-126612893D01*
X76938187Y-126817605D01*
X76837345Y-127006268D01*
X76795179Y-127057647D01*
X76701634Y-127171634D01*
X76587647Y-127265179D01*
X76536268Y-127307345D01*
X76347605Y-127408187D01*
X76142893Y-127470286D01*
X76036528Y-127480762D01*
X75983346Y-127486000D01*
X71916654Y-127486000D01*
X71863472Y-127480762D01*
X71757107Y-127470286D01*
X71552395Y-127408187D01*
X71363732Y-127307345D01*
X71312353Y-127265179D01*
X71198366Y-127171634D01*
X71104821Y-127057647D01*
X71062655Y-127006268D01*
X70961813Y-126817605D01*
X70899714Y-126612893D01*
X70878746Y-126400000D01*
X70899714Y-126187107D01*
X70961813Y-125982395D01*
X71062655Y-125793732D01*
X71104821Y-125742353D01*
X71198366Y-125628366D01*
X71341687Y-125510747D01*
X71363732Y-125492655D01*
X71552395Y-125391813D01*
X71757107Y-125329714D01*
X71863472Y-125319238D01*
X71916654Y-125314000D01*
X75983346Y-125314000D01*
X76036528Y-125319238D01*
G37*
G36*
X68136528Y-125319238D02*
G01*
X68242893Y-125329714D01*
X68447605Y-125391813D01*
X68636268Y-125492655D01*
X68658313Y-125510747D01*
X68801634Y-125628366D01*
X68895179Y-125742353D01*
X68937345Y-125793732D01*
X69038187Y-125982395D01*
X69100286Y-126187107D01*
X69121254Y-126400000D01*
X69100286Y-126612893D01*
X69038187Y-126817605D01*
X68937345Y-127006268D01*
X68895179Y-127057647D01*
X68801634Y-127171634D01*
X68687647Y-127265179D01*
X68636268Y-127307345D01*
X68447605Y-127408187D01*
X68242893Y-127470286D01*
X68136528Y-127480762D01*
X68083346Y-127486000D01*
X64016654Y-127486000D01*
X63963472Y-127480762D01*
X63857107Y-127470286D01*
X63652395Y-127408187D01*
X63463732Y-127307345D01*
X63412353Y-127265179D01*
X63298366Y-127171634D01*
X63204821Y-127057647D01*
X63162655Y-127006268D01*
X63061813Y-126817605D01*
X62999714Y-126612893D01*
X62978746Y-126400000D01*
X62999714Y-126187107D01*
X63061813Y-125982395D01*
X63162655Y-125793732D01*
X63204821Y-125742353D01*
X63298366Y-125628366D01*
X63441687Y-125510747D01*
X63463732Y-125492655D01*
X63652395Y-125391813D01*
X63857107Y-125329714D01*
X63963472Y-125319238D01*
X64016654Y-125314000D01*
X68083346Y-125314000D01*
X68136528Y-125319238D01*
G37*
G36*
X52507985Y-123293860D02*
G01*
X52620748Y-123316290D01*
X52752741Y-123370963D01*
X52939408Y-123448283D01*
X53226196Y-123639909D01*
X53470091Y-123883804D01*
X53661717Y-124170592D01*
X53676494Y-124206267D01*
X53793710Y-124489252D01*
X53861000Y-124827542D01*
X53861000Y-125172458D01*
X53793710Y-125510748D01*
X53739037Y-125642741D01*
X53661717Y-125829408D01*
X53470091Y-126116196D01*
X53226196Y-126360091D01*
X52939408Y-126551717D01*
X52791720Y-126612891D01*
X52620748Y-126683710D01*
X52507985Y-126706140D01*
X52282460Y-126751000D01*
X51937540Y-126751000D01*
X51712015Y-126706140D01*
X51599252Y-126683710D01*
X51428280Y-126612891D01*
X51280592Y-126551717D01*
X50993804Y-126360091D01*
X50749909Y-126116196D01*
X50558283Y-125829408D01*
X50480963Y-125642741D01*
X50426290Y-125510748D01*
X50359000Y-125172458D01*
X50359000Y-124827542D01*
X50426290Y-124489252D01*
X50543506Y-124206267D01*
X50558283Y-124170592D01*
X50749909Y-123883804D01*
X50993804Y-123639909D01*
X51280592Y-123448283D01*
X51467259Y-123370963D01*
X51599252Y-123316290D01*
X51712015Y-123293860D01*
X51937540Y-123249000D01*
X52282460Y-123249000D01*
X52507985Y-123293860D01*
G37*
G36*
X47427985Y-123293860D02*
G01*
X47540748Y-123316290D01*
X47672741Y-123370963D01*
X47859408Y-123448283D01*
X48146196Y-123639909D01*
X48390091Y-123883804D01*
X48581717Y-124170592D01*
X48596494Y-124206267D01*
X48713710Y-124489252D01*
X48781000Y-124827542D01*
X48781000Y-125172458D01*
X48713710Y-125510748D01*
X48659037Y-125642741D01*
X48581717Y-125829408D01*
X48390091Y-126116196D01*
X48146196Y-126360091D01*
X47859408Y-126551717D01*
X47711720Y-126612891D01*
X47540748Y-126683710D01*
X47427985Y-126706140D01*
X47202460Y-126751000D01*
X46857540Y-126751000D01*
X46632015Y-126706140D01*
X46519252Y-126683710D01*
X46348280Y-126612891D01*
X46200592Y-126551717D01*
X45913804Y-126360091D01*
X45669909Y-126116196D01*
X45478283Y-125829408D01*
X45400963Y-125642741D01*
X45346290Y-125510748D01*
X45279000Y-125172458D01*
X45279000Y-124827542D01*
X45346290Y-124489252D01*
X45463506Y-124206267D01*
X45478283Y-124170592D01*
X45669909Y-123883804D01*
X45913804Y-123639909D01*
X46200592Y-123448283D01*
X46387259Y-123370963D01*
X46519252Y-123316290D01*
X46632015Y-123293860D01*
X46857540Y-123249000D01*
X47202460Y-123249000D01*
X47427985Y-123293860D01*
G37*
G36*
X43367985Y-123293860D02*
G01*
X43480748Y-123316290D01*
X43612741Y-123370963D01*
X43799408Y-123448283D01*
X44086196Y-123639909D01*
X44330091Y-123883804D01*
X44521717Y-124170592D01*
X44536494Y-124206267D01*
X44653710Y-124489252D01*
X44721000Y-124827542D01*
X44721000Y-125172458D01*
X44653710Y-125510748D01*
X44599037Y-125642741D01*
X44521717Y-125829408D01*
X44330091Y-126116196D01*
X44086196Y-126360091D01*
X43799408Y-126551717D01*
X43651720Y-126612891D01*
X43480748Y-126683710D01*
X43367985Y-126706140D01*
X43142460Y-126751000D01*
X42797540Y-126751000D01*
X42572015Y-126706140D01*
X42459252Y-126683710D01*
X42288280Y-126612891D01*
X42140592Y-126551717D01*
X41853804Y-126360091D01*
X41609909Y-126116196D01*
X41418283Y-125829408D01*
X41340963Y-125642741D01*
X41286290Y-125510748D01*
X41219000Y-125172458D01*
X41219000Y-124827542D01*
X41286290Y-124489252D01*
X41403506Y-124206267D01*
X41418283Y-124170592D01*
X41609909Y-123883804D01*
X41853804Y-123639909D01*
X42140592Y-123448283D01*
X42327259Y-123370963D01*
X42459252Y-123316290D01*
X42572015Y-123293860D01*
X42797540Y-123249000D01*
X43142460Y-123249000D01*
X43367985Y-123293860D01*
G37*
G36*
X38287985Y-123293860D02*
G01*
X38400748Y-123316290D01*
X38532741Y-123370963D01*
X38719408Y-123448283D01*
X39006196Y-123639909D01*
X39250091Y-123883804D01*
X39441717Y-124170592D01*
X39456494Y-124206267D01*
X39573710Y-124489252D01*
X39641000Y-124827542D01*
X39641000Y-125172458D01*
X39573710Y-125510748D01*
X39519037Y-125642741D01*
X39441717Y-125829408D01*
X39250091Y-126116196D01*
X39006196Y-126360091D01*
X38719408Y-126551717D01*
X38571720Y-126612891D01*
X38400748Y-126683710D01*
X38287985Y-126706140D01*
X38062460Y-126751000D01*
X37717540Y-126751000D01*
X37492015Y-126706140D01*
X37379252Y-126683710D01*
X37208280Y-126612891D01*
X37060592Y-126551717D01*
X36773804Y-126360091D01*
X36529909Y-126116196D01*
X36338283Y-125829408D01*
X36260963Y-125642741D01*
X36206290Y-125510748D01*
X36139000Y-125172458D01*
X36139000Y-124827542D01*
X36206290Y-124489252D01*
X36323506Y-124206267D01*
X36338283Y-124170592D01*
X36529909Y-123883804D01*
X36773804Y-123639909D01*
X37060592Y-123448283D01*
X37247259Y-123370963D01*
X37379252Y-123316290D01*
X37492015Y-123293860D01*
X37717540Y-123249000D01*
X38062460Y-123249000D01*
X38287985Y-123293860D01*
G37*
G36*
X123367985Y-123293860D02*
G01*
X123480748Y-123316290D01*
X123612741Y-123370963D01*
X123799408Y-123448283D01*
X124086196Y-123639909D01*
X124330091Y-123883804D01*
X124521717Y-124170592D01*
X124536494Y-124206267D01*
X124653710Y-124489252D01*
X124721000Y-124827542D01*
X124721000Y-125172458D01*
X124653710Y-125510748D01*
X124599037Y-125642741D01*
X124521717Y-125829408D01*
X124330091Y-126116196D01*
X124086196Y-126360091D01*
X123799408Y-126551717D01*
X123651720Y-126612891D01*
X123480748Y-126683710D01*
X123367985Y-126706140D01*
X123142460Y-126751000D01*
X122797540Y-126751000D01*
X122572015Y-126706140D01*
X122459252Y-126683710D01*
X122288280Y-126612891D01*
X122140592Y-126551717D01*
X121853804Y-126360091D01*
X121609909Y-126116196D01*
X121418283Y-125829408D01*
X121340963Y-125642741D01*
X121286290Y-125510748D01*
X121219000Y-125172458D01*
X121219000Y-124827542D01*
X121286290Y-124489252D01*
X121403506Y-124206267D01*
X121418283Y-124170592D01*
X121609909Y-123883804D01*
X121853804Y-123639909D01*
X122140592Y-123448283D01*
X122327259Y-123370963D01*
X122459252Y-123316290D01*
X122572015Y-123293860D01*
X122797540Y-123249000D01*
X123142460Y-123249000D01*
X123367985Y-123293860D01*
G37*
G36*
X132507985Y-123293860D02*
G01*
X132620748Y-123316290D01*
X132752741Y-123370963D01*
X132939408Y-123448283D01*
X133226196Y-123639909D01*
X133470091Y-123883804D01*
X133661717Y-124170592D01*
X133676494Y-124206267D01*
X133793710Y-124489252D01*
X133861000Y-124827542D01*
X133861000Y-125172458D01*
X133793710Y-125510748D01*
X133739037Y-125642741D01*
X133661717Y-125829408D01*
X133470091Y-126116196D01*
X133226196Y-126360091D01*
X132939408Y-126551717D01*
X132791720Y-126612891D01*
X132620748Y-126683710D01*
X132507985Y-126706140D01*
X132282460Y-126751000D01*
X131937540Y-126751000D01*
X131712015Y-126706140D01*
X131599252Y-126683710D01*
X131428280Y-126612891D01*
X131280592Y-126551717D01*
X130993804Y-126360091D01*
X130749909Y-126116196D01*
X130558283Y-125829408D01*
X130480963Y-125642741D01*
X130426290Y-125510748D01*
X130359000Y-125172458D01*
X130359000Y-124827542D01*
X130426290Y-124489252D01*
X130543506Y-124206267D01*
X130558283Y-124170592D01*
X130749909Y-123883804D01*
X130993804Y-123639909D01*
X131280592Y-123448283D01*
X131467259Y-123370963D01*
X131599252Y-123316290D01*
X131712015Y-123293860D01*
X131937540Y-123249000D01*
X132282460Y-123249000D01*
X132507985Y-123293860D01*
G37*
G36*
X118287985Y-123293860D02*
G01*
X118400748Y-123316290D01*
X118532741Y-123370963D01*
X118719408Y-123448283D01*
X119006196Y-123639909D01*
X119250091Y-123883804D01*
X119441717Y-124170592D01*
X119456494Y-124206267D01*
X119573710Y-124489252D01*
X119641000Y-124827542D01*
X119641000Y-125172458D01*
X119573710Y-125510748D01*
X119519037Y-125642741D01*
X119441717Y-125829408D01*
X119250091Y-126116196D01*
X119006196Y-126360091D01*
X118719408Y-126551717D01*
X118571720Y-126612891D01*
X118400748Y-126683710D01*
X118287985Y-126706140D01*
X118062460Y-126751000D01*
X117717540Y-126751000D01*
X117492015Y-126706140D01*
X117379252Y-126683710D01*
X117208280Y-126612891D01*
X117060592Y-126551717D01*
X116773804Y-126360091D01*
X116529909Y-126116196D01*
X116338283Y-125829408D01*
X116260963Y-125642741D01*
X116206290Y-125510748D01*
X116139000Y-125172458D01*
X116139000Y-124827542D01*
X116206290Y-124489252D01*
X116323506Y-124206267D01*
X116338283Y-124170592D01*
X116529909Y-123883804D01*
X116773804Y-123639909D01*
X117060592Y-123448283D01*
X117247259Y-123370963D01*
X117379252Y-123316290D01*
X117492015Y-123293860D01*
X117717540Y-123249000D01*
X118062460Y-123249000D01*
X118287985Y-123293860D01*
G37*
G36*
X127427985Y-123293860D02*
G01*
X127540748Y-123316290D01*
X127672741Y-123370963D01*
X127859408Y-123448283D01*
X128146196Y-123639909D01*
X128390091Y-123883804D01*
X128581717Y-124170592D01*
X128596494Y-124206267D01*
X128713710Y-124489252D01*
X128781000Y-124827542D01*
X128781000Y-125172458D01*
X128713710Y-125510748D01*
X128659037Y-125642741D01*
X128581717Y-125829408D01*
X128390091Y-126116196D01*
X128146196Y-126360091D01*
X127859408Y-126551717D01*
X127711720Y-126612891D01*
X127540748Y-126683710D01*
X127427985Y-126706140D01*
X127202460Y-126751000D01*
X126857540Y-126751000D01*
X126632015Y-126706140D01*
X126519252Y-126683710D01*
X126348280Y-126612891D01*
X126200592Y-126551717D01*
X125913804Y-126360091D01*
X125669909Y-126116196D01*
X125478283Y-125829408D01*
X125400963Y-125642741D01*
X125346290Y-125510748D01*
X125279000Y-125172458D01*
X125279000Y-124827542D01*
X125346290Y-124489252D01*
X125463506Y-124206267D01*
X125478283Y-124170592D01*
X125669909Y-123883804D01*
X125913804Y-123639909D01*
X126200592Y-123448283D01*
X126387259Y-123370963D01*
X126519252Y-123316290D01*
X126632015Y-123293860D01*
X126857540Y-123249000D01*
X127202460Y-123249000D01*
X127427985Y-123293860D01*
G37*
G36*
X106036528Y-122519238D02*
G01*
X106142893Y-122529714D01*
X106347605Y-122591813D01*
X106536268Y-122692655D01*
X106587647Y-122734821D01*
X106701634Y-122828366D01*
X106795179Y-122942353D01*
X106837345Y-122993732D01*
X106938187Y-123182395D01*
X107000286Y-123387107D01*
X107021254Y-123600000D01*
X107000286Y-123812893D01*
X106938187Y-124017605D01*
X106837345Y-124206268D01*
X106795179Y-124257647D01*
X106701634Y-124371634D01*
X106587647Y-124465179D01*
X106536268Y-124507345D01*
X106347605Y-124608187D01*
X106142893Y-124670286D01*
X106036528Y-124680762D01*
X105983346Y-124686000D01*
X101916654Y-124686000D01*
X101863472Y-124680762D01*
X101757107Y-124670286D01*
X101552395Y-124608187D01*
X101363732Y-124507345D01*
X101312353Y-124465179D01*
X101198366Y-124371634D01*
X101104821Y-124257647D01*
X101062655Y-124206268D01*
X100961813Y-124017605D01*
X100899714Y-123812893D01*
X100878746Y-123600000D01*
X100899714Y-123387107D01*
X100961813Y-123182395D01*
X101062655Y-122993732D01*
X101104821Y-122942353D01*
X101198366Y-122828366D01*
X101312353Y-122734821D01*
X101363732Y-122692655D01*
X101552395Y-122591813D01*
X101757107Y-122529714D01*
X101863472Y-122519238D01*
X101916654Y-122514000D01*
X105983346Y-122514000D01*
X106036528Y-122519238D01*
G37*
G36*
X98136528Y-122519238D02*
G01*
X98242893Y-122529714D01*
X98447605Y-122591813D01*
X98636268Y-122692655D01*
X98687647Y-122734821D01*
X98801634Y-122828366D01*
X98895179Y-122942353D01*
X98937345Y-122993732D01*
X99038187Y-123182395D01*
X99100286Y-123387107D01*
X99121254Y-123600000D01*
X99100286Y-123812893D01*
X99038187Y-124017605D01*
X98937345Y-124206268D01*
X98895179Y-124257647D01*
X98801634Y-124371634D01*
X98687647Y-124465179D01*
X98636268Y-124507345D01*
X98447605Y-124608187D01*
X98242893Y-124670286D01*
X98136528Y-124680762D01*
X98083346Y-124686000D01*
X94016654Y-124686000D01*
X93963472Y-124680762D01*
X93857107Y-124670286D01*
X93652395Y-124608187D01*
X93463732Y-124507345D01*
X93412353Y-124465179D01*
X93298366Y-124371634D01*
X93204821Y-124257647D01*
X93162655Y-124206268D01*
X93061813Y-124017605D01*
X92999714Y-123812893D01*
X92978746Y-123600000D01*
X92999714Y-123387107D01*
X93061813Y-123182395D01*
X93162655Y-122993732D01*
X93204821Y-122942353D01*
X93298366Y-122828366D01*
X93412353Y-122734821D01*
X93463732Y-122692655D01*
X93652395Y-122591813D01*
X93857107Y-122529714D01*
X93963472Y-122519238D01*
X94016654Y-122514000D01*
X98083346Y-122514000D01*
X98136528Y-122519238D01*
G37*
G36*
X68136528Y-100319238D02*
G01*
X68242893Y-100329714D01*
X68447605Y-100391813D01*
X68636268Y-100492655D01*
X68658313Y-100510747D01*
X68801634Y-100628366D01*
X68895179Y-100742353D01*
X68937345Y-100793732D01*
X69038187Y-100982395D01*
X69100286Y-101187107D01*
X69121254Y-101400000D01*
X69100286Y-101612893D01*
X69038187Y-101817605D01*
X68937345Y-102006268D01*
X68895179Y-102057647D01*
X68801634Y-102171634D01*
X68687647Y-102265179D01*
X68636268Y-102307345D01*
X68447605Y-102408187D01*
X68242893Y-102470286D01*
X68136528Y-102480762D01*
X68083346Y-102486000D01*
X64016654Y-102486000D01*
X63963472Y-102480762D01*
X63857107Y-102470286D01*
X63652395Y-102408187D01*
X63463732Y-102307345D01*
X63412353Y-102265179D01*
X63298366Y-102171634D01*
X63204821Y-102057647D01*
X63162655Y-102006268D01*
X63061813Y-101817605D01*
X62999714Y-101612893D01*
X62978746Y-101400000D01*
X62999714Y-101187107D01*
X63061813Y-100982395D01*
X63162655Y-100793732D01*
X63204821Y-100742353D01*
X63298366Y-100628366D01*
X63441687Y-100510747D01*
X63463732Y-100492655D01*
X63652395Y-100391813D01*
X63857107Y-100329714D01*
X63963472Y-100319238D01*
X64016654Y-100314000D01*
X68083346Y-100314000D01*
X68136528Y-100319238D01*
G37*
G36*
X76036528Y-100319238D02*
G01*
X76142893Y-100329714D01*
X76347605Y-100391813D01*
X76536268Y-100492655D01*
X76558313Y-100510747D01*
X76701634Y-100628366D01*
X76795179Y-100742353D01*
X76837345Y-100793732D01*
X76938187Y-100982395D01*
X77000286Y-101187107D01*
X77021254Y-101400000D01*
X77000286Y-101612893D01*
X76938187Y-101817605D01*
X76837345Y-102006268D01*
X76795179Y-102057647D01*
X76701634Y-102171634D01*
X76587647Y-102265179D01*
X76536268Y-102307345D01*
X76347605Y-102408187D01*
X76142893Y-102470286D01*
X76036528Y-102480762D01*
X75983346Y-102486000D01*
X71916654Y-102486000D01*
X71863472Y-102480762D01*
X71757107Y-102470286D01*
X71552395Y-102408187D01*
X71363732Y-102307345D01*
X71312353Y-102265179D01*
X71198366Y-102171634D01*
X71104821Y-102057647D01*
X71062655Y-102006268D01*
X70961813Y-101817605D01*
X70899714Y-101612893D01*
X70878746Y-101400000D01*
X70899714Y-101187107D01*
X70961813Y-100982395D01*
X71062655Y-100793732D01*
X71104821Y-100742353D01*
X71198366Y-100628366D01*
X71341687Y-100510747D01*
X71363732Y-100492655D01*
X71552395Y-100391813D01*
X71757107Y-100329714D01*
X71863472Y-100319238D01*
X71916654Y-100314000D01*
X75983346Y-100314000D01*
X76036528Y-100319238D01*
G37*
G36*
X52507985Y-98293860D02*
G01*
X52620748Y-98316290D01*
X52752741Y-98370963D01*
X52939408Y-98448283D01*
X53226196Y-98639909D01*
X53470091Y-98883804D01*
X53661717Y-99170592D01*
X53676494Y-99206267D01*
X53793710Y-99489252D01*
X53861000Y-99827542D01*
X53861000Y-100172458D01*
X53793710Y-100510748D01*
X53739037Y-100642741D01*
X53661717Y-100829408D01*
X53470091Y-101116196D01*
X53226196Y-101360091D01*
X52939408Y-101551717D01*
X52791720Y-101612891D01*
X52620748Y-101683710D01*
X52507985Y-101706140D01*
X52282460Y-101751000D01*
X51937540Y-101751000D01*
X51712015Y-101706140D01*
X51599252Y-101683710D01*
X51428280Y-101612891D01*
X51280592Y-101551717D01*
X50993804Y-101360091D01*
X50749909Y-101116196D01*
X50558283Y-100829408D01*
X50480963Y-100642741D01*
X50426290Y-100510748D01*
X50359000Y-100172458D01*
X50359000Y-99827542D01*
X50426290Y-99489252D01*
X50543506Y-99206267D01*
X50558283Y-99170592D01*
X50749909Y-98883804D01*
X50993804Y-98639909D01*
X51280592Y-98448283D01*
X51467259Y-98370963D01*
X51599252Y-98316290D01*
X51712015Y-98293860D01*
X51937540Y-98249000D01*
X52282460Y-98249000D01*
X52507985Y-98293860D01*
G37*
G36*
X123367985Y-98293860D02*
G01*
X123480748Y-98316290D01*
X123612741Y-98370963D01*
X123799408Y-98448283D01*
X124086196Y-98639909D01*
X124330091Y-98883804D01*
X124521717Y-99170592D01*
X124536494Y-99206267D01*
X124653710Y-99489252D01*
X124721000Y-99827542D01*
X124721000Y-100172458D01*
X124653710Y-100510748D01*
X124599037Y-100642741D01*
X124521717Y-100829408D01*
X124330091Y-101116196D01*
X124086196Y-101360091D01*
X123799408Y-101551717D01*
X123651720Y-101612891D01*
X123480748Y-101683710D01*
X123367985Y-101706140D01*
X123142460Y-101751000D01*
X122797540Y-101751000D01*
X122572015Y-101706140D01*
X122459252Y-101683710D01*
X122288280Y-101612891D01*
X122140592Y-101551717D01*
X121853804Y-101360091D01*
X121609909Y-101116196D01*
X121418283Y-100829408D01*
X121340963Y-100642741D01*
X121286290Y-100510748D01*
X121219000Y-100172458D01*
X121219000Y-99827542D01*
X121286290Y-99489252D01*
X121403506Y-99206267D01*
X121418283Y-99170592D01*
X121609909Y-98883804D01*
X121853804Y-98639909D01*
X122140592Y-98448283D01*
X122327259Y-98370963D01*
X122459252Y-98316290D01*
X122572015Y-98293860D01*
X122797540Y-98249000D01*
X123142460Y-98249000D01*
X123367985Y-98293860D01*
G37*
G36*
X38287985Y-98293860D02*
G01*
X38400748Y-98316290D01*
X38532741Y-98370963D01*
X38719408Y-98448283D01*
X39006196Y-98639909D01*
X39250091Y-98883804D01*
X39441717Y-99170592D01*
X39456494Y-99206267D01*
X39573710Y-99489252D01*
X39641000Y-99827542D01*
X39641000Y-100172458D01*
X39573710Y-100510748D01*
X39519037Y-100642741D01*
X39441717Y-100829408D01*
X39250091Y-101116196D01*
X39006196Y-101360091D01*
X38719408Y-101551717D01*
X38571720Y-101612891D01*
X38400748Y-101683710D01*
X38287985Y-101706140D01*
X38062460Y-101751000D01*
X37717540Y-101751000D01*
X37492015Y-101706140D01*
X37379252Y-101683710D01*
X37208280Y-101612891D01*
X37060592Y-101551717D01*
X36773804Y-101360091D01*
X36529909Y-101116196D01*
X36338283Y-100829408D01*
X36260963Y-100642741D01*
X36206290Y-100510748D01*
X36139000Y-100172458D01*
X36139000Y-99827542D01*
X36206290Y-99489252D01*
X36323506Y-99206267D01*
X36338283Y-99170592D01*
X36529909Y-98883804D01*
X36773804Y-98639909D01*
X37060592Y-98448283D01*
X37247259Y-98370963D01*
X37379252Y-98316290D01*
X37492015Y-98293860D01*
X37717540Y-98249000D01*
X38062460Y-98249000D01*
X38287985Y-98293860D01*
G37*
G36*
X47427985Y-98293860D02*
G01*
X47540748Y-98316290D01*
X47672741Y-98370963D01*
X47859408Y-98448283D01*
X48146196Y-98639909D01*
X48390091Y-98883804D01*
X48581717Y-99170592D01*
X48596494Y-99206267D01*
X48713710Y-99489252D01*
X48781000Y-99827542D01*
X48781000Y-100172458D01*
X48713710Y-100510748D01*
X48659037Y-100642741D01*
X48581717Y-100829408D01*
X48390091Y-101116196D01*
X48146196Y-101360091D01*
X47859408Y-101551717D01*
X47711720Y-101612891D01*
X47540748Y-101683710D01*
X47427985Y-101706140D01*
X47202460Y-101751000D01*
X46857540Y-101751000D01*
X46632015Y-101706140D01*
X46519252Y-101683710D01*
X46348280Y-101612891D01*
X46200592Y-101551717D01*
X45913804Y-101360091D01*
X45669909Y-101116196D01*
X45478283Y-100829408D01*
X45400963Y-100642741D01*
X45346290Y-100510748D01*
X45279000Y-100172458D01*
X45279000Y-99827542D01*
X45346290Y-99489252D01*
X45463506Y-99206267D01*
X45478283Y-99170592D01*
X45669909Y-98883804D01*
X45913804Y-98639909D01*
X46200592Y-98448283D01*
X46387259Y-98370963D01*
X46519252Y-98316290D01*
X46632015Y-98293860D01*
X46857540Y-98249000D01*
X47202460Y-98249000D01*
X47427985Y-98293860D01*
G37*
G36*
X43367985Y-98293860D02*
G01*
X43480748Y-98316290D01*
X43612741Y-98370963D01*
X43799408Y-98448283D01*
X44086196Y-98639909D01*
X44330091Y-98883804D01*
X44521717Y-99170592D01*
X44536494Y-99206267D01*
X44653710Y-99489252D01*
X44721000Y-99827542D01*
X44721000Y-100172458D01*
X44653710Y-100510748D01*
X44599037Y-100642741D01*
X44521717Y-100829408D01*
X44330091Y-101116196D01*
X44086196Y-101360091D01*
X43799408Y-101551717D01*
X43651720Y-101612891D01*
X43480748Y-101683710D01*
X43367985Y-101706140D01*
X43142460Y-101751000D01*
X42797540Y-101751000D01*
X42572015Y-101706140D01*
X42459252Y-101683710D01*
X42288280Y-101612891D01*
X42140592Y-101551717D01*
X41853804Y-101360091D01*
X41609909Y-101116196D01*
X41418283Y-100829408D01*
X41340963Y-100642741D01*
X41286290Y-100510748D01*
X41219000Y-100172458D01*
X41219000Y-99827542D01*
X41286290Y-99489252D01*
X41403506Y-99206267D01*
X41418283Y-99170592D01*
X41609909Y-98883804D01*
X41853804Y-98639909D01*
X42140592Y-98448283D01*
X42327259Y-98370963D01*
X42459252Y-98316290D01*
X42572015Y-98293860D01*
X42797540Y-98249000D01*
X43142460Y-98249000D01*
X43367985Y-98293860D01*
G37*
G36*
X118287985Y-98293860D02*
G01*
X118400748Y-98316290D01*
X118532741Y-98370963D01*
X118719408Y-98448283D01*
X119006196Y-98639909D01*
X119250091Y-98883804D01*
X119441717Y-99170592D01*
X119456494Y-99206267D01*
X119573710Y-99489252D01*
X119641000Y-99827542D01*
X119641000Y-100172458D01*
X119573710Y-100510748D01*
X119519037Y-100642741D01*
X119441717Y-100829408D01*
X119250091Y-101116196D01*
X119006196Y-101360091D01*
X118719408Y-101551717D01*
X118571720Y-101612891D01*
X118400748Y-101683710D01*
X118287985Y-101706140D01*
X118062460Y-101751000D01*
X117717540Y-101751000D01*
X117492015Y-101706140D01*
X117379252Y-101683710D01*
X117208280Y-101612891D01*
X117060592Y-101551717D01*
X116773804Y-101360091D01*
X116529909Y-101116196D01*
X116338283Y-100829408D01*
X116260963Y-100642741D01*
X116206290Y-100510748D01*
X116139000Y-100172458D01*
X116139000Y-99827542D01*
X116206290Y-99489252D01*
X116323506Y-99206267D01*
X116338283Y-99170592D01*
X116529909Y-98883804D01*
X116773804Y-98639909D01*
X117060592Y-98448283D01*
X117247259Y-98370963D01*
X117379252Y-98316290D01*
X117492015Y-98293860D01*
X117717540Y-98249000D01*
X118062460Y-98249000D01*
X118287985Y-98293860D01*
G37*
G36*
X132507985Y-98293860D02*
G01*
X132620748Y-98316290D01*
X132752741Y-98370963D01*
X132939408Y-98448283D01*
X133226196Y-98639909D01*
X133470091Y-98883804D01*
X133661717Y-99170592D01*
X133676494Y-99206267D01*
X133793710Y-99489252D01*
X133861000Y-99827542D01*
X133861000Y-100172458D01*
X133793710Y-100510748D01*
X133739037Y-100642741D01*
X133661717Y-100829408D01*
X133470091Y-101116196D01*
X133226196Y-101360091D01*
X132939408Y-101551717D01*
X132791720Y-101612891D01*
X132620748Y-101683710D01*
X132507985Y-101706140D01*
X132282460Y-101751000D01*
X131937540Y-101751000D01*
X131712015Y-101706140D01*
X131599252Y-101683710D01*
X131428280Y-101612891D01*
X131280592Y-101551717D01*
X130993804Y-101360091D01*
X130749909Y-101116196D01*
X130558283Y-100829408D01*
X130480963Y-100642741D01*
X130426290Y-100510748D01*
X130359000Y-100172458D01*
X130359000Y-99827542D01*
X130426290Y-99489252D01*
X130543506Y-99206267D01*
X130558283Y-99170592D01*
X130749909Y-98883804D01*
X130993804Y-98639909D01*
X131280592Y-98448283D01*
X131467259Y-98370963D01*
X131599252Y-98316290D01*
X131712015Y-98293860D01*
X131937540Y-98249000D01*
X132282460Y-98249000D01*
X132507985Y-98293860D01*
G37*
G36*
X127427985Y-98293860D02*
G01*
X127540748Y-98316290D01*
X127672741Y-98370963D01*
X127859408Y-98448283D01*
X128146196Y-98639909D01*
X128390091Y-98883804D01*
X128581717Y-99170592D01*
X128596494Y-99206267D01*
X128713710Y-99489252D01*
X128781000Y-99827542D01*
X128781000Y-100172458D01*
X128713710Y-100510748D01*
X128659037Y-100642741D01*
X128581717Y-100829408D01*
X128390091Y-101116196D01*
X128146196Y-101360091D01*
X127859408Y-101551717D01*
X127711720Y-101612891D01*
X127540748Y-101683710D01*
X127427985Y-101706140D01*
X127202460Y-101751000D01*
X126857540Y-101751000D01*
X126632015Y-101706140D01*
X126519252Y-101683710D01*
X126348280Y-101612891D01*
X126200592Y-101551717D01*
X125913804Y-101360091D01*
X125669909Y-101116196D01*
X125478283Y-100829408D01*
X125400963Y-100642741D01*
X125346290Y-100510748D01*
X125279000Y-100172458D01*
X125279000Y-99827542D01*
X125346290Y-99489252D01*
X125463506Y-99206267D01*
X125478283Y-99170592D01*
X125669909Y-98883804D01*
X125913804Y-98639909D01*
X126200592Y-98448283D01*
X126387259Y-98370963D01*
X126519252Y-98316290D01*
X126632015Y-98293860D01*
X126857540Y-98249000D01*
X127202460Y-98249000D01*
X127427985Y-98293860D01*
G37*
G36*
X98136528Y-97519238D02*
G01*
X98242893Y-97529714D01*
X98447605Y-97591813D01*
X98636268Y-97692655D01*
X98687647Y-97734821D01*
X98801634Y-97828366D01*
X98895179Y-97942353D01*
X98937345Y-97993732D01*
X99038187Y-98182395D01*
X99100286Y-98387107D01*
X99121254Y-98600000D01*
X99100286Y-98812893D01*
X99038187Y-99017605D01*
X98937345Y-99206268D01*
X98895179Y-99257647D01*
X98801634Y-99371634D01*
X98687647Y-99465179D01*
X98636268Y-99507345D01*
X98447605Y-99608187D01*
X98242893Y-99670286D01*
X98136528Y-99680762D01*
X98083346Y-99686000D01*
X94016654Y-99686000D01*
X93963472Y-99680762D01*
X93857107Y-99670286D01*
X93652395Y-99608187D01*
X93463732Y-99507345D01*
X93412353Y-99465179D01*
X93298366Y-99371634D01*
X93204821Y-99257647D01*
X93162655Y-99206268D01*
X93061813Y-99017605D01*
X92999714Y-98812893D01*
X92978746Y-98600000D01*
X92999714Y-98387107D01*
X93061813Y-98182395D01*
X93162655Y-97993732D01*
X93204821Y-97942353D01*
X93298366Y-97828366D01*
X93412353Y-97734821D01*
X93463732Y-97692655D01*
X93652395Y-97591813D01*
X93857107Y-97529714D01*
X93963472Y-97519238D01*
X94016654Y-97514000D01*
X98083346Y-97514000D01*
X98136528Y-97519238D01*
G37*
G36*
X106036528Y-97519238D02*
G01*
X106142893Y-97529714D01*
X106347605Y-97591813D01*
X106536268Y-97692655D01*
X106587647Y-97734821D01*
X106701634Y-97828366D01*
X106795179Y-97942353D01*
X106837345Y-97993732D01*
X106938187Y-98182395D01*
X107000286Y-98387107D01*
X107021254Y-98600000D01*
X107000286Y-98812893D01*
X106938187Y-99017605D01*
X106837345Y-99206268D01*
X106795179Y-99257647D01*
X106701634Y-99371634D01*
X106587647Y-99465179D01*
X106536268Y-99507345D01*
X106347605Y-99608187D01*
X106142893Y-99670286D01*
X106036528Y-99680762D01*
X105983346Y-99686000D01*
X101916654Y-99686000D01*
X101863472Y-99680762D01*
X101757107Y-99670286D01*
X101552395Y-99608187D01*
X101363732Y-99507345D01*
X101312353Y-99465179D01*
X101198366Y-99371634D01*
X101104821Y-99257647D01*
X101062655Y-99206268D01*
X100961813Y-99017605D01*
X100899714Y-98812893D01*
X100878746Y-98600000D01*
X100899714Y-98387107D01*
X100961813Y-98182395D01*
X101062655Y-97993732D01*
X101104821Y-97942353D01*
X101198366Y-97828366D01*
X101312353Y-97734821D01*
X101363732Y-97692655D01*
X101552395Y-97591813D01*
X101757107Y-97529714D01*
X101863472Y-97519238D01*
X101916654Y-97514000D01*
X105983346Y-97514000D01*
X106036528Y-97519238D01*
G37*
G36*
X76036528Y-75319238D02*
G01*
X76142893Y-75329714D01*
X76347605Y-75391813D01*
X76536268Y-75492655D01*
X76558313Y-75510747D01*
X76701634Y-75628366D01*
X76795179Y-75742353D01*
X76837345Y-75793732D01*
X76938187Y-75982395D01*
X77000286Y-76187107D01*
X77021254Y-76400000D01*
X77000286Y-76612893D01*
X76938187Y-76817605D01*
X76837345Y-77006268D01*
X76795179Y-77057647D01*
X76701634Y-77171634D01*
X76587647Y-77265179D01*
X76536268Y-77307345D01*
X76347605Y-77408187D01*
X76142893Y-77470286D01*
X76036528Y-77480762D01*
X75983346Y-77486000D01*
X71916654Y-77486000D01*
X71863472Y-77480762D01*
X71757107Y-77470286D01*
X71552395Y-77408187D01*
X71363732Y-77307345D01*
X71312353Y-77265179D01*
X71198366Y-77171634D01*
X71104821Y-77057647D01*
X71062655Y-77006268D01*
X70961813Y-76817605D01*
X70899714Y-76612893D01*
X70878746Y-76400000D01*
X70899714Y-76187107D01*
X70961813Y-75982395D01*
X71062655Y-75793732D01*
X71104821Y-75742353D01*
X71198366Y-75628366D01*
X71341687Y-75510747D01*
X71363732Y-75492655D01*
X71552395Y-75391813D01*
X71757107Y-75329714D01*
X71863472Y-75319238D01*
X71916654Y-75314000D01*
X75983346Y-75314000D01*
X76036528Y-75319238D01*
G37*
G36*
X68136528Y-75319238D02*
G01*
X68242893Y-75329714D01*
X68447605Y-75391813D01*
X68636268Y-75492655D01*
X68658313Y-75510747D01*
X68801634Y-75628366D01*
X68895179Y-75742353D01*
X68937345Y-75793732D01*
X69038187Y-75982395D01*
X69100286Y-76187107D01*
X69121254Y-76400000D01*
X69100286Y-76612893D01*
X69038187Y-76817605D01*
X68937345Y-77006268D01*
X68895179Y-77057647D01*
X68801634Y-77171634D01*
X68687647Y-77265179D01*
X68636268Y-77307345D01*
X68447605Y-77408187D01*
X68242893Y-77470286D01*
X68136528Y-77480762D01*
X68083346Y-77486000D01*
X64016654Y-77486000D01*
X63963472Y-77480762D01*
X63857107Y-77470286D01*
X63652395Y-77408187D01*
X63463732Y-77307345D01*
X63412353Y-77265179D01*
X63298366Y-77171634D01*
X63204821Y-77057647D01*
X63162655Y-77006268D01*
X63061813Y-76817605D01*
X62999714Y-76612893D01*
X62978746Y-76400000D01*
X62999714Y-76187107D01*
X63061813Y-75982395D01*
X63162655Y-75793732D01*
X63204821Y-75742353D01*
X63298366Y-75628366D01*
X63441687Y-75510747D01*
X63463732Y-75492655D01*
X63652395Y-75391813D01*
X63857107Y-75329714D01*
X63963472Y-75319238D01*
X64016654Y-75314000D01*
X68083346Y-75314000D01*
X68136528Y-75319238D01*
G37*
G36*
X43367985Y-73293860D02*
G01*
X43480748Y-73316290D01*
X43612741Y-73370963D01*
X43799408Y-73448283D01*
X44086196Y-73639909D01*
X44330091Y-73883804D01*
X44521717Y-74170592D01*
X44536494Y-74206267D01*
X44653710Y-74489252D01*
X44721000Y-74827542D01*
X44721000Y-75172458D01*
X44653710Y-75510748D01*
X44599037Y-75642741D01*
X44521717Y-75829408D01*
X44330091Y-76116196D01*
X44086196Y-76360091D01*
X43799408Y-76551717D01*
X43651720Y-76612891D01*
X43480748Y-76683710D01*
X43367985Y-76706140D01*
X43142460Y-76751000D01*
X42797540Y-76751000D01*
X42572015Y-76706140D01*
X42459252Y-76683710D01*
X42288280Y-76612891D01*
X42140592Y-76551717D01*
X41853804Y-76360091D01*
X41609909Y-76116196D01*
X41418283Y-75829408D01*
X41340963Y-75642741D01*
X41286290Y-75510748D01*
X41219000Y-75172458D01*
X41219000Y-74827542D01*
X41286290Y-74489252D01*
X41403506Y-74206267D01*
X41418283Y-74170592D01*
X41609909Y-73883804D01*
X41853804Y-73639909D01*
X42140592Y-73448283D01*
X42327259Y-73370963D01*
X42459252Y-73316290D01*
X42572015Y-73293860D01*
X42797540Y-73249000D01*
X43142460Y-73249000D01*
X43367985Y-73293860D01*
G37*
G36*
X52507985Y-73293860D02*
G01*
X52620748Y-73316290D01*
X52752741Y-73370963D01*
X52939408Y-73448283D01*
X53226196Y-73639909D01*
X53470091Y-73883804D01*
X53661717Y-74170592D01*
X53676494Y-74206267D01*
X53793710Y-74489252D01*
X53861000Y-74827542D01*
X53861000Y-75172458D01*
X53793710Y-75510748D01*
X53739037Y-75642741D01*
X53661717Y-75829408D01*
X53470091Y-76116196D01*
X53226196Y-76360091D01*
X52939408Y-76551717D01*
X52791720Y-76612891D01*
X52620748Y-76683710D01*
X52507985Y-76706140D01*
X52282460Y-76751000D01*
X51937540Y-76751000D01*
X51712015Y-76706140D01*
X51599252Y-76683710D01*
X51428280Y-76612891D01*
X51280592Y-76551717D01*
X50993804Y-76360091D01*
X50749909Y-76116196D01*
X50558283Y-75829408D01*
X50480963Y-75642741D01*
X50426290Y-75510748D01*
X50359000Y-75172458D01*
X50359000Y-74827542D01*
X50426290Y-74489252D01*
X50543506Y-74206267D01*
X50558283Y-74170592D01*
X50749909Y-73883804D01*
X50993804Y-73639909D01*
X51280592Y-73448283D01*
X51467259Y-73370963D01*
X51599252Y-73316290D01*
X51712015Y-73293860D01*
X51937540Y-73249000D01*
X52282460Y-73249000D01*
X52507985Y-73293860D01*
G37*
G36*
X47427985Y-73293860D02*
G01*
X47540748Y-73316290D01*
X47672741Y-73370963D01*
X47859408Y-73448283D01*
X48146196Y-73639909D01*
X48390091Y-73883804D01*
X48581717Y-74170592D01*
X48596494Y-74206267D01*
X48713710Y-74489252D01*
X48781000Y-74827542D01*
X48781000Y-75172458D01*
X48713710Y-75510748D01*
X48659037Y-75642741D01*
X48581717Y-75829408D01*
X48390091Y-76116196D01*
X48146196Y-76360091D01*
X47859408Y-76551717D01*
X47711720Y-76612891D01*
X47540748Y-76683710D01*
X47427985Y-76706140D01*
X47202460Y-76751000D01*
X46857540Y-76751000D01*
X46632015Y-76706140D01*
X46519252Y-76683710D01*
X46348280Y-76612891D01*
X46200592Y-76551717D01*
X45913804Y-76360091D01*
X45669909Y-76116196D01*
X45478283Y-75829408D01*
X45400963Y-75642741D01*
X45346290Y-75510748D01*
X45279000Y-75172458D01*
X45279000Y-74827542D01*
X45346290Y-74489252D01*
X45463506Y-74206267D01*
X45478283Y-74170592D01*
X45669909Y-73883804D01*
X45913804Y-73639909D01*
X46200592Y-73448283D01*
X46387259Y-73370963D01*
X46519252Y-73316290D01*
X46632015Y-73293860D01*
X46857540Y-73249000D01*
X47202460Y-73249000D01*
X47427985Y-73293860D01*
G37*
G36*
X118287985Y-73293860D02*
G01*
X118400748Y-73316290D01*
X118532741Y-73370963D01*
X118719408Y-73448283D01*
X119006196Y-73639909D01*
X119250091Y-73883804D01*
X119441717Y-74170592D01*
X119456494Y-74206267D01*
X119573710Y-74489252D01*
X119641000Y-74827542D01*
X119641000Y-75172458D01*
X119573710Y-75510748D01*
X119519037Y-75642741D01*
X119441717Y-75829408D01*
X119250091Y-76116196D01*
X119006196Y-76360091D01*
X118719408Y-76551717D01*
X118571720Y-76612891D01*
X118400748Y-76683710D01*
X118287985Y-76706140D01*
X118062460Y-76751000D01*
X117717540Y-76751000D01*
X117492015Y-76706140D01*
X117379252Y-76683710D01*
X117208280Y-76612891D01*
X117060592Y-76551717D01*
X116773804Y-76360091D01*
X116529909Y-76116196D01*
X116338283Y-75829408D01*
X116260963Y-75642741D01*
X116206290Y-75510748D01*
X116139000Y-75172458D01*
X116139000Y-74827542D01*
X116206290Y-74489252D01*
X116323506Y-74206267D01*
X116338283Y-74170592D01*
X116529909Y-73883804D01*
X116773804Y-73639909D01*
X117060592Y-73448283D01*
X117247259Y-73370963D01*
X117379252Y-73316290D01*
X117492015Y-73293860D01*
X117717540Y-73249000D01*
X118062460Y-73249000D01*
X118287985Y-73293860D01*
G37*
G36*
X123367985Y-73293860D02*
G01*
X123480748Y-73316290D01*
X123612741Y-73370963D01*
X123799408Y-73448283D01*
X124086196Y-73639909D01*
X124330091Y-73883804D01*
X124521717Y-74170592D01*
X124536494Y-74206267D01*
X124653710Y-74489252D01*
X124721000Y-74827542D01*
X124721000Y-75172458D01*
X124653710Y-75510748D01*
X124599037Y-75642741D01*
X124521717Y-75829408D01*
X124330091Y-76116196D01*
X124086196Y-76360091D01*
X123799408Y-76551717D01*
X123651720Y-76612891D01*
X123480748Y-76683710D01*
X123367985Y-76706140D01*
X123142460Y-76751000D01*
X122797540Y-76751000D01*
X122572015Y-76706140D01*
X122459252Y-76683710D01*
X122288280Y-76612891D01*
X122140592Y-76551717D01*
X121853804Y-76360091D01*
X121609909Y-76116196D01*
X121418283Y-75829408D01*
X121340963Y-75642741D01*
X121286290Y-75510748D01*
X121219000Y-75172458D01*
X121219000Y-74827542D01*
X121286290Y-74489252D01*
X121403506Y-74206267D01*
X121418283Y-74170592D01*
X121609909Y-73883804D01*
X121853804Y-73639909D01*
X122140592Y-73448283D01*
X122327259Y-73370963D01*
X122459252Y-73316290D01*
X122572015Y-73293860D01*
X122797540Y-73249000D01*
X123142460Y-73249000D01*
X123367985Y-73293860D01*
G37*
G36*
X127427985Y-73293860D02*
G01*
X127540748Y-73316290D01*
X127672741Y-73370963D01*
X127859408Y-73448283D01*
X128146196Y-73639909D01*
X128390091Y-73883804D01*
X128581717Y-74170592D01*
X128596494Y-74206267D01*
X128713710Y-74489252D01*
X128781000Y-74827542D01*
X128781000Y-75172458D01*
X128713710Y-75510748D01*
X128659037Y-75642741D01*
X128581717Y-75829408D01*
X128390091Y-76116196D01*
X128146196Y-76360091D01*
X127859408Y-76551717D01*
X127711720Y-76612891D01*
X127540748Y-76683710D01*
X127427985Y-76706140D01*
X127202460Y-76751000D01*
X126857540Y-76751000D01*
X126632015Y-76706140D01*
X126519252Y-76683710D01*
X126348280Y-76612891D01*
X126200592Y-76551717D01*
X125913804Y-76360091D01*
X125669909Y-76116196D01*
X125478283Y-75829408D01*
X125400963Y-75642741D01*
X125346290Y-75510748D01*
X125279000Y-75172458D01*
X125279000Y-74827542D01*
X125346290Y-74489252D01*
X125463506Y-74206267D01*
X125478283Y-74170592D01*
X125669909Y-73883804D01*
X125913804Y-73639909D01*
X126200592Y-73448283D01*
X126387259Y-73370963D01*
X126519252Y-73316290D01*
X126632015Y-73293860D01*
X126857540Y-73249000D01*
X127202460Y-73249000D01*
X127427985Y-73293860D01*
G37*
G36*
X132507985Y-73293860D02*
G01*
X132620748Y-73316290D01*
X132752741Y-73370963D01*
X132939408Y-73448283D01*
X133226196Y-73639909D01*
X133470091Y-73883804D01*
X133661717Y-74170592D01*
X133676494Y-74206267D01*
X133793710Y-74489252D01*
X133861000Y-74827542D01*
X133861000Y-75172458D01*
X133793710Y-75510748D01*
X133739037Y-75642741D01*
X133661717Y-75829408D01*
X133470091Y-76116196D01*
X133226196Y-76360091D01*
X132939408Y-76551717D01*
X132791720Y-76612891D01*
X132620748Y-76683710D01*
X132507985Y-76706140D01*
X132282460Y-76751000D01*
X131937540Y-76751000D01*
X131712015Y-76706140D01*
X131599252Y-76683710D01*
X131428280Y-76612891D01*
X131280592Y-76551717D01*
X130993804Y-76360091D01*
X130749909Y-76116196D01*
X130558283Y-75829408D01*
X130480963Y-75642741D01*
X130426290Y-75510748D01*
X130359000Y-75172458D01*
X130359000Y-74827542D01*
X130426290Y-74489252D01*
X130543506Y-74206267D01*
X130558283Y-74170592D01*
X130749909Y-73883804D01*
X130993804Y-73639909D01*
X131280592Y-73448283D01*
X131467259Y-73370963D01*
X131599252Y-73316290D01*
X131712015Y-73293860D01*
X131937540Y-73249000D01*
X132282460Y-73249000D01*
X132507985Y-73293860D01*
G37*
G36*
X38287985Y-73293860D02*
G01*
X38400748Y-73316290D01*
X38532741Y-73370963D01*
X38719408Y-73448283D01*
X39006196Y-73639909D01*
X39250091Y-73883804D01*
X39441717Y-74170592D01*
X39456494Y-74206267D01*
X39573710Y-74489252D01*
X39641000Y-74827542D01*
X39641000Y-75172458D01*
X39573710Y-75510748D01*
X39519037Y-75642741D01*
X39441717Y-75829408D01*
X39250091Y-76116196D01*
X39006196Y-76360091D01*
X38719408Y-76551717D01*
X38571720Y-76612891D01*
X38400748Y-76683710D01*
X38287985Y-76706140D01*
X38062460Y-76751000D01*
X37717540Y-76751000D01*
X37492015Y-76706140D01*
X37379252Y-76683710D01*
X37208280Y-76612891D01*
X37060592Y-76551717D01*
X36773804Y-76360091D01*
X36529909Y-76116196D01*
X36338283Y-75829408D01*
X36260963Y-75642741D01*
X36206290Y-75510748D01*
X36139000Y-75172458D01*
X36139000Y-74827542D01*
X36206290Y-74489252D01*
X36323506Y-74206267D01*
X36338283Y-74170592D01*
X36529909Y-73883804D01*
X36773804Y-73639909D01*
X37060592Y-73448283D01*
X37247259Y-73370963D01*
X37379252Y-73316290D01*
X37492015Y-73293860D01*
X37717540Y-73249000D01*
X38062460Y-73249000D01*
X38287985Y-73293860D01*
G37*
G36*
X106036528Y-72519238D02*
G01*
X106142893Y-72529714D01*
X106347605Y-72591813D01*
X106536268Y-72692655D01*
X106587647Y-72734821D01*
X106701634Y-72828366D01*
X106795179Y-72942353D01*
X106837345Y-72993732D01*
X106938187Y-73182395D01*
X107000286Y-73387107D01*
X107021254Y-73600000D01*
X107000286Y-73812893D01*
X106938187Y-74017605D01*
X106837345Y-74206268D01*
X106795179Y-74257647D01*
X106701634Y-74371634D01*
X106587647Y-74465179D01*
X106536268Y-74507345D01*
X106347605Y-74608187D01*
X106142893Y-74670286D01*
X106036528Y-74680762D01*
X105983346Y-74686000D01*
X101916654Y-74686000D01*
X101863472Y-74680762D01*
X101757107Y-74670286D01*
X101552395Y-74608187D01*
X101363732Y-74507345D01*
X101312353Y-74465179D01*
X101198366Y-74371634D01*
X101104821Y-74257647D01*
X101062655Y-74206268D01*
X100961813Y-74017605D01*
X100899714Y-73812893D01*
X100878746Y-73600000D01*
X100899714Y-73387107D01*
X100961813Y-73182395D01*
X101062655Y-72993732D01*
X101104821Y-72942353D01*
X101198366Y-72828366D01*
X101312353Y-72734821D01*
X101363732Y-72692655D01*
X101552395Y-72591813D01*
X101757107Y-72529714D01*
X101863472Y-72519238D01*
X101916654Y-72514000D01*
X105983346Y-72514000D01*
X106036528Y-72519238D01*
G37*
G36*
X98136528Y-72519238D02*
G01*
X98242893Y-72529714D01*
X98447605Y-72591813D01*
X98636268Y-72692655D01*
X98687647Y-72734821D01*
X98801634Y-72828366D01*
X98895179Y-72942353D01*
X98937345Y-72993732D01*
X99038187Y-73182395D01*
X99100286Y-73387107D01*
X99121254Y-73600000D01*
X99100286Y-73812893D01*
X99038187Y-74017605D01*
X98937345Y-74206268D01*
X98895179Y-74257647D01*
X98801634Y-74371634D01*
X98687647Y-74465179D01*
X98636268Y-74507345D01*
X98447605Y-74608187D01*
X98242893Y-74670286D01*
X98136528Y-74680762D01*
X98083346Y-74686000D01*
X94016654Y-74686000D01*
X93963472Y-74680762D01*
X93857107Y-74670286D01*
X93652395Y-74608187D01*
X93463732Y-74507345D01*
X93412353Y-74465179D01*
X93298366Y-74371634D01*
X93204821Y-74257647D01*
X93162655Y-74206268D01*
X93061813Y-74017605D01*
X92999714Y-73812893D01*
X92978746Y-73600000D01*
X92999714Y-73387107D01*
X93061813Y-73182395D01*
X93162655Y-72993732D01*
X93204821Y-72942353D01*
X93298366Y-72828366D01*
X93412353Y-72734821D01*
X93463732Y-72692655D01*
X93652395Y-72591813D01*
X93857107Y-72529714D01*
X93963472Y-72519238D01*
X94016654Y-72514000D01*
X98083346Y-72514000D01*
X98136528Y-72519238D01*
G37*
G36*
X91036528Y-59419238D02*
G01*
X91142893Y-59429714D01*
X91347605Y-59491813D01*
X91536268Y-59592655D01*
X91587647Y-59634821D01*
X91701634Y-59728366D01*
X91795179Y-59842353D01*
X91837345Y-59893732D01*
X91938187Y-60082395D01*
X92000286Y-60287107D01*
X92021254Y-60500000D01*
X92000286Y-60712893D01*
X91938187Y-60917605D01*
X91837345Y-61106268D01*
X91795179Y-61157647D01*
X91701634Y-61271634D01*
X91587647Y-61365179D01*
X91536268Y-61407345D01*
X91347605Y-61508187D01*
X91142893Y-61570286D01*
X91036528Y-61580762D01*
X90983346Y-61586000D01*
X86916654Y-61586000D01*
X86863472Y-61580762D01*
X86757107Y-61570286D01*
X86552395Y-61508187D01*
X86363732Y-61407345D01*
X86312353Y-61365179D01*
X86198366Y-61271634D01*
X86104821Y-61157647D01*
X86062655Y-61106268D01*
X85961813Y-60917605D01*
X85899714Y-60712893D01*
X85878746Y-60500000D01*
X85899714Y-60287107D01*
X85961813Y-60082395D01*
X86062655Y-59893732D01*
X86104821Y-59842353D01*
X86198366Y-59728366D01*
X86312353Y-59634821D01*
X86363732Y-59592655D01*
X86552395Y-59491813D01*
X86757107Y-59429714D01*
X86863472Y-59419238D01*
X86916654Y-59414000D01*
X90983346Y-59414000D01*
X91036528Y-59419238D01*
G37*
G36*
X83136528Y-59419238D02*
G01*
X83242893Y-59429714D01*
X83447605Y-59491813D01*
X83636268Y-59592655D01*
X83687647Y-59634821D01*
X83801634Y-59728366D01*
X83895179Y-59842353D01*
X83937345Y-59893732D01*
X84038187Y-60082395D01*
X84100286Y-60287107D01*
X84121254Y-60500000D01*
X84100286Y-60712893D01*
X84038187Y-60917605D01*
X83937345Y-61106268D01*
X83895179Y-61157647D01*
X83801634Y-61271634D01*
X83687647Y-61365179D01*
X83636268Y-61407345D01*
X83447605Y-61508187D01*
X83242893Y-61570286D01*
X83136528Y-61580762D01*
X83083346Y-61586000D01*
X79016654Y-61586000D01*
X78963472Y-61580762D01*
X78857107Y-61570286D01*
X78652395Y-61508187D01*
X78463732Y-61407345D01*
X78412353Y-61365179D01*
X78298366Y-61271634D01*
X78204821Y-61157647D01*
X78162655Y-61106268D01*
X78061813Y-60917605D01*
X77999714Y-60712893D01*
X77978746Y-60500000D01*
X77999714Y-60287107D01*
X78061813Y-60082395D01*
X78162655Y-59893732D01*
X78204821Y-59842353D01*
X78298366Y-59728366D01*
X78412353Y-59634821D01*
X78463732Y-59592655D01*
X78652395Y-59491813D01*
X78857107Y-59429714D01*
X78963472Y-59419238D01*
X79016654Y-59414000D01*
X83083346Y-59414000D01*
X83136528Y-59419238D01*
G37*
G36*
X60367985Y-53293860D02*
G01*
X60480748Y-53316290D01*
X60612741Y-53370963D01*
X60799408Y-53448283D01*
X61086196Y-53639909D01*
X61330091Y-53883804D01*
X61521717Y-54170592D01*
X61653710Y-54489253D01*
X61721000Y-54827540D01*
X61721000Y-55172460D01*
X61653710Y-55510747D01*
X61521717Y-55829408D01*
X61330091Y-56116196D01*
X61086196Y-56360091D01*
X60799408Y-56551717D01*
X60612741Y-56629037D01*
X60480748Y-56683710D01*
X60367985Y-56706140D01*
X60142460Y-56751000D01*
X59797540Y-56751000D01*
X59572015Y-56706140D01*
X59459252Y-56683710D01*
X59327259Y-56629037D01*
X59140592Y-56551717D01*
X58853804Y-56360091D01*
X58609909Y-56116196D01*
X58418283Y-55829408D01*
X58286290Y-55510747D01*
X58219000Y-55172460D01*
X58219000Y-54827540D01*
X58286290Y-54489253D01*
X58418283Y-54170592D01*
X58609909Y-53883804D01*
X58853804Y-53639909D01*
X59140592Y-53448283D01*
X59327259Y-53370963D01*
X59459252Y-53316290D01*
X59572015Y-53293860D01*
X59797540Y-53249000D01*
X60142460Y-53249000D01*
X60367985Y-53293860D01*
G37*
G36*
X69507985Y-53293860D02*
G01*
X69620748Y-53316290D01*
X69752741Y-53370963D01*
X69939408Y-53448283D01*
X70226196Y-53639909D01*
X70470091Y-53883804D01*
X70661717Y-54170592D01*
X70793710Y-54489253D01*
X70861000Y-54827540D01*
X70861000Y-55172460D01*
X70793710Y-55510747D01*
X70661717Y-55829408D01*
X70470091Y-56116196D01*
X70226196Y-56360091D01*
X69939408Y-56551717D01*
X69752741Y-56629037D01*
X69620748Y-56683710D01*
X69507985Y-56706140D01*
X69282460Y-56751000D01*
X68937540Y-56751000D01*
X68712015Y-56706140D01*
X68599252Y-56683710D01*
X68467259Y-56629037D01*
X68280592Y-56551717D01*
X67993804Y-56360091D01*
X67749909Y-56116196D01*
X67558283Y-55829408D01*
X67426290Y-55510747D01*
X67359000Y-55172460D01*
X67359000Y-54827540D01*
X67426290Y-54489253D01*
X67558283Y-54170592D01*
X67749909Y-53883804D01*
X67993804Y-53639909D01*
X68280592Y-53448283D01*
X68467259Y-53370963D01*
X68599252Y-53316290D01*
X68712015Y-53293860D01*
X68937540Y-53249000D01*
X69282460Y-53249000D01*
X69507985Y-53293860D01*
G37*
G36*
X55287985Y-53293860D02*
G01*
X55400748Y-53316290D01*
X55532741Y-53370963D01*
X55719408Y-53448283D01*
X56006196Y-53639909D01*
X56250091Y-53883804D01*
X56441717Y-54170592D01*
X56573710Y-54489253D01*
X56641000Y-54827540D01*
X56641000Y-55172460D01*
X56573710Y-55510747D01*
X56441717Y-55829408D01*
X56250091Y-56116196D01*
X56006196Y-56360091D01*
X55719408Y-56551717D01*
X55532741Y-56629037D01*
X55400748Y-56683710D01*
X55287985Y-56706140D01*
X55062460Y-56751000D01*
X54717540Y-56751000D01*
X54492015Y-56706140D01*
X54379252Y-56683710D01*
X54247259Y-56629037D01*
X54060592Y-56551717D01*
X53773804Y-56360091D01*
X53529909Y-56116196D01*
X53338283Y-55829408D01*
X53206290Y-55510747D01*
X53139000Y-55172460D01*
X53139000Y-54827540D01*
X53206290Y-54489253D01*
X53338283Y-54170592D01*
X53529909Y-53883804D01*
X53773804Y-53639909D01*
X54060592Y-53448283D01*
X54247259Y-53370963D01*
X54379252Y-53316290D01*
X54492015Y-53293860D01*
X54717540Y-53249000D01*
X55062460Y-53249000D01*
X55287985Y-53293860D01*
G37*
G36*
X64427985Y-53293860D02*
G01*
X64540748Y-53316290D01*
X64672741Y-53370963D01*
X64859408Y-53448283D01*
X65146196Y-53639909D01*
X65390091Y-53883804D01*
X65581717Y-54170592D01*
X65713710Y-54489253D01*
X65781000Y-54827540D01*
X65781000Y-55172460D01*
X65713710Y-55510747D01*
X65581717Y-55829408D01*
X65390091Y-56116196D01*
X65146196Y-56360091D01*
X64859408Y-56551717D01*
X64672741Y-56629037D01*
X64540748Y-56683710D01*
X64427985Y-56706140D01*
X64202460Y-56751000D01*
X63857540Y-56751000D01*
X63632015Y-56706140D01*
X63519252Y-56683710D01*
X63387259Y-56629037D01*
X63200592Y-56551717D01*
X62913804Y-56360091D01*
X62669909Y-56116196D01*
X62478283Y-55829408D01*
X62346290Y-55510747D01*
X62279000Y-55172460D01*
X62279000Y-54827540D01*
X62346290Y-54489253D01*
X62478283Y-54170592D01*
X62669909Y-53883804D01*
X62913804Y-53639909D01*
X63200592Y-53448283D01*
X63387259Y-53370963D01*
X63519252Y-53316290D01*
X63632015Y-53293860D01*
X63857540Y-53249000D01*
X64202460Y-53249000D01*
X64427985Y-53293860D01*
G37*
G36*
X132517184Y-43399938D02*
G01*
X132773268Y-43450876D01*
X132973105Y-43533651D01*
X133255718Y-43650713D01*
X133255719Y-43650714D01*
X133689914Y-43940834D01*
X134059166Y-44310086D01*
X134059167Y-44310088D01*
X134349287Y-44744282D01*
X134549124Y-45226733D01*
X134651000Y-45738898D01*
X134651000Y-46261102D01*
X134549124Y-46773267D01*
X134349287Y-47255718D01*
X134349286Y-47255719D01*
X134059166Y-47689914D01*
X133689914Y-48059166D01*
X133471341Y-48205212D01*
X133255718Y-48349287D01*
X132973105Y-48466349D01*
X132773268Y-48549124D01*
X132517184Y-48600062D01*
X132261102Y-48651000D01*
X131738898Y-48651000D01*
X131482816Y-48600062D01*
X131226732Y-48549124D01*
X131026895Y-48466349D01*
X130744282Y-48349287D01*
X130528659Y-48205212D01*
X130310086Y-48059166D01*
X129940834Y-47689914D01*
X129650714Y-47255719D01*
X129650713Y-47255718D01*
X129450876Y-46773267D01*
X129349000Y-46261102D01*
X129349000Y-45738898D01*
X129450876Y-45226733D01*
X129650713Y-44744282D01*
X129940833Y-44310088D01*
X129940834Y-44310086D01*
X130310086Y-43940834D01*
X130744281Y-43650714D01*
X130744282Y-43650713D01*
X131026895Y-43533651D01*
X131226732Y-43450876D01*
X131482816Y-43399938D01*
X131738898Y-43349000D01*
X132261102Y-43349000D01*
X132517184Y-43399938D01*
G37*
G36*
X38517184Y-43399938D02*
G01*
X38773268Y-43450876D01*
X38973105Y-43533651D01*
X39255718Y-43650713D01*
X39255719Y-43650714D01*
X39689914Y-43940834D01*
X40059166Y-44310086D01*
X40059167Y-44310088D01*
X40349287Y-44744282D01*
X40549124Y-45226733D01*
X40651000Y-45738898D01*
X40651000Y-46261102D01*
X40549124Y-46773267D01*
X40349287Y-47255718D01*
X40349286Y-47255719D01*
X40059166Y-47689914D01*
X39689914Y-48059166D01*
X39471341Y-48205212D01*
X39255718Y-48349287D01*
X38973105Y-48466349D01*
X38773268Y-48549124D01*
X38517184Y-48600062D01*
X38261102Y-48651000D01*
X37738898Y-48651000D01*
X37482816Y-48600062D01*
X37226732Y-48549124D01*
X37026895Y-48466349D01*
X36744282Y-48349287D01*
X36528659Y-48205212D01*
X36310086Y-48059166D01*
X35940834Y-47689914D01*
X35650714Y-47255719D01*
X35650713Y-47255718D01*
X35450876Y-46773267D01*
X35349000Y-46261102D01*
X35349000Y-45738898D01*
X35450876Y-45226733D01*
X35650713Y-44744282D01*
X35940833Y-44310088D01*
X35940834Y-44310086D01*
X36310086Y-43940834D01*
X36744281Y-43650714D01*
X36744282Y-43650713D01*
X37026895Y-43533651D01*
X37226732Y-43450876D01*
X37482816Y-43399938D01*
X37738898Y-43349000D01*
X38261102Y-43349000D01*
X38517184Y-43399938D01*
G37*
M02*
