G04 #@! TF.GenerationSoftware,KiCad,Pcbnew,5.1.5-52549c5~84~ubuntu18.04.1*
G04 #@! TF.CreationDate,2020-02-28T09:17:44-07:00*
G04 #@! TF.ProjectId,fuse-board-large,66757365-2d62-46f6-9172-642d6c617267,rev?*
G04 #@! TF.SameCoordinates,Original*
G04 #@! TF.FileFunction,Soldermask,Top*
G04 #@! TF.FilePolarity,Negative*
%FSLAX46Y46*%
G04 Gerber Fmt 4.6, Leading zero omitted, Abs format (unit mm)*
G04 Created by KiCad (PCBNEW 5.1.5-52549c5~84~ubuntu18.04.1) date 2020-02-28 09:17:44*
%MOMM*%
%LPD*%
G04 APERTURE LIST*
%ADD10C,0.100000*%
G04 APERTURE END LIST*
D10*
G36*
X132517184Y-183399938D02*
G01*
X132773268Y-183450876D01*
X132973105Y-183533651D01*
X133255718Y-183650713D01*
X133255719Y-183650714D01*
X133689914Y-183940834D01*
X134059166Y-184310086D01*
X134059167Y-184310088D01*
X134349287Y-184744282D01*
X134549124Y-185226733D01*
X134651000Y-185738898D01*
X134651000Y-186261102D01*
X134549124Y-186773267D01*
X134349287Y-187255718D01*
X134349286Y-187255719D01*
X134059166Y-187689914D01*
X133689914Y-188059166D01*
X133471341Y-188205212D01*
X133255718Y-188349287D01*
X132973105Y-188466349D01*
X132773268Y-188549124D01*
X132517184Y-188600062D01*
X132261102Y-188651000D01*
X131738898Y-188651000D01*
X131482816Y-188600062D01*
X131226732Y-188549124D01*
X131026895Y-188466349D01*
X130744282Y-188349287D01*
X130528659Y-188205212D01*
X130310086Y-188059166D01*
X129940834Y-187689914D01*
X129650714Y-187255719D01*
X129650713Y-187255718D01*
X129450876Y-186773267D01*
X129349000Y-186261102D01*
X129349000Y-185738898D01*
X129450876Y-185226733D01*
X129650713Y-184744282D01*
X129940833Y-184310088D01*
X129940834Y-184310086D01*
X130310086Y-183940834D01*
X130744281Y-183650714D01*
X130744282Y-183650713D01*
X131026895Y-183533651D01*
X131226732Y-183450876D01*
X131482816Y-183399938D01*
X131738898Y-183349000D01*
X132261102Y-183349000D01*
X132517184Y-183399938D01*
G37*
G36*
X38517184Y-183399938D02*
G01*
X38773268Y-183450876D01*
X38973105Y-183533651D01*
X39255718Y-183650713D01*
X39255719Y-183650714D01*
X39689914Y-183940834D01*
X40059166Y-184310086D01*
X40059167Y-184310088D01*
X40349287Y-184744282D01*
X40549124Y-185226733D01*
X40651000Y-185738898D01*
X40651000Y-186261102D01*
X40549124Y-186773267D01*
X40349287Y-187255718D01*
X40349286Y-187255719D01*
X40059166Y-187689914D01*
X39689914Y-188059166D01*
X39471341Y-188205212D01*
X39255718Y-188349287D01*
X38973105Y-188466349D01*
X38773268Y-188549124D01*
X38517184Y-188600062D01*
X38261102Y-188651000D01*
X37738898Y-188651000D01*
X37482816Y-188600062D01*
X37226732Y-188549124D01*
X37026895Y-188466349D01*
X36744282Y-188349287D01*
X36528659Y-188205212D01*
X36310086Y-188059166D01*
X35940834Y-187689914D01*
X35650714Y-187255719D01*
X35650713Y-187255718D01*
X35450876Y-186773267D01*
X35349000Y-186261102D01*
X35349000Y-185738898D01*
X35450876Y-185226733D01*
X35650713Y-184744282D01*
X35940833Y-184310088D01*
X35940834Y-184310086D01*
X36310086Y-183940834D01*
X36744281Y-183650714D01*
X36744282Y-183650713D01*
X37026895Y-183533651D01*
X37226732Y-183450876D01*
X37482816Y-183399938D01*
X37738898Y-183349000D01*
X38261102Y-183349000D01*
X38517184Y-183399938D01*
G37*
G36*
X76133089Y-175378990D02*
G01*
X76328381Y-175438231D01*
X76508354Y-175534429D01*
X76666107Y-175663893D01*
X76795571Y-175821646D01*
X76891769Y-176001619D01*
X76951010Y-176196911D01*
X76971012Y-176400000D01*
X76951010Y-176603089D01*
X76891769Y-176798381D01*
X76795571Y-176978354D01*
X76666107Y-177136107D01*
X76508354Y-177265571D01*
X76328381Y-177361769D01*
X76133089Y-177421010D01*
X75980891Y-177436000D01*
X71919109Y-177436000D01*
X71766911Y-177421010D01*
X71571619Y-177361769D01*
X71391646Y-177265571D01*
X71233893Y-177136107D01*
X71104429Y-176978354D01*
X71008231Y-176798381D01*
X70948990Y-176603089D01*
X70928988Y-176400000D01*
X70948990Y-176196911D01*
X71008231Y-176001619D01*
X71104429Y-175821646D01*
X71233893Y-175663893D01*
X71391646Y-175534429D01*
X71571619Y-175438231D01*
X71766911Y-175378990D01*
X71919109Y-175364000D01*
X75980891Y-175364000D01*
X76133089Y-175378990D01*
G37*
G36*
X68233089Y-175378990D02*
G01*
X68428381Y-175438231D01*
X68608354Y-175534429D01*
X68766107Y-175663893D01*
X68895571Y-175821646D01*
X68991769Y-176001619D01*
X69051010Y-176196911D01*
X69071012Y-176400000D01*
X69051010Y-176603089D01*
X68991769Y-176798381D01*
X68895571Y-176978354D01*
X68766107Y-177136107D01*
X68608354Y-177265571D01*
X68428381Y-177361769D01*
X68233089Y-177421010D01*
X68080891Y-177436000D01*
X64019109Y-177436000D01*
X63866911Y-177421010D01*
X63671619Y-177361769D01*
X63491646Y-177265571D01*
X63333893Y-177136107D01*
X63204429Y-176978354D01*
X63108231Y-176798381D01*
X63048990Y-176603089D01*
X63028988Y-176400000D01*
X63048990Y-176196911D01*
X63108231Y-176001619D01*
X63204429Y-175821646D01*
X63333893Y-175663893D01*
X63491646Y-175534429D01*
X63671619Y-175438231D01*
X63866911Y-175378990D01*
X64019109Y-175364000D01*
X68080891Y-175364000D01*
X68233089Y-175378990D01*
G37*
G36*
X38287985Y-173293860D02*
G01*
X38400748Y-173316290D01*
X38532741Y-173370963D01*
X38719408Y-173448283D01*
X39006196Y-173639909D01*
X39250091Y-173883804D01*
X39441717Y-174170592D01*
X39510275Y-174336107D01*
X39573710Y-174489252D01*
X39641000Y-174827542D01*
X39641000Y-175172458D01*
X39573710Y-175510748D01*
X39519037Y-175642741D01*
X39441717Y-175829408D01*
X39250091Y-176116196D01*
X39006196Y-176360091D01*
X38719408Y-176551717D01*
X38532741Y-176629037D01*
X38400748Y-176683710D01*
X38287985Y-176706140D01*
X38062460Y-176751000D01*
X37717540Y-176751000D01*
X37492015Y-176706140D01*
X37379252Y-176683710D01*
X37247259Y-176629037D01*
X37060592Y-176551717D01*
X36773804Y-176360091D01*
X36529909Y-176116196D01*
X36338283Y-175829408D01*
X36260963Y-175642741D01*
X36206290Y-175510748D01*
X36139000Y-175172458D01*
X36139000Y-174827542D01*
X36206290Y-174489252D01*
X36269725Y-174336107D01*
X36338283Y-174170592D01*
X36529909Y-173883804D01*
X36773804Y-173639909D01*
X37060592Y-173448283D01*
X37247259Y-173370963D01*
X37379252Y-173316290D01*
X37492015Y-173293860D01*
X37717540Y-173249000D01*
X38062460Y-173249000D01*
X38287985Y-173293860D01*
G37*
G36*
X52507985Y-173293860D02*
G01*
X52620748Y-173316290D01*
X52752741Y-173370963D01*
X52939408Y-173448283D01*
X53226196Y-173639909D01*
X53470091Y-173883804D01*
X53661717Y-174170592D01*
X53730275Y-174336107D01*
X53793710Y-174489252D01*
X53861000Y-174827542D01*
X53861000Y-175172458D01*
X53793710Y-175510748D01*
X53739037Y-175642741D01*
X53661717Y-175829408D01*
X53470091Y-176116196D01*
X53226196Y-176360091D01*
X52939408Y-176551717D01*
X52752741Y-176629037D01*
X52620748Y-176683710D01*
X52507985Y-176706140D01*
X52282460Y-176751000D01*
X51937540Y-176751000D01*
X51712015Y-176706140D01*
X51599252Y-176683710D01*
X51467259Y-176629037D01*
X51280592Y-176551717D01*
X50993804Y-176360091D01*
X50749909Y-176116196D01*
X50558283Y-175829408D01*
X50480963Y-175642741D01*
X50426290Y-175510748D01*
X50359000Y-175172458D01*
X50359000Y-174827542D01*
X50426290Y-174489252D01*
X50489725Y-174336107D01*
X50558283Y-174170592D01*
X50749909Y-173883804D01*
X50993804Y-173639909D01*
X51280592Y-173448283D01*
X51467259Y-173370963D01*
X51599252Y-173316290D01*
X51712015Y-173293860D01*
X51937540Y-173249000D01*
X52282460Y-173249000D01*
X52507985Y-173293860D01*
G37*
G36*
X47427985Y-173293860D02*
G01*
X47540748Y-173316290D01*
X47672741Y-173370963D01*
X47859408Y-173448283D01*
X48146196Y-173639909D01*
X48390091Y-173883804D01*
X48581717Y-174170592D01*
X48650275Y-174336107D01*
X48713710Y-174489252D01*
X48781000Y-174827542D01*
X48781000Y-175172458D01*
X48713710Y-175510748D01*
X48659037Y-175642741D01*
X48581717Y-175829408D01*
X48390091Y-176116196D01*
X48146196Y-176360091D01*
X47859408Y-176551717D01*
X47672741Y-176629037D01*
X47540748Y-176683710D01*
X47427985Y-176706140D01*
X47202460Y-176751000D01*
X46857540Y-176751000D01*
X46632015Y-176706140D01*
X46519252Y-176683710D01*
X46387259Y-176629037D01*
X46200592Y-176551717D01*
X45913804Y-176360091D01*
X45669909Y-176116196D01*
X45478283Y-175829408D01*
X45400963Y-175642741D01*
X45346290Y-175510748D01*
X45279000Y-175172458D01*
X45279000Y-174827542D01*
X45346290Y-174489252D01*
X45409725Y-174336107D01*
X45478283Y-174170592D01*
X45669909Y-173883804D01*
X45913804Y-173639909D01*
X46200592Y-173448283D01*
X46387259Y-173370963D01*
X46519252Y-173316290D01*
X46632015Y-173293860D01*
X46857540Y-173249000D01*
X47202460Y-173249000D01*
X47427985Y-173293860D01*
G37*
G36*
X43367985Y-173293860D02*
G01*
X43480748Y-173316290D01*
X43612741Y-173370963D01*
X43799408Y-173448283D01*
X44086196Y-173639909D01*
X44330091Y-173883804D01*
X44521717Y-174170592D01*
X44590275Y-174336107D01*
X44653710Y-174489252D01*
X44721000Y-174827542D01*
X44721000Y-175172458D01*
X44653710Y-175510748D01*
X44599037Y-175642741D01*
X44521717Y-175829408D01*
X44330091Y-176116196D01*
X44086196Y-176360091D01*
X43799408Y-176551717D01*
X43612741Y-176629037D01*
X43480748Y-176683710D01*
X43367985Y-176706140D01*
X43142460Y-176751000D01*
X42797540Y-176751000D01*
X42572015Y-176706140D01*
X42459252Y-176683710D01*
X42327259Y-176629037D01*
X42140592Y-176551717D01*
X41853804Y-176360091D01*
X41609909Y-176116196D01*
X41418283Y-175829408D01*
X41340963Y-175642741D01*
X41286290Y-175510748D01*
X41219000Y-175172458D01*
X41219000Y-174827542D01*
X41286290Y-174489252D01*
X41349725Y-174336107D01*
X41418283Y-174170592D01*
X41609909Y-173883804D01*
X41853804Y-173639909D01*
X42140592Y-173448283D01*
X42327259Y-173370963D01*
X42459252Y-173316290D01*
X42572015Y-173293860D01*
X42797540Y-173249000D01*
X43142460Y-173249000D01*
X43367985Y-173293860D01*
G37*
G36*
X118287985Y-173293860D02*
G01*
X118400748Y-173316290D01*
X118532741Y-173370963D01*
X118719408Y-173448283D01*
X119006196Y-173639909D01*
X119250091Y-173883804D01*
X119441717Y-174170592D01*
X119510275Y-174336107D01*
X119573710Y-174489252D01*
X119641000Y-174827542D01*
X119641000Y-175172458D01*
X119573710Y-175510748D01*
X119519037Y-175642741D01*
X119441717Y-175829408D01*
X119250091Y-176116196D01*
X119006196Y-176360091D01*
X118719408Y-176551717D01*
X118532741Y-176629037D01*
X118400748Y-176683710D01*
X118287985Y-176706140D01*
X118062460Y-176751000D01*
X117717540Y-176751000D01*
X117492015Y-176706140D01*
X117379252Y-176683710D01*
X117247259Y-176629037D01*
X117060592Y-176551717D01*
X116773804Y-176360091D01*
X116529909Y-176116196D01*
X116338283Y-175829408D01*
X116260963Y-175642741D01*
X116206290Y-175510748D01*
X116139000Y-175172458D01*
X116139000Y-174827542D01*
X116206290Y-174489252D01*
X116269725Y-174336107D01*
X116338283Y-174170592D01*
X116529909Y-173883804D01*
X116773804Y-173639909D01*
X117060592Y-173448283D01*
X117247259Y-173370963D01*
X117379252Y-173316290D01*
X117492015Y-173293860D01*
X117717540Y-173249000D01*
X118062460Y-173249000D01*
X118287985Y-173293860D01*
G37*
G36*
X132507985Y-173293860D02*
G01*
X132620748Y-173316290D01*
X132752741Y-173370963D01*
X132939408Y-173448283D01*
X133226196Y-173639909D01*
X133470091Y-173883804D01*
X133661717Y-174170592D01*
X133730275Y-174336107D01*
X133793710Y-174489252D01*
X133861000Y-174827542D01*
X133861000Y-175172458D01*
X133793710Y-175510748D01*
X133739037Y-175642741D01*
X133661717Y-175829408D01*
X133470091Y-176116196D01*
X133226196Y-176360091D01*
X132939408Y-176551717D01*
X132752741Y-176629037D01*
X132620748Y-176683710D01*
X132507985Y-176706140D01*
X132282460Y-176751000D01*
X131937540Y-176751000D01*
X131712015Y-176706140D01*
X131599252Y-176683710D01*
X131467259Y-176629037D01*
X131280592Y-176551717D01*
X130993804Y-176360091D01*
X130749909Y-176116196D01*
X130558283Y-175829408D01*
X130480963Y-175642741D01*
X130426290Y-175510748D01*
X130359000Y-175172458D01*
X130359000Y-174827542D01*
X130426290Y-174489252D01*
X130489725Y-174336107D01*
X130558283Y-174170592D01*
X130749909Y-173883804D01*
X130993804Y-173639909D01*
X131280592Y-173448283D01*
X131467259Y-173370963D01*
X131599252Y-173316290D01*
X131712015Y-173293860D01*
X131937540Y-173249000D01*
X132282460Y-173249000D01*
X132507985Y-173293860D01*
G37*
G36*
X123367985Y-173293860D02*
G01*
X123480748Y-173316290D01*
X123612741Y-173370963D01*
X123799408Y-173448283D01*
X124086196Y-173639909D01*
X124330091Y-173883804D01*
X124521717Y-174170592D01*
X124590275Y-174336107D01*
X124653710Y-174489252D01*
X124721000Y-174827542D01*
X124721000Y-175172458D01*
X124653710Y-175510748D01*
X124599037Y-175642741D01*
X124521717Y-175829408D01*
X124330091Y-176116196D01*
X124086196Y-176360091D01*
X123799408Y-176551717D01*
X123612741Y-176629037D01*
X123480748Y-176683710D01*
X123367985Y-176706140D01*
X123142460Y-176751000D01*
X122797540Y-176751000D01*
X122572015Y-176706140D01*
X122459252Y-176683710D01*
X122327259Y-176629037D01*
X122140592Y-176551717D01*
X121853804Y-176360091D01*
X121609909Y-176116196D01*
X121418283Y-175829408D01*
X121340963Y-175642741D01*
X121286290Y-175510748D01*
X121219000Y-175172458D01*
X121219000Y-174827542D01*
X121286290Y-174489252D01*
X121349725Y-174336107D01*
X121418283Y-174170592D01*
X121609909Y-173883804D01*
X121853804Y-173639909D01*
X122140592Y-173448283D01*
X122327259Y-173370963D01*
X122459252Y-173316290D01*
X122572015Y-173293860D01*
X122797540Y-173249000D01*
X123142460Y-173249000D01*
X123367985Y-173293860D01*
G37*
G36*
X127427985Y-173293860D02*
G01*
X127540748Y-173316290D01*
X127672741Y-173370963D01*
X127859408Y-173448283D01*
X128146196Y-173639909D01*
X128390091Y-173883804D01*
X128581717Y-174170592D01*
X128650275Y-174336107D01*
X128713710Y-174489252D01*
X128781000Y-174827542D01*
X128781000Y-175172458D01*
X128713710Y-175510748D01*
X128659037Y-175642741D01*
X128581717Y-175829408D01*
X128390091Y-176116196D01*
X128146196Y-176360091D01*
X127859408Y-176551717D01*
X127672741Y-176629037D01*
X127540748Y-176683710D01*
X127427985Y-176706140D01*
X127202460Y-176751000D01*
X126857540Y-176751000D01*
X126632015Y-176706140D01*
X126519252Y-176683710D01*
X126387259Y-176629037D01*
X126200592Y-176551717D01*
X125913804Y-176360091D01*
X125669909Y-176116196D01*
X125478283Y-175829408D01*
X125400963Y-175642741D01*
X125346290Y-175510748D01*
X125279000Y-175172458D01*
X125279000Y-174827542D01*
X125346290Y-174489252D01*
X125409725Y-174336107D01*
X125478283Y-174170592D01*
X125669909Y-173883804D01*
X125913804Y-173639909D01*
X126200592Y-173448283D01*
X126387259Y-173370963D01*
X126519252Y-173316290D01*
X126632015Y-173293860D01*
X126857540Y-173249000D01*
X127202460Y-173249000D01*
X127427985Y-173293860D01*
G37*
G36*
X98233089Y-172578990D02*
G01*
X98428381Y-172638231D01*
X98608354Y-172734429D01*
X98766107Y-172863893D01*
X98895571Y-173021646D01*
X98991769Y-173201619D01*
X99051010Y-173396911D01*
X99071012Y-173600000D01*
X99051010Y-173803089D01*
X98991769Y-173998381D01*
X98895571Y-174178354D01*
X98766107Y-174336107D01*
X98608354Y-174465571D01*
X98428381Y-174561769D01*
X98233089Y-174621010D01*
X98080891Y-174636000D01*
X94019109Y-174636000D01*
X93866911Y-174621010D01*
X93671619Y-174561769D01*
X93491646Y-174465571D01*
X93333893Y-174336107D01*
X93204429Y-174178354D01*
X93108231Y-173998381D01*
X93048990Y-173803089D01*
X93028988Y-173600000D01*
X93048990Y-173396911D01*
X93108231Y-173201619D01*
X93204429Y-173021646D01*
X93333893Y-172863893D01*
X93491646Y-172734429D01*
X93671619Y-172638231D01*
X93866911Y-172578990D01*
X94019109Y-172564000D01*
X98080891Y-172564000D01*
X98233089Y-172578990D01*
G37*
G36*
X106133089Y-172578990D02*
G01*
X106328381Y-172638231D01*
X106508354Y-172734429D01*
X106666107Y-172863893D01*
X106795571Y-173021646D01*
X106891769Y-173201619D01*
X106951010Y-173396911D01*
X106971012Y-173600000D01*
X106951010Y-173803089D01*
X106891769Y-173998381D01*
X106795571Y-174178354D01*
X106666107Y-174336107D01*
X106508354Y-174465571D01*
X106328381Y-174561769D01*
X106133089Y-174621010D01*
X105980891Y-174636000D01*
X101919109Y-174636000D01*
X101766911Y-174621010D01*
X101571619Y-174561769D01*
X101391646Y-174465571D01*
X101233893Y-174336107D01*
X101104429Y-174178354D01*
X101008231Y-173998381D01*
X100948990Y-173803089D01*
X100928988Y-173600000D01*
X100948990Y-173396911D01*
X101008231Y-173201619D01*
X101104429Y-173021646D01*
X101233893Y-172863893D01*
X101391646Y-172734429D01*
X101571619Y-172638231D01*
X101766911Y-172578990D01*
X101919109Y-172564000D01*
X105980891Y-172564000D01*
X106133089Y-172578990D01*
G37*
G36*
X76133089Y-150378990D02*
G01*
X76328381Y-150438231D01*
X76508354Y-150534429D01*
X76666107Y-150663893D01*
X76795571Y-150821646D01*
X76891769Y-151001619D01*
X76951010Y-151196911D01*
X76971012Y-151400000D01*
X76951010Y-151603089D01*
X76891769Y-151798381D01*
X76795571Y-151978354D01*
X76666107Y-152136107D01*
X76508354Y-152265571D01*
X76328381Y-152361769D01*
X76133089Y-152421010D01*
X75980891Y-152436000D01*
X71919109Y-152436000D01*
X71766911Y-152421010D01*
X71571619Y-152361769D01*
X71391646Y-152265571D01*
X71233893Y-152136107D01*
X71104429Y-151978354D01*
X71008231Y-151798381D01*
X70948990Y-151603089D01*
X70928988Y-151400000D01*
X70948990Y-151196911D01*
X71008231Y-151001619D01*
X71104429Y-150821646D01*
X71233893Y-150663893D01*
X71391646Y-150534429D01*
X71571619Y-150438231D01*
X71766911Y-150378990D01*
X71919109Y-150364000D01*
X75980891Y-150364000D01*
X76133089Y-150378990D01*
G37*
G36*
X68233089Y-150378990D02*
G01*
X68428381Y-150438231D01*
X68608354Y-150534429D01*
X68766107Y-150663893D01*
X68895571Y-150821646D01*
X68991769Y-151001619D01*
X69051010Y-151196911D01*
X69071012Y-151400000D01*
X69051010Y-151603089D01*
X68991769Y-151798381D01*
X68895571Y-151978354D01*
X68766107Y-152136107D01*
X68608354Y-152265571D01*
X68428381Y-152361769D01*
X68233089Y-152421010D01*
X68080891Y-152436000D01*
X64019109Y-152436000D01*
X63866911Y-152421010D01*
X63671619Y-152361769D01*
X63491646Y-152265571D01*
X63333893Y-152136107D01*
X63204429Y-151978354D01*
X63108231Y-151798381D01*
X63048990Y-151603089D01*
X63028988Y-151400000D01*
X63048990Y-151196911D01*
X63108231Y-151001619D01*
X63204429Y-150821646D01*
X63333893Y-150663893D01*
X63491646Y-150534429D01*
X63671619Y-150438231D01*
X63866911Y-150378990D01*
X64019109Y-150364000D01*
X68080891Y-150364000D01*
X68233089Y-150378990D01*
G37*
G36*
X38287985Y-148293860D02*
G01*
X38400748Y-148316290D01*
X38532741Y-148370963D01*
X38719408Y-148448283D01*
X39006196Y-148639909D01*
X39250091Y-148883804D01*
X39441717Y-149170592D01*
X39510275Y-149336107D01*
X39573710Y-149489252D01*
X39641000Y-149827542D01*
X39641000Y-150172458D01*
X39573710Y-150510748D01*
X39519037Y-150642741D01*
X39441717Y-150829408D01*
X39250091Y-151116196D01*
X39006196Y-151360091D01*
X38719408Y-151551717D01*
X38532741Y-151629037D01*
X38400748Y-151683710D01*
X38287985Y-151706140D01*
X38062460Y-151751000D01*
X37717540Y-151751000D01*
X37492015Y-151706140D01*
X37379252Y-151683710D01*
X37247259Y-151629037D01*
X37060592Y-151551717D01*
X36773804Y-151360091D01*
X36529909Y-151116196D01*
X36338283Y-150829408D01*
X36260963Y-150642741D01*
X36206290Y-150510748D01*
X36139000Y-150172458D01*
X36139000Y-149827542D01*
X36206290Y-149489252D01*
X36269725Y-149336107D01*
X36338283Y-149170592D01*
X36529909Y-148883804D01*
X36773804Y-148639909D01*
X37060592Y-148448283D01*
X37247259Y-148370963D01*
X37379252Y-148316290D01*
X37492015Y-148293860D01*
X37717540Y-148249000D01*
X38062460Y-148249000D01*
X38287985Y-148293860D01*
G37*
G36*
X123367985Y-148293860D02*
G01*
X123480748Y-148316290D01*
X123612741Y-148370963D01*
X123799408Y-148448283D01*
X124086196Y-148639909D01*
X124330091Y-148883804D01*
X124521717Y-149170592D01*
X124590275Y-149336107D01*
X124653710Y-149489252D01*
X124721000Y-149827542D01*
X124721000Y-150172458D01*
X124653710Y-150510748D01*
X124599037Y-150642741D01*
X124521717Y-150829408D01*
X124330091Y-151116196D01*
X124086196Y-151360091D01*
X123799408Y-151551717D01*
X123612741Y-151629037D01*
X123480748Y-151683710D01*
X123367985Y-151706140D01*
X123142460Y-151751000D01*
X122797540Y-151751000D01*
X122572015Y-151706140D01*
X122459252Y-151683710D01*
X122327259Y-151629037D01*
X122140592Y-151551717D01*
X121853804Y-151360091D01*
X121609909Y-151116196D01*
X121418283Y-150829408D01*
X121340963Y-150642741D01*
X121286290Y-150510748D01*
X121219000Y-150172458D01*
X121219000Y-149827542D01*
X121286290Y-149489252D01*
X121349725Y-149336107D01*
X121418283Y-149170592D01*
X121609909Y-148883804D01*
X121853804Y-148639909D01*
X122140592Y-148448283D01*
X122327259Y-148370963D01*
X122459252Y-148316290D01*
X122572015Y-148293860D01*
X122797540Y-148249000D01*
X123142460Y-148249000D01*
X123367985Y-148293860D01*
G37*
G36*
X132507985Y-148293860D02*
G01*
X132620748Y-148316290D01*
X132752741Y-148370963D01*
X132939408Y-148448283D01*
X133226196Y-148639909D01*
X133470091Y-148883804D01*
X133661717Y-149170592D01*
X133730275Y-149336107D01*
X133793710Y-149489252D01*
X133861000Y-149827542D01*
X133861000Y-150172458D01*
X133793710Y-150510748D01*
X133739037Y-150642741D01*
X133661717Y-150829408D01*
X133470091Y-151116196D01*
X133226196Y-151360091D01*
X132939408Y-151551717D01*
X132752741Y-151629037D01*
X132620748Y-151683710D01*
X132507985Y-151706140D01*
X132282460Y-151751000D01*
X131937540Y-151751000D01*
X131712015Y-151706140D01*
X131599252Y-151683710D01*
X131467259Y-151629037D01*
X131280592Y-151551717D01*
X130993804Y-151360091D01*
X130749909Y-151116196D01*
X130558283Y-150829408D01*
X130480963Y-150642741D01*
X130426290Y-150510748D01*
X130359000Y-150172458D01*
X130359000Y-149827542D01*
X130426290Y-149489252D01*
X130489725Y-149336107D01*
X130558283Y-149170592D01*
X130749909Y-148883804D01*
X130993804Y-148639909D01*
X131280592Y-148448283D01*
X131467259Y-148370963D01*
X131599252Y-148316290D01*
X131712015Y-148293860D01*
X131937540Y-148249000D01*
X132282460Y-148249000D01*
X132507985Y-148293860D01*
G37*
G36*
X118287985Y-148293860D02*
G01*
X118400748Y-148316290D01*
X118532741Y-148370963D01*
X118719408Y-148448283D01*
X119006196Y-148639909D01*
X119250091Y-148883804D01*
X119441717Y-149170592D01*
X119510275Y-149336107D01*
X119573710Y-149489252D01*
X119641000Y-149827542D01*
X119641000Y-150172458D01*
X119573710Y-150510748D01*
X119519037Y-150642741D01*
X119441717Y-150829408D01*
X119250091Y-151116196D01*
X119006196Y-151360091D01*
X118719408Y-151551717D01*
X118532741Y-151629037D01*
X118400748Y-151683710D01*
X118287985Y-151706140D01*
X118062460Y-151751000D01*
X117717540Y-151751000D01*
X117492015Y-151706140D01*
X117379252Y-151683710D01*
X117247259Y-151629037D01*
X117060592Y-151551717D01*
X116773804Y-151360091D01*
X116529909Y-151116196D01*
X116338283Y-150829408D01*
X116260963Y-150642741D01*
X116206290Y-150510748D01*
X116139000Y-150172458D01*
X116139000Y-149827542D01*
X116206290Y-149489252D01*
X116269725Y-149336107D01*
X116338283Y-149170592D01*
X116529909Y-148883804D01*
X116773804Y-148639909D01*
X117060592Y-148448283D01*
X117247259Y-148370963D01*
X117379252Y-148316290D01*
X117492015Y-148293860D01*
X117717540Y-148249000D01*
X118062460Y-148249000D01*
X118287985Y-148293860D01*
G37*
G36*
X43367985Y-148293860D02*
G01*
X43480748Y-148316290D01*
X43612741Y-148370963D01*
X43799408Y-148448283D01*
X44086196Y-148639909D01*
X44330091Y-148883804D01*
X44521717Y-149170592D01*
X44590275Y-149336107D01*
X44653710Y-149489252D01*
X44721000Y-149827542D01*
X44721000Y-150172458D01*
X44653710Y-150510748D01*
X44599037Y-150642741D01*
X44521717Y-150829408D01*
X44330091Y-151116196D01*
X44086196Y-151360091D01*
X43799408Y-151551717D01*
X43612741Y-151629037D01*
X43480748Y-151683710D01*
X43367985Y-151706140D01*
X43142460Y-151751000D01*
X42797540Y-151751000D01*
X42572015Y-151706140D01*
X42459252Y-151683710D01*
X42327259Y-151629037D01*
X42140592Y-151551717D01*
X41853804Y-151360091D01*
X41609909Y-151116196D01*
X41418283Y-150829408D01*
X41340963Y-150642741D01*
X41286290Y-150510748D01*
X41219000Y-150172458D01*
X41219000Y-149827542D01*
X41286290Y-149489252D01*
X41349725Y-149336107D01*
X41418283Y-149170592D01*
X41609909Y-148883804D01*
X41853804Y-148639909D01*
X42140592Y-148448283D01*
X42327259Y-148370963D01*
X42459252Y-148316290D01*
X42572015Y-148293860D01*
X42797540Y-148249000D01*
X43142460Y-148249000D01*
X43367985Y-148293860D01*
G37*
G36*
X47427985Y-148293860D02*
G01*
X47540748Y-148316290D01*
X47672741Y-148370963D01*
X47859408Y-148448283D01*
X48146196Y-148639909D01*
X48390091Y-148883804D01*
X48581717Y-149170592D01*
X48650275Y-149336107D01*
X48713710Y-149489252D01*
X48781000Y-149827542D01*
X48781000Y-150172458D01*
X48713710Y-150510748D01*
X48659037Y-150642741D01*
X48581717Y-150829408D01*
X48390091Y-151116196D01*
X48146196Y-151360091D01*
X47859408Y-151551717D01*
X47672741Y-151629037D01*
X47540748Y-151683710D01*
X47427985Y-151706140D01*
X47202460Y-151751000D01*
X46857540Y-151751000D01*
X46632015Y-151706140D01*
X46519252Y-151683710D01*
X46387259Y-151629037D01*
X46200592Y-151551717D01*
X45913804Y-151360091D01*
X45669909Y-151116196D01*
X45478283Y-150829408D01*
X45400963Y-150642741D01*
X45346290Y-150510748D01*
X45279000Y-150172458D01*
X45279000Y-149827542D01*
X45346290Y-149489252D01*
X45409725Y-149336107D01*
X45478283Y-149170592D01*
X45669909Y-148883804D01*
X45913804Y-148639909D01*
X46200592Y-148448283D01*
X46387259Y-148370963D01*
X46519252Y-148316290D01*
X46632015Y-148293860D01*
X46857540Y-148249000D01*
X47202460Y-148249000D01*
X47427985Y-148293860D01*
G37*
G36*
X127427985Y-148293860D02*
G01*
X127540748Y-148316290D01*
X127672741Y-148370963D01*
X127859408Y-148448283D01*
X128146196Y-148639909D01*
X128390091Y-148883804D01*
X128581717Y-149170592D01*
X128650275Y-149336107D01*
X128713710Y-149489252D01*
X128781000Y-149827542D01*
X128781000Y-150172458D01*
X128713710Y-150510748D01*
X128659037Y-150642741D01*
X128581717Y-150829408D01*
X128390091Y-151116196D01*
X128146196Y-151360091D01*
X127859408Y-151551717D01*
X127672741Y-151629037D01*
X127540748Y-151683710D01*
X127427985Y-151706140D01*
X127202460Y-151751000D01*
X126857540Y-151751000D01*
X126632015Y-151706140D01*
X126519252Y-151683710D01*
X126387259Y-151629037D01*
X126200592Y-151551717D01*
X125913804Y-151360091D01*
X125669909Y-151116196D01*
X125478283Y-150829408D01*
X125400963Y-150642741D01*
X125346290Y-150510748D01*
X125279000Y-150172458D01*
X125279000Y-149827542D01*
X125346290Y-149489252D01*
X125409725Y-149336107D01*
X125478283Y-149170592D01*
X125669909Y-148883804D01*
X125913804Y-148639909D01*
X126200592Y-148448283D01*
X126387259Y-148370963D01*
X126519252Y-148316290D01*
X126632015Y-148293860D01*
X126857540Y-148249000D01*
X127202460Y-148249000D01*
X127427985Y-148293860D01*
G37*
G36*
X52507985Y-148293860D02*
G01*
X52620748Y-148316290D01*
X52752741Y-148370963D01*
X52939408Y-148448283D01*
X53226196Y-148639909D01*
X53470091Y-148883804D01*
X53661717Y-149170592D01*
X53730275Y-149336107D01*
X53793710Y-149489252D01*
X53861000Y-149827542D01*
X53861000Y-150172458D01*
X53793710Y-150510748D01*
X53739037Y-150642741D01*
X53661717Y-150829408D01*
X53470091Y-151116196D01*
X53226196Y-151360091D01*
X52939408Y-151551717D01*
X52752741Y-151629037D01*
X52620748Y-151683710D01*
X52507985Y-151706140D01*
X52282460Y-151751000D01*
X51937540Y-151751000D01*
X51712015Y-151706140D01*
X51599252Y-151683710D01*
X51467259Y-151629037D01*
X51280592Y-151551717D01*
X50993804Y-151360091D01*
X50749909Y-151116196D01*
X50558283Y-150829408D01*
X50480963Y-150642741D01*
X50426290Y-150510748D01*
X50359000Y-150172458D01*
X50359000Y-149827542D01*
X50426290Y-149489252D01*
X50489725Y-149336107D01*
X50558283Y-149170592D01*
X50749909Y-148883804D01*
X50993804Y-148639909D01*
X51280592Y-148448283D01*
X51467259Y-148370963D01*
X51599252Y-148316290D01*
X51712015Y-148293860D01*
X51937540Y-148249000D01*
X52282460Y-148249000D01*
X52507985Y-148293860D01*
G37*
G36*
X106133089Y-147578990D02*
G01*
X106328381Y-147638231D01*
X106508354Y-147734429D01*
X106666107Y-147863893D01*
X106795571Y-148021646D01*
X106891769Y-148201619D01*
X106951010Y-148396911D01*
X106971012Y-148600000D01*
X106951010Y-148803089D01*
X106891769Y-148998381D01*
X106795571Y-149178354D01*
X106666107Y-149336107D01*
X106508354Y-149465571D01*
X106328381Y-149561769D01*
X106133089Y-149621010D01*
X105980891Y-149636000D01*
X101919109Y-149636000D01*
X101766911Y-149621010D01*
X101571619Y-149561769D01*
X101391646Y-149465571D01*
X101233893Y-149336107D01*
X101104429Y-149178354D01*
X101008231Y-148998381D01*
X100948990Y-148803089D01*
X100928988Y-148600000D01*
X100948990Y-148396911D01*
X101008231Y-148201619D01*
X101104429Y-148021646D01*
X101233893Y-147863893D01*
X101391646Y-147734429D01*
X101571619Y-147638231D01*
X101766911Y-147578990D01*
X101919109Y-147564000D01*
X105980891Y-147564000D01*
X106133089Y-147578990D01*
G37*
G36*
X98233089Y-147578990D02*
G01*
X98428381Y-147638231D01*
X98608354Y-147734429D01*
X98766107Y-147863893D01*
X98895571Y-148021646D01*
X98991769Y-148201619D01*
X99051010Y-148396911D01*
X99071012Y-148600000D01*
X99051010Y-148803089D01*
X98991769Y-148998381D01*
X98895571Y-149178354D01*
X98766107Y-149336107D01*
X98608354Y-149465571D01*
X98428381Y-149561769D01*
X98233089Y-149621010D01*
X98080891Y-149636000D01*
X94019109Y-149636000D01*
X93866911Y-149621010D01*
X93671619Y-149561769D01*
X93491646Y-149465571D01*
X93333893Y-149336107D01*
X93204429Y-149178354D01*
X93108231Y-148998381D01*
X93048990Y-148803089D01*
X93028988Y-148600000D01*
X93048990Y-148396911D01*
X93108231Y-148201619D01*
X93204429Y-148021646D01*
X93333893Y-147863893D01*
X93491646Y-147734429D01*
X93671619Y-147638231D01*
X93866911Y-147578990D01*
X94019109Y-147564000D01*
X98080891Y-147564000D01*
X98233089Y-147578990D01*
G37*
G36*
X76133089Y-125378990D02*
G01*
X76328381Y-125438231D01*
X76508354Y-125534429D01*
X76666107Y-125663893D01*
X76795571Y-125821646D01*
X76891769Y-126001619D01*
X76951010Y-126196911D01*
X76971012Y-126400000D01*
X76951010Y-126603089D01*
X76891769Y-126798381D01*
X76795571Y-126978354D01*
X76666107Y-127136107D01*
X76508354Y-127265571D01*
X76328381Y-127361769D01*
X76133089Y-127421010D01*
X75980891Y-127436000D01*
X71919109Y-127436000D01*
X71766911Y-127421010D01*
X71571619Y-127361769D01*
X71391646Y-127265571D01*
X71233893Y-127136107D01*
X71104429Y-126978354D01*
X71008231Y-126798381D01*
X70948990Y-126603089D01*
X70928988Y-126400000D01*
X70948990Y-126196911D01*
X71008231Y-126001619D01*
X71104429Y-125821646D01*
X71233893Y-125663893D01*
X71391646Y-125534429D01*
X71571619Y-125438231D01*
X71766911Y-125378990D01*
X71919109Y-125364000D01*
X75980891Y-125364000D01*
X76133089Y-125378990D01*
G37*
G36*
X68233089Y-125378990D02*
G01*
X68428381Y-125438231D01*
X68608354Y-125534429D01*
X68766107Y-125663893D01*
X68895571Y-125821646D01*
X68991769Y-126001619D01*
X69051010Y-126196911D01*
X69071012Y-126400000D01*
X69051010Y-126603089D01*
X68991769Y-126798381D01*
X68895571Y-126978354D01*
X68766107Y-127136107D01*
X68608354Y-127265571D01*
X68428381Y-127361769D01*
X68233089Y-127421010D01*
X68080891Y-127436000D01*
X64019109Y-127436000D01*
X63866911Y-127421010D01*
X63671619Y-127361769D01*
X63491646Y-127265571D01*
X63333893Y-127136107D01*
X63204429Y-126978354D01*
X63108231Y-126798381D01*
X63048990Y-126603089D01*
X63028988Y-126400000D01*
X63048990Y-126196911D01*
X63108231Y-126001619D01*
X63204429Y-125821646D01*
X63333893Y-125663893D01*
X63491646Y-125534429D01*
X63671619Y-125438231D01*
X63866911Y-125378990D01*
X64019109Y-125364000D01*
X68080891Y-125364000D01*
X68233089Y-125378990D01*
G37*
G36*
X52507985Y-123293860D02*
G01*
X52620748Y-123316290D01*
X52752741Y-123370963D01*
X52939408Y-123448283D01*
X53226196Y-123639909D01*
X53470091Y-123883804D01*
X53661717Y-124170592D01*
X53730275Y-124336107D01*
X53793710Y-124489252D01*
X53861000Y-124827542D01*
X53861000Y-125172458D01*
X53793710Y-125510748D01*
X53739037Y-125642741D01*
X53661717Y-125829408D01*
X53470091Y-126116196D01*
X53226196Y-126360091D01*
X52939408Y-126551717D01*
X52752741Y-126629037D01*
X52620748Y-126683710D01*
X52507985Y-126706140D01*
X52282460Y-126751000D01*
X51937540Y-126751000D01*
X51712015Y-126706140D01*
X51599252Y-126683710D01*
X51467259Y-126629037D01*
X51280592Y-126551717D01*
X50993804Y-126360091D01*
X50749909Y-126116196D01*
X50558283Y-125829408D01*
X50480963Y-125642741D01*
X50426290Y-125510748D01*
X50359000Y-125172458D01*
X50359000Y-124827542D01*
X50426290Y-124489252D01*
X50489725Y-124336107D01*
X50558283Y-124170592D01*
X50749909Y-123883804D01*
X50993804Y-123639909D01*
X51280592Y-123448283D01*
X51467259Y-123370963D01*
X51599252Y-123316290D01*
X51712015Y-123293860D01*
X51937540Y-123249000D01*
X52282460Y-123249000D01*
X52507985Y-123293860D01*
G37*
G36*
X47427985Y-123293860D02*
G01*
X47540748Y-123316290D01*
X47672741Y-123370963D01*
X47859408Y-123448283D01*
X48146196Y-123639909D01*
X48390091Y-123883804D01*
X48581717Y-124170592D01*
X48650275Y-124336107D01*
X48713710Y-124489252D01*
X48781000Y-124827542D01*
X48781000Y-125172458D01*
X48713710Y-125510748D01*
X48659037Y-125642741D01*
X48581717Y-125829408D01*
X48390091Y-126116196D01*
X48146196Y-126360091D01*
X47859408Y-126551717D01*
X47672741Y-126629037D01*
X47540748Y-126683710D01*
X47427985Y-126706140D01*
X47202460Y-126751000D01*
X46857540Y-126751000D01*
X46632015Y-126706140D01*
X46519252Y-126683710D01*
X46387259Y-126629037D01*
X46200592Y-126551717D01*
X45913804Y-126360091D01*
X45669909Y-126116196D01*
X45478283Y-125829408D01*
X45400963Y-125642741D01*
X45346290Y-125510748D01*
X45279000Y-125172458D01*
X45279000Y-124827542D01*
X45346290Y-124489252D01*
X45409725Y-124336107D01*
X45478283Y-124170592D01*
X45669909Y-123883804D01*
X45913804Y-123639909D01*
X46200592Y-123448283D01*
X46387259Y-123370963D01*
X46519252Y-123316290D01*
X46632015Y-123293860D01*
X46857540Y-123249000D01*
X47202460Y-123249000D01*
X47427985Y-123293860D01*
G37*
G36*
X43367985Y-123293860D02*
G01*
X43480748Y-123316290D01*
X43612741Y-123370963D01*
X43799408Y-123448283D01*
X44086196Y-123639909D01*
X44330091Y-123883804D01*
X44521717Y-124170592D01*
X44590275Y-124336107D01*
X44653710Y-124489252D01*
X44721000Y-124827542D01*
X44721000Y-125172458D01*
X44653710Y-125510748D01*
X44599037Y-125642741D01*
X44521717Y-125829408D01*
X44330091Y-126116196D01*
X44086196Y-126360091D01*
X43799408Y-126551717D01*
X43612741Y-126629037D01*
X43480748Y-126683710D01*
X43367985Y-126706140D01*
X43142460Y-126751000D01*
X42797540Y-126751000D01*
X42572015Y-126706140D01*
X42459252Y-126683710D01*
X42327259Y-126629037D01*
X42140592Y-126551717D01*
X41853804Y-126360091D01*
X41609909Y-126116196D01*
X41418283Y-125829408D01*
X41340963Y-125642741D01*
X41286290Y-125510748D01*
X41219000Y-125172458D01*
X41219000Y-124827542D01*
X41286290Y-124489252D01*
X41349725Y-124336107D01*
X41418283Y-124170592D01*
X41609909Y-123883804D01*
X41853804Y-123639909D01*
X42140592Y-123448283D01*
X42327259Y-123370963D01*
X42459252Y-123316290D01*
X42572015Y-123293860D01*
X42797540Y-123249000D01*
X43142460Y-123249000D01*
X43367985Y-123293860D01*
G37*
G36*
X38287985Y-123293860D02*
G01*
X38400748Y-123316290D01*
X38532741Y-123370963D01*
X38719408Y-123448283D01*
X39006196Y-123639909D01*
X39250091Y-123883804D01*
X39441717Y-124170592D01*
X39510275Y-124336107D01*
X39573710Y-124489252D01*
X39641000Y-124827542D01*
X39641000Y-125172458D01*
X39573710Y-125510748D01*
X39519037Y-125642741D01*
X39441717Y-125829408D01*
X39250091Y-126116196D01*
X39006196Y-126360091D01*
X38719408Y-126551717D01*
X38532741Y-126629037D01*
X38400748Y-126683710D01*
X38287985Y-126706140D01*
X38062460Y-126751000D01*
X37717540Y-126751000D01*
X37492015Y-126706140D01*
X37379252Y-126683710D01*
X37247259Y-126629037D01*
X37060592Y-126551717D01*
X36773804Y-126360091D01*
X36529909Y-126116196D01*
X36338283Y-125829408D01*
X36260963Y-125642741D01*
X36206290Y-125510748D01*
X36139000Y-125172458D01*
X36139000Y-124827542D01*
X36206290Y-124489252D01*
X36269725Y-124336107D01*
X36338283Y-124170592D01*
X36529909Y-123883804D01*
X36773804Y-123639909D01*
X37060592Y-123448283D01*
X37247259Y-123370963D01*
X37379252Y-123316290D01*
X37492015Y-123293860D01*
X37717540Y-123249000D01*
X38062460Y-123249000D01*
X38287985Y-123293860D01*
G37*
G36*
X123367985Y-123293860D02*
G01*
X123480748Y-123316290D01*
X123612741Y-123370963D01*
X123799408Y-123448283D01*
X124086196Y-123639909D01*
X124330091Y-123883804D01*
X124521717Y-124170592D01*
X124590275Y-124336107D01*
X124653710Y-124489252D01*
X124721000Y-124827542D01*
X124721000Y-125172458D01*
X124653710Y-125510748D01*
X124599037Y-125642741D01*
X124521717Y-125829408D01*
X124330091Y-126116196D01*
X124086196Y-126360091D01*
X123799408Y-126551717D01*
X123612741Y-126629037D01*
X123480748Y-126683710D01*
X123367985Y-126706140D01*
X123142460Y-126751000D01*
X122797540Y-126751000D01*
X122572015Y-126706140D01*
X122459252Y-126683710D01*
X122327259Y-126629037D01*
X122140592Y-126551717D01*
X121853804Y-126360091D01*
X121609909Y-126116196D01*
X121418283Y-125829408D01*
X121340963Y-125642741D01*
X121286290Y-125510748D01*
X121219000Y-125172458D01*
X121219000Y-124827542D01*
X121286290Y-124489252D01*
X121349725Y-124336107D01*
X121418283Y-124170592D01*
X121609909Y-123883804D01*
X121853804Y-123639909D01*
X122140592Y-123448283D01*
X122327259Y-123370963D01*
X122459252Y-123316290D01*
X122572015Y-123293860D01*
X122797540Y-123249000D01*
X123142460Y-123249000D01*
X123367985Y-123293860D01*
G37*
G36*
X132507985Y-123293860D02*
G01*
X132620748Y-123316290D01*
X132752741Y-123370963D01*
X132939408Y-123448283D01*
X133226196Y-123639909D01*
X133470091Y-123883804D01*
X133661717Y-124170592D01*
X133730275Y-124336107D01*
X133793710Y-124489252D01*
X133861000Y-124827542D01*
X133861000Y-125172458D01*
X133793710Y-125510748D01*
X133739037Y-125642741D01*
X133661717Y-125829408D01*
X133470091Y-126116196D01*
X133226196Y-126360091D01*
X132939408Y-126551717D01*
X132752741Y-126629037D01*
X132620748Y-126683710D01*
X132507985Y-126706140D01*
X132282460Y-126751000D01*
X131937540Y-126751000D01*
X131712015Y-126706140D01*
X131599252Y-126683710D01*
X131467259Y-126629037D01*
X131280592Y-126551717D01*
X130993804Y-126360091D01*
X130749909Y-126116196D01*
X130558283Y-125829408D01*
X130480963Y-125642741D01*
X130426290Y-125510748D01*
X130359000Y-125172458D01*
X130359000Y-124827542D01*
X130426290Y-124489252D01*
X130489725Y-124336107D01*
X130558283Y-124170592D01*
X130749909Y-123883804D01*
X130993804Y-123639909D01*
X131280592Y-123448283D01*
X131467259Y-123370963D01*
X131599252Y-123316290D01*
X131712015Y-123293860D01*
X131937540Y-123249000D01*
X132282460Y-123249000D01*
X132507985Y-123293860D01*
G37*
G36*
X118287985Y-123293860D02*
G01*
X118400748Y-123316290D01*
X118532741Y-123370963D01*
X118719408Y-123448283D01*
X119006196Y-123639909D01*
X119250091Y-123883804D01*
X119441717Y-124170592D01*
X119510275Y-124336107D01*
X119573710Y-124489252D01*
X119641000Y-124827542D01*
X119641000Y-125172458D01*
X119573710Y-125510748D01*
X119519037Y-125642741D01*
X119441717Y-125829408D01*
X119250091Y-126116196D01*
X119006196Y-126360091D01*
X118719408Y-126551717D01*
X118532741Y-126629037D01*
X118400748Y-126683710D01*
X118287985Y-126706140D01*
X118062460Y-126751000D01*
X117717540Y-126751000D01*
X117492015Y-126706140D01*
X117379252Y-126683710D01*
X117247259Y-126629037D01*
X117060592Y-126551717D01*
X116773804Y-126360091D01*
X116529909Y-126116196D01*
X116338283Y-125829408D01*
X116260963Y-125642741D01*
X116206290Y-125510748D01*
X116139000Y-125172458D01*
X116139000Y-124827542D01*
X116206290Y-124489252D01*
X116269725Y-124336107D01*
X116338283Y-124170592D01*
X116529909Y-123883804D01*
X116773804Y-123639909D01*
X117060592Y-123448283D01*
X117247259Y-123370963D01*
X117379252Y-123316290D01*
X117492015Y-123293860D01*
X117717540Y-123249000D01*
X118062460Y-123249000D01*
X118287985Y-123293860D01*
G37*
G36*
X127427985Y-123293860D02*
G01*
X127540748Y-123316290D01*
X127672741Y-123370963D01*
X127859408Y-123448283D01*
X128146196Y-123639909D01*
X128390091Y-123883804D01*
X128581717Y-124170592D01*
X128650275Y-124336107D01*
X128713710Y-124489252D01*
X128781000Y-124827542D01*
X128781000Y-125172458D01*
X128713710Y-125510748D01*
X128659037Y-125642741D01*
X128581717Y-125829408D01*
X128390091Y-126116196D01*
X128146196Y-126360091D01*
X127859408Y-126551717D01*
X127672741Y-126629037D01*
X127540748Y-126683710D01*
X127427985Y-126706140D01*
X127202460Y-126751000D01*
X126857540Y-126751000D01*
X126632015Y-126706140D01*
X126519252Y-126683710D01*
X126387259Y-126629037D01*
X126200592Y-126551717D01*
X125913804Y-126360091D01*
X125669909Y-126116196D01*
X125478283Y-125829408D01*
X125400963Y-125642741D01*
X125346290Y-125510748D01*
X125279000Y-125172458D01*
X125279000Y-124827542D01*
X125346290Y-124489252D01*
X125409725Y-124336107D01*
X125478283Y-124170592D01*
X125669909Y-123883804D01*
X125913804Y-123639909D01*
X126200592Y-123448283D01*
X126387259Y-123370963D01*
X126519252Y-123316290D01*
X126632015Y-123293860D01*
X126857540Y-123249000D01*
X127202460Y-123249000D01*
X127427985Y-123293860D01*
G37*
G36*
X106133089Y-122578990D02*
G01*
X106328381Y-122638231D01*
X106508354Y-122734429D01*
X106666107Y-122863893D01*
X106795571Y-123021646D01*
X106891769Y-123201619D01*
X106951010Y-123396911D01*
X106971012Y-123600000D01*
X106951010Y-123803089D01*
X106891769Y-123998381D01*
X106795571Y-124178354D01*
X106666107Y-124336107D01*
X106508354Y-124465571D01*
X106328381Y-124561769D01*
X106133089Y-124621010D01*
X105980891Y-124636000D01*
X101919109Y-124636000D01*
X101766911Y-124621010D01*
X101571619Y-124561769D01*
X101391646Y-124465571D01*
X101233893Y-124336107D01*
X101104429Y-124178354D01*
X101008231Y-123998381D01*
X100948990Y-123803089D01*
X100928988Y-123600000D01*
X100948990Y-123396911D01*
X101008231Y-123201619D01*
X101104429Y-123021646D01*
X101233893Y-122863893D01*
X101391646Y-122734429D01*
X101571619Y-122638231D01*
X101766911Y-122578990D01*
X101919109Y-122564000D01*
X105980891Y-122564000D01*
X106133089Y-122578990D01*
G37*
G36*
X98233089Y-122578990D02*
G01*
X98428381Y-122638231D01*
X98608354Y-122734429D01*
X98766107Y-122863893D01*
X98895571Y-123021646D01*
X98991769Y-123201619D01*
X99051010Y-123396911D01*
X99071012Y-123600000D01*
X99051010Y-123803089D01*
X98991769Y-123998381D01*
X98895571Y-124178354D01*
X98766107Y-124336107D01*
X98608354Y-124465571D01*
X98428381Y-124561769D01*
X98233089Y-124621010D01*
X98080891Y-124636000D01*
X94019109Y-124636000D01*
X93866911Y-124621010D01*
X93671619Y-124561769D01*
X93491646Y-124465571D01*
X93333893Y-124336107D01*
X93204429Y-124178354D01*
X93108231Y-123998381D01*
X93048990Y-123803089D01*
X93028988Y-123600000D01*
X93048990Y-123396911D01*
X93108231Y-123201619D01*
X93204429Y-123021646D01*
X93333893Y-122863893D01*
X93491646Y-122734429D01*
X93671619Y-122638231D01*
X93866911Y-122578990D01*
X94019109Y-122564000D01*
X98080891Y-122564000D01*
X98233089Y-122578990D01*
G37*
G36*
X68233089Y-100378990D02*
G01*
X68428381Y-100438231D01*
X68608354Y-100534429D01*
X68766107Y-100663893D01*
X68895571Y-100821646D01*
X68991769Y-101001619D01*
X69051010Y-101196911D01*
X69071012Y-101400000D01*
X69051010Y-101603089D01*
X68991769Y-101798381D01*
X68895571Y-101978354D01*
X68766107Y-102136107D01*
X68608354Y-102265571D01*
X68428381Y-102361769D01*
X68233089Y-102421010D01*
X68080891Y-102436000D01*
X64019109Y-102436000D01*
X63866911Y-102421010D01*
X63671619Y-102361769D01*
X63491646Y-102265571D01*
X63333893Y-102136107D01*
X63204429Y-101978354D01*
X63108231Y-101798381D01*
X63048990Y-101603089D01*
X63028988Y-101400000D01*
X63048990Y-101196911D01*
X63108231Y-101001619D01*
X63204429Y-100821646D01*
X63333893Y-100663893D01*
X63491646Y-100534429D01*
X63671619Y-100438231D01*
X63866911Y-100378990D01*
X64019109Y-100364000D01*
X68080891Y-100364000D01*
X68233089Y-100378990D01*
G37*
G36*
X76133089Y-100378990D02*
G01*
X76328381Y-100438231D01*
X76508354Y-100534429D01*
X76666107Y-100663893D01*
X76795571Y-100821646D01*
X76891769Y-101001619D01*
X76951010Y-101196911D01*
X76971012Y-101400000D01*
X76951010Y-101603089D01*
X76891769Y-101798381D01*
X76795571Y-101978354D01*
X76666107Y-102136107D01*
X76508354Y-102265571D01*
X76328381Y-102361769D01*
X76133089Y-102421010D01*
X75980891Y-102436000D01*
X71919109Y-102436000D01*
X71766911Y-102421010D01*
X71571619Y-102361769D01*
X71391646Y-102265571D01*
X71233893Y-102136107D01*
X71104429Y-101978354D01*
X71008231Y-101798381D01*
X70948990Y-101603089D01*
X70928988Y-101400000D01*
X70948990Y-101196911D01*
X71008231Y-101001619D01*
X71104429Y-100821646D01*
X71233893Y-100663893D01*
X71391646Y-100534429D01*
X71571619Y-100438231D01*
X71766911Y-100378990D01*
X71919109Y-100364000D01*
X75980891Y-100364000D01*
X76133089Y-100378990D01*
G37*
G36*
X52507985Y-98293860D02*
G01*
X52620748Y-98316290D01*
X52752741Y-98370963D01*
X52939408Y-98448283D01*
X53226196Y-98639909D01*
X53470091Y-98883804D01*
X53661717Y-99170592D01*
X53730275Y-99336107D01*
X53793710Y-99489252D01*
X53861000Y-99827542D01*
X53861000Y-100172458D01*
X53793710Y-100510748D01*
X53739037Y-100642741D01*
X53661717Y-100829408D01*
X53470091Y-101116196D01*
X53226196Y-101360091D01*
X52939408Y-101551717D01*
X52752741Y-101629037D01*
X52620748Y-101683710D01*
X52507985Y-101706140D01*
X52282460Y-101751000D01*
X51937540Y-101751000D01*
X51712015Y-101706140D01*
X51599252Y-101683710D01*
X51467259Y-101629037D01*
X51280592Y-101551717D01*
X50993804Y-101360091D01*
X50749909Y-101116196D01*
X50558283Y-100829408D01*
X50480963Y-100642741D01*
X50426290Y-100510748D01*
X50359000Y-100172458D01*
X50359000Y-99827542D01*
X50426290Y-99489252D01*
X50489725Y-99336107D01*
X50558283Y-99170592D01*
X50749909Y-98883804D01*
X50993804Y-98639909D01*
X51280592Y-98448283D01*
X51467259Y-98370963D01*
X51599252Y-98316290D01*
X51712015Y-98293860D01*
X51937540Y-98249000D01*
X52282460Y-98249000D01*
X52507985Y-98293860D01*
G37*
G36*
X123367985Y-98293860D02*
G01*
X123480748Y-98316290D01*
X123612741Y-98370963D01*
X123799408Y-98448283D01*
X124086196Y-98639909D01*
X124330091Y-98883804D01*
X124521717Y-99170592D01*
X124590275Y-99336107D01*
X124653710Y-99489252D01*
X124721000Y-99827542D01*
X124721000Y-100172458D01*
X124653710Y-100510748D01*
X124599037Y-100642741D01*
X124521717Y-100829408D01*
X124330091Y-101116196D01*
X124086196Y-101360091D01*
X123799408Y-101551717D01*
X123612741Y-101629037D01*
X123480748Y-101683710D01*
X123367985Y-101706140D01*
X123142460Y-101751000D01*
X122797540Y-101751000D01*
X122572015Y-101706140D01*
X122459252Y-101683710D01*
X122327259Y-101629037D01*
X122140592Y-101551717D01*
X121853804Y-101360091D01*
X121609909Y-101116196D01*
X121418283Y-100829408D01*
X121340963Y-100642741D01*
X121286290Y-100510748D01*
X121219000Y-100172458D01*
X121219000Y-99827542D01*
X121286290Y-99489252D01*
X121349725Y-99336107D01*
X121418283Y-99170592D01*
X121609909Y-98883804D01*
X121853804Y-98639909D01*
X122140592Y-98448283D01*
X122327259Y-98370963D01*
X122459252Y-98316290D01*
X122572015Y-98293860D01*
X122797540Y-98249000D01*
X123142460Y-98249000D01*
X123367985Y-98293860D01*
G37*
G36*
X38287985Y-98293860D02*
G01*
X38400748Y-98316290D01*
X38532741Y-98370963D01*
X38719408Y-98448283D01*
X39006196Y-98639909D01*
X39250091Y-98883804D01*
X39441717Y-99170592D01*
X39510275Y-99336107D01*
X39573710Y-99489252D01*
X39641000Y-99827542D01*
X39641000Y-100172458D01*
X39573710Y-100510748D01*
X39519037Y-100642741D01*
X39441717Y-100829408D01*
X39250091Y-101116196D01*
X39006196Y-101360091D01*
X38719408Y-101551717D01*
X38532741Y-101629037D01*
X38400748Y-101683710D01*
X38287985Y-101706140D01*
X38062460Y-101751000D01*
X37717540Y-101751000D01*
X37492015Y-101706140D01*
X37379252Y-101683710D01*
X37247259Y-101629037D01*
X37060592Y-101551717D01*
X36773804Y-101360091D01*
X36529909Y-101116196D01*
X36338283Y-100829408D01*
X36260963Y-100642741D01*
X36206290Y-100510748D01*
X36139000Y-100172458D01*
X36139000Y-99827542D01*
X36206290Y-99489252D01*
X36269725Y-99336107D01*
X36338283Y-99170592D01*
X36529909Y-98883804D01*
X36773804Y-98639909D01*
X37060592Y-98448283D01*
X37247259Y-98370963D01*
X37379252Y-98316290D01*
X37492015Y-98293860D01*
X37717540Y-98249000D01*
X38062460Y-98249000D01*
X38287985Y-98293860D01*
G37*
G36*
X47427985Y-98293860D02*
G01*
X47540748Y-98316290D01*
X47672741Y-98370963D01*
X47859408Y-98448283D01*
X48146196Y-98639909D01*
X48390091Y-98883804D01*
X48581717Y-99170592D01*
X48650275Y-99336107D01*
X48713710Y-99489252D01*
X48781000Y-99827542D01*
X48781000Y-100172458D01*
X48713710Y-100510748D01*
X48659037Y-100642741D01*
X48581717Y-100829408D01*
X48390091Y-101116196D01*
X48146196Y-101360091D01*
X47859408Y-101551717D01*
X47672741Y-101629037D01*
X47540748Y-101683710D01*
X47427985Y-101706140D01*
X47202460Y-101751000D01*
X46857540Y-101751000D01*
X46632015Y-101706140D01*
X46519252Y-101683710D01*
X46387259Y-101629037D01*
X46200592Y-101551717D01*
X45913804Y-101360091D01*
X45669909Y-101116196D01*
X45478283Y-100829408D01*
X45400963Y-100642741D01*
X45346290Y-100510748D01*
X45279000Y-100172458D01*
X45279000Y-99827542D01*
X45346290Y-99489252D01*
X45409725Y-99336107D01*
X45478283Y-99170592D01*
X45669909Y-98883804D01*
X45913804Y-98639909D01*
X46200592Y-98448283D01*
X46387259Y-98370963D01*
X46519252Y-98316290D01*
X46632015Y-98293860D01*
X46857540Y-98249000D01*
X47202460Y-98249000D01*
X47427985Y-98293860D01*
G37*
G36*
X43367985Y-98293860D02*
G01*
X43480748Y-98316290D01*
X43612741Y-98370963D01*
X43799408Y-98448283D01*
X44086196Y-98639909D01*
X44330091Y-98883804D01*
X44521717Y-99170592D01*
X44590275Y-99336107D01*
X44653710Y-99489252D01*
X44721000Y-99827542D01*
X44721000Y-100172458D01*
X44653710Y-100510748D01*
X44599037Y-100642741D01*
X44521717Y-100829408D01*
X44330091Y-101116196D01*
X44086196Y-101360091D01*
X43799408Y-101551717D01*
X43612741Y-101629037D01*
X43480748Y-101683710D01*
X43367985Y-101706140D01*
X43142460Y-101751000D01*
X42797540Y-101751000D01*
X42572015Y-101706140D01*
X42459252Y-101683710D01*
X42327259Y-101629037D01*
X42140592Y-101551717D01*
X41853804Y-101360091D01*
X41609909Y-101116196D01*
X41418283Y-100829408D01*
X41340963Y-100642741D01*
X41286290Y-100510748D01*
X41219000Y-100172458D01*
X41219000Y-99827542D01*
X41286290Y-99489252D01*
X41349725Y-99336107D01*
X41418283Y-99170592D01*
X41609909Y-98883804D01*
X41853804Y-98639909D01*
X42140592Y-98448283D01*
X42327259Y-98370963D01*
X42459252Y-98316290D01*
X42572015Y-98293860D01*
X42797540Y-98249000D01*
X43142460Y-98249000D01*
X43367985Y-98293860D01*
G37*
G36*
X118287985Y-98293860D02*
G01*
X118400748Y-98316290D01*
X118532741Y-98370963D01*
X118719408Y-98448283D01*
X119006196Y-98639909D01*
X119250091Y-98883804D01*
X119441717Y-99170592D01*
X119510275Y-99336107D01*
X119573710Y-99489252D01*
X119641000Y-99827542D01*
X119641000Y-100172458D01*
X119573710Y-100510748D01*
X119519037Y-100642741D01*
X119441717Y-100829408D01*
X119250091Y-101116196D01*
X119006196Y-101360091D01*
X118719408Y-101551717D01*
X118532741Y-101629037D01*
X118400748Y-101683710D01*
X118287985Y-101706140D01*
X118062460Y-101751000D01*
X117717540Y-101751000D01*
X117492015Y-101706140D01*
X117379252Y-101683710D01*
X117247259Y-101629037D01*
X117060592Y-101551717D01*
X116773804Y-101360091D01*
X116529909Y-101116196D01*
X116338283Y-100829408D01*
X116260963Y-100642741D01*
X116206290Y-100510748D01*
X116139000Y-100172458D01*
X116139000Y-99827542D01*
X116206290Y-99489252D01*
X116269725Y-99336107D01*
X116338283Y-99170592D01*
X116529909Y-98883804D01*
X116773804Y-98639909D01*
X117060592Y-98448283D01*
X117247259Y-98370963D01*
X117379252Y-98316290D01*
X117492015Y-98293860D01*
X117717540Y-98249000D01*
X118062460Y-98249000D01*
X118287985Y-98293860D01*
G37*
G36*
X132507985Y-98293860D02*
G01*
X132620748Y-98316290D01*
X132752741Y-98370963D01*
X132939408Y-98448283D01*
X133226196Y-98639909D01*
X133470091Y-98883804D01*
X133661717Y-99170592D01*
X133730275Y-99336107D01*
X133793710Y-99489252D01*
X133861000Y-99827542D01*
X133861000Y-100172458D01*
X133793710Y-100510748D01*
X133739037Y-100642741D01*
X133661717Y-100829408D01*
X133470091Y-101116196D01*
X133226196Y-101360091D01*
X132939408Y-101551717D01*
X132752741Y-101629037D01*
X132620748Y-101683710D01*
X132507985Y-101706140D01*
X132282460Y-101751000D01*
X131937540Y-101751000D01*
X131712015Y-101706140D01*
X131599252Y-101683710D01*
X131467259Y-101629037D01*
X131280592Y-101551717D01*
X130993804Y-101360091D01*
X130749909Y-101116196D01*
X130558283Y-100829408D01*
X130480963Y-100642741D01*
X130426290Y-100510748D01*
X130359000Y-100172458D01*
X130359000Y-99827542D01*
X130426290Y-99489252D01*
X130489725Y-99336107D01*
X130558283Y-99170592D01*
X130749909Y-98883804D01*
X130993804Y-98639909D01*
X131280592Y-98448283D01*
X131467259Y-98370963D01*
X131599252Y-98316290D01*
X131712015Y-98293860D01*
X131937540Y-98249000D01*
X132282460Y-98249000D01*
X132507985Y-98293860D01*
G37*
G36*
X127427985Y-98293860D02*
G01*
X127540748Y-98316290D01*
X127672741Y-98370963D01*
X127859408Y-98448283D01*
X128146196Y-98639909D01*
X128390091Y-98883804D01*
X128581717Y-99170592D01*
X128650275Y-99336107D01*
X128713710Y-99489252D01*
X128781000Y-99827542D01*
X128781000Y-100172458D01*
X128713710Y-100510748D01*
X128659037Y-100642741D01*
X128581717Y-100829408D01*
X128390091Y-101116196D01*
X128146196Y-101360091D01*
X127859408Y-101551717D01*
X127672741Y-101629037D01*
X127540748Y-101683710D01*
X127427985Y-101706140D01*
X127202460Y-101751000D01*
X126857540Y-101751000D01*
X126632015Y-101706140D01*
X126519252Y-101683710D01*
X126387259Y-101629037D01*
X126200592Y-101551717D01*
X125913804Y-101360091D01*
X125669909Y-101116196D01*
X125478283Y-100829408D01*
X125400963Y-100642741D01*
X125346290Y-100510748D01*
X125279000Y-100172458D01*
X125279000Y-99827542D01*
X125346290Y-99489252D01*
X125409725Y-99336107D01*
X125478283Y-99170592D01*
X125669909Y-98883804D01*
X125913804Y-98639909D01*
X126200592Y-98448283D01*
X126387259Y-98370963D01*
X126519252Y-98316290D01*
X126632015Y-98293860D01*
X126857540Y-98249000D01*
X127202460Y-98249000D01*
X127427985Y-98293860D01*
G37*
G36*
X98233089Y-97578990D02*
G01*
X98428381Y-97638231D01*
X98608354Y-97734429D01*
X98766107Y-97863893D01*
X98895571Y-98021646D01*
X98991769Y-98201619D01*
X99051010Y-98396911D01*
X99071012Y-98600000D01*
X99051010Y-98803089D01*
X98991769Y-98998381D01*
X98895571Y-99178354D01*
X98766107Y-99336107D01*
X98608354Y-99465571D01*
X98428381Y-99561769D01*
X98233089Y-99621010D01*
X98080891Y-99636000D01*
X94019109Y-99636000D01*
X93866911Y-99621010D01*
X93671619Y-99561769D01*
X93491646Y-99465571D01*
X93333893Y-99336107D01*
X93204429Y-99178354D01*
X93108231Y-98998381D01*
X93048990Y-98803089D01*
X93028988Y-98600000D01*
X93048990Y-98396911D01*
X93108231Y-98201619D01*
X93204429Y-98021646D01*
X93333893Y-97863893D01*
X93491646Y-97734429D01*
X93671619Y-97638231D01*
X93866911Y-97578990D01*
X94019109Y-97564000D01*
X98080891Y-97564000D01*
X98233089Y-97578990D01*
G37*
G36*
X106133089Y-97578990D02*
G01*
X106328381Y-97638231D01*
X106508354Y-97734429D01*
X106666107Y-97863893D01*
X106795571Y-98021646D01*
X106891769Y-98201619D01*
X106951010Y-98396911D01*
X106971012Y-98600000D01*
X106951010Y-98803089D01*
X106891769Y-98998381D01*
X106795571Y-99178354D01*
X106666107Y-99336107D01*
X106508354Y-99465571D01*
X106328381Y-99561769D01*
X106133089Y-99621010D01*
X105980891Y-99636000D01*
X101919109Y-99636000D01*
X101766911Y-99621010D01*
X101571619Y-99561769D01*
X101391646Y-99465571D01*
X101233893Y-99336107D01*
X101104429Y-99178354D01*
X101008231Y-98998381D01*
X100948990Y-98803089D01*
X100928988Y-98600000D01*
X100948990Y-98396911D01*
X101008231Y-98201619D01*
X101104429Y-98021646D01*
X101233893Y-97863893D01*
X101391646Y-97734429D01*
X101571619Y-97638231D01*
X101766911Y-97578990D01*
X101919109Y-97564000D01*
X105980891Y-97564000D01*
X106133089Y-97578990D01*
G37*
G36*
X76133089Y-75378990D02*
G01*
X76328381Y-75438231D01*
X76508354Y-75534429D01*
X76666107Y-75663893D01*
X76795571Y-75821646D01*
X76891769Y-76001619D01*
X76951010Y-76196911D01*
X76971012Y-76400000D01*
X76951010Y-76603089D01*
X76891769Y-76798381D01*
X76795571Y-76978354D01*
X76666107Y-77136107D01*
X76508354Y-77265571D01*
X76328381Y-77361769D01*
X76133089Y-77421010D01*
X75980891Y-77436000D01*
X71919109Y-77436000D01*
X71766911Y-77421010D01*
X71571619Y-77361769D01*
X71391646Y-77265571D01*
X71233893Y-77136107D01*
X71104429Y-76978354D01*
X71008231Y-76798381D01*
X70948990Y-76603089D01*
X70928988Y-76400000D01*
X70948990Y-76196911D01*
X71008231Y-76001619D01*
X71104429Y-75821646D01*
X71233893Y-75663893D01*
X71391646Y-75534429D01*
X71571619Y-75438231D01*
X71766911Y-75378990D01*
X71919109Y-75364000D01*
X75980891Y-75364000D01*
X76133089Y-75378990D01*
G37*
G36*
X68233089Y-75378990D02*
G01*
X68428381Y-75438231D01*
X68608354Y-75534429D01*
X68766107Y-75663893D01*
X68895571Y-75821646D01*
X68991769Y-76001619D01*
X69051010Y-76196911D01*
X69071012Y-76400000D01*
X69051010Y-76603089D01*
X68991769Y-76798381D01*
X68895571Y-76978354D01*
X68766107Y-77136107D01*
X68608354Y-77265571D01*
X68428381Y-77361769D01*
X68233089Y-77421010D01*
X68080891Y-77436000D01*
X64019109Y-77436000D01*
X63866911Y-77421010D01*
X63671619Y-77361769D01*
X63491646Y-77265571D01*
X63333893Y-77136107D01*
X63204429Y-76978354D01*
X63108231Y-76798381D01*
X63048990Y-76603089D01*
X63028988Y-76400000D01*
X63048990Y-76196911D01*
X63108231Y-76001619D01*
X63204429Y-75821646D01*
X63333893Y-75663893D01*
X63491646Y-75534429D01*
X63671619Y-75438231D01*
X63866911Y-75378990D01*
X64019109Y-75364000D01*
X68080891Y-75364000D01*
X68233089Y-75378990D01*
G37*
G36*
X43367985Y-73293860D02*
G01*
X43480748Y-73316290D01*
X43612741Y-73370963D01*
X43799408Y-73448283D01*
X44086196Y-73639909D01*
X44330091Y-73883804D01*
X44521717Y-74170592D01*
X44590275Y-74336107D01*
X44653710Y-74489252D01*
X44721000Y-74827542D01*
X44721000Y-75172458D01*
X44653710Y-75510748D01*
X44599037Y-75642741D01*
X44521717Y-75829408D01*
X44330091Y-76116196D01*
X44086196Y-76360091D01*
X43799408Y-76551717D01*
X43612741Y-76629037D01*
X43480748Y-76683710D01*
X43367985Y-76706140D01*
X43142460Y-76751000D01*
X42797540Y-76751000D01*
X42572015Y-76706140D01*
X42459252Y-76683710D01*
X42327259Y-76629037D01*
X42140592Y-76551717D01*
X41853804Y-76360091D01*
X41609909Y-76116196D01*
X41418283Y-75829408D01*
X41340963Y-75642741D01*
X41286290Y-75510748D01*
X41219000Y-75172458D01*
X41219000Y-74827542D01*
X41286290Y-74489252D01*
X41349725Y-74336107D01*
X41418283Y-74170592D01*
X41609909Y-73883804D01*
X41853804Y-73639909D01*
X42140592Y-73448283D01*
X42327259Y-73370963D01*
X42459252Y-73316290D01*
X42572015Y-73293860D01*
X42797540Y-73249000D01*
X43142460Y-73249000D01*
X43367985Y-73293860D01*
G37*
G36*
X52507985Y-73293860D02*
G01*
X52620748Y-73316290D01*
X52752741Y-73370963D01*
X52939408Y-73448283D01*
X53226196Y-73639909D01*
X53470091Y-73883804D01*
X53661717Y-74170592D01*
X53730275Y-74336107D01*
X53793710Y-74489252D01*
X53861000Y-74827542D01*
X53861000Y-75172458D01*
X53793710Y-75510748D01*
X53739037Y-75642741D01*
X53661717Y-75829408D01*
X53470091Y-76116196D01*
X53226196Y-76360091D01*
X52939408Y-76551717D01*
X52752741Y-76629037D01*
X52620748Y-76683710D01*
X52507985Y-76706140D01*
X52282460Y-76751000D01*
X51937540Y-76751000D01*
X51712015Y-76706140D01*
X51599252Y-76683710D01*
X51467259Y-76629037D01*
X51280592Y-76551717D01*
X50993804Y-76360091D01*
X50749909Y-76116196D01*
X50558283Y-75829408D01*
X50480963Y-75642741D01*
X50426290Y-75510748D01*
X50359000Y-75172458D01*
X50359000Y-74827542D01*
X50426290Y-74489252D01*
X50489725Y-74336107D01*
X50558283Y-74170592D01*
X50749909Y-73883804D01*
X50993804Y-73639909D01*
X51280592Y-73448283D01*
X51467259Y-73370963D01*
X51599252Y-73316290D01*
X51712015Y-73293860D01*
X51937540Y-73249000D01*
X52282460Y-73249000D01*
X52507985Y-73293860D01*
G37*
G36*
X47427985Y-73293860D02*
G01*
X47540748Y-73316290D01*
X47672741Y-73370963D01*
X47859408Y-73448283D01*
X48146196Y-73639909D01*
X48390091Y-73883804D01*
X48581717Y-74170592D01*
X48650275Y-74336107D01*
X48713710Y-74489252D01*
X48781000Y-74827542D01*
X48781000Y-75172458D01*
X48713710Y-75510748D01*
X48659037Y-75642741D01*
X48581717Y-75829408D01*
X48390091Y-76116196D01*
X48146196Y-76360091D01*
X47859408Y-76551717D01*
X47672741Y-76629037D01*
X47540748Y-76683710D01*
X47427985Y-76706140D01*
X47202460Y-76751000D01*
X46857540Y-76751000D01*
X46632015Y-76706140D01*
X46519252Y-76683710D01*
X46387259Y-76629037D01*
X46200592Y-76551717D01*
X45913804Y-76360091D01*
X45669909Y-76116196D01*
X45478283Y-75829408D01*
X45400963Y-75642741D01*
X45346290Y-75510748D01*
X45279000Y-75172458D01*
X45279000Y-74827542D01*
X45346290Y-74489252D01*
X45409725Y-74336107D01*
X45478283Y-74170592D01*
X45669909Y-73883804D01*
X45913804Y-73639909D01*
X46200592Y-73448283D01*
X46387259Y-73370963D01*
X46519252Y-73316290D01*
X46632015Y-73293860D01*
X46857540Y-73249000D01*
X47202460Y-73249000D01*
X47427985Y-73293860D01*
G37*
G36*
X118287985Y-73293860D02*
G01*
X118400748Y-73316290D01*
X118532741Y-73370963D01*
X118719408Y-73448283D01*
X119006196Y-73639909D01*
X119250091Y-73883804D01*
X119441717Y-74170592D01*
X119510275Y-74336107D01*
X119573710Y-74489252D01*
X119641000Y-74827542D01*
X119641000Y-75172458D01*
X119573710Y-75510748D01*
X119519037Y-75642741D01*
X119441717Y-75829408D01*
X119250091Y-76116196D01*
X119006196Y-76360091D01*
X118719408Y-76551717D01*
X118532741Y-76629037D01*
X118400748Y-76683710D01*
X118287985Y-76706140D01*
X118062460Y-76751000D01*
X117717540Y-76751000D01*
X117492015Y-76706140D01*
X117379252Y-76683710D01*
X117247259Y-76629037D01*
X117060592Y-76551717D01*
X116773804Y-76360091D01*
X116529909Y-76116196D01*
X116338283Y-75829408D01*
X116260963Y-75642741D01*
X116206290Y-75510748D01*
X116139000Y-75172458D01*
X116139000Y-74827542D01*
X116206290Y-74489252D01*
X116269725Y-74336107D01*
X116338283Y-74170592D01*
X116529909Y-73883804D01*
X116773804Y-73639909D01*
X117060592Y-73448283D01*
X117247259Y-73370963D01*
X117379252Y-73316290D01*
X117492015Y-73293860D01*
X117717540Y-73249000D01*
X118062460Y-73249000D01*
X118287985Y-73293860D01*
G37*
G36*
X123367985Y-73293860D02*
G01*
X123480748Y-73316290D01*
X123612741Y-73370963D01*
X123799408Y-73448283D01*
X124086196Y-73639909D01*
X124330091Y-73883804D01*
X124521717Y-74170592D01*
X124590275Y-74336107D01*
X124653710Y-74489252D01*
X124721000Y-74827542D01*
X124721000Y-75172458D01*
X124653710Y-75510748D01*
X124599037Y-75642741D01*
X124521717Y-75829408D01*
X124330091Y-76116196D01*
X124086196Y-76360091D01*
X123799408Y-76551717D01*
X123612741Y-76629037D01*
X123480748Y-76683710D01*
X123367985Y-76706140D01*
X123142460Y-76751000D01*
X122797540Y-76751000D01*
X122572015Y-76706140D01*
X122459252Y-76683710D01*
X122327259Y-76629037D01*
X122140592Y-76551717D01*
X121853804Y-76360091D01*
X121609909Y-76116196D01*
X121418283Y-75829408D01*
X121340963Y-75642741D01*
X121286290Y-75510748D01*
X121219000Y-75172458D01*
X121219000Y-74827542D01*
X121286290Y-74489252D01*
X121349725Y-74336107D01*
X121418283Y-74170592D01*
X121609909Y-73883804D01*
X121853804Y-73639909D01*
X122140592Y-73448283D01*
X122327259Y-73370963D01*
X122459252Y-73316290D01*
X122572015Y-73293860D01*
X122797540Y-73249000D01*
X123142460Y-73249000D01*
X123367985Y-73293860D01*
G37*
G36*
X127427985Y-73293860D02*
G01*
X127540748Y-73316290D01*
X127672741Y-73370963D01*
X127859408Y-73448283D01*
X128146196Y-73639909D01*
X128390091Y-73883804D01*
X128581717Y-74170592D01*
X128650275Y-74336107D01*
X128713710Y-74489252D01*
X128781000Y-74827542D01*
X128781000Y-75172458D01*
X128713710Y-75510748D01*
X128659037Y-75642741D01*
X128581717Y-75829408D01*
X128390091Y-76116196D01*
X128146196Y-76360091D01*
X127859408Y-76551717D01*
X127672741Y-76629037D01*
X127540748Y-76683710D01*
X127427985Y-76706140D01*
X127202460Y-76751000D01*
X126857540Y-76751000D01*
X126632015Y-76706140D01*
X126519252Y-76683710D01*
X126387259Y-76629037D01*
X126200592Y-76551717D01*
X125913804Y-76360091D01*
X125669909Y-76116196D01*
X125478283Y-75829408D01*
X125400963Y-75642741D01*
X125346290Y-75510748D01*
X125279000Y-75172458D01*
X125279000Y-74827542D01*
X125346290Y-74489252D01*
X125409725Y-74336107D01*
X125478283Y-74170592D01*
X125669909Y-73883804D01*
X125913804Y-73639909D01*
X126200592Y-73448283D01*
X126387259Y-73370963D01*
X126519252Y-73316290D01*
X126632015Y-73293860D01*
X126857540Y-73249000D01*
X127202460Y-73249000D01*
X127427985Y-73293860D01*
G37*
G36*
X132507985Y-73293860D02*
G01*
X132620748Y-73316290D01*
X132752741Y-73370963D01*
X132939408Y-73448283D01*
X133226196Y-73639909D01*
X133470091Y-73883804D01*
X133661717Y-74170592D01*
X133730275Y-74336107D01*
X133793710Y-74489252D01*
X133861000Y-74827542D01*
X133861000Y-75172458D01*
X133793710Y-75510748D01*
X133739037Y-75642741D01*
X133661717Y-75829408D01*
X133470091Y-76116196D01*
X133226196Y-76360091D01*
X132939408Y-76551717D01*
X132752741Y-76629037D01*
X132620748Y-76683710D01*
X132507985Y-76706140D01*
X132282460Y-76751000D01*
X131937540Y-76751000D01*
X131712015Y-76706140D01*
X131599252Y-76683710D01*
X131467259Y-76629037D01*
X131280592Y-76551717D01*
X130993804Y-76360091D01*
X130749909Y-76116196D01*
X130558283Y-75829408D01*
X130480963Y-75642741D01*
X130426290Y-75510748D01*
X130359000Y-75172458D01*
X130359000Y-74827542D01*
X130426290Y-74489252D01*
X130489725Y-74336107D01*
X130558283Y-74170592D01*
X130749909Y-73883804D01*
X130993804Y-73639909D01*
X131280592Y-73448283D01*
X131467259Y-73370963D01*
X131599252Y-73316290D01*
X131712015Y-73293860D01*
X131937540Y-73249000D01*
X132282460Y-73249000D01*
X132507985Y-73293860D01*
G37*
G36*
X38287985Y-73293860D02*
G01*
X38400748Y-73316290D01*
X38532741Y-73370963D01*
X38719408Y-73448283D01*
X39006196Y-73639909D01*
X39250091Y-73883804D01*
X39441717Y-74170592D01*
X39510275Y-74336107D01*
X39573710Y-74489252D01*
X39641000Y-74827542D01*
X39641000Y-75172458D01*
X39573710Y-75510748D01*
X39519037Y-75642741D01*
X39441717Y-75829408D01*
X39250091Y-76116196D01*
X39006196Y-76360091D01*
X38719408Y-76551717D01*
X38532741Y-76629037D01*
X38400748Y-76683710D01*
X38287985Y-76706140D01*
X38062460Y-76751000D01*
X37717540Y-76751000D01*
X37492015Y-76706140D01*
X37379252Y-76683710D01*
X37247259Y-76629037D01*
X37060592Y-76551717D01*
X36773804Y-76360091D01*
X36529909Y-76116196D01*
X36338283Y-75829408D01*
X36260963Y-75642741D01*
X36206290Y-75510748D01*
X36139000Y-75172458D01*
X36139000Y-74827542D01*
X36206290Y-74489252D01*
X36269725Y-74336107D01*
X36338283Y-74170592D01*
X36529909Y-73883804D01*
X36773804Y-73639909D01*
X37060592Y-73448283D01*
X37247259Y-73370963D01*
X37379252Y-73316290D01*
X37492015Y-73293860D01*
X37717540Y-73249000D01*
X38062460Y-73249000D01*
X38287985Y-73293860D01*
G37*
G36*
X106133089Y-72578990D02*
G01*
X106328381Y-72638231D01*
X106508354Y-72734429D01*
X106666107Y-72863893D01*
X106795571Y-73021646D01*
X106891769Y-73201619D01*
X106951010Y-73396911D01*
X106971012Y-73600000D01*
X106951010Y-73803089D01*
X106891769Y-73998381D01*
X106795571Y-74178354D01*
X106666107Y-74336107D01*
X106508354Y-74465571D01*
X106328381Y-74561769D01*
X106133089Y-74621010D01*
X105980891Y-74636000D01*
X101919109Y-74636000D01*
X101766911Y-74621010D01*
X101571619Y-74561769D01*
X101391646Y-74465571D01*
X101233893Y-74336107D01*
X101104429Y-74178354D01*
X101008231Y-73998381D01*
X100948990Y-73803089D01*
X100928988Y-73600000D01*
X100948990Y-73396911D01*
X101008231Y-73201619D01*
X101104429Y-73021646D01*
X101233893Y-72863893D01*
X101391646Y-72734429D01*
X101571619Y-72638231D01*
X101766911Y-72578990D01*
X101919109Y-72564000D01*
X105980891Y-72564000D01*
X106133089Y-72578990D01*
G37*
G36*
X98233089Y-72578990D02*
G01*
X98428381Y-72638231D01*
X98608354Y-72734429D01*
X98766107Y-72863893D01*
X98895571Y-73021646D01*
X98991769Y-73201619D01*
X99051010Y-73396911D01*
X99071012Y-73600000D01*
X99051010Y-73803089D01*
X98991769Y-73998381D01*
X98895571Y-74178354D01*
X98766107Y-74336107D01*
X98608354Y-74465571D01*
X98428381Y-74561769D01*
X98233089Y-74621010D01*
X98080891Y-74636000D01*
X94019109Y-74636000D01*
X93866911Y-74621010D01*
X93671619Y-74561769D01*
X93491646Y-74465571D01*
X93333893Y-74336107D01*
X93204429Y-74178354D01*
X93108231Y-73998381D01*
X93048990Y-73803089D01*
X93028988Y-73600000D01*
X93048990Y-73396911D01*
X93108231Y-73201619D01*
X93204429Y-73021646D01*
X93333893Y-72863893D01*
X93491646Y-72734429D01*
X93671619Y-72638231D01*
X93866911Y-72578990D01*
X94019109Y-72564000D01*
X98080891Y-72564000D01*
X98233089Y-72578990D01*
G37*
G36*
X91133089Y-59478990D02*
G01*
X91328381Y-59538231D01*
X91508354Y-59634429D01*
X91666107Y-59763893D01*
X91795571Y-59921646D01*
X91891769Y-60101619D01*
X91951010Y-60296911D01*
X91971012Y-60500000D01*
X91951010Y-60703089D01*
X91891769Y-60898381D01*
X91795571Y-61078354D01*
X91666107Y-61236107D01*
X91508354Y-61365571D01*
X91328381Y-61461769D01*
X91133089Y-61521010D01*
X90980891Y-61536000D01*
X86919109Y-61536000D01*
X86766911Y-61521010D01*
X86571619Y-61461769D01*
X86391646Y-61365571D01*
X86233893Y-61236107D01*
X86104429Y-61078354D01*
X86008231Y-60898381D01*
X85948990Y-60703089D01*
X85928988Y-60500000D01*
X85948990Y-60296911D01*
X86008231Y-60101619D01*
X86104429Y-59921646D01*
X86233893Y-59763893D01*
X86391646Y-59634429D01*
X86571619Y-59538231D01*
X86766911Y-59478990D01*
X86919109Y-59464000D01*
X90980891Y-59464000D01*
X91133089Y-59478990D01*
G37*
G36*
X83233089Y-59478990D02*
G01*
X83428381Y-59538231D01*
X83608354Y-59634429D01*
X83766107Y-59763893D01*
X83895571Y-59921646D01*
X83991769Y-60101619D01*
X84051010Y-60296911D01*
X84071012Y-60500000D01*
X84051010Y-60703089D01*
X83991769Y-60898381D01*
X83895571Y-61078354D01*
X83766107Y-61236107D01*
X83608354Y-61365571D01*
X83428381Y-61461769D01*
X83233089Y-61521010D01*
X83080891Y-61536000D01*
X79019109Y-61536000D01*
X78866911Y-61521010D01*
X78671619Y-61461769D01*
X78491646Y-61365571D01*
X78333893Y-61236107D01*
X78204429Y-61078354D01*
X78108231Y-60898381D01*
X78048990Y-60703089D01*
X78028988Y-60500000D01*
X78048990Y-60296911D01*
X78108231Y-60101619D01*
X78204429Y-59921646D01*
X78333893Y-59763893D01*
X78491646Y-59634429D01*
X78671619Y-59538231D01*
X78866911Y-59478990D01*
X79019109Y-59464000D01*
X83080891Y-59464000D01*
X83233089Y-59478990D01*
G37*
G36*
X60367985Y-53293860D02*
G01*
X60480748Y-53316290D01*
X60612741Y-53370963D01*
X60799408Y-53448283D01*
X61086196Y-53639909D01*
X61330091Y-53883804D01*
X61521717Y-54170592D01*
X61653710Y-54489253D01*
X61721000Y-54827540D01*
X61721000Y-55172460D01*
X61653710Y-55510747D01*
X61521717Y-55829408D01*
X61330091Y-56116196D01*
X61086196Y-56360091D01*
X60799408Y-56551717D01*
X60612741Y-56629037D01*
X60480748Y-56683710D01*
X60367985Y-56706140D01*
X60142460Y-56751000D01*
X59797540Y-56751000D01*
X59572015Y-56706140D01*
X59459252Y-56683710D01*
X59327259Y-56629037D01*
X59140592Y-56551717D01*
X58853804Y-56360091D01*
X58609909Y-56116196D01*
X58418283Y-55829408D01*
X58286290Y-55510747D01*
X58219000Y-55172460D01*
X58219000Y-54827540D01*
X58286290Y-54489253D01*
X58418283Y-54170592D01*
X58609909Y-53883804D01*
X58853804Y-53639909D01*
X59140592Y-53448283D01*
X59327259Y-53370963D01*
X59459252Y-53316290D01*
X59572015Y-53293860D01*
X59797540Y-53249000D01*
X60142460Y-53249000D01*
X60367985Y-53293860D01*
G37*
G36*
X69507985Y-53293860D02*
G01*
X69620748Y-53316290D01*
X69752741Y-53370963D01*
X69939408Y-53448283D01*
X70226196Y-53639909D01*
X70470091Y-53883804D01*
X70661717Y-54170592D01*
X70793710Y-54489253D01*
X70861000Y-54827540D01*
X70861000Y-55172460D01*
X70793710Y-55510747D01*
X70661717Y-55829408D01*
X70470091Y-56116196D01*
X70226196Y-56360091D01*
X69939408Y-56551717D01*
X69752741Y-56629037D01*
X69620748Y-56683710D01*
X69507985Y-56706140D01*
X69282460Y-56751000D01*
X68937540Y-56751000D01*
X68712015Y-56706140D01*
X68599252Y-56683710D01*
X68467259Y-56629037D01*
X68280592Y-56551717D01*
X67993804Y-56360091D01*
X67749909Y-56116196D01*
X67558283Y-55829408D01*
X67426290Y-55510747D01*
X67359000Y-55172460D01*
X67359000Y-54827540D01*
X67426290Y-54489253D01*
X67558283Y-54170592D01*
X67749909Y-53883804D01*
X67993804Y-53639909D01*
X68280592Y-53448283D01*
X68467259Y-53370963D01*
X68599252Y-53316290D01*
X68712015Y-53293860D01*
X68937540Y-53249000D01*
X69282460Y-53249000D01*
X69507985Y-53293860D01*
G37*
G36*
X55287985Y-53293860D02*
G01*
X55400748Y-53316290D01*
X55532741Y-53370963D01*
X55719408Y-53448283D01*
X56006196Y-53639909D01*
X56250091Y-53883804D01*
X56441717Y-54170592D01*
X56573710Y-54489253D01*
X56641000Y-54827540D01*
X56641000Y-55172460D01*
X56573710Y-55510747D01*
X56441717Y-55829408D01*
X56250091Y-56116196D01*
X56006196Y-56360091D01*
X55719408Y-56551717D01*
X55532741Y-56629037D01*
X55400748Y-56683710D01*
X55287985Y-56706140D01*
X55062460Y-56751000D01*
X54717540Y-56751000D01*
X54492015Y-56706140D01*
X54379252Y-56683710D01*
X54247259Y-56629037D01*
X54060592Y-56551717D01*
X53773804Y-56360091D01*
X53529909Y-56116196D01*
X53338283Y-55829408D01*
X53206290Y-55510747D01*
X53139000Y-55172460D01*
X53139000Y-54827540D01*
X53206290Y-54489253D01*
X53338283Y-54170592D01*
X53529909Y-53883804D01*
X53773804Y-53639909D01*
X54060592Y-53448283D01*
X54247259Y-53370963D01*
X54379252Y-53316290D01*
X54492015Y-53293860D01*
X54717540Y-53249000D01*
X55062460Y-53249000D01*
X55287985Y-53293860D01*
G37*
G36*
X64427985Y-53293860D02*
G01*
X64540748Y-53316290D01*
X64672741Y-53370963D01*
X64859408Y-53448283D01*
X65146196Y-53639909D01*
X65390091Y-53883804D01*
X65581717Y-54170592D01*
X65713710Y-54489253D01*
X65781000Y-54827540D01*
X65781000Y-55172460D01*
X65713710Y-55510747D01*
X65581717Y-55829408D01*
X65390091Y-56116196D01*
X65146196Y-56360091D01*
X64859408Y-56551717D01*
X64672741Y-56629037D01*
X64540748Y-56683710D01*
X64427985Y-56706140D01*
X64202460Y-56751000D01*
X63857540Y-56751000D01*
X63632015Y-56706140D01*
X63519252Y-56683710D01*
X63387259Y-56629037D01*
X63200592Y-56551717D01*
X62913804Y-56360091D01*
X62669909Y-56116196D01*
X62478283Y-55829408D01*
X62346290Y-55510747D01*
X62279000Y-55172460D01*
X62279000Y-54827540D01*
X62346290Y-54489253D01*
X62478283Y-54170592D01*
X62669909Y-53883804D01*
X62913804Y-53639909D01*
X63200592Y-53448283D01*
X63387259Y-53370963D01*
X63519252Y-53316290D01*
X63632015Y-53293860D01*
X63857540Y-53249000D01*
X64202460Y-53249000D01*
X64427985Y-53293860D01*
G37*
G36*
X132517184Y-43399938D02*
G01*
X132773268Y-43450876D01*
X132973105Y-43533651D01*
X133255718Y-43650713D01*
X133255719Y-43650714D01*
X133689914Y-43940834D01*
X134059166Y-44310086D01*
X134059167Y-44310088D01*
X134349287Y-44744282D01*
X134549124Y-45226733D01*
X134651000Y-45738898D01*
X134651000Y-46261102D01*
X134549124Y-46773267D01*
X134349287Y-47255718D01*
X134349286Y-47255719D01*
X134059166Y-47689914D01*
X133689914Y-48059166D01*
X133471341Y-48205212D01*
X133255718Y-48349287D01*
X132973105Y-48466349D01*
X132773268Y-48549124D01*
X132517184Y-48600062D01*
X132261102Y-48651000D01*
X131738898Y-48651000D01*
X131482816Y-48600062D01*
X131226732Y-48549124D01*
X131026895Y-48466349D01*
X130744282Y-48349287D01*
X130528659Y-48205212D01*
X130310086Y-48059166D01*
X129940834Y-47689914D01*
X129650714Y-47255719D01*
X129650713Y-47255718D01*
X129450876Y-46773267D01*
X129349000Y-46261102D01*
X129349000Y-45738898D01*
X129450876Y-45226733D01*
X129650713Y-44744282D01*
X129940833Y-44310088D01*
X129940834Y-44310086D01*
X130310086Y-43940834D01*
X130744281Y-43650714D01*
X130744282Y-43650713D01*
X131026895Y-43533651D01*
X131226732Y-43450876D01*
X131482816Y-43399938D01*
X131738898Y-43349000D01*
X132261102Y-43349000D01*
X132517184Y-43399938D01*
G37*
G36*
X38517184Y-43399938D02*
G01*
X38773268Y-43450876D01*
X38973105Y-43533651D01*
X39255718Y-43650713D01*
X39255719Y-43650714D01*
X39689914Y-43940834D01*
X40059166Y-44310086D01*
X40059167Y-44310088D01*
X40349287Y-44744282D01*
X40549124Y-45226733D01*
X40651000Y-45738898D01*
X40651000Y-46261102D01*
X40549124Y-46773267D01*
X40349287Y-47255718D01*
X40349286Y-47255719D01*
X40059166Y-47689914D01*
X39689914Y-48059166D01*
X39471341Y-48205212D01*
X39255718Y-48349287D01*
X38973105Y-48466349D01*
X38773268Y-48549124D01*
X38517184Y-48600062D01*
X38261102Y-48651000D01*
X37738898Y-48651000D01*
X37482816Y-48600062D01*
X37226732Y-48549124D01*
X37026895Y-48466349D01*
X36744282Y-48349287D01*
X36528659Y-48205212D01*
X36310086Y-48059166D01*
X35940834Y-47689914D01*
X35650714Y-47255719D01*
X35650713Y-47255718D01*
X35450876Y-46773267D01*
X35349000Y-46261102D01*
X35349000Y-45738898D01*
X35450876Y-45226733D01*
X35650713Y-44744282D01*
X35940833Y-44310088D01*
X35940834Y-44310086D01*
X36310086Y-43940834D01*
X36744281Y-43650714D01*
X36744282Y-43650713D01*
X37026895Y-43533651D01*
X37226732Y-43450876D01*
X37482816Y-43399938D01*
X37738898Y-43349000D01*
X38261102Y-43349000D01*
X38517184Y-43399938D01*
G37*
M02*
