G04 #@! TF.GenerationSoftware,KiCad,Pcbnew,5.1.5-52549c5~84~ubuntu18.04.1*
G04 #@! TF.CreationDate,2020-02-28T09:17:44-07:00*
G04 #@! TF.ProjectId,fuse-board-large,66757365-2d62-46f6-9172-642d6c617267,rev?*
G04 #@! TF.SameCoordinates,Original*
G04 #@! TF.FileFunction,Copper,L1,Top*
G04 #@! TF.FilePolarity,Positive*
%FSLAX46Y46*%
G04 Gerber Fmt 4.6, Leading zero omitted, Abs format (unit mm)*
G04 Created by KiCad (PCBNEW 5.1.5-52549c5~84~ubuntu18.04.1) date 2020-02-28 09:17:44*
%MOMM*%
%LPD*%
G04 APERTURE LIST*
%ADD10O,5.930000X1.970000*%
%ADD11C,0.600000*%
%ADD12C,5.200000*%
%ADD13C,3.400000*%
%ADD14C,0.254000*%
G04 APERTURE END LIST*
D10*
X88950000Y-60500000D03*
X81050000Y-60500000D03*
X73950000Y-76400000D03*
X66050000Y-76400000D03*
X73950000Y-101400000D03*
X66050000Y-101400000D03*
X73950000Y-151400000D03*
X66050000Y-151400000D03*
X96050000Y-98600000D03*
X103950000Y-98600000D03*
X73950000Y-126400000D03*
X66050000Y-126400000D03*
X73950000Y-176400000D03*
X66050000Y-176400000D03*
X96050000Y-123600000D03*
X103950000Y-123600000D03*
X96050000Y-73600000D03*
X103950000Y-73600000D03*
X96050000Y-148600000D03*
X103950000Y-148600000D03*
X96050000Y-173600000D03*
X103950000Y-173600000D03*
D11*
X40650000Y-188650000D03*
X35350000Y-188650000D03*
X40650000Y-183350000D03*
X35350000Y-183350000D03*
X34250000Y-186000000D03*
X41750000Y-186000000D03*
X38000000Y-189750000D03*
X38000000Y-182250000D03*
D12*
X38000000Y-186000000D03*
D11*
X134650000Y-188650000D03*
X129350000Y-188650000D03*
X134650000Y-183350000D03*
X129350000Y-183350000D03*
X128250000Y-186000000D03*
X135750000Y-186000000D03*
X132000000Y-189750000D03*
X132000000Y-182250000D03*
D12*
X132000000Y-186000000D03*
D11*
X134650000Y-48650000D03*
X129350000Y-48650000D03*
X134650000Y-43350000D03*
X129350000Y-43350000D03*
X128250000Y-46000000D03*
X135750000Y-46000000D03*
X132000000Y-49750000D03*
X132000000Y-42250000D03*
D12*
X132000000Y-46000000D03*
D11*
X40650000Y-48650000D03*
X35350000Y-48650000D03*
X40650000Y-43350000D03*
X35350000Y-43350000D03*
X34250000Y-46000000D03*
X41750000Y-46000000D03*
X38000000Y-49750000D03*
X38000000Y-42250000D03*
D12*
X38000000Y-46000000D03*
D13*
X52110000Y-75000000D03*
X37890000Y-75000000D03*
X47030000Y-75000000D03*
X42970000Y-75000000D03*
X52110000Y-100000000D03*
X37890000Y-100000000D03*
X47030000Y-100000000D03*
X42970000Y-100000000D03*
X52110000Y-150000000D03*
X37890000Y-150000000D03*
X47030000Y-150000000D03*
X42970000Y-150000000D03*
X117890000Y-100000000D03*
X132110000Y-100000000D03*
X122970000Y-100000000D03*
X127030000Y-100000000D03*
X52110000Y-125000000D03*
X37890000Y-125000000D03*
X47030000Y-125000000D03*
X42970000Y-125000000D03*
X52110000Y-175000000D03*
X37890000Y-175000000D03*
X47030000Y-175000000D03*
X42970000Y-175000000D03*
X69110000Y-55000000D03*
X54890000Y-55000000D03*
X64030000Y-55000000D03*
X59970000Y-55000000D03*
X117890000Y-125000000D03*
X132110000Y-125000000D03*
X122970000Y-125000000D03*
X127030000Y-125000000D03*
X117890000Y-75000000D03*
X132110000Y-75000000D03*
X122970000Y-75000000D03*
X127030000Y-75000000D03*
X117890000Y-150000000D03*
X132110000Y-150000000D03*
X122970000Y-150000000D03*
X127030000Y-150000000D03*
X117890000Y-175000000D03*
X132110000Y-175000000D03*
X122970000Y-175000000D03*
X127030000Y-175000000D03*
D14*
G36*
X99373000Y-72698694D02*
G01*
X99265316Y-72544290D01*
X99035621Y-72323577D01*
X98767280Y-72151916D01*
X98470606Y-72035904D01*
X98157000Y-71980000D01*
X96177000Y-71980000D01*
X96177000Y-73473000D01*
X96197000Y-73473000D01*
X96197000Y-73727000D01*
X96177000Y-73727000D01*
X96177000Y-75220000D01*
X98157000Y-75220000D01*
X98470606Y-75164096D01*
X98767280Y-75048084D01*
X99035621Y-74876423D01*
X99265316Y-74655710D01*
X99373000Y-74501306D01*
X99373000Y-97698694D01*
X99265316Y-97544290D01*
X99035621Y-97323577D01*
X98767280Y-97151916D01*
X98470606Y-97035904D01*
X98157000Y-96980000D01*
X96177000Y-96980000D01*
X96177000Y-98473000D01*
X96197000Y-98473000D01*
X96197000Y-98727000D01*
X96177000Y-98727000D01*
X96177000Y-100220000D01*
X98157000Y-100220000D01*
X98470606Y-100164096D01*
X98767280Y-100048084D01*
X99035621Y-99876423D01*
X99265316Y-99655710D01*
X99373000Y-99501306D01*
X99373000Y-122698694D01*
X99265316Y-122544290D01*
X99035621Y-122323577D01*
X98767280Y-122151916D01*
X98470606Y-122035904D01*
X98157000Y-121980000D01*
X96177000Y-121980000D01*
X96177000Y-123473000D01*
X96197000Y-123473000D01*
X96197000Y-123727000D01*
X96177000Y-123727000D01*
X96177000Y-125220000D01*
X98157000Y-125220000D01*
X98470606Y-125164096D01*
X98767280Y-125048084D01*
X99035621Y-124876423D01*
X99265316Y-124655710D01*
X99373000Y-124501306D01*
X99373000Y-147698694D01*
X99265316Y-147544290D01*
X99035621Y-147323577D01*
X98767280Y-147151916D01*
X98470606Y-147035904D01*
X98157000Y-146980000D01*
X96177000Y-146980000D01*
X96177000Y-148473000D01*
X96197000Y-148473000D01*
X96197000Y-148727000D01*
X96177000Y-148727000D01*
X96177000Y-150220000D01*
X98157000Y-150220000D01*
X98470606Y-150164096D01*
X98767280Y-150048084D01*
X99035621Y-149876423D01*
X99265316Y-149655710D01*
X99373000Y-149501306D01*
X99373000Y-172698694D01*
X99265316Y-172544290D01*
X99035621Y-172323577D01*
X98767280Y-172151916D01*
X98470606Y-172035904D01*
X98157000Y-171980000D01*
X96177000Y-171980000D01*
X96177000Y-173473000D01*
X96197000Y-173473000D01*
X96197000Y-173727000D01*
X96177000Y-173727000D01*
X96177000Y-175220000D01*
X98157000Y-175220000D01*
X98470606Y-175164096D01*
X98767280Y-175048084D01*
X99035621Y-174876423D01*
X99265316Y-174655710D01*
X99373000Y-174501306D01*
X99373000Y-178873000D01*
X70627000Y-178873000D01*
X70627000Y-177301306D01*
X70734684Y-177455710D01*
X70964379Y-177676423D01*
X71232720Y-177848084D01*
X71529394Y-177964096D01*
X71843000Y-178020000D01*
X73823000Y-178020000D01*
X73823000Y-176527000D01*
X74077000Y-176527000D01*
X74077000Y-178020000D01*
X76057000Y-178020000D01*
X76370606Y-177964096D01*
X76667280Y-177848084D01*
X76935621Y-177676423D01*
X77165316Y-177455710D01*
X77347539Y-177194427D01*
X77475286Y-176902614D01*
X77505263Y-176778080D01*
X77385721Y-176527000D01*
X74077000Y-176527000D01*
X73823000Y-176527000D01*
X73803000Y-176527000D01*
X73803000Y-176273000D01*
X73823000Y-176273000D01*
X73823000Y-174780000D01*
X74077000Y-174780000D01*
X74077000Y-176273000D01*
X77385721Y-176273000D01*
X77505263Y-176021920D01*
X77475286Y-175897386D01*
X77347539Y-175605573D01*
X77165316Y-175344290D01*
X76935621Y-175123577D01*
X76667280Y-174951916D01*
X76370606Y-174835904D01*
X76057000Y-174780000D01*
X74077000Y-174780000D01*
X73823000Y-174780000D01*
X71843000Y-174780000D01*
X71529394Y-174835904D01*
X71232720Y-174951916D01*
X70964379Y-175123577D01*
X70734684Y-175344290D01*
X70627000Y-175498694D01*
X70627000Y-173978080D01*
X92494737Y-173978080D01*
X92524714Y-174102614D01*
X92652461Y-174394427D01*
X92834684Y-174655710D01*
X93064379Y-174876423D01*
X93332720Y-175048084D01*
X93629394Y-175164096D01*
X93943000Y-175220000D01*
X95923000Y-175220000D01*
X95923000Y-173727000D01*
X92614279Y-173727000D01*
X92494737Y-173978080D01*
X70627000Y-173978080D01*
X70627000Y-173221920D01*
X92494737Y-173221920D01*
X92614279Y-173473000D01*
X95923000Y-173473000D01*
X95923000Y-171980000D01*
X93943000Y-171980000D01*
X93629394Y-172035904D01*
X93332720Y-172151916D01*
X93064379Y-172323577D01*
X92834684Y-172544290D01*
X92652461Y-172805573D01*
X92524714Y-173097386D01*
X92494737Y-173221920D01*
X70627000Y-173221920D01*
X70627000Y-152301306D01*
X70734684Y-152455710D01*
X70964379Y-152676423D01*
X71232720Y-152848084D01*
X71529394Y-152964096D01*
X71843000Y-153020000D01*
X73823000Y-153020000D01*
X73823000Y-151527000D01*
X74077000Y-151527000D01*
X74077000Y-153020000D01*
X76057000Y-153020000D01*
X76370606Y-152964096D01*
X76667280Y-152848084D01*
X76935621Y-152676423D01*
X77165316Y-152455710D01*
X77347539Y-152194427D01*
X77475286Y-151902614D01*
X77505263Y-151778080D01*
X77385721Y-151527000D01*
X74077000Y-151527000D01*
X73823000Y-151527000D01*
X73803000Y-151527000D01*
X73803000Y-151273000D01*
X73823000Y-151273000D01*
X73823000Y-149780000D01*
X74077000Y-149780000D01*
X74077000Y-151273000D01*
X77385721Y-151273000D01*
X77505263Y-151021920D01*
X77475286Y-150897386D01*
X77347539Y-150605573D01*
X77165316Y-150344290D01*
X76935621Y-150123577D01*
X76667280Y-149951916D01*
X76370606Y-149835904D01*
X76057000Y-149780000D01*
X74077000Y-149780000D01*
X73823000Y-149780000D01*
X71843000Y-149780000D01*
X71529394Y-149835904D01*
X71232720Y-149951916D01*
X70964379Y-150123577D01*
X70734684Y-150344290D01*
X70627000Y-150498694D01*
X70627000Y-148978080D01*
X92494737Y-148978080D01*
X92524714Y-149102614D01*
X92652461Y-149394427D01*
X92834684Y-149655710D01*
X93064379Y-149876423D01*
X93332720Y-150048084D01*
X93629394Y-150164096D01*
X93943000Y-150220000D01*
X95923000Y-150220000D01*
X95923000Y-148727000D01*
X92614279Y-148727000D01*
X92494737Y-148978080D01*
X70627000Y-148978080D01*
X70627000Y-148221920D01*
X92494737Y-148221920D01*
X92614279Y-148473000D01*
X95923000Y-148473000D01*
X95923000Y-146980000D01*
X93943000Y-146980000D01*
X93629394Y-147035904D01*
X93332720Y-147151916D01*
X93064379Y-147323577D01*
X92834684Y-147544290D01*
X92652461Y-147805573D01*
X92524714Y-148097386D01*
X92494737Y-148221920D01*
X70627000Y-148221920D01*
X70627000Y-127301306D01*
X70734684Y-127455710D01*
X70964379Y-127676423D01*
X71232720Y-127848084D01*
X71529394Y-127964096D01*
X71843000Y-128020000D01*
X73823000Y-128020000D01*
X73823000Y-126527000D01*
X74077000Y-126527000D01*
X74077000Y-128020000D01*
X76057000Y-128020000D01*
X76370606Y-127964096D01*
X76667280Y-127848084D01*
X76935621Y-127676423D01*
X77165316Y-127455710D01*
X77347539Y-127194427D01*
X77475286Y-126902614D01*
X77505263Y-126778080D01*
X77385721Y-126527000D01*
X74077000Y-126527000D01*
X73823000Y-126527000D01*
X73803000Y-126527000D01*
X73803000Y-126273000D01*
X73823000Y-126273000D01*
X73823000Y-124780000D01*
X74077000Y-124780000D01*
X74077000Y-126273000D01*
X77385721Y-126273000D01*
X77505263Y-126021920D01*
X77475286Y-125897386D01*
X77347539Y-125605573D01*
X77165316Y-125344290D01*
X76935621Y-125123577D01*
X76667280Y-124951916D01*
X76370606Y-124835904D01*
X76057000Y-124780000D01*
X74077000Y-124780000D01*
X73823000Y-124780000D01*
X71843000Y-124780000D01*
X71529394Y-124835904D01*
X71232720Y-124951916D01*
X70964379Y-125123577D01*
X70734684Y-125344290D01*
X70627000Y-125498694D01*
X70627000Y-123978080D01*
X92494737Y-123978080D01*
X92524714Y-124102614D01*
X92652461Y-124394427D01*
X92834684Y-124655710D01*
X93064379Y-124876423D01*
X93332720Y-125048084D01*
X93629394Y-125164096D01*
X93943000Y-125220000D01*
X95923000Y-125220000D01*
X95923000Y-123727000D01*
X92614279Y-123727000D01*
X92494737Y-123978080D01*
X70627000Y-123978080D01*
X70627000Y-123221920D01*
X92494737Y-123221920D01*
X92614279Y-123473000D01*
X95923000Y-123473000D01*
X95923000Y-121980000D01*
X93943000Y-121980000D01*
X93629394Y-122035904D01*
X93332720Y-122151916D01*
X93064379Y-122323577D01*
X92834684Y-122544290D01*
X92652461Y-122805573D01*
X92524714Y-123097386D01*
X92494737Y-123221920D01*
X70627000Y-123221920D01*
X70627000Y-102301306D01*
X70734684Y-102455710D01*
X70964379Y-102676423D01*
X71232720Y-102848084D01*
X71529394Y-102964096D01*
X71843000Y-103020000D01*
X73823000Y-103020000D01*
X73823000Y-101527000D01*
X74077000Y-101527000D01*
X74077000Y-103020000D01*
X76057000Y-103020000D01*
X76370606Y-102964096D01*
X76667280Y-102848084D01*
X76935621Y-102676423D01*
X77165316Y-102455710D01*
X77347539Y-102194427D01*
X77475286Y-101902614D01*
X77505263Y-101778080D01*
X77385721Y-101527000D01*
X74077000Y-101527000D01*
X73823000Y-101527000D01*
X73803000Y-101527000D01*
X73803000Y-101273000D01*
X73823000Y-101273000D01*
X73823000Y-99780000D01*
X74077000Y-99780000D01*
X74077000Y-101273000D01*
X77385721Y-101273000D01*
X77505263Y-101021920D01*
X77475286Y-100897386D01*
X77347539Y-100605573D01*
X77165316Y-100344290D01*
X76935621Y-100123577D01*
X76667280Y-99951916D01*
X76370606Y-99835904D01*
X76057000Y-99780000D01*
X74077000Y-99780000D01*
X73823000Y-99780000D01*
X71843000Y-99780000D01*
X71529394Y-99835904D01*
X71232720Y-99951916D01*
X70964379Y-100123577D01*
X70734684Y-100344290D01*
X70627000Y-100498694D01*
X70627000Y-98978080D01*
X92494737Y-98978080D01*
X92524714Y-99102614D01*
X92652461Y-99394427D01*
X92834684Y-99655710D01*
X93064379Y-99876423D01*
X93332720Y-100048084D01*
X93629394Y-100164096D01*
X93943000Y-100220000D01*
X95923000Y-100220000D01*
X95923000Y-98727000D01*
X92614279Y-98727000D01*
X92494737Y-98978080D01*
X70627000Y-98978080D01*
X70627000Y-98221920D01*
X92494737Y-98221920D01*
X92614279Y-98473000D01*
X95923000Y-98473000D01*
X95923000Y-96980000D01*
X93943000Y-96980000D01*
X93629394Y-97035904D01*
X93332720Y-97151916D01*
X93064379Y-97323577D01*
X92834684Y-97544290D01*
X92652461Y-97805573D01*
X92524714Y-98097386D01*
X92494737Y-98221920D01*
X70627000Y-98221920D01*
X70627000Y-77301306D01*
X70734684Y-77455710D01*
X70964379Y-77676423D01*
X71232720Y-77848084D01*
X71529394Y-77964096D01*
X71843000Y-78020000D01*
X73823000Y-78020000D01*
X73823000Y-76527000D01*
X74077000Y-76527000D01*
X74077000Y-78020000D01*
X76057000Y-78020000D01*
X76370606Y-77964096D01*
X76667280Y-77848084D01*
X76935621Y-77676423D01*
X77165316Y-77455710D01*
X77347539Y-77194427D01*
X77475286Y-76902614D01*
X77505263Y-76778080D01*
X77385721Y-76527000D01*
X74077000Y-76527000D01*
X73823000Y-76527000D01*
X73803000Y-76527000D01*
X73803000Y-76273000D01*
X73823000Y-76273000D01*
X73823000Y-74780000D01*
X74077000Y-74780000D01*
X74077000Y-76273000D01*
X77385721Y-76273000D01*
X77505263Y-76021920D01*
X77475286Y-75897386D01*
X77347539Y-75605573D01*
X77165316Y-75344290D01*
X76935621Y-75123577D01*
X76667280Y-74951916D01*
X76370606Y-74835904D01*
X76057000Y-74780000D01*
X74077000Y-74780000D01*
X73823000Y-74780000D01*
X71843000Y-74780000D01*
X71529394Y-74835904D01*
X71232720Y-74951916D01*
X70964379Y-75123577D01*
X70734684Y-75344290D01*
X70627000Y-75498694D01*
X70627000Y-73978080D01*
X92494737Y-73978080D01*
X92524714Y-74102614D01*
X92652461Y-74394427D01*
X92834684Y-74655710D01*
X93064379Y-74876423D01*
X93332720Y-75048084D01*
X93629394Y-75164096D01*
X93943000Y-75220000D01*
X95923000Y-75220000D01*
X95923000Y-73727000D01*
X92614279Y-73727000D01*
X92494737Y-73978080D01*
X70627000Y-73978080D01*
X70627000Y-73221920D01*
X92494737Y-73221920D01*
X92614279Y-73473000D01*
X95923000Y-73473000D01*
X95923000Y-71980000D01*
X93943000Y-71980000D01*
X93629394Y-72035904D01*
X93332720Y-72151916D01*
X93064379Y-72323577D01*
X92834684Y-72544290D01*
X92652461Y-72805573D01*
X92524714Y-73097386D01*
X92494737Y-73221920D01*
X70627000Y-73221920D01*
X70627000Y-63627000D01*
X99373000Y-63627000D01*
X99373000Y-72698694D01*
G37*
X99373000Y-72698694D02*
X99265316Y-72544290D01*
X99035621Y-72323577D01*
X98767280Y-72151916D01*
X98470606Y-72035904D01*
X98157000Y-71980000D01*
X96177000Y-71980000D01*
X96177000Y-73473000D01*
X96197000Y-73473000D01*
X96197000Y-73727000D01*
X96177000Y-73727000D01*
X96177000Y-75220000D01*
X98157000Y-75220000D01*
X98470606Y-75164096D01*
X98767280Y-75048084D01*
X99035621Y-74876423D01*
X99265316Y-74655710D01*
X99373000Y-74501306D01*
X99373000Y-97698694D01*
X99265316Y-97544290D01*
X99035621Y-97323577D01*
X98767280Y-97151916D01*
X98470606Y-97035904D01*
X98157000Y-96980000D01*
X96177000Y-96980000D01*
X96177000Y-98473000D01*
X96197000Y-98473000D01*
X96197000Y-98727000D01*
X96177000Y-98727000D01*
X96177000Y-100220000D01*
X98157000Y-100220000D01*
X98470606Y-100164096D01*
X98767280Y-100048084D01*
X99035621Y-99876423D01*
X99265316Y-99655710D01*
X99373000Y-99501306D01*
X99373000Y-122698694D01*
X99265316Y-122544290D01*
X99035621Y-122323577D01*
X98767280Y-122151916D01*
X98470606Y-122035904D01*
X98157000Y-121980000D01*
X96177000Y-121980000D01*
X96177000Y-123473000D01*
X96197000Y-123473000D01*
X96197000Y-123727000D01*
X96177000Y-123727000D01*
X96177000Y-125220000D01*
X98157000Y-125220000D01*
X98470606Y-125164096D01*
X98767280Y-125048084D01*
X99035621Y-124876423D01*
X99265316Y-124655710D01*
X99373000Y-124501306D01*
X99373000Y-147698694D01*
X99265316Y-147544290D01*
X99035621Y-147323577D01*
X98767280Y-147151916D01*
X98470606Y-147035904D01*
X98157000Y-146980000D01*
X96177000Y-146980000D01*
X96177000Y-148473000D01*
X96197000Y-148473000D01*
X96197000Y-148727000D01*
X96177000Y-148727000D01*
X96177000Y-150220000D01*
X98157000Y-150220000D01*
X98470606Y-150164096D01*
X98767280Y-150048084D01*
X99035621Y-149876423D01*
X99265316Y-149655710D01*
X99373000Y-149501306D01*
X99373000Y-172698694D01*
X99265316Y-172544290D01*
X99035621Y-172323577D01*
X98767280Y-172151916D01*
X98470606Y-172035904D01*
X98157000Y-171980000D01*
X96177000Y-171980000D01*
X96177000Y-173473000D01*
X96197000Y-173473000D01*
X96197000Y-173727000D01*
X96177000Y-173727000D01*
X96177000Y-175220000D01*
X98157000Y-175220000D01*
X98470606Y-175164096D01*
X98767280Y-175048084D01*
X99035621Y-174876423D01*
X99265316Y-174655710D01*
X99373000Y-174501306D01*
X99373000Y-178873000D01*
X70627000Y-178873000D01*
X70627000Y-177301306D01*
X70734684Y-177455710D01*
X70964379Y-177676423D01*
X71232720Y-177848084D01*
X71529394Y-177964096D01*
X71843000Y-178020000D01*
X73823000Y-178020000D01*
X73823000Y-176527000D01*
X74077000Y-176527000D01*
X74077000Y-178020000D01*
X76057000Y-178020000D01*
X76370606Y-177964096D01*
X76667280Y-177848084D01*
X76935621Y-177676423D01*
X77165316Y-177455710D01*
X77347539Y-177194427D01*
X77475286Y-176902614D01*
X77505263Y-176778080D01*
X77385721Y-176527000D01*
X74077000Y-176527000D01*
X73823000Y-176527000D01*
X73803000Y-176527000D01*
X73803000Y-176273000D01*
X73823000Y-176273000D01*
X73823000Y-174780000D01*
X74077000Y-174780000D01*
X74077000Y-176273000D01*
X77385721Y-176273000D01*
X77505263Y-176021920D01*
X77475286Y-175897386D01*
X77347539Y-175605573D01*
X77165316Y-175344290D01*
X76935621Y-175123577D01*
X76667280Y-174951916D01*
X76370606Y-174835904D01*
X76057000Y-174780000D01*
X74077000Y-174780000D01*
X73823000Y-174780000D01*
X71843000Y-174780000D01*
X71529394Y-174835904D01*
X71232720Y-174951916D01*
X70964379Y-175123577D01*
X70734684Y-175344290D01*
X70627000Y-175498694D01*
X70627000Y-173978080D01*
X92494737Y-173978080D01*
X92524714Y-174102614D01*
X92652461Y-174394427D01*
X92834684Y-174655710D01*
X93064379Y-174876423D01*
X93332720Y-175048084D01*
X93629394Y-175164096D01*
X93943000Y-175220000D01*
X95923000Y-175220000D01*
X95923000Y-173727000D01*
X92614279Y-173727000D01*
X92494737Y-173978080D01*
X70627000Y-173978080D01*
X70627000Y-173221920D01*
X92494737Y-173221920D01*
X92614279Y-173473000D01*
X95923000Y-173473000D01*
X95923000Y-171980000D01*
X93943000Y-171980000D01*
X93629394Y-172035904D01*
X93332720Y-172151916D01*
X93064379Y-172323577D01*
X92834684Y-172544290D01*
X92652461Y-172805573D01*
X92524714Y-173097386D01*
X92494737Y-173221920D01*
X70627000Y-173221920D01*
X70627000Y-152301306D01*
X70734684Y-152455710D01*
X70964379Y-152676423D01*
X71232720Y-152848084D01*
X71529394Y-152964096D01*
X71843000Y-153020000D01*
X73823000Y-153020000D01*
X73823000Y-151527000D01*
X74077000Y-151527000D01*
X74077000Y-153020000D01*
X76057000Y-153020000D01*
X76370606Y-152964096D01*
X76667280Y-152848084D01*
X76935621Y-152676423D01*
X77165316Y-152455710D01*
X77347539Y-152194427D01*
X77475286Y-151902614D01*
X77505263Y-151778080D01*
X77385721Y-151527000D01*
X74077000Y-151527000D01*
X73823000Y-151527000D01*
X73803000Y-151527000D01*
X73803000Y-151273000D01*
X73823000Y-151273000D01*
X73823000Y-149780000D01*
X74077000Y-149780000D01*
X74077000Y-151273000D01*
X77385721Y-151273000D01*
X77505263Y-151021920D01*
X77475286Y-150897386D01*
X77347539Y-150605573D01*
X77165316Y-150344290D01*
X76935621Y-150123577D01*
X76667280Y-149951916D01*
X76370606Y-149835904D01*
X76057000Y-149780000D01*
X74077000Y-149780000D01*
X73823000Y-149780000D01*
X71843000Y-149780000D01*
X71529394Y-149835904D01*
X71232720Y-149951916D01*
X70964379Y-150123577D01*
X70734684Y-150344290D01*
X70627000Y-150498694D01*
X70627000Y-148978080D01*
X92494737Y-148978080D01*
X92524714Y-149102614D01*
X92652461Y-149394427D01*
X92834684Y-149655710D01*
X93064379Y-149876423D01*
X93332720Y-150048084D01*
X93629394Y-150164096D01*
X93943000Y-150220000D01*
X95923000Y-150220000D01*
X95923000Y-148727000D01*
X92614279Y-148727000D01*
X92494737Y-148978080D01*
X70627000Y-148978080D01*
X70627000Y-148221920D01*
X92494737Y-148221920D01*
X92614279Y-148473000D01*
X95923000Y-148473000D01*
X95923000Y-146980000D01*
X93943000Y-146980000D01*
X93629394Y-147035904D01*
X93332720Y-147151916D01*
X93064379Y-147323577D01*
X92834684Y-147544290D01*
X92652461Y-147805573D01*
X92524714Y-148097386D01*
X92494737Y-148221920D01*
X70627000Y-148221920D01*
X70627000Y-127301306D01*
X70734684Y-127455710D01*
X70964379Y-127676423D01*
X71232720Y-127848084D01*
X71529394Y-127964096D01*
X71843000Y-128020000D01*
X73823000Y-128020000D01*
X73823000Y-126527000D01*
X74077000Y-126527000D01*
X74077000Y-128020000D01*
X76057000Y-128020000D01*
X76370606Y-127964096D01*
X76667280Y-127848084D01*
X76935621Y-127676423D01*
X77165316Y-127455710D01*
X77347539Y-127194427D01*
X77475286Y-126902614D01*
X77505263Y-126778080D01*
X77385721Y-126527000D01*
X74077000Y-126527000D01*
X73823000Y-126527000D01*
X73803000Y-126527000D01*
X73803000Y-126273000D01*
X73823000Y-126273000D01*
X73823000Y-124780000D01*
X74077000Y-124780000D01*
X74077000Y-126273000D01*
X77385721Y-126273000D01*
X77505263Y-126021920D01*
X77475286Y-125897386D01*
X77347539Y-125605573D01*
X77165316Y-125344290D01*
X76935621Y-125123577D01*
X76667280Y-124951916D01*
X76370606Y-124835904D01*
X76057000Y-124780000D01*
X74077000Y-124780000D01*
X73823000Y-124780000D01*
X71843000Y-124780000D01*
X71529394Y-124835904D01*
X71232720Y-124951916D01*
X70964379Y-125123577D01*
X70734684Y-125344290D01*
X70627000Y-125498694D01*
X70627000Y-123978080D01*
X92494737Y-123978080D01*
X92524714Y-124102614D01*
X92652461Y-124394427D01*
X92834684Y-124655710D01*
X93064379Y-124876423D01*
X93332720Y-125048084D01*
X93629394Y-125164096D01*
X93943000Y-125220000D01*
X95923000Y-125220000D01*
X95923000Y-123727000D01*
X92614279Y-123727000D01*
X92494737Y-123978080D01*
X70627000Y-123978080D01*
X70627000Y-123221920D01*
X92494737Y-123221920D01*
X92614279Y-123473000D01*
X95923000Y-123473000D01*
X95923000Y-121980000D01*
X93943000Y-121980000D01*
X93629394Y-122035904D01*
X93332720Y-122151916D01*
X93064379Y-122323577D01*
X92834684Y-122544290D01*
X92652461Y-122805573D01*
X92524714Y-123097386D01*
X92494737Y-123221920D01*
X70627000Y-123221920D01*
X70627000Y-102301306D01*
X70734684Y-102455710D01*
X70964379Y-102676423D01*
X71232720Y-102848084D01*
X71529394Y-102964096D01*
X71843000Y-103020000D01*
X73823000Y-103020000D01*
X73823000Y-101527000D01*
X74077000Y-101527000D01*
X74077000Y-103020000D01*
X76057000Y-103020000D01*
X76370606Y-102964096D01*
X76667280Y-102848084D01*
X76935621Y-102676423D01*
X77165316Y-102455710D01*
X77347539Y-102194427D01*
X77475286Y-101902614D01*
X77505263Y-101778080D01*
X77385721Y-101527000D01*
X74077000Y-101527000D01*
X73823000Y-101527000D01*
X73803000Y-101527000D01*
X73803000Y-101273000D01*
X73823000Y-101273000D01*
X73823000Y-99780000D01*
X74077000Y-99780000D01*
X74077000Y-101273000D01*
X77385721Y-101273000D01*
X77505263Y-101021920D01*
X77475286Y-100897386D01*
X77347539Y-100605573D01*
X77165316Y-100344290D01*
X76935621Y-100123577D01*
X76667280Y-99951916D01*
X76370606Y-99835904D01*
X76057000Y-99780000D01*
X74077000Y-99780000D01*
X73823000Y-99780000D01*
X71843000Y-99780000D01*
X71529394Y-99835904D01*
X71232720Y-99951916D01*
X70964379Y-100123577D01*
X70734684Y-100344290D01*
X70627000Y-100498694D01*
X70627000Y-98978080D01*
X92494737Y-98978080D01*
X92524714Y-99102614D01*
X92652461Y-99394427D01*
X92834684Y-99655710D01*
X93064379Y-99876423D01*
X93332720Y-100048084D01*
X93629394Y-100164096D01*
X93943000Y-100220000D01*
X95923000Y-100220000D01*
X95923000Y-98727000D01*
X92614279Y-98727000D01*
X92494737Y-98978080D01*
X70627000Y-98978080D01*
X70627000Y-98221920D01*
X92494737Y-98221920D01*
X92614279Y-98473000D01*
X95923000Y-98473000D01*
X95923000Y-96980000D01*
X93943000Y-96980000D01*
X93629394Y-97035904D01*
X93332720Y-97151916D01*
X93064379Y-97323577D01*
X92834684Y-97544290D01*
X92652461Y-97805573D01*
X92524714Y-98097386D01*
X92494737Y-98221920D01*
X70627000Y-98221920D01*
X70627000Y-77301306D01*
X70734684Y-77455710D01*
X70964379Y-77676423D01*
X71232720Y-77848084D01*
X71529394Y-77964096D01*
X71843000Y-78020000D01*
X73823000Y-78020000D01*
X73823000Y-76527000D01*
X74077000Y-76527000D01*
X74077000Y-78020000D01*
X76057000Y-78020000D01*
X76370606Y-77964096D01*
X76667280Y-77848084D01*
X76935621Y-77676423D01*
X77165316Y-77455710D01*
X77347539Y-77194427D01*
X77475286Y-76902614D01*
X77505263Y-76778080D01*
X77385721Y-76527000D01*
X74077000Y-76527000D01*
X73823000Y-76527000D01*
X73803000Y-76527000D01*
X73803000Y-76273000D01*
X73823000Y-76273000D01*
X73823000Y-74780000D01*
X74077000Y-74780000D01*
X74077000Y-76273000D01*
X77385721Y-76273000D01*
X77505263Y-76021920D01*
X77475286Y-75897386D01*
X77347539Y-75605573D01*
X77165316Y-75344290D01*
X76935621Y-75123577D01*
X76667280Y-74951916D01*
X76370606Y-74835904D01*
X76057000Y-74780000D01*
X74077000Y-74780000D01*
X73823000Y-74780000D01*
X71843000Y-74780000D01*
X71529394Y-74835904D01*
X71232720Y-74951916D01*
X70964379Y-75123577D01*
X70734684Y-75344290D01*
X70627000Y-75498694D01*
X70627000Y-73978080D01*
X92494737Y-73978080D01*
X92524714Y-74102614D01*
X92652461Y-74394427D01*
X92834684Y-74655710D01*
X93064379Y-74876423D01*
X93332720Y-75048084D01*
X93629394Y-75164096D01*
X93943000Y-75220000D01*
X95923000Y-75220000D01*
X95923000Y-73727000D01*
X92614279Y-73727000D01*
X92494737Y-73978080D01*
X70627000Y-73978080D01*
X70627000Y-73221920D01*
X92494737Y-73221920D01*
X92614279Y-73473000D01*
X95923000Y-73473000D01*
X95923000Y-71980000D01*
X93943000Y-71980000D01*
X93629394Y-72035904D01*
X93332720Y-72151916D01*
X93064379Y-72323577D01*
X92834684Y-72544290D01*
X92652461Y-72805573D01*
X92524714Y-73097386D01*
X92494737Y-73221920D01*
X70627000Y-73221920D01*
X70627000Y-63627000D01*
X99373000Y-63627000D01*
X99373000Y-72698694D01*
G36*
X44373000Y-73270021D02*
G01*
X44244352Y-73029940D01*
X43835526Y-72819180D01*
X43393438Y-72692228D01*
X42935078Y-72653963D01*
X42478060Y-72705854D01*
X42039947Y-72845908D01*
X41695648Y-73029940D01*
X41515582Y-73365977D01*
X42970000Y-74820395D01*
X42984143Y-74806253D01*
X43163748Y-74985858D01*
X43149605Y-75000000D01*
X43163748Y-75014143D01*
X42984143Y-75193748D01*
X42970000Y-75179605D01*
X41515582Y-76634023D01*
X41695648Y-76970060D01*
X42104474Y-77180820D01*
X42546562Y-77307772D01*
X43004922Y-77346037D01*
X43461940Y-77294146D01*
X43900053Y-77154092D01*
X44244352Y-76970060D01*
X44373000Y-76729979D01*
X44373000Y-98270021D01*
X44244352Y-98029940D01*
X43835526Y-97819180D01*
X43393438Y-97692228D01*
X42935078Y-97653963D01*
X42478060Y-97705854D01*
X42039947Y-97845908D01*
X41695648Y-98029940D01*
X41515582Y-98365977D01*
X42970000Y-99820395D01*
X42984143Y-99806253D01*
X43163748Y-99985858D01*
X43149605Y-100000000D01*
X43163748Y-100014143D01*
X42984143Y-100193748D01*
X42970000Y-100179605D01*
X41515582Y-101634023D01*
X41695648Y-101970060D01*
X42104474Y-102180820D01*
X42546562Y-102307772D01*
X43004922Y-102346037D01*
X43461940Y-102294146D01*
X43900053Y-102154092D01*
X44244352Y-101970060D01*
X44373000Y-101729979D01*
X44373000Y-123270021D01*
X44244352Y-123029940D01*
X43835526Y-122819180D01*
X43393438Y-122692228D01*
X42935078Y-122653963D01*
X42478060Y-122705854D01*
X42039947Y-122845908D01*
X41695648Y-123029940D01*
X41515582Y-123365977D01*
X42970000Y-124820395D01*
X42984143Y-124806253D01*
X43163748Y-124985858D01*
X43149605Y-125000000D01*
X43163748Y-125014143D01*
X42984143Y-125193748D01*
X42970000Y-125179605D01*
X41515582Y-126634023D01*
X41695648Y-126970060D01*
X42104474Y-127180820D01*
X42546562Y-127307772D01*
X43004922Y-127346037D01*
X43461940Y-127294146D01*
X43900053Y-127154092D01*
X44244352Y-126970060D01*
X44373000Y-126729979D01*
X44373000Y-148270021D01*
X44244352Y-148029940D01*
X43835526Y-147819180D01*
X43393438Y-147692228D01*
X42935078Y-147653963D01*
X42478060Y-147705854D01*
X42039947Y-147845908D01*
X41695648Y-148029940D01*
X41515582Y-148365977D01*
X42970000Y-149820395D01*
X42984143Y-149806253D01*
X43163748Y-149985858D01*
X43149605Y-150000000D01*
X43163748Y-150014143D01*
X42984143Y-150193748D01*
X42970000Y-150179605D01*
X41515582Y-151634023D01*
X41695648Y-151970060D01*
X42104474Y-152180820D01*
X42546562Y-152307772D01*
X43004922Y-152346037D01*
X43461940Y-152294146D01*
X43900053Y-152154092D01*
X44244352Y-151970060D01*
X44373000Y-151729979D01*
X44373000Y-173270021D01*
X44244352Y-173029940D01*
X43835526Y-172819180D01*
X43393438Y-172692228D01*
X42935078Y-172653963D01*
X42478060Y-172705854D01*
X42039947Y-172845908D01*
X41695648Y-173029940D01*
X41515582Y-173365977D01*
X42970000Y-174820395D01*
X42984143Y-174806253D01*
X43163748Y-174985858D01*
X43149605Y-175000000D01*
X43163748Y-175014143D01*
X42984143Y-175193748D01*
X42970000Y-175179605D01*
X41515582Y-176634023D01*
X41695648Y-176970060D01*
X42104474Y-177180820D01*
X42546562Y-177307772D01*
X43004922Y-177346037D01*
X43461940Y-177294146D01*
X43900053Y-177154092D01*
X44244352Y-176970060D01*
X44373000Y-176729979D01*
X44373000Y-179373000D01*
X32660000Y-179373000D01*
X32660000Y-176634023D01*
X36435582Y-176634023D01*
X36615648Y-176970060D01*
X37024474Y-177180820D01*
X37466562Y-177307772D01*
X37924922Y-177346037D01*
X38381940Y-177294146D01*
X38820053Y-177154092D01*
X39164352Y-176970060D01*
X39344418Y-176634023D01*
X37890000Y-175179605D01*
X36435582Y-176634023D01*
X32660000Y-176634023D01*
X32660000Y-175034922D01*
X35543963Y-175034922D01*
X35595854Y-175491940D01*
X35735908Y-175930053D01*
X35919940Y-176274352D01*
X36255977Y-176454418D01*
X37710395Y-175000000D01*
X38069605Y-175000000D01*
X39524023Y-176454418D01*
X39860060Y-176274352D01*
X40070820Y-175865526D01*
X40197772Y-175423438D01*
X40230206Y-175034922D01*
X40623963Y-175034922D01*
X40675854Y-175491940D01*
X40815908Y-175930053D01*
X40999940Y-176274352D01*
X41335977Y-176454418D01*
X42790395Y-175000000D01*
X41335977Y-173545582D01*
X40999940Y-173725648D01*
X40789180Y-174134474D01*
X40662228Y-174576562D01*
X40623963Y-175034922D01*
X40230206Y-175034922D01*
X40236037Y-174965078D01*
X40184146Y-174508060D01*
X40044092Y-174069947D01*
X39860060Y-173725648D01*
X39524023Y-173545582D01*
X38069605Y-175000000D01*
X37710395Y-175000000D01*
X36255977Y-173545582D01*
X35919940Y-173725648D01*
X35709180Y-174134474D01*
X35582228Y-174576562D01*
X35543963Y-175034922D01*
X32660000Y-175034922D01*
X32660000Y-173365977D01*
X36435582Y-173365977D01*
X37890000Y-174820395D01*
X39344418Y-173365977D01*
X39164352Y-173029940D01*
X38755526Y-172819180D01*
X38313438Y-172692228D01*
X37855078Y-172653963D01*
X37398060Y-172705854D01*
X36959947Y-172845908D01*
X36615648Y-173029940D01*
X36435582Y-173365977D01*
X32660000Y-173365977D01*
X32660000Y-151634023D01*
X36435582Y-151634023D01*
X36615648Y-151970060D01*
X37024474Y-152180820D01*
X37466562Y-152307772D01*
X37924922Y-152346037D01*
X38381940Y-152294146D01*
X38820053Y-152154092D01*
X39164352Y-151970060D01*
X39344418Y-151634023D01*
X37890000Y-150179605D01*
X36435582Y-151634023D01*
X32660000Y-151634023D01*
X32660000Y-150034922D01*
X35543963Y-150034922D01*
X35595854Y-150491940D01*
X35735908Y-150930053D01*
X35919940Y-151274352D01*
X36255977Y-151454418D01*
X37710395Y-150000000D01*
X38069605Y-150000000D01*
X39524023Y-151454418D01*
X39860060Y-151274352D01*
X40070820Y-150865526D01*
X40197772Y-150423438D01*
X40230206Y-150034922D01*
X40623963Y-150034922D01*
X40675854Y-150491940D01*
X40815908Y-150930053D01*
X40999940Y-151274352D01*
X41335977Y-151454418D01*
X42790395Y-150000000D01*
X41335977Y-148545582D01*
X40999940Y-148725648D01*
X40789180Y-149134474D01*
X40662228Y-149576562D01*
X40623963Y-150034922D01*
X40230206Y-150034922D01*
X40236037Y-149965078D01*
X40184146Y-149508060D01*
X40044092Y-149069947D01*
X39860060Y-148725648D01*
X39524023Y-148545582D01*
X38069605Y-150000000D01*
X37710395Y-150000000D01*
X36255977Y-148545582D01*
X35919940Y-148725648D01*
X35709180Y-149134474D01*
X35582228Y-149576562D01*
X35543963Y-150034922D01*
X32660000Y-150034922D01*
X32660000Y-148365977D01*
X36435582Y-148365977D01*
X37890000Y-149820395D01*
X39344418Y-148365977D01*
X39164352Y-148029940D01*
X38755526Y-147819180D01*
X38313438Y-147692228D01*
X37855078Y-147653963D01*
X37398060Y-147705854D01*
X36959947Y-147845908D01*
X36615648Y-148029940D01*
X36435582Y-148365977D01*
X32660000Y-148365977D01*
X32660000Y-126634023D01*
X36435582Y-126634023D01*
X36615648Y-126970060D01*
X37024474Y-127180820D01*
X37466562Y-127307772D01*
X37924922Y-127346037D01*
X38381940Y-127294146D01*
X38820053Y-127154092D01*
X39164352Y-126970060D01*
X39344418Y-126634023D01*
X37890000Y-125179605D01*
X36435582Y-126634023D01*
X32660000Y-126634023D01*
X32660000Y-125034922D01*
X35543963Y-125034922D01*
X35595854Y-125491940D01*
X35735908Y-125930053D01*
X35919940Y-126274352D01*
X36255977Y-126454418D01*
X37710395Y-125000000D01*
X38069605Y-125000000D01*
X39524023Y-126454418D01*
X39860060Y-126274352D01*
X40070820Y-125865526D01*
X40197772Y-125423438D01*
X40230206Y-125034922D01*
X40623963Y-125034922D01*
X40675854Y-125491940D01*
X40815908Y-125930053D01*
X40999940Y-126274352D01*
X41335977Y-126454418D01*
X42790395Y-125000000D01*
X41335977Y-123545582D01*
X40999940Y-123725648D01*
X40789180Y-124134474D01*
X40662228Y-124576562D01*
X40623963Y-125034922D01*
X40230206Y-125034922D01*
X40236037Y-124965078D01*
X40184146Y-124508060D01*
X40044092Y-124069947D01*
X39860060Y-123725648D01*
X39524023Y-123545582D01*
X38069605Y-125000000D01*
X37710395Y-125000000D01*
X36255977Y-123545582D01*
X35919940Y-123725648D01*
X35709180Y-124134474D01*
X35582228Y-124576562D01*
X35543963Y-125034922D01*
X32660000Y-125034922D01*
X32660000Y-123365977D01*
X36435582Y-123365977D01*
X37890000Y-124820395D01*
X39344418Y-123365977D01*
X39164352Y-123029940D01*
X38755526Y-122819180D01*
X38313438Y-122692228D01*
X37855078Y-122653963D01*
X37398060Y-122705854D01*
X36959947Y-122845908D01*
X36615648Y-123029940D01*
X36435582Y-123365977D01*
X32660000Y-123365977D01*
X32660000Y-101634023D01*
X36435582Y-101634023D01*
X36615648Y-101970060D01*
X37024474Y-102180820D01*
X37466562Y-102307772D01*
X37924922Y-102346037D01*
X38381940Y-102294146D01*
X38820053Y-102154092D01*
X39164352Y-101970060D01*
X39344418Y-101634023D01*
X37890000Y-100179605D01*
X36435582Y-101634023D01*
X32660000Y-101634023D01*
X32660000Y-100034922D01*
X35543963Y-100034922D01*
X35595854Y-100491940D01*
X35735908Y-100930053D01*
X35919940Y-101274352D01*
X36255977Y-101454418D01*
X37710395Y-100000000D01*
X38069605Y-100000000D01*
X39524023Y-101454418D01*
X39860060Y-101274352D01*
X40070820Y-100865526D01*
X40197772Y-100423438D01*
X40230206Y-100034922D01*
X40623963Y-100034922D01*
X40675854Y-100491940D01*
X40815908Y-100930053D01*
X40999940Y-101274352D01*
X41335977Y-101454418D01*
X42790395Y-100000000D01*
X41335977Y-98545582D01*
X40999940Y-98725648D01*
X40789180Y-99134474D01*
X40662228Y-99576562D01*
X40623963Y-100034922D01*
X40230206Y-100034922D01*
X40236037Y-99965078D01*
X40184146Y-99508060D01*
X40044092Y-99069947D01*
X39860060Y-98725648D01*
X39524023Y-98545582D01*
X38069605Y-100000000D01*
X37710395Y-100000000D01*
X36255977Y-98545582D01*
X35919940Y-98725648D01*
X35709180Y-99134474D01*
X35582228Y-99576562D01*
X35543963Y-100034922D01*
X32660000Y-100034922D01*
X32660000Y-98365977D01*
X36435582Y-98365977D01*
X37890000Y-99820395D01*
X39344418Y-98365977D01*
X39164352Y-98029940D01*
X38755526Y-97819180D01*
X38313438Y-97692228D01*
X37855078Y-97653963D01*
X37398060Y-97705854D01*
X36959947Y-97845908D01*
X36615648Y-98029940D01*
X36435582Y-98365977D01*
X32660000Y-98365977D01*
X32660000Y-76634023D01*
X36435582Y-76634023D01*
X36615648Y-76970060D01*
X37024474Y-77180820D01*
X37466562Y-77307772D01*
X37924922Y-77346037D01*
X38381940Y-77294146D01*
X38820053Y-77154092D01*
X39164352Y-76970060D01*
X39344418Y-76634023D01*
X37890000Y-75179605D01*
X36435582Y-76634023D01*
X32660000Y-76634023D01*
X32660000Y-75034922D01*
X35543963Y-75034922D01*
X35595854Y-75491940D01*
X35735908Y-75930053D01*
X35919940Y-76274352D01*
X36255977Y-76454418D01*
X37710395Y-75000000D01*
X38069605Y-75000000D01*
X39524023Y-76454418D01*
X39860060Y-76274352D01*
X40070820Y-75865526D01*
X40197772Y-75423438D01*
X40230206Y-75034922D01*
X40623963Y-75034922D01*
X40675854Y-75491940D01*
X40815908Y-75930053D01*
X40999940Y-76274352D01*
X41335977Y-76454418D01*
X42790395Y-75000000D01*
X41335977Y-73545582D01*
X40999940Y-73725648D01*
X40789180Y-74134474D01*
X40662228Y-74576562D01*
X40623963Y-75034922D01*
X40230206Y-75034922D01*
X40236037Y-74965078D01*
X40184146Y-74508060D01*
X40044092Y-74069947D01*
X39860060Y-73725648D01*
X39524023Y-73545582D01*
X38069605Y-75000000D01*
X37710395Y-75000000D01*
X36255977Y-73545582D01*
X35919940Y-73725648D01*
X35709180Y-74134474D01*
X35582228Y-74576562D01*
X35543963Y-75034922D01*
X32660000Y-75034922D01*
X32660000Y-73365977D01*
X36435582Y-73365977D01*
X37890000Y-74820395D01*
X39344418Y-73365977D01*
X39164352Y-73029940D01*
X38755526Y-72819180D01*
X38313438Y-72692228D01*
X37855078Y-72653963D01*
X37398060Y-72705854D01*
X36959947Y-72845908D01*
X36615648Y-73029940D01*
X36435582Y-73365977D01*
X32660000Y-73365977D01*
X32660000Y-71627000D01*
X44373000Y-71627000D01*
X44373000Y-73270021D01*
G37*
X44373000Y-73270021D02*
X44244352Y-73029940D01*
X43835526Y-72819180D01*
X43393438Y-72692228D01*
X42935078Y-72653963D01*
X42478060Y-72705854D01*
X42039947Y-72845908D01*
X41695648Y-73029940D01*
X41515582Y-73365977D01*
X42970000Y-74820395D01*
X42984143Y-74806253D01*
X43163748Y-74985858D01*
X43149605Y-75000000D01*
X43163748Y-75014143D01*
X42984143Y-75193748D01*
X42970000Y-75179605D01*
X41515582Y-76634023D01*
X41695648Y-76970060D01*
X42104474Y-77180820D01*
X42546562Y-77307772D01*
X43004922Y-77346037D01*
X43461940Y-77294146D01*
X43900053Y-77154092D01*
X44244352Y-76970060D01*
X44373000Y-76729979D01*
X44373000Y-98270021D01*
X44244352Y-98029940D01*
X43835526Y-97819180D01*
X43393438Y-97692228D01*
X42935078Y-97653963D01*
X42478060Y-97705854D01*
X42039947Y-97845908D01*
X41695648Y-98029940D01*
X41515582Y-98365977D01*
X42970000Y-99820395D01*
X42984143Y-99806253D01*
X43163748Y-99985858D01*
X43149605Y-100000000D01*
X43163748Y-100014143D01*
X42984143Y-100193748D01*
X42970000Y-100179605D01*
X41515582Y-101634023D01*
X41695648Y-101970060D01*
X42104474Y-102180820D01*
X42546562Y-102307772D01*
X43004922Y-102346037D01*
X43461940Y-102294146D01*
X43900053Y-102154092D01*
X44244352Y-101970060D01*
X44373000Y-101729979D01*
X44373000Y-123270021D01*
X44244352Y-123029940D01*
X43835526Y-122819180D01*
X43393438Y-122692228D01*
X42935078Y-122653963D01*
X42478060Y-122705854D01*
X42039947Y-122845908D01*
X41695648Y-123029940D01*
X41515582Y-123365977D01*
X42970000Y-124820395D01*
X42984143Y-124806253D01*
X43163748Y-124985858D01*
X43149605Y-125000000D01*
X43163748Y-125014143D01*
X42984143Y-125193748D01*
X42970000Y-125179605D01*
X41515582Y-126634023D01*
X41695648Y-126970060D01*
X42104474Y-127180820D01*
X42546562Y-127307772D01*
X43004922Y-127346037D01*
X43461940Y-127294146D01*
X43900053Y-127154092D01*
X44244352Y-126970060D01*
X44373000Y-126729979D01*
X44373000Y-148270021D01*
X44244352Y-148029940D01*
X43835526Y-147819180D01*
X43393438Y-147692228D01*
X42935078Y-147653963D01*
X42478060Y-147705854D01*
X42039947Y-147845908D01*
X41695648Y-148029940D01*
X41515582Y-148365977D01*
X42970000Y-149820395D01*
X42984143Y-149806253D01*
X43163748Y-149985858D01*
X43149605Y-150000000D01*
X43163748Y-150014143D01*
X42984143Y-150193748D01*
X42970000Y-150179605D01*
X41515582Y-151634023D01*
X41695648Y-151970060D01*
X42104474Y-152180820D01*
X42546562Y-152307772D01*
X43004922Y-152346037D01*
X43461940Y-152294146D01*
X43900053Y-152154092D01*
X44244352Y-151970060D01*
X44373000Y-151729979D01*
X44373000Y-173270021D01*
X44244352Y-173029940D01*
X43835526Y-172819180D01*
X43393438Y-172692228D01*
X42935078Y-172653963D01*
X42478060Y-172705854D01*
X42039947Y-172845908D01*
X41695648Y-173029940D01*
X41515582Y-173365977D01*
X42970000Y-174820395D01*
X42984143Y-174806253D01*
X43163748Y-174985858D01*
X43149605Y-175000000D01*
X43163748Y-175014143D01*
X42984143Y-175193748D01*
X42970000Y-175179605D01*
X41515582Y-176634023D01*
X41695648Y-176970060D01*
X42104474Y-177180820D01*
X42546562Y-177307772D01*
X43004922Y-177346037D01*
X43461940Y-177294146D01*
X43900053Y-177154092D01*
X44244352Y-176970060D01*
X44373000Y-176729979D01*
X44373000Y-179373000D01*
X32660000Y-179373000D01*
X32660000Y-176634023D01*
X36435582Y-176634023D01*
X36615648Y-176970060D01*
X37024474Y-177180820D01*
X37466562Y-177307772D01*
X37924922Y-177346037D01*
X38381940Y-177294146D01*
X38820053Y-177154092D01*
X39164352Y-176970060D01*
X39344418Y-176634023D01*
X37890000Y-175179605D01*
X36435582Y-176634023D01*
X32660000Y-176634023D01*
X32660000Y-175034922D01*
X35543963Y-175034922D01*
X35595854Y-175491940D01*
X35735908Y-175930053D01*
X35919940Y-176274352D01*
X36255977Y-176454418D01*
X37710395Y-175000000D01*
X38069605Y-175000000D01*
X39524023Y-176454418D01*
X39860060Y-176274352D01*
X40070820Y-175865526D01*
X40197772Y-175423438D01*
X40230206Y-175034922D01*
X40623963Y-175034922D01*
X40675854Y-175491940D01*
X40815908Y-175930053D01*
X40999940Y-176274352D01*
X41335977Y-176454418D01*
X42790395Y-175000000D01*
X41335977Y-173545582D01*
X40999940Y-173725648D01*
X40789180Y-174134474D01*
X40662228Y-174576562D01*
X40623963Y-175034922D01*
X40230206Y-175034922D01*
X40236037Y-174965078D01*
X40184146Y-174508060D01*
X40044092Y-174069947D01*
X39860060Y-173725648D01*
X39524023Y-173545582D01*
X38069605Y-175000000D01*
X37710395Y-175000000D01*
X36255977Y-173545582D01*
X35919940Y-173725648D01*
X35709180Y-174134474D01*
X35582228Y-174576562D01*
X35543963Y-175034922D01*
X32660000Y-175034922D01*
X32660000Y-173365977D01*
X36435582Y-173365977D01*
X37890000Y-174820395D01*
X39344418Y-173365977D01*
X39164352Y-173029940D01*
X38755526Y-172819180D01*
X38313438Y-172692228D01*
X37855078Y-172653963D01*
X37398060Y-172705854D01*
X36959947Y-172845908D01*
X36615648Y-173029940D01*
X36435582Y-173365977D01*
X32660000Y-173365977D01*
X32660000Y-151634023D01*
X36435582Y-151634023D01*
X36615648Y-151970060D01*
X37024474Y-152180820D01*
X37466562Y-152307772D01*
X37924922Y-152346037D01*
X38381940Y-152294146D01*
X38820053Y-152154092D01*
X39164352Y-151970060D01*
X39344418Y-151634023D01*
X37890000Y-150179605D01*
X36435582Y-151634023D01*
X32660000Y-151634023D01*
X32660000Y-150034922D01*
X35543963Y-150034922D01*
X35595854Y-150491940D01*
X35735908Y-150930053D01*
X35919940Y-151274352D01*
X36255977Y-151454418D01*
X37710395Y-150000000D01*
X38069605Y-150000000D01*
X39524023Y-151454418D01*
X39860060Y-151274352D01*
X40070820Y-150865526D01*
X40197772Y-150423438D01*
X40230206Y-150034922D01*
X40623963Y-150034922D01*
X40675854Y-150491940D01*
X40815908Y-150930053D01*
X40999940Y-151274352D01*
X41335977Y-151454418D01*
X42790395Y-150000000D01*
X41335977Y-148545582D01*
X40999940Y-148725648D01*
X40789180Y-149134474D01*
X40662228Y-149576562D01*
X40623963Y-150034922D01*
X40230206Y-150034922D01*
X40236037Y-149965078D01*
X40184146Y-149508060D01*
X40044092Y-149069947D01*
X39860060Y-148725648D01*
X39524023Y-148545582D01*
X38069605Y-150000000D01*
X37710395Y-150000000D01*
X36255977Y-148545582D01*
X35919940Y-148725648D01*
X35709180Y-149134474D01*
X35582228Y-149576562D01*
X35543963Y-150034922D01*
X32660000Y-150034922D01*
X32660000Y-148365977D01*
X36435582Y-148365977D01*
X37890000Y-149820395D01*
X39344418Y-148365977D01*
X39164352Y-148029940D01*
X38755526Y-147819180D01*
X38313438Y-147692228D01*
X37855078Y-147653963D01*
X37398060Y-147705854D01*
X36959947Y-147845908D01*
X36615648Y-148029940D01*
X36435582Y-148365977D01*
X32660000Y-148365977D01*
X32660000Y-126634023D01*
X36435582Y-126634023D01*
X36615648Y-126970060D01*
X37024474Y-127180820D01*
X37466562Y-127307772D01*
X37924922Y-127346037D01*
X38381940Y-127294146D01*
X38820053Y-127154092D01*
X39164352Y-126970060D01*
X39344418Y-126634023D01*
X37890000Y-125179605D01*
X36435582Y-126634023D01*
X32660000Y-126634023D01*
X32660000Y-125034922D01*
X35543963Y-125034922D01*
X35595854Y-125491940D01*
X35735908Y-125930053D01*
X35919940Y-126274352D01*
X36255977Y-126454418D01*
X37710395Y-125000000D01*
X38069605Y-125000000D01*
X39524023Y-126454418D01*
X39860060Y-126274352D01*
X40070820Y-125865526D01*
X40197772Y-125423438D01*
X40230206Y-125034922D01*
X40623963Y-125034922D01*
X40675854Y-125491940D01*
X40815908Y-125930053D01*
X40999940Y-126274352D01*
X41335977Y-126454418D01*
X42790395Y-125000000D01*
X41335977Y-123545582D01*
X40999940Y-123725648D01*
X40789180Y-124134474D01*
X40662228Y-124576562D01*
X40623963Y-125034922D01*
X40230206Y-125034922D01*
X40236037Y-124965078D01*
X40184146Y-124508060D01*
X40044092Y-124069947D01*
X39860060Y-123725648D01*
X39524023Y-123545582D01*
X38069605Y-125000000D01*
X37710395Y-125000000D01*
X36255977Y-123545582D01*
X35919940Y-123725648D01*
X35709180Y-124134474D01*
X35582228Y-124576562D01*
X35543963Y-125034922D01*
X32660000Y-125034922D01*
X32660000Y-123365977D01*
X36435582Y-123365977D01*
X37890000Y-124820395D01*
X39344418Y-123365977D01*
X39164352Y-123029940D01*
X38755526Y-122819180D01*
X38313438Y-122692228D01*
X37855078Y-122653963D01*
X37398060Y-122705854D01*
X36959947Y-122845908D01*
X36615648Y-123029940D01*
X36435582Y-123365977D01*
X32660000Y-123365977D01*
X32660000Y-101634023D01*
X36435582Y-101634023D01*
X36615648Y-101970060D01*
X37024474Y-102180820D01*
X37466562Y-102307772D01*
X37924922Y-102346037D01*
X38381940Y-102294146D01*
X38820053Y-102154092D01*
X39164352Y-101970060D01*
X39344418Y-101634023D01*
X37890000Y-100179605D01*
X36435582Y-101634023D01*
X32660000Y-101634023D01*
X32660000Y-100034922D01*
X35543963Y-100034922D01*
X35595854Y-100491940D01*
X35735908Y-100930053D01*
X35919940Y-101274352D01*
X36255977Y-101454418D01*
X37710395Y-100000000D01*
X38069605Y-100000000D01*
X39524023Y-101454418D01*
X39860060Y-101274352D01*
X40070820Y-100865526D01*
X40197772Y-100423438D01*
X40230206Y-100034922D01*
X40623963Y-100034922D01*
X40675854Y-100491940D01*
X40815908Y-100930053D01*
X40999940Y-101274352D01*
X41335977Y-101454418D01*
X42790395Y-100000000D01*
X41335977Y-98545582D01*
X40999940Y-98725648D01*
X40789180Y-99134474D01*
X40662228Y-99576562D01*
X40623963Y-100034922D01*
X40230206Y-100034922D01*
X40236037Y-99965078D01*
X40184146Y-99508060D01*
X40044092Y-99069947D01*
X39860060Y-98725648D01*
X39524023Y-98545582D01*
X38069605Y-100000000D01*
X37710395Y-100000000D01*
X36255977Y-98545582D01*
X35919940Y-98725648D01*
X35709180Y-99134474D01*
X35582228Y-99576562D01*
X35543963Y-100034922D01*
X32660000Y-100034922D01*
X32660000Y-98365977D01*
X36435582Y-98365977D01*
X37890000Y-99820395D01*
X39344418Y-98365977D01*
X39164352Y-98029940D01*
X38755526Y-97819180D01*
X38313438Y-97692228D01*
X37855078Y-97653963D01*
X37398060Y-97705854D01*
X36959947Y-97845908D01*
X36615648Y-98029940D01*
X36435582Y-98365977D01*
X32660000Y-98365977D01*
X32660000Y-76634023D01*
X36435582Y-76634023D01*
X36615648Y-76970060D01*
X37024474Y-77180820D01*
X37466562Y-77307772D01*
X37924922Y-77346037D01*
X38381940Y-77294146D01*
X38820053Y-77154092D01*
X39164352Y-76970060D01*
X39344418Y-76634023D01*
X37890000Y-75179605D01*
X36435582Y-76634023D01*
X32660000Y-76634023D01*
X32660000Y-75034922D01*
X35543963Y-75034922D01*
X35595854Y-75491940D01*
X35735908Y-75930053D01*
X35919940Y-76274352D01*
X36255977Y-76454418D01*
X37710395Y-75000000D01*
X38069605Y-75000000D01*
X39524023Y-76454418D01*
X39860060Y-76274352D01*
X40070820Y-75865526D01*
X40197772Y-75423438D01*
X40230206Y-75034922D01*
X40623963Y-75034922D01*
X40675854Y-75491940D01*
X40815908Y-75930053D01*
X40999940Y-76274352D01*
X41335977Y-76454418D01*
X42790395Y-75000000D01*
X41335977Y-73545582D01*
X40999940Y-73725648D01*
X40789180Y-74134474D01*
X40662228Y-74576562D01*
X40623963Y-75034922D01*
X40230206Y-75034922D01*
X40236037Y-74965078D01*
X40184146Y-74508060D01*
X40044092Y-74069947D01*
X39860060Y-73725648D01*
X39524023Y-73545582D01*
X38069605Y-75000000D01*
X37710395Y-75000000D01*
X36255977Y-73545582D01*
X35919940Y-73725648D01*
X35709180Y-74134474D01*
X35582228Y-74576562D01*
X35543963Y-75034922D01*
X32660000Y-75034922D01*
X32660000Y-73365977D01*
X36435582Y-73365977D01*
X37890000Y-74820395D01*
X39344418Y-73365977D01*
X39164352Y-73029940D01*
X38755526Y-72819180D01*
X38313438Y-72692228D01*
X37855078Y-72653963D01*
X37398060Y-72705854D01*
X36959947Y-72845908D01*
X36615648Y-73029940D01*
X36435582Y-73365977D01*
X32660000Y-73365977D01*
X32660000Y-71627000D01*
X44373000Y-71627000D01*
X44373000Y-73270021D01*
G36*
X69773000Y-81873000D02*
G01*
X45627000Y-81873000D01*
X45627000Y-76729979D01*
X45755648Y-76970060D01*
X46164474Y-77180820D01*
X46606562Y-77307772D01*
X47064922Y-77346037D01*
X47521940Y-77294146D01*
X47960053Y-77154092D01*
X48304352Y-76970060D01*
X48484418Y-76634023D01*
X50655582Y-76634023D01*
X50835648Y-76970060D01*
X51244474Y-77180820D01*
X51686562Y-77307772D01*
X52144922Y-77346037D01*
X52601940Y-77294146D01*
X53040053Y-77154092D01*
X53384352Y-76970060D01*
X53487224Y-76778080D01*
X62494737Y-76778080D01*
X62524714Y-76902614D01*
X62652461Y-77194427D01*
X62834684Y-77455710D01*
X63064379Y-77676423D01*
X63332720Y-77848084D01*
X63629394Y-77964096D01*
X63943000Y-78020000D01*
X65923000Y-78020000D01*
X65923000Y-76527000D01*
X66177000Y-76527000D01*
X66177000Y-78020000D01*
X68157000Y-78020000D01*
X68470606Y-77964096D01*
X68767280Y-77848084D01*
X69035621Y-77676423D01*
X69265316Y-77455710D01*
X69447539Y-77194427D01*
X69575286Y-76902614D01*
X69605263Y-76778080D01*
X69485721Y-76527000D01*
X66177000Y-76527000D01*
X65923000Y-76527000D01*
X62614279Y-76527000D01*
X62494737Y-76778080D01*
X53487224Y-76778080D01*
X53564418Y-76634023D01*
X52110000Y-75179605D01*
X50655582Y-76634023D01*
X48484418Y-76634023D01*
X47030000Y-75179605D01*
X47015858Y-75193748D01*
X46836253Y-75014143D01*
X46850395Y-75000000D01*
X47209605Y-75000000D01*
X48664023Y-76454418D01*
X49000060Y-76274352D01*
X49210820Y-75865526D01*
X49337772Y-75423438D01*
X49370206Y-75034922D01*
X49763963Y-75034922D01*
X49815854Y-75491940D01*
X49955908Y-75930053D01*
X50139940Y-76274352D01*
X50475977Y-76454418D01*
X51930395Y-75000000D01*
X52289605Y-75000000D01*
X53744023Y-76454418D01*
X54080060Y-76274352D01*
X54210194Y-76021920D01*
X62494737Y-76021920D01*
X62614279Y-76273000D01*
X65923000Y-76273000D01*
X65923000Y-74780000D01*
X66177000Y-74780000D01*
X66177000Y-76273000D01*
X69485721Y-76273000D01*
X69605263Y-76021920D01*
X69575286Y-75897386D01*
X69447539Y-75605573D01*
X69265316Y-75344290D01*
X69035621Y-75123577D01*
X68767280Y-74951916D01*
X68470606Y-74835904D01*
X68157000Y-74780000D01*
X66177000Y-74780000D01*
X65923000Y-74780000D01*
X63943000Y-74780000D01*
X63629394Y-74835904D01*
X63332720Y-74951916D01*
X63064379Y-75123577D01*
X62834684Y-75344290D01*
X62652461Y-75605573D01*
X62524714Y-75897386D01*
X62494737Y-76021920D01*
X54210194Y-76021920D01*
X54290820Y-75865526D01*
X54417772Y-75423438D01*
X54456037Y-74965078D01*
X54404146Y-74508060D01*
X54264092Y-74069947D01*
X54080060Y-73725648D01*
X53744023Y-73545582D01*
X52289605Y-75000000D01*
X51930395Y-75000000D01*
X50475977Y-73545582D01*
X50139940Y-73725648D01*
X49929180Y-74134474D01*
X49802228Y-74576562D01*
X49763963Y-75034922D01*
X49370206Y-75034922D01*
X49376037Y-74965078D01*
X49324146Y-74508060D01*
X49184092Y-74069947D01*
X49000060Y-73725648D01*
X48664023Y-73545582D01*
X47209605Y-75000000D01*
X46850395Y-75000000D01*
X46836253Y-74985858D01*
X47015858Y-74806253D01*
X47030000Y-74820395D01*
X48484418Y-73365977D01*
X50655582Y-73365977D01*
X52110000Y-74820395D01*
X53564418Y-73365977D01*
X53384352Y-73029940D01*
X52975526Y-72819180D01*
X52533438Y-72692228D01*
X52075078Y-72653963D01*
X51618060Y-72705854D01*
X51179947Y-72845908D01*
X50835648Y-73029940D01*
X50655582Y-73365977D01*
X48484418Y-73365977D01*
X48304352Y-73029940D01*
X47895526Y-72819180D01*
X47453438Y-72692228D01*
X46995078Y-72653963D01*
X46538060Y-72705854D01*
X46099947Y-72845908D01*
X45755648Y-73029940D01*
X45627000Y-73270021D01*
X45627000Y-71627000D01*
X69773000Y-71627000D01*
X69773000Y-81873000D01*
G37*
X69773000Y-81873000D02*
X45627000Y-81873000D01*
X45627000Y-76729979D01*
X45755648Y-76970060D01*
X46164474Y-77180820D01*
X46606562Y-77307772D01*
X47064922Y-77346037D01*
X47521940Y-77294146D01*
X47960053Y-77154092D01*
X48304352Y-76970060D01*
X48484418Y-76634023D01*
X50655582Y-76634023D01*
X50835648Y-76970060D01*
X51244474Y-77180820D01*
X51686562Y-77307772D01*
X52144922Y-77346037D01*
X52601940Y-77294146D01*
X53040053Y-77154092D01*
X53384352Y-76970060D01*
X53487224Y-76778080D01*
X62494737Y-76778080D01*
X62524714Y-76902614D01*
X62652461Y-77194427D01*
X62834684Y-77455710D01*
X63064379Y-77676423D01*
X63332720Y-77848084D01*
X63629394Y-77964096D01*
X63943000Y-78020000D01*
X65923000Y-78020000D01*
X65923000Y-76527000D01*
X66177000Y-76527000D01*
X66177000Y-78020000D01*
X68157000Y-78020000D01*
X68470606Y-77964096D01*
X68767280Y-77848084D01*
X69035621Y-77676423D01*
X69265316Y-77455710D01*
X69447539Y-77194427D01*
X69575286Y-76902614D01*
X69605263Y-76778080D01*
X69485721Y-76527000D01*
X66177000Y-76527000D01*
X65923000Y-76527000D01*
X62614279Y-76527000D01*
X62494737Y-76778080D01*
X53487224Y-76778080D01*
X53564418Y-76634023D01*
X52110000Y-75179605D01*
X50655582Y-76634023D01*
X48484418Y-76634023D01*
X47030000Y-75179605D01*
X47015858Y-75193748D01*
X46836253Y-75014143D01*
X46850395Y-75000000D01*
X47209605Y-75000000D01*
X48664023Y-76454418D01*
X49000060Y-76274352D01*
X49210820Y-75865526D01*
X49337772Y-75423438D01*
X49370206Y-75034922D01*
X49763963Y-75034922D01*
X49815854Y-75491940D01*
X49955908Y-75930053D01*
X50139940Y-76274352D01*
X50475977Y-76454418D01*
X51930395Y-75000000D01*
X52289605Y-75000000D01*
X53744023Y-76454418D01*
X54080060Y-76274352D01*
X54210194Y-76021920D01*
X62494737Y-76021920D01*
X62614279Y-76273000D01*
X65923000Y-76273000D01*
X65923000Y-74780000D01*
X66177000Y-74780000D01*
X66177000Y-76273000D01*
X69485721Y-76273000D01*
X69605263Y-76021920D01*
X69575286Y-75897386D01*
X69447539Y-75605573D01*
X69265316Y-75344290D01*
X69035621Y-75123577D01*
X68767280Y-74951916D01*
X68470606Y-74835904D01*
X68157000Y-74780000D01*
X66177000Y-74780000D01*
X65923000Y-74780000D01*
X63943000Y-74780000D01*
X63629394Y-74835904D01*
X63332720Y-74951916D01*
X63064379Y-75123577D01*
X62834684Y-75344290D01*
X62652461Y-75605573D01*
X62524714Y-75897386D01*
X62494737Y-76021920D01*
X54210194Y-76021920D01*
X54290820Y-75865526D01*
X54417772Y-75423438D01*
X54456037Y-74965078D01*
X54404146Y-74508060D01*
X54264092Y-74069947D01*
X54080060Y-73725648D01*
X53744023Y-73545582D01*
X52289605Y-75000000D01*
X51930395Y-75000000D01*
X50475977Y-73545582D01*
X50139940Y-73725648D01*
X49929180Y-74134474D01*
X49802228Y-74576562D01*
X49763963Y-75034922D01*
X49370206Y-75034922D01*
X49376037Y-74965078D01*
X49324146Y-74508060D01*
X49184092Y-74069947D01*
X49000060Y-73725648D01*
X48664023Y-73545582D01*
X47209605Y-75000000D01*
X46850395Y-75000000D01*
X46836253Y-74985858D01*
X47015858Y-74806253D01*
X47030000Y-74820395D01*
X48484418Y-73365977D01*
X50655582Y-73365977D01*
X52110000Y-74820395D01*
X53564418Y-73365977D01*
X53384352Y-73029940D01*
X52975526Y-72819180D01*
X52533438Y-72692228D01*
X52075078Y-72653963D01*
X51618060Y-72705854D01*
X51179947Y-72845908D01*
X50835648Y-73029940D01*
X50655582Y-73365977D01*
X48484418Y-73365977D01*
X48304352Y-73029940D01*
X47895526Y-72819180D01*
X47453438Y-72692228D01*
X46995078Y-72653963D01*
X46538060Y-72705854D01*
X46099947Y-72845908D01*
X45755648Y-73029940D01*
X45627000Y-73270021D01*
X45627000Y-71627000D01*
X69773000Y-71627000D01*
X69773000Y-81873000D01*
G36*
X69773000Y-106873000D02*
G01*
X45627000Y-106873000D01*
X45627000Y-101729979D01*
X45755648Y-101970060D01*
X46164474Y-102180820D01*
X46606562Y-102307772D01*
X47064922Y-102346037D01*
X47521940Y-102294146D01*
X47960053Y-102154092D01*
X48304352Y-101970060D01*
X48484418Y-101634023D01*
X50655582Y-101634023D01*
X50835648Y-101970060D01*
X51244474Y-102180820D01*
X51686562Y-102307772D01*
X52144922Y-102346037D01*
X52601940Y-102294146D01*
X53040053Y-102154092D01*
X53384352Y-101970060D01*
X53487224Y-101778080D01*
X62494737Y-101778080D01*
X62524714Y-101902614D01*
X62652461Y-102194427D01*
X62834684Y-102455710D01*
X63064379Y-102676423D01*
X63332720Y-102848084D01*
X63629394Y-102964096D01*
X63943000Y-103020000D01*
X65923000Y-103020000D01*
X65923000Y-101527000D01*
X66177000Y-101527000D01*
X66177000Y-103020000D01*
X68157000Y-103020000D01*
X68470606Y-102964096D01*
X68767280Y-102848084D01*
X69035621Y-102676423D01*
X69265316Y-102455710D01*
X69447539Y-102194427D01*
X69575286Y-101902614D01*
X69605263Y-101778080D01*
X69485721Y-101527000D01*
X66177000Y-101527000D01*
X65923000Y-101527000D01*
X62614279Y-101527000D01*
X62494737Y-101778080D01*
X53487224Y-101778080D01*
X53564418Y-101634023D01*
X52110000Y-100179605D01*
X50655582Y-101634023D01*
X48484418Y-101634023D01*
X47030000Y-100179605D01*
X47015858Y-100193748D01*
X46836253Y-100014143D01*
X46850395Y-100000000D01*
X47209605Y-100000000D01*
X48664023Y-101454418D01*
X49000060Y-101274352D01*
X49210820Y-100865526D01*
X49337772Y-100423438D01*
X49370206Y-100034922D01*
X49763963Y-100034922D01*
X49815854Y-100491940D01*
X49955908Y-100930053D01*
X50139940Y-101274352D01*
X50475977Y-101454418D01*
X51930395Y-100000000D01*
X52289605Y-100000000D01*
X53744023Y-101454418D01*
X54080060Y-101274352D01*
X54210194Y-101021920D01*
X62494737Y-101021920D01*
X62614279Y-101273000D01*
X65923000Y-101273000D01*
X65923000Y-99780000D01*
X66177000Y-99780000D01*
X66177000Y-101273000D01*
X69485721Y-101273000D01*
X69605263Y-101021920D01*
X69575286Y-100897386D01*
X69447539Y-100605573D01*
X69265316Y-100344290D01*
X69035621Y-100123577D01*
X68767280Y-99951916D01*
X68470606Y-99835904D01*
X68157000Y-99780000D01*
X66177000Y-99780000D01*
X65923000Y-99780000D01*
X63943000Y-99780000D01*
X63629394Y-99835904D01*
X63332720Y-99951916D01*
X63064379Y-100123577D01*
X62834684Y-100344290D01*
X62652461Y-100605573D01*
X62524714Y-100897386D01*
X62494737Y-101021920D01*
X54210194Y-101021920D01*
X54290820Y-100865526D01*
X54417772Y-100423438D01*
X54456037Y-99965078D01*
X54404146Y-99508060D01*
X54264092Y-99069947D01*
X54080060Y-98725648D01*
X53744023Y-98545582D01*
X52289605Y-100000000D01*
X51930395Y-100000000D01*
X50475977Y-98545582D01*
X50139940Y-98725648D01*
X49929180Y-99134474D01*
X49802228Y-99576562D01*
X49763963Y-100034922D01*
X49370206Y-100034922D01*
X49376037Y-99965078D01*
X49324146Y-99508060D01*
X49184092Y-99069947D01*
X49000060Y-98725648D01*
X48664023Y-98545582D01*
X47209605Y-100000000D01*
X46850395Y-100000000D01*
X46836253Y-99985858D01*
X47015858Y-99806253D01*
X47030000Y-99820395D01*
X48484418Y-98365977D01*
X50655582Y-98365977D01*
X52110000Y-99820395D01*
X53564418Y-98365977D01*
X53384352Y-98029940D01*
X52975526Y-97819180D01*
X52533438Y-97692228D01*
X52075078Y-97653963D01*
X51618060Y-97705854D01*
X51179947Y-97845908D01*
X50835648Y-98029940D01*
X50655582Y-98365977D01*
X48484418Y-98365977D01*
X48304352Y-98029940D01*
X47895526Y-97819180D01*
X47453438Y-97692228D01*
X46995078Y-97653963D01*
X46538060Y-97705854D01*
X46099947Y-97845908D01*
X45755648Y-98029940D01*
X45627000Y-98270021D01*
X45627000Y-96627000D01*
X69773000Y-96627000D01*
X69773000Y-106873000D01*
G37*
X69773000Y-106873000D02*
X45627000Y-106873000D01*
X45627000Y-101729979D01*
X45755648Y-101970060D01*
X46164474Y-102180820D01*
X46606562Y-102307772D01*
X47064922Y-102346037D01*
X47521940Y-102294146D01*
X47960053Y-102154092D01*
X48304352Y-101970060D01*
X48484418Y-101634023D01*
X50655582Y-101634023D01*
X50835648Y-101970060D01*
X51244474Y-102180820D01*
X51686562Y-102307772D01*
X52144922Y-102346037D01*
X52601940Y-102294146D01*
X53040053Y-102154092D01*
X53384352Y-101970060D01*
X53487224Y-101778080D01*
X62494737Y-101778080D01*
X62524714Y-101902614D01*
X62652461Y-102194427D01*
X62834684Y-102455710D01*
X63064379Y-102676423D01*
X63332720Y-102848084D01*
X63629394Y-102964096D01*
X63943000Y-103020000D01*
X65923000Y-103020000D01*
X65923000Y-101527000D01*
X66177000Y-101527000D01*
X66177000Y-103020000D01*
X68157000Y-103020000D01*
X68470606Y-102964096D01*
X68767280Y-102848084D01*
X69035621Y-102676423D01*
X69265316Y-102455710D01*
X69447539Y-102194427D01*
X69575286Y-101902614D01*
X69605263Y-101778080D01*
X69485721Y-101527000D01*
X66177000Y-101527000D01*
X65923000Y-101527000D01*
X62614279Y-101527000D01*
X62494737Y-101778080D01*
X53487224Y-101778080D01*
X53564418Y-101634023D01*
X52110000Y-100179605D01*
X50655582Y-101634023D01*
X48484418Y-101634023D01*
X47030000Y-100179605D01*
X47015858Y-100193748D01*
X46836253Y-100014143D01*
X46850395Y-100000000D01*
X47209605Y-100000000D01*
X48664023Y-101454418D01*
X49000060Y-101274352D01*
X49210820Y-100865526D01*
X49337772Y-100423438D01*
X49370206Y-100034922D01*
X49763963Y-100034922D01*
X49815854Y-100491940D01*
X49955908Y-100930053D01*
X50139940Y-101274352D01*
X50475977Y-101454418D01*
X51930395Y-100000000D01*
X52289605Y-100000000D01*
X53744023Y-101454418D01*
X54080060Y-101274352D01*
X54210194Y-101021920D01*
X62494737Y-101021920D01*
X62614279Y-101273000D01*
X65923000Y-101273000D01*
X65923000Y-99780000D01*
X66177000Y-99780000D01*
X66177000Y-101273000D01*
X69485721Y-101273000D01*
X69605263Y-101021920D01*
X69575286Y-100897386D01*
X69447539Y-100605573D01*
X69265316Y-100344290D01*
X69035621Y-100123577D01*
X68767280Y-99951916D01*
X68470606Y-99835904D01*
X68157000Y-99780000D01*
X66177000Y-99780000D01*
X65923000Y-99780000D01*
X63943000Y-99780000D01*
X63629394Y-99835904D01*
X63332720Y-99951916D01*
X63064379Y-100123577D01*
X62834684Y-100344290D01*
X62652461Y-100605573D01*
X62524714Y-100897386D01*
X62494737Y-101021920D01*
X54210194Y-101021920D01*
X54290820Y-100865526D01*
X54417772Y-100423438D01*
X54456037Y-99965078D01*
X54404146Y-99508060D01*
X54264092Y-99069947D01*
X54080060Y-98725648D01*
X53744023Y-98545582D01*
X52289605Y-100000000D01*
X51930395Y-100000000D01*
X50475977Y-98545582D01*
X50139940Y-98725648D01*
X49929180Y-99134474D01*
X49802228Y-99576562D01*
X49763963Y-100034922D01*
X49370206Y-100034922D01*
X49376037Y-99965078D01*
X49324146Y-99508060D01*
X49184092Y-99069947D01*
X49000060Y-98725648D01*
X48664023Y-98545582D01*
X47209605Y-100000000D01*
X46850395Y-100000000D01*
X46836253Y-99985858D01*
X47015858Y-99806253D01*
X47030000Y-99820395D01*
X48484418Y-98365977D01*
X50655582Y-98365977D01*
X52110000Y-99820395D01*
X53564418Y-98365977D01*
X53384352Y-98029940D01*
X52975526Y-97819180D01*
X52533438Y-97692228D01*
X52075078Y-97653963D01*
X51618060Y-97705854D01*
X51179947Y-97845908D01*
X50835648Y-98029940D01*
X50655582Y-98365977D01*
X48484418Y-98365977D01*
X48304352Y-98029940D01*
X47895526Y-97819180D01*
X47453438Y-97692228D01*
X46995078Y-97653963D01*
X46538060Y-97705854D01*
X46099947Y-97845908D01*
X45755648Y-98029940D01*
X45627000Y-98270021D01*
X45627000Y-96627000D01*
X69773000Y-96627000D01*
X69773000Y-106873000D01*
G36*
X69773000Y-131873000D02*
G01*
X45627000Y-131873000D01*
X45627000Y-126729979D01*
X45755648Y-126970060D01*
X46164474Y-127180820D01*
X46606562Y-127307772D01*
X47064922Y-127346037D01*
X47521940Y-127294146D01*
X47960053Y-127154092D01*
X48304352Y-126970060D01*
X48484418Y-126634023D01*
X50655582Y-126634023D01*
X50835648Y-126970060D01*
X51244474Y-127180820D01*
X51686562Y-127307772D01*
X52144922Y-127346037D01*
X52601940Y-127294146D01*
X53040053Y-127154092D01*
X53384352Y-126970060D01*
X53487224Y-126778080D01*
X62494737Y-126778080D01*
X62524714Y-126902614D01*
X62652461Y-127194427D01*
X62834684Y-127455710D01*
X63064379Y-127676423D01*
X63332720Y-127848084D01*
X63629394Y-127964096D01*
X63943000Y-128020000D01*
X65923000Y-128020000D01*
X65923000Y-126527000D01*
X66177000Y-126527000D01*
X66177000Y-128020000D01*
X68157000Y-128020000D01*
X68470606Y-127964096D01*
X68767280Y-127848084D01*
X69035621Y-127676423D01*
X69265316Y-127455710D01*
X69447539Y-127194427D01*
X69575286Y-126902614D01*
X69605263Y-126778080D01*
X69485721Y-126527000D01*
X66177000Y-126527000D01*
X65923000Y-126527000D01*
X62614279Y-126527000D01*
X62494737Y-126778080D01*
X53487224Y-126778080D01*
X53564418Y-126634023D01*
X52110000Y-125179605D01*
X50655582Y-126634023D01*
X48484418Y-126634023D01*
X47030000Y-125179605D01*
X47015858Y-125193748D01*
X46836253Y-125014143D01*
X46850395Y-125000000D01*
X47209605Y-125000000D01*
X48664023Y-126454418D01*
X49000060Y-126274352D01*
X49210820Y-125865526D01*
X49337772Y-125423438D01*
X49370206Y-125034922D01*
X49763963Y-125034922D01*
X49815854Y-125491940D01*
X49955908Y-125930053D01*
X50139940Y-126274352D01*
X50475977Y-126454418D01*
X51930395Y-125000000D01*
X52289605Y-125000000D01*
X53744023Y-126454418D01*
X54080060Y-126274352D01*
X54210194Y-126021920D01*
X62494737Y-126021920D01*
X62614279Y-126273000D01*
X65923000Y-126273000D01*
X65923000Y-124780000D01*
X66177000Y-124780000D01*
X66177000Y-126273000D01*
X69485721Y-126273000D01*
X69605263Y-126021920D01*
X69575286Y-125897386D01*
X69447539Y-125605573D01*
X69265316Y-125344290D01*
X69035621Y-125123577D01*
X68767280Y-124951916D01*
X68470606Y-124835904D01*
X68157000Y-124780000D01*
X66177000Y-124780000D01*
X65923000Y-124780000D01*
X63943000Y-124780000D01*
X63629394Y-124835904D01*
X63332720Y-124951916D01*
X63064379Y-125123577D01*
X62834684Y-125344290D01*
X62652461Y-125605573D01*
X62524714Y-125897386D01*
X62494737Y-126021920D01*
X54210194Y-126021920D01*
X54290820Y-125865526D01*
X54417772Y-125423438D01*
X54456037Y-124965078D01*
X54404146Y-124508060D01*
X54264092Y-124069947D01*
X54080060Y-123725648D01*
X53744023Y-123545582D01*
X52289605Y-125000000D01*
X51930395Y-125000000D01*
X50475977Y-123545582D01*
X50139940Y-123725648D01*
X49929180Y-124134474D01*
X49802228Y-124576562D01*
X49763963Y-125034922D01*
X49370206Y-125034922D01*
X49376037Y-124965078D01*
X49324146Y-124508060D01*
X49184092Y-124069947D01*
X49000060Y-123725648D01*
X48664023Y-123545582D01*
X47209605Y-125000000D01*
X46850395Y-125000000D01*
X46836253Y-124985858D01*
X47015858Y-124806253D01*
X47030000Y-124820395D01*
X48484418Y-123365977D01*
X50655582Y-123365977D01*
X52110000Y-124820395D01*
X53564418Y-123365977D01*
X53384352Y-123029940D01*
X52975526Y-122819180D01*
X52533438Y-122692228D01*
X52075078Y-122653963D01*
X51618060Y-122705854D01*
X51179947Y-122845908D01*
X50835648Y-123029940D01*
X50655582Y-123365977D01*
X48484418Y-123365977D01*
X48304352Y-123029940D01*
X47895526Y-122819180D01*
X47453438Y-122692228D01*
X46995078Y-122653963D01*
X46538060Y-122705854D01*
X46099947Y-122845908D01*
X45755648Y-123029940D01*
X45627000Y-123270021D01*
X45627000Y-121627000D01*
X69773000Y-121627000D01*
X69773000Y-131873000D01*
G37*
X69773000Y-131873000D02*
X45627000Y-131873000D01*
X45627000Y-126729979D01*
X45755648Y-126970060D01*
X46164474Y-127180820D01*
X46606562Y-127307772D01*
X47064922Y-127346037D01*
X47521940Y-127294146D01*
X47960053Y-127154092D01*
X48304352Y-126970060D01*
X48484418Y-126634023D01*
X50655582Y-126634023D01*
X50835648Y-126970060D01*
X51244474Y-127180820D01*
X51686562Y-127307772D01*
X52144922Y-127346037D01*
X52601940Y-127294146D01*
X53040053Y-127154092D01*
X53384352Y-126970060D01*
X53487224Y-126778080D01*
X62494737Y-126778080D01*
X62524714Y-126902614D01*
X62652461Y-127194427D01*
X62834684Y-127455710D01*
X63064379Y-127676423D01*
X63332720Y-127848084D01*
X63629394Y-127964096D01*
X63943000Y-128020000D01*
X65923000Y-128020000D01*
X65923000Y-126527000D01*
X66177000Y-126527000D01*
X66177000Y-128020000D01*
X68157000Y-128020000D01*
X68470606Y-127964096D01*
X68767280Y-127848084D01*
X69035621Y-127676423D01*
X69265316Y-127455710D01*
X69447539Y-127194427D01*
X69575286Y-126902614D01*
X69605263Y-126778080D01*
X69485721Y-126527000D01*
X66177000Y-126527000D01*
X65923000Y-126527000D01*
X62614279Y-126527000D01*
X62494737Y-126778080D01*
X53487224Y-126778080D01*
X53564418Y-126634023D01*
X52110000Y-125179605D01*
X50655582Y-126634023D01*
X48484418Y-126634023D01*
X47030000Y-125179605D01*
X47015858Y-125193748D01*
X46836253Y-125014143D01*
X46850395Y-125000000D01*
X47209605Y-125000000D01*
X48664023Y-126454418D01*
X49000060Y-126274352D01*
X49210820Y-125865526D01*
X49337772Y-125423438D01*
X49370206Y-125034922D01*
X49763963Y-125034922D01*
X49815854Y-125491940D01*
X49955908Y-125930053D01*
X50139940Y-126274352D01*
X50475977Y-126454418D01*
X51930395Y-125000000D01*
X52289605Y-125000000D01*
X53744023Y-126454418D01*
X54080060Y-126274352D01*
X54210194Y-126021920D01*
X62494737Y-126021920D01*
X62614279Y-126273000D01*
X65923000Y-126273000D01*
X65923000Y-124780000D01*
X66177000Y-124780000D01*
X66177000Y-126273000D01*
X69485721Y-126273000D01*
X69605263Y-126021920D01*
X69575286Y-125897386D01*
X69447539Y-125605573D01*
X69265316Y-125344290D01*
X69035621Y-125123577D01*
X68767280Y-124951916D01*
X68470606Y-124835904D01*
X68157000Y-124780000D01*
X66177000Y-124780000D01*
X65923000Y-124780000D01*
X63943000Y-124780000D01*
X63629394Y-124835904D01*
X63332720Y-124951916D01*
X63064379Y-125123577D01*
X62834684Y-125344290D01*
X62652461Y-125605573D01*
X62524714Y-125897386D01*
X62494737Y-126021920D01*
X54210194Y-126021920D01*
X54290820Y-125865526D01*
X54417772Y-125423438D01*
X54456037Y-124965078D01*
X54404146Y-124508060D01*
X54264092Y-124069947D01*
X54080060Y-123725648D01*
X53744023Y-123545582D01*
X52289605Y-125000000D01*
X51930395Y-125000000D01*
X50475977Y-123545582D01*
X50139940Y-123725648D01*
X49929180Y-124134474D01*
X49802228Y-124576562D01*
X49763963Y-125034922D01*
X49370206Y-125034922D01*
X49376037Y-124965078D01*
X49324146Y-124508060D01*
X49184092Y-124069947D01*
X49000060Y-123725648D01*
X48664023Y-123545582D01*
X47209605Y-125000000D01*
X46850395Y-125000000D01*
X46836253Y-124985858D01*
X47015858Y-124806253D01*
X47030000Y-124820395D01*
X48484418Y-123365977D01*
X50655582Y-123365977D01*
X52110000Y-124820395D01*
X53564418Y-123365977D01*
X53384352Y-123029940D01*
X52975526Y-122819180D01*
X52533438Y-122692228D01*
X52075078Y-122653963D01*
X51618060Y-122705854D01*
X51179947Y-122845908D01*
X50835648Y-123029940D01*
X50655582Y-123365977D01*
X48484418Y-123365977D01*
X48304352Y-123029940D01*
X47895526Y-122819180D01*
X47453438Y-122692228D01*
X46995078Y-122653963D01*
X46538060Y-122705854D01*
X46099947Y-122845908D01*
X45755648Y-123029940D01*
X45627000Y-123270021D01*
X45627000Y-121627000D01*
X69773000Y-121627000D01*
X69773000Y-131873000D01*
G36*
X69773000Y-156873000D02*
G01*
X45627000Y-156873000D01*
X45627000Y-151729979D01*
X45755648Y-151970060D01*
X46164474Y-152180820D01*
X46606562Y-152307772D01*
X47064922Y-152346037D01*
X47521940Y-152294146D01*
X47960053Y-152154092D01*
X48304352Y-151970060D01*
X48484418Y-151634023D01*
X50655582Y-151634023D01*
X50835648Y-151970060D01*
X51244474Y-152180820D01*
X51686562Y-152307772D01*
X52144922Y-152346037D01*
X52601940Y-152294146D01*
X53040053Y-152154092D01*
X53384352Y-151970060D01*
X53487224Y-151778080D01*
X62494737Y-151778080D01*
X62524714Y-151902614D01*
X62652461Y-152194427D01*
X62834684Y-152455710D01*
X63064379Y-152676423D01*
X63332720Y-152848084D01*
X63629394Y-152964096D01*
X63943000Y-153020000D01*
X65923000Y-153020000D01*
X65923000Y-151527000D01*
X66177000Y-151527000D01*
X66177000Y-153020000D01*
X68157000Y-153020000D01*
X68470606Y-152964096D01*
X68767280Y-152848084D01*
X69035621Y-152676423D01*
X69265316Y-152455710D01*
X69447539Y-152194427D01*
X69575286Y-151902614D01*
X69605263Y-151778080D01*
X69485721Y-151527000D01*
X66177000Y-151527000D01*
X65923000Y-151527000D01*
X62614279Y-151527000D01*
X62494737Y-151778080D01*
X53487224Y-151778080D01*
X53564418Y-151634023D01*
X52110000Y-150179605D01*
X50655582Y-151634023D01*
X48484418Y-151634023D01*
X47030000Y-150179605D01*
X47015858Y-150193748D01*
X46836253Y-150014143D01*
X46850395Y-150000000D01*
X47209605Y-150000000D01*
X48664023Y-151454418D01*
X49000060Y-151274352D01*
X49210820Y-150865526D01*
X49337772Y-150423438D01*
X49370206Y-150034922D01*
X49763963Y-150034922D01*
X49815854Y-150491940D01*
X49955908Y-150930053D01*
X50139940Y-151274352D01*
X50475977Y-151454418D01*
X51930395Y-150000000D01*
X52289605Y-150000000D01*
X53744023Y-151454418D01*
X54080060Y-151274352D01*
X54210194Y-151021920D01*
X62494737Y-151021920D01*
X62614279Y-151273000D01*
X65923000Y-151273000D01*
X65923000Y-149780000D01*
X66177000Y-149780000D01*
X66177000Y-151273000D01*
X69485721Y-151273000D01*
X69605263Y-151021920D01*
X69575286Y-150897386D01*
X69447539Y-150605573D01*
X69265316Y-150344290D01*
X69035621Y-150123577D01*
X68767280Y-149951916D01*
X68470606Y-149835904D01*
X68157000Y-149780000D01*
X66177000Y-149780000D01*
X65923000Y-149780000D01*
X63943000Y-149780000D01*
X63629394Y-149835904D01*
X63332720Y-149951916D01*
X63064379Y-150123577D01*
X62834684Y-150344290D01*
X62652461Y-150605573D01*
X62524714Y-150897386D01*
X62494737Y-151021920D01*
X54210194Y-151021920D01*
X54290820Y-150865526D01*
X54417772Y-150423438D01*
X54456037Y-149965078D01*
X54404146Y-149508060D01*
X54264092Y-149069947D01*
X54080060Y-148725648D01*
X53744023Y-148545582D01*
X52289605Y-150000000D01*
X51930395Y-150000000D01*
X50475977Y-148545582D01*
X50139940Y-148725648D01*
X49929180Y-149134474D01*
X49802228Y-149576562D01*
X49763963Y-150034922D01*
X49370206Y-150034922D01*
X49376037Y-149965078D01*
X49324146Y-149508060D01*
X49184092Y-149069947D01*
X49000060Y-148725648D01*
X48664023Y-148545582D01*
X47209605Y-150000000D01*
X46850395Y-150000000D01*
X46836253Y-149985858D01*
X47015858Y-149806253D01*
X47030000Y-149820395D01*
X48484418Y-148365977D01*
X50655582Y-148365977D01*
X52110000Y-149820395D01*
X53564418Y-148365977D01*
X53384352Y-148029940D01*
X52975526Y-147819180D01*
X52533438Y-147692228D01*
X52075078Y-147653963D01*
X51618060Y-147705854D01*
X51179947Y-147845908D01*
X50835648Y-148029940D01*
X50655582Y-148365977D01*
X48484418Y-148365977D01*
X48304352Y-148029940D01*
X47895526Y-147819180D01*
X47453438Y-147692228D01*
X46995078Y-147653963D01*
X46538060Y-147705854D01*
X46099947Y-147845908D01*
X45755648Y-148029940D01*
X45627000Y-148270021D01*
X45627000Y-146627000D01*
X69773000Y-146627000D01*
X69773000Y-156873000D01*
G37*
X69773000Y-156873000D02*
X45627000Y-156873000D01*
X45627000Y-151729979D01*
X45755648Y-151970060D01*
X46164474Y-152180820D01*
X46606562Y-152307772D01*
X47064922Y-152346037D01*
X47521940Y-152294146D01*
X47960053Y-152154092D01*
X48304352Y-151970060D01*
X48484418Y-151634023D01*
X50655582Y-151634023D01*
X50835648Y-151970060D01*
X51244474Y-152180820D01*
X51686562Y-152307772D01*
X52144922Y-152346037D01*
X52601940Y-152294146D01*
X53040053Y-152154092D01*
X53384352Y-151970060D01*
X53487224Y-151778080D01*
X62494737Y-151778080D01*
X62524714Y-151902614D01*
X62652461Y-152194427D01*
X62834684Y-152455710D01*
X63064379Y-152676423D01*
X63332720Y-152848084D01*
X63629394Y-152964096D01*
X63943000Y-153020000D01*
X65923000Y-153020000D01*
X65923000Y-151527000D01*
X66177000Y-151527000D01*
X66177000Y-153020000D01*
X68157000Y-153020000D01*
X68470606Y-152964096D01*
X68767280Y-152848084D01*
X69035621Y-152676423D01*
X69265316Y-152455710D01*
X69447539Y-152194427D01*
X69575286Y-151902614D01*
X69605263Y-151778080D01*
X69485721Y-151527000D01*
X66177000Y-151527000D01*
X65923000Y-151527000D01*
X62614279Y-151527000D01*
X62494737Y-151778080D01*
X53487224Y-151778080D01*
X53564418Y-151634023D01*
X52110000Y-150179605D01*
X50655582Y-151634023D01*
X48484418Y-151634023D01*
X47030000Y-150179605D01*
X47015858Y-150193748D01*
X46836253Y-150014143D01*
X46850395Y-150000000D01*
X47209605Y-150000000D01*
X48664023Y-151454418D01*
X49000060Y-151274352D01*
X49210820Y-150865526D01*
X49337772Y-150423438D01*
X49370206Y-150034922D01*
X49763963Y-150034922D01*
X49815854Y-150491940D01*
X49955908Y-150930053D01*
X50139940Y-151274352D01*
X50475977Y-151454418D01*
X51930395Y-150000000D01*
X52289605Y-150000000D01*
X53744023Y-151454418D01*
X54080060Y-151274352D01*
X54210194Y-151021920D01*
X62494737Y-151021920D01*
X62614279Y-151273000D01*
X65923000Y-151273000D01*
X65923000Y-149780000D01*
X66177000Y-149780000D01*
X66177000Y-151273000D01*
X69485721Y-151273000D01*
X69605263Y-151021920D01*
X69575286Y-150897386D01*
X69447539Y-150605573D01*
X69265316Y-150344290D01*
X69035621Y-150123577D01*
X68767280Y-149951916D01*
X68470606Y-149835904D01*
X68157000Y-149780000D01*
X66177000Y-149780000D01*
X65923000Y-149780000D01*
X63943000Y-149780000D01*
X63629394Y-149835904D01*
X63332720Y-149951916D01*
X63064379Y-150123577D01*
X62834684Y-150344290D01*
X62652461Y-150605573D01*
X62524714Y-150897386D01*
X62494737Y-151021920D01*
X54210194Y-151021920D01*
X54290820Y-150865526D01*
X54417772Y-150423438D01*
X54456037Y-149965078D01*
X54404146Y-149508060D01*
X54264092Y-149069947D01*
X54080060Y-148725648D01*
X53744023Y-148545582D01*
X52289605Y-150000000D01*
X51930395Y-150000000D01*
X50475977Y-148545582D01*
X50139940Y-148725648D01*
X49929180Y-149134474D01*
X49802228Y-149576562D01*
X49763963Y-150034922D01*
X49370206Y-150034922D01*
X49376037Y-149965078D01*
X49324146Y-149508060D01*
X49184092Y-149069947D01*
X49000060Y-148725648D01*
X48664023Y-148545582D01*
X47209605Y-150000000D01*
X46850395Y-150000000D01*
X46836253Y-149985858D01*
X47015858Y-149806253D01*
X47030000Y-149820395D01*
X48484418Y-148365977D01*
X50655582Y-148365977D01*
X52110000Y-149820395D01*
X53564418Y-148365977D01*
X53384352Y-148029940D01*
X52975526Y-147819180D01*
X52533438Y-147692228D01*
X52075078Y-147653963D01*
X51618060Y-147705854D01*
X51179947Y-147845908D01*
X50835648Y-148029940D01*
X50655582Y-148365977D01*
X48484418Y-148365977D01*
X48304352Y-148029940D01*
X47895526Y-147819180D01*
X47453438Y-147692228D01*
X46995078Y-147653963D01*
X46538060Y-147705854D01*
X46099947Y-147845908D01*
X45755648Y-148029940D01*
X45627000Y-148270021D01*
X45627000Y-146627000D01*
X69773000Y-146627000D01*
X69773000Y-156873000D01*
G36*
X69773000Y-181873000D02*
G01*
X45627000Y-181873000D01*
X45627000Y-176729979D01*
X45755648Y-176970060D01*
X46164474Y-177180820D01*
X46606562Y-177307772D01*
X47064922Y-177346037D01*
X47521940Y-177294146D01*
X47960053Y-177154092D01*
X48304352Y-176970060D01*
X48484418Y-176634023D01*
X50655582Y-176634023D01*
X50835648Y-176970060D01*
X51244474Y-177180820D01*
X51686562Y-177307772D01*
X52144922Y-177346037D01*
X52601940Y-177294146D01*
X53040053Y-177154092D01*
X53384352Y-176970060D01*
X53487224Y-176778080D01*
X62494737Y-176778080D01*
X62524714Y-176902614D01*
X62652461Y-177194427D01*
X62834684Y-177455710D01*
X63064379Y-177676423D01*
X63332720Y-177848084D01*
X63629394Y-177964096D01*
X63943000Y-178020000D01*
X65923000Y-178020000D01*
X65923000Y-176527000D01*
X66177000Y-176527000D01*
X66177000Y-178020000D01*
X68157000Y-178020000D01*
X68470606Y-177964096D01*
X68767280Y-177848084D01*
X69035621Y-177676423D01*
X69265316Y-177455710D01*
X69447539Y-177194427D01*
X69575286Y-176902614D01*
X69605263Y-176778080D01*
X69485721Y-176527000D01*
X66177000Y-176527000D01*
X65923000Y-176527000D01*
X62614279Y-176527000D01*
X62494737Y-176778080D01*
X53487224Y-176778080D01*
X53564418Y-176634023D01*
X52110000Y-175179605D01*
X50655582Y-176634023D01*
X48484418Y-176634023D01*
X47030000Y-175179605D01*
X47015858Y-175193748D01*
X46836253Y-175014143D01*
X46850395Y-175000000D01*
X47209605Y-175000000D01*
X48664023Y-176454418D01*
X49000060Y-176274352D01*
X49210820Y-175865526D01*
X49337772Y-175423438D01*
X49370206Y-175034922D01*
X49763963Y-175034922D01*
X49815854Y-175491940D01*
X49955908Y-175930053D01*
X50139940Y-176274352D01*
X50475977Y-176454418D01*
X51930395Y-175000000D01*
X52289605Y-175000000D01*
X53744023Y-176454418D01*
X54080060Y-176274352D01*
X54210194Y-176021920D01*
X62494737Y-176021920D01*
X62614279Y-176273000D01*
X65923000Y-176273000D01*
X65923000Y-174780000D01*
X66177000Y-174780000D01*
X66177000Y-176273000D01*
X69485721Y-176273000D01*
X69605263Y-176021920D01*
X69575286Y-175897386D01*
X69447539Y-175605573D01*
X69265316Y-175344290D01*
X69035621Y-175123577D01*
X68767280Y-174951916D01*
X68470606Y-174835904D01*
X68157000Y-174780000D01*
X66177000Y-174780000D01*
X65923000Y-174780000D01*
X63943000Y-174780000D01*
X63629394Y-174835904D01*
X63332720Y-174951916D01*
X63064379Y-175123577D01*
X62834684Y-175344290D01*
X62652461Y-175605573D01*
X62524714Y-175897386D01*
X62494737Y-176021920D01*
X54210194Y-176021920D01*
X54290820Y-175865526D01*
X54417772Y-175423438D01*
X54456037Y-174965078D01*
X54404146Y-174508060D01*
X54264092Y-174069947D01*
X54080060Y-173725648D01*
X53744023Y-173545582D01*
X52289605Y-175000000D01*
X51930395Y-175000000D01*
X50475977Y-173545582D01*
X50139940Y-173725648D01*
X49929180Y-174134474D01*
X49802228Y-174576562D01*
X49763963Y-175034922D01*
X49370206Y-175034922D01*
X49376037Y-174965078D01*
X49324146Y-174508060D01*
X49184092Y-174069947D01*
X49000060Y-173725648D01*
X48664023Y-173545582D01*
X47209605Y-175000000D01*
X46850395Y-175000000D01*
X46836253Y-174985858D01*
X47015858Y-174806253D01*
X47030000Y-174820395D01*
X48484418Y-173365977D01*
X50655582Y-173365977D01*
X52110000Y-174820395D01*
X53564418Y-173365977D01*
X53384352Y-173029940D01*
X52975526Y-172819180D01*
X52533438Y-172692228D01*
X52075078Y-172653963D01*
X51618060Y-172705854D01*
X51179947Y-172845908D01*
X50835648Y-173029940D01*
X50655582Y-173365977D01*
X48484418Y-173365977D01*
X48304352Y-173029940D01*
X47895526Y-172819180D01*
X47453438Y-172692228D01*
X46995078Y-172653963D01*
X46538060Y-172705854D01*
X46099947Y-172845908D01*
X45755648Y-173029940D01*
X45627000Y-173270021D01*
X45627000Y-171627000D01*
X69773000Y-171627000D01*
X69773000Y-181873000D01*
G37*
X69773000Y-181873000D02*
X45627000Y-181873000D01*
X45627000Y-176729979D01*
X45755648Y-176970060D01*
X46164474Y-177180820D01*
X46606562Y-177307772D01*
X47064922Y-177346037D01*
X47521940Y-177294146D01*
X47960053Y-177154092D01*
X48304352Y-176970060D01*
X48484418Y-176634023D01*
X50655582Y-176634023D01*
X50835648Y-176970060D01*
X51244474Y-177180820D01*
X51686562Y-177307772D01*
X52144922Y-177346037D01*
X52601940Y-177294146D01*
X53040053Y-177154092D01*
X53384352Y-176970060D01*
X53487224Y-176778080D01*
X62494737Y-176778080D01*
X62524714Y-176902614D01*
X62652461Y-177194427D01*
X62834684Y-177455710D01*
X63064379Y-177676423D01*
X63332720Y-177848084D01*
X63629394Y-177964096D01*
X63943000Y-178020000D01*
X65923000Y-178020000D01*
X65923000Y-176527000D01*
X66177000Y-176527000D01*
X66177000Y-178020000D01*
X68157000Y-178020000D01*
X68470606Y-177964096D01*
X68767280Y-177848084D01*
X69035621Y-177676423D01*
X69265316Y-177455710D01*
X69447539Y-177194427D01*
X69575286Y-176902614D01*
X69605263Y-176778080D01*
X69485721Y-176527000D01*
X66177000Y-176527000D01*
X65923000Y-176527000D01*
X62614279Y-176527000D01*
X62494737Y-176778080D01*
X53487224Y-176778080D01*
X53564418Y-176634023D01*
X52110000Y-175179605D01*
X50655582Y-176634023D01*
X48484418Y-176634023D01*
X47030000Y-175179605D01*
X47015858Y-175193748D01*
X46836253Y-175014143D01*
X46850395Y-175000000D01*
X47209605Y-175000000D01*
X48664023Y-176454418D01*
X49000060Y-176274352D01*
X49210820Y-175865526D01*
X49337772Y-175423438D01*
X49370206Y-175034922D01*
X49763963Y-175034922D01*
X49815854Y-175491940D01*
X49955908Y-175930053D01*
X50139940Y-176274352D01*
X50475977Y-176454418D01*
X51930395Y-175000000D01*
X52289605Y-175000000D01*
X53744023Y-176454418D01*
X54080060Y-176274352D01*
X54210194Y-176021920D01*
X62494737Y-176021920D01*
X62614279Y-176273000D01*
X65923000Y-176273000D01*
X65923000Y-174780000D01*
X66177000Y-174780000D01*
X66177000Y-176273000D01*
X69485721Y-176273000D01*
X69605263Y-176021920D01*
X69575286Y-175897386D01*
X69447539Y-175605573D01*
X69265316Y-175344290D01*
X69035621Y-175123577D01*
X68767280Y-174951916D01*
X68470606Y-174835904D01*
X68157000Y-174780000D01*
X66177000Y-174780000D01*
X65923000Y-174780000D01*
X63943000Y-174780000D01*
X63629394Y-174835904D01*
X63332720Y-174951916D01*
X63064379Y-175123577D01*
X62834684Y-175344290D01*
X62652461Y-175605573D01*
X62524714Y-175897386D01*
X62494737Y-176021920D01*
X54210194Y-176021920D01*
X54290820Y-175865526D01*
X54417772Y-175423438D01*
X54456037Y-174965078D01*
X54404146Y-174508060D01*
X54264092Y-174069947D01*
X54080060Y-173725648D01*
X53744023Y-173545582D01*
X52289605Y-175000000D01*
X51930395Y-175000000D01*
X50475977Y-173545582D01*
X50139940Y-173725648D01*
X49929180Y-174134474D01*
X49802228Y-174576562D01*
X49763963Y-175034922D01*
X49370206Y-175034922D01*
X49376037Y-174965078D01*
X49324146Y-174508060D01*
X49184092Y-174069947D01*
X49000060Y-173725648D01*
X48664023Y-173545582D01*
X47209605Y-175000000D01*
X46850395Y-175000000D01*
X46836253Y-174985858D01*
X47015858Y-174806253D01*
X47030000Y-174820395D01*
X48484418Y-173365977D01*
X50655582Y-173365977D01*
X52110000Y-174820395D01*
X53564418Y-173365977D01*
X53384352Y-173029940D01*
X52975526Y-172819180D01*
X52533438Y-172692228D01*
X52075078Y-172653963D01*
X51618060Y-172705854D01*
X51179947Y-172845908D01*
X50835648Y-173029940D01*
X50655582Y-173365977D01*
X48484418Y-173365977D01*
X48304352Y-173029940D01*
X47895526Y-172819180D01*
X47453438Y-172692228D01*
X46995078Y-172653963D01*
X46538060Y-172705854D01*
X46099947Y-172845908D01*
X45755648Y-173029940D01*
X45627000Y-173270021D01*
X45627000Y-171627000D01*
X69773000Y-171627000D01*
X69773000Y-181873000D01*
G36*
X124557564Y-173270266D02*
G01*
X124538845Y-173251547D01*
X124424417Y-173365975D01*
X124244352Y-173029940D01*
X123835526Y-172819180D01*
X123393438Y-172692228D01*
X122935078Y-172653963D01*
X122478060Y-172705854D01*
X122039947Y-172845908D01*
X121695648Y-173029940D01*
X121515582Y-173365977D01*
X122970000Y-174820395D01*
X122984143Y-174806253D01*
X123163748Y-174985858D01*
X123149605Y-175000000D01*
X123163748Y-175014143D01*
X122984143Y-175193748D01*
X122970000Y-175179605D01*
X121515582Y-176634023D01*
X121695648Y-176970060D01*
X122104474Y-177180820D01*
X122546562Y-177307772D01*
X123004922Y-177346037D01*
X123461940Y-177294146D01*
X123900053Y-177154092D01*
X124244352Y-176970060D01*
X124424417Y-176634025D01*
X124538845Y-176748453D01*
X124557564Y-176729734D01*
X124557564Y-178373000D01*
X100411564Y-178373000D01*
X100411564Y-176634023D01*
X116435582Y-176634023D01*
X116615648Y-176970060D01*
X117024474Y-177180820D01*
X117466562Y-177307772D01*
X117924922Y-177346037D01*
X118381940Y-177294146D01*
X118820053Y-177154092D01*
X119164352Y-176970060D01*
X119344418Y-176634023D01*
X117890000Y-175179605D01*
X116435582Y-176634023D01*
X100411564Y-176634023D01*
X100411564Y-174047985D01*
X100424714Y-174102614D01*
X100552461Y-174394427D01*
X100734684Y-174655710D01*
X100964379Y-174876423D01*
X101232720Y-175048084D01*
X101529394Y-175164096D01*
X101843000Y-175220000D01*
X103823000Y-175220000D01*
X103823000Y-173727000D01*
X104077000Y-173727000D01*
X104077000Y-175220000D01*
X106057000Y-175220000D01*
X106370606Y-175164096D01*
X106667280Y-175048084D01*
X106687854Y-175034922D01*
X115543963Y-175034922D01*
X115595854Y-175491940D01*
X115735908Y-175930053D01*
X115919940Y-176274352D01*
X116255977Y-176454418D01*
X117710395Y-175000000D01*
X118069605Y-175000000D01*
X119524023Y-176454418D01*
X119860060Y-176274352D01*
X120070820Y-175865526D01*
X120197772Y-175423438D01*
X120230206Y-175034922D01*
X120623963Y-175034922D01*
X120675854Y-175491940D01*
X120815908Y-175930053D01*
X120999940Y-176274352D01*
X121335977Y-176454418D01*
X122790395Y-175000000D01*
X121335977Y-173545582D01*
X120999940Y-173725648D01*
X120789180Y-174134474D01*
X120662228Y-174576562D01*
X120623963Y-175034922D01*
X120230206Y-175034922D01*
X120236037Y-174965078D01*
X120184146Y-174508060D01*
X120044092Y-174069947D01*
X119860060Y-173725648D01*
X119524023Y-173545582D01*
X118069605Y-175000000D01*
X117710395Y-175000000D01*
X116255977Y-173545582D01*
X115919940Y-173725648D01*
X115709180Y-174134474D01*
X115582228Y-174576562D01*
X115543963Y-175034922D01*
X106687854Y-175034922D01*
X106935621Y-174876423D01*
X107165316Y-174655710D01*
X107347539Y-174394427D01*
X107475286Y-174102614D01*
X107505263Y-173978080D01*
X107385721Y-173727000D01*
X104077000Y-173727000D01*
X103823000Y-173727000D01*
X103803000Y-173727000D01*
X103803000Y-173473000D01*
X103823000Y-173473000D01*
X103823000Y-171980000D01*
X104077000Y-171980000D01*
X104077000Y-173473000D01*
X107385721Y-173473000D01*
X107436675Y-173365977D01*
X116435582Y-173365977D01*
X117890000Y-174820395D01*
X119344418Y-173365977D01*
X119164352Y-173029940D01*
X118755526Y-172819180D01*
X118313438Y-172692228D01*
X117855078Y-172653963D01*
X117398060Y-172705854D01*
X116959947Y-172845908D01*
X116615648Y-173029940D01*
X116435582Y-173365977D01*
X107436675Y-173365977D01*
X107505263Y-173221920D01*
X107475286Y-173097386D01*
X107347539Y-172805573D01*
X107165316Y-172544290D01*
X106935621Y-172323577D01*
X106667280Y-172151916D01*
X106370606Y-172035904D01*
X106057000Y-171980000D01*
X104077000Y-171980000D01*
X103823000Y-171980000D01*
X101843000Y-171980000D01*
X101529394Y-172035904D01*
X101232720Y-172151916D01*
X100964379Y-172323577D01*
X100734684Y-172544290D01*
X100552461Y-172805573D01*
X100424714Y-173097386D01*
X100411564Y-173152015D01*
X100411564Y-168127000D01*
X124557564Y-168127000D01*
X124557564Y-173270266D01*
G37*
X124557564Y-173270266D02*
X124538845Y-173251547D01*
X124424417Y-173365975D01*
X124244352Y-173029940D01*
X123835526Y-172819180D01*
X123393438Y-172692228D01*
X122935078Y-172653963D01*
X122478060Y-172705854D01*
X122039947Y-172845908D01*
X121695648Y-173029940D01*
X121515582Y-173365977D01*
X122970000Y-174820395D01*
X122984143Y-174806253D01*
X123163748Y-174985858D01*
X123149605Y-175000000D01*
X123163748Y-175014143D01*
X122984143Y-175193748D01*
X122970000Y-175179605D01*
X121515582Y-176634023D01*
X121695648Y-176970060D01*
X122104474Y-177180820D01*
X122546562Y-177307772D01*
X123004922Y-177346037D01*
X123461940Y-177294146D01*
X123900053Y-177154092D01*
X124244352Y-176970060D01*
X124424417Y-176634025D01*
X124538845Y-176748453D01*
X124557564Y-176729734D01*
X124557564Y-178373000D01*
X100411564Y-178373000D01*
X100411564Y-176634023D01*
X116435582Y-176634023D01*
X116615648Y-176970060D01*
X117024474Y-177180820D01*
X117466562Y-177307772D01*
X117924922Y-177346037D01*
X118381940Y-177294146D01*
X118820053Y-177154092D01*
X119164352Y-176970060D01*
X119344418Y-176634023D01*
X117890000Y-175179605D01*
X116435582Y-176634023D01*
X100411564Y-176634023D01*
X100411564Y-174047985D01*
X100424714Y-174102614D01*
X100552461Y-174394427D01*
X100734684Y-174655710D01*
X100964379Y-174876423D01*
X101232720Y-175048084D01*
X101529394Y-175164096D01*
X101843000Y-175220000D01*
X103823000Y-175220000D01*
X103823000Y-173727000D01*
X104077000Y-173727000D01*
X104077000Y-175220000D01*
X106057000Y-175220000D01*
X106370606Y-175164096D01*
X106667280Y-175048084D01*
X106687854Y-175034922D01*
X115543963Y-175034922D01*
X115595854Y-175491940D01*
X115735908Y-175930053D01*
X115919940Y-176274352D01*
X116255977Y-176454418D01*
X117710395Y-175000000D01*
X118069605Y-175000000D01*
X119524023Y-176454418D01*
X119860060Y-176274352D01*
X120070820Y-175865526D01*
X120197772Y-175423438D01*
X120230206Y-175034922D01*
X120623963Y-175034922D01*
X120675854Y-175491940D01*
X120815908Y-175930053D01*
X120999940Y-176274352D01*
X121335977Y-176454418D01*
X122790395Y-175000000D01*
X121335977Y-173545582D01*
X120999940Y-173725648D01*
X120789180Y-174134474D01*
X120662228Y-174576562D01*
X120623963Y-175034922D01*
X120230206Y-175034922D01*
X120236037Y-174965078D01*
X120184146Y-174508060D01*
X120044092Y-174069947D01*
X119860060Y-173725648D01*
X119524023Y-173545582D01*
X118069605Y-175000000D01*
X117710395Y-175000000D01*
X116255977Y-173545582D01*
X115919940Y-173725648D01*
X115709180Y-174134474D01*
X115582228Y-174576562D01*
X115543963Y-175034922D01*
X106687854Y-175034922D01*
X106935621Y-174876423D01*
X107165316Y-174655710D01*
X107347539Y-174394427D01*
X107475286Y-174102614D01*
X107505263Y-173978080D01*
X107385721Y-173727000D01*
X104077000Y-173727000D01*
X103823000Y-173727000D01*
X103803000Y-173727000D01*
X103803000Y-173473000D01*
X103823000Y-173473000D01*
X103823000Y-171980000D01*
X104077000Y-171980000D01*
X104077000Y-173473000D01*
X107385721Y-173473000D01*
X107436675Y-173365977D01*
X116435582Y-173365977D01*
X117890000Y-174820395D01*
X119344418Y-173365977D01*
X119164352Y-173029940D01*
X118755526Y-172819180D01*
X118313438Y-172692228D01*
X117855078Y-172653963D01*
X117398060Y-172705854D01*
X116959947Y-172845908D01*
X116615648Y-173029940D01*
X116435582Y-173365977D01*
X107436675Y-173365977D01*
X107505263Y-173221920D01*
X107475286Y-173097386D01*
X107347539Y-172805573D01*
X107165316Y-172544290D01*
X106935621Y-172323577D01*
X106667280Y-172151916D01*
X106370606Y-172035904D01*
X106057000Y-171980000D01*
X104077000Y-171980000D01*
X103823000Y-171980000D01*
X101843000Y-171980000D01*
X101529394Y-172035904D01*
X101232720Y-172151916D01*
X100964379Y-172323577D01*
X100734684Y-172544290D01*
X100552461Y-172805573D01*
X100424714Y-173097386D01*
X100411564Y-173152015D01*
X100411564Y-168127000D01*
X124557564Y-168127000D01*
X124557564Y-173270266D01*
G36*
X124557564Y-73270266D02*
G01*
X124538845Y-73251547D01*
X124424417Y-73365975D01*
X124244352Y-73029940D01*
X123835526Y-72819180D01*
X123393438Y-72692228D01*
X122935078Y-72653963D01*
X122478060Y-72705854D01*
X122039947Y-72845908D01*
X121695648Y-73029940D01*
X121515582Y-73365977D01*
X122970000Y-74820395D01*
X122984143Y-74806253D01*
X123163748Y-74985858D01*
X123149605Y-75000000D01*
X123163748Y-75014143D01*
X122984143Y-75193748D01*
X122970000Y-75179605D01*
X121515582Y-76634023D01*
X121695648Y-76970060D01*
X122104474Y-77180820D01*
X122546562Y-77307772D01*
X123004922Y-77346037D01*
X123461940Y-77294146D01*
X123900053Y-77154092D01*
X124244352Y-76970060D01*
X124424417Y-76634025D01*
X124538845Y-76748453D01*
X124557564Y-76729734D01*
X124557564Y-81373000D01*
X100411564Y-81373000D01*
X100411564Y-76634023D01*
X116435582Y-76634023D01*
X116615648Y-76970060D01*
X117024474Y-77180820D01*
X117466562Y-77307772D01*
X117924922Y-77346037D01*
X118381940Y-77294146D01*
X118820053Y-77154092D01*
X119164352Y-76970060D01*
X119344418Y-76634023D01*
X117890000Y-75179605D01*
X116435582Y-76634023D01*
X100411564Y-76634023D01*
X100411564Y-74047985D01*
X100424714Y-74102614D01*
X100552461Y-74394427D01*
X100734684Y-74655710D01*
X100964379Y-74876423D01*
X101232720Y-75048084D01*
X101529394Y-75164096D01*
X101843000Y-75220000D01*
X103823000Y-75220000D01*
X103823000Y-73727000D01*
X104077000Y-73727000D01*
X104077000Y-75220000D01*
X106057000Y-75220000D01*
X106370606Y-75164096D01*
X106667280Y-75048084D01*
X106687854Y-75034922D01*
X115543963Y-75034922D01*
X115595854Y-75491940D01*
X115735908Y-75930053D01*
X115919940Y-76274352D01*
X116255977Y-76454418D01*
X117710395Y-75000000D01*
X118069605Y-75000000D01*
X119524023Y-76454418D01*
X119860060Y-76274352D01*
X120070820Y-75865526D01*
X120197772Y-75423438D01*
X120230206Y-75034922D01*
X120623963Y-75034922D01*
X120675854Y-75491940D01*
X120815908Y-75930053D01*
X120999940Y-76274352D01*
X121335977Y-76454418D01*
X122790395Y-75000000D01*
X121335977Y-73545582D01*
X120999940Y-73725648D01*
X120789180Y-74134474D01*
X120662228Y-74576562D01*
X120623963Y-75034922D01*
X120230206Y-75034922D01*
X120236037Y-74965078D01*
X120184146Y-74508060D01*
X120044092Y-74069947D01*
X119860060Y-73725648D01*
X119524023Y-73545582D01*
X118069605Y-75000000D01*
X117710395Y-75000000D01*
X116255977Y-73545582D01*
X115919940Y-73725648D01*
X115709180Y-74134474D01*
X115582228Y-74576562D01*
X115543963Y-75034922D01*
X106687854Y-75034922D01*
X106935621Y-74876423D01*
X107165316Y-74655710D01*
X107347539Y-74394427D01*
X107475286Y-74102614D01*
X107505263Y-73978080D01*
X107385721Y-73727000D01*
X104077000Y-73727000D01*
X103823000Y-73727000D01*
X103803000Y-73727000D01*
X103803000Y-73473000D01*
X103823000Y-73473000D01*
X103823000Y-71980000D01*
X104077000Y-71980000D01*
X104077000Y-73473000D01*
X107385721Y-73473000D01*
X107436675Y-73365977D01*
X116435582Y-73365977D01*
X117890000Y-74820395D01*
X119344418Y-73365977D01*
X119164352Y-73029940D01*
X118755526Y-72819180D01*
X118313438Y-72692228D01*
X117855078Y-72653963D01*
X117398060Y-72705854D01*
X116959947Y-72845908D01*
X116615648Y-73029940D01*
X116435582Y-73365977D01*
X107436675Y-73365977D01*
X107505263Y-73221920D01*
X107475286Y-73097386D01*
X107347539Y-72805573D01*
X107165316Y-72544290D01*
X106935621Y-72323577D01*
X106667280Y-72151916D01*
X106370606Y-72035904D01*
X106057000Y-71980000D01*
X104077000Y-71980000D01*
X103823000Y-71980000D01*
X101843000Y-71980000D01*
X101529394Y-72035904D01*
X101232720Y-72151916D01*
X100964379Y-72323577D01*
X100734684Y-72544290D01*
X100552461Y-72805573D01*
X100424714Y-73097386D01*
X100411564Y-73152015D01*
X100411564Y-71127000D01*
X124557564Y-71127000D01*
X124557564Y-73270266D01*
G37*
X124557564Y-73270266D02*
X124538845Y-73251547D01*
X124424417Y-73365975D01*
X124244352Y-73029940D01*
X123835526Y-72819180D01*
X123393438Y-72692228D01*
X122935078Y-72653963D01*
X122478060Y-72705854D01*
X122039947Y-72845908D01*
X121695648Y-73029940D01*
X121515582Y-73365977D01*
X122970000Y-74820395D01*
X122984143Y-74806253D01*
X123163748Y-74985858D01*
X123149605Y-75000000D01*
X123163748Y-75014143D01*
X122984143Y-75193748D01*
X122970000Y-75179605D01*
X121515582Y-76634023D01*
X121695648Y-76970060D01*
X122104474Y-77180820D01*
X122546562Y-77307772D01*
X123004922Y-77346037D01*
X123461940Y-77294146D01*
X123900053Y-77154092D01*
X124244352Y-76970060D01*
X124424417Y-76634025D01*
X124538845Y-76748453D01*
X124557564Y-76729734D01*
X124557564Y-81373000D01*
X100411564Y-81373000D01*
X100411564Y-76634023D01*
X116435582Y-76634023D01*
X116615648Y-76970060D01*
X117024474Y-77180820D01*
X117466562Y-77307772D01*
X117924922Y-77346037D01*
X118381940Y-77294146D01*
X118820053Y-77154092D01*
X119164352Y-76970060D01*
X119344418Y-76634023D01*
X117890000Y-75179605D01*
X116435582Y-76634023D01*
X100411564Y-76634023D01*
X100411564Y-74047985D01*
X100424714Y-74102614D01*
X100552461Y-74394427D01*
X100734684Y-74655710D01*
X100964379Y-74876423D01*
X101232720Y-75048084D01*
X101529394Y-75164096D01*
X101843000Y-75220000D01*
X103823000Y-75220000D01*
X103823000Y-73727000D01*
X104077000Y-73727000D01*
X104077000Y-75220000D01*
X106057000Y-75220000D01*
X106370606Y-75164096D01*
X106667280Y-75048084D01*
X106687854Y-75034922D01*
X115543963Y-75034922D01*
X115595854Y-75491940D01*
X115735908Y-75930053D01*
X115919940Y-76274352D01*
X116255977Y-76454418D01*
X117710395Y-75000000D01*
X118069605Y-75000000D01*
X119524023Y-76454418D01*
X119860060Y-76274352D01*
X120070820Y-75865526D01*
X120197772Y-75423438D01*
X120230206Y-75034922D01*
X120623963Y-75034922D01*
X120675854Y-75491940D01*
X120815908Y-75930053D01*
X120999940Y-76274352D01*
X121335977Y-76454418D01*
X122790395Y-75000000D01*
X121335977Y-73545582D01*
X120999940Y-73725648D01*
X120789180Y-74134474D01*
X120662228Y-74576562D01*
X120623963Y-75034922D01*
X120230206Y-75034922D01*
X120236037Y-74965078D01*
X120184146Y-74508060D01*
X120044092Y-74069947D01*
X119860060Y-73725648D01*
X119524023Y-73545582D01*
X118069605Y-75000000D01*
X117710395Y-75000000D01*
X116255977Y-73545582D01*
X115919940Y-73725648D01*
X115709180Y-74134474D01*
X115582228Y-74576562D01*
X115543963Y-75034922D01*
X106687854Y-75034922D01*
X106935621Y-74876423D01*
X107165316Y-74655710D01*
X107347539Y-74394427D01*
X107475286Y-74102614D01*
X107505263Y-73978080D01*
X107385721Y-73727000D01*
X104077000Y-73727000D01*
X103823000Y-73727000D01*
X103803000Y-73727000D01*
X103803000Y-73473000D01*
X103823000Y-73473000D01*
X103823000Y-71980000D01*
X104077000Y-71980000D01*
X104077000Y-73473000D01*
X107385721Y-73473000D01*
X107436675Y-73365977D01*
X116435582Y-73365977D01*
X117890000Y-74820395D01*
X119344418Y-73365977D01*
X119164352Y-73029940D01*
X118755526Y-72819180D01*
X118313438Y-72692228D01*
X117855078Y-72653963D01*
X117398060Y-72705854D01*
X116959947Y-72845908D01*
X116615648Y-73029940D01*
X116435582Y-73365977D01*
X107436675Y-73365977D01*
X107505263Y-73221920D01*
X107475286Y-73097386D01*
X107347539Y-72805573D01*
X107165316Y-72544290D01*
X106935621Y-72323577D01*
X106667280Y-72151916D01*
X106370606Y-72035904D01*
X106057000Y-71980000D01*
X104077000Y-71980000D01*
X103823000Y-71980000D01*
X101843000Y-71980000D01*
X101529394Y-72035904D01*
X101232720Y-72151916D01*
X100964379Y-72323577D01*
X100734684Y-72544290D01*
X100552461Y-72805573D01*
X100424714Y-73097386D01*
X100411564Y-73152015D01*
X100411564Y-71127000D01*
X124557564Y-71127000D01*
X124557564Y-73270266D01*
G36*
X124573317Y-98286019D02*
G01*
X124538845Y-98251547D01*
X124424417Y-98365975D01*
X124244352Y-98029940D01*
X123835526Y-97819180D01*
X123393438Y-97692228D01*
X122935078Y-97653963D01*
X122478060Y-97705854D01*
X122039947Y-97845908D01*
X121695648Y-98029940D01*
X121515582Y-98365977D01*
X122970000Y-99820395D01*
X122984143Y-99806253D01*
X123163748Y-99985858D01*
X123149605Y-100000000D01*
X123163748Y-100014143D01*
X122984143Y-100193748D01*
X122970000Y-100179605D01*
X121515582Y-101634023D01*
X121695648Y-101970060D01*
X122104474Y-102180820D01*
X122546562Y-102307772D01*
X123004922Y-102346037D01*
X123461940Y-102294146D01*
X123900053Y-102154092D01*
X124244352Y-101970060D01*
X124424417Y-101634025D01*
X124538845Y-101748453D01*
X124573317Y-101713981D01*
X124573317Y-106373000D01*
X100427317Y-106373000D01*
X100427317Y-101634023D01*
X116435582Y-101634023D01*
X116615648Y-101970060D01*
X117024474Y-102180820D01*
X117466562Y-102307772D01*
X117924922Y-102346037D01*
X118381940Y-102294146D01*
X118820053Y-102154092D01*
X119164352Y-101970060D01*
X119344418Y-101634023D01*
X117890000Y-100179605D01*
X116435582Y-101634023D01*
X100427317Y-101634023D01*
X100427317Y-99108560D01*
X100552461Y-99394427D01*
X100734684Y-99655710D01*
X100964379Y-99876423D01*
X101232720Y-100048084D01*
X101529394Y-100164096D01*
X101843000Y-100220000D01*
X103823000Y-100220000D01*
X103823000Y-98727000D01*
X104077000Y-98727000D01*
X104077000Y-100220000D01*
X106057000Y-100220000D01*
X106370606Y-100164096D01*
X106667280Y-100048084D01*
X106687854Y-100034922D01*
X115543963Y-100034922D01*
X115595854Y-100491940D01*
X115735908Y-100930053D01*
X115919940Y-101274352D01*
X116255977Y-101454418D01*
X117710395Y-100000000D01*
X118069605Y-100000000D01*
X119524023Y-101454418D01*
X119860060Y-101274352D01*
X120070820Y-100865526D01*
X120197772Y-100423438D01*
X120230206Y-100034922D01*
X120623963Y-100034922D01*
X120675854Y-100491940D01*
X120815908Y-100930053D01*
X120999940Y-101274352D01*
X121335977Y-101454418D01*
X122790395Y-100000000D01*
X121335977Y-98545582D01*
X120999940Y-98725648D01*
X120789180Y-99134474D01*
X120662228Y-99576562D01*
X120623963Y-100034922D01*
X120230206Y-100034922D01*
X120236037Y-99965078D01*
X120184146Y-99508060D01*
X120044092Y-99069947D01*
X119860060Y-98725648D01*
X119524023Y-98545582D01*
X118069605Y-100000000D01*
X117710395Y-100000000D01*
X116255977Y-98545582D01*
X115919940Y-98725648D01*
X115709180Y-99134474D01*
X115582228Y-99576562D01*
X115543963Y-100034922D01*
X106687854Y-100034922D01*
X106935621Y-99876423D01*
X107165316Y-99655710D01*
X107347539Y-99394427D01*
X107475286Y-99102614D01*
X107505263Y-98978080D01*
X107385721Y-98727000D01*
X104077000Y-98727000D01*
X103823000Y-98727000D01*
X103803000Y-98727000D01*
X103803000Y-98473000D01*
X103823000Y-98473000D01*
X103823000Y-96980000D01*
X104077000Y-96980000D01*
X104077000Y-98473000D01*
X107385721Y-98473000D01*
X107436675Y-98365977D01*
X116435582Y-98365977D01*
X117890000Y-99820395D01*
X119344418Y-98365977D01*
X119164352Y-98029940D01*
X118755526Y-97819180D01*
X118313438Y-97692228D01*
X117855078Y-97653963D01*
X117398060Y-97705854D01*
X116959947Y-97845908D01*
X116615648Y-98029940D01*
X116435582Y-98365977D01*
X107436675Y-98365977D01*
X107505263Y-98221920D01*
X107475286Y-98097386D01*
X107347539Y-97805573D01*
X107165316Y-97544290D01*
X106935621Y-97323577D01*
X106667280Y-97151916D01*
X106370606Y-97035904D01*
X106057000Y-96980000D01*
X104077000Y-96980000D01*
X103823000Y-96980000D01*
X101843000Y-96980000D01*
X101529394Y-97035904D01*
X101232720Y-97151916D01*
X100964379Y-97323577D01*
X100734684Y-97544290D01*
X100552461Y-97805573D01*
X100427317Y-98091440D01*
X100427317Y-96127000D01*
X124573317Y-96127000D01*
X124573317Y-98286019D01*
G37*
X124573317Y-98286019D02*
X124538845Y-98251547D01*
X124424417Y-98365975D01*
X124244352Y-98029940D01*
X123835526Y-97819180D01*
X123393438Y-97692228D01*
X122935078Y-97653963D01*
X122478060Y-97705854D01*
X122039947Y-97845908D01*
X121695648Y-98029940D01*
X121515582Y-98365977D01*
X122970000Y-99820395D01*
X122984143Y-99806253D01*
X123163748Y-99985858D01*
X123149605Y-100000000D01*
X123163748Y-100014143D01*
X122984143Y-100193748D01*
X122970000Y-100179605D01*
X121515582Y-101634023D01*
X121695648Y-101970060D01*
X122104474Y-102180820D01*
X122546562Y-102307772D01*
X123004922Y-102346037D01*
X123461940Y-102294146D01*
X123900053Y-102154092D01*
X124244352Y-101970060D01*
X124424417Y-101634025D01*
X124538845Y-101748453D01*
X124573317Y-101713981D01*
X124573317Y-106373000D01*
X100427317Y-106373000D01*
X100427317Y-101634023D01*
X116435582Y-101634023D01*
X116615648Y-101970060D01*
X117024474Y-102180820D01*
X117466562Y-102307772D01*
X117924922Y-102346037D01*
X118381940Y-102294146D01*
X118820053Y-102154092D01*
X119164352Y-101970060D01*
X119344418Y-101634023D01*
X117890000Y-100179605D01*
X116435582Y-101634023D01*
X100427317Y-101634023D01*
X100427317Y-99108560D01*
X100552461Y-99394427D01*
X100734684Y-99655710D01*
X100964379Y-99876423D01*
X101232720Y-100048084D01*
X101529394Y-100164096D01*
X101843000Y-100220000D01*
X103823000Y-100220000D01*
X103823000Y-98727000D01*
X104077000Y-98727000D01*
X104077000Y-100220000D01*
X106057000Y-100220000D01*
X106370606Y-100164096D01*
X106667280Y-100048084D01*
X106687854Y-100034922D01*
X115543963Y-100034922D01*
X115595854Y-100491940D01*
X115735908Y-100930053D01*
X115919940Y-101274352D01*
X116255977Y-101454418D01*
X117710395Y-100000000D01*
X118069605Y-100000000D01*
X119524023Y-101454418D01*
X119860060Y-101274352D01*
X120070820Y-100865526D01*
X120197772Y-100423438D01*
X120230206Y-100034922D01*
X120623963Y-100034922D01*
X120675854Y-100491940D01*
X120815908Y-100930053D01*
X120999940Y-101274352D01*
X121335977Y-101454418D01*
X122790395Y-100000000D01*
X121335977Y-98545582D01*
X120999940Y-98725648D01*
X120789180Y-99134474D01*
X120662228Y-99576562D01*
X120623963Y-100034922D01*
X120230206Y-100034922D01*
X120236037Y-99965078D01*
X120184146Y-99508060D01*
X120044092Y-99069947D01*
X119860060Y-98725648D01*
X119524023Y-98545582D01*
X118069605Y-100000000D01*
X117710395Y-100000000D01*
X116255977Y-98545582D01*
X115919940Y-98725648D01*
X115709180Y-99134474D01*
X115582228Y-99576562D01*
X115543963Y-100034922D01*
X106687854Y-100034922D01*
X106935621Y-99876423D01*
X107165316Y-99655710D01*
X107347539Y-99394427D01*
X107475286Y-99102614D01*
X107505263Y-98978080D01*
X107385721Y-98727000D01*
X104077000Y-98727000D01*
X103823000Y-98727000D01*
X103803000Y-98727000D01*
X103803000Y-98473000D01*
X103823000Y-98473000D01*
X103823000Y-96980000D01*
X104077000Y-96980000D01*
X104077000Y-98473000D01*
X107385721Y-98473000D01*
X107436675Y-98365977D01*
X116435582Y-98365977D01*
X117890000Y-99820395D01*
X119344418Y-98365977D01*
X119164352Y-98029940D01*
X118755526Y-97819180D01*
X118313438Y-97692228D01*
X117855078Y-97653963D01*
X117398060Y-97705854D01*
X116959947Y-97845908D01*
X116615648Y-98029940D01*
X116435582Y-98365977D01*
X107436675Y-98365977D01*
X107505263Y-98221920D01*
X107475286Y-98097386D01*
X107347539Y-97805573D01*
X107165316Y-97544290D01*
X106935621Y-97323577D01*
X106667280Y-97151916D01*
X106370606Y-97035904D01*
X106057000Y-96980000D01*
X104077000Y-96980000D01*
X103823000Y-96980000D01*
X101843000Y-96980000D01*
X101529394Y-97035904D01*
X101232720Y-97151916D01*
X100964379Y-97323577D01*
X100734684Y-97544290D01*
X100552461Y-97805573D01*
X100427317Y-98091440D01*
X100427317Y-96127000D01*
X124573317Y-96127000D01*
X124573317Y-98286019D01*
G36*
X124573317Y-123286019D02*
G01*
X124538845Y-123251547D01*
X124424417Y-123365975D01*
X124244352Y-123029940D01*
X123835526Y-122819180D01*
X123393438Y-122692228D01*
X122935078Y-122653963D01*
X122478060Y-122705854D01*
X122039947Y-122845908D01*
X121695648Y-123029940D01*
X121515582Y-123365977D01*
X122970000Y-124820395D01*
X122984143Y-124806253D01*
X123163748Y-124985858D01*
X123149605Y-125000000D01*
X123163748Y-125014143D01*
X122984143Y-125193748D01*
X122970000Y-125179605D01*
X121515582Y-126634023D01*
X121695648Y-126970060D01*
X122104474Y-127180820D01*
X122546562Y-127307772D01*
X123004922Y-127346037D01*
X123461940Y-127294146D01*
X123900053Y-127154092D01*
X124244352Y-126970060D01*
X124424417Y-126634025D01*
X124538845Y-126748453D01*
X124573317Y-126713981D01*
X124573317Y-131373000D01*
X100427317Y-131373000D01*
X100427317Y-126634023D01*
X116435582Y-126634023D01*
X116615648Y-126970060D01*
X117024474Y-127180820D01*
X117466562Y-127307772D01*
X117924922Y-127346037D01*
X118381940Y-127294146D01*
X118820053Y-127154092D01*
X119164352Y-126970060D01*
X119344418Y-126634023D01*
X117890000Y-125179605D01*
X116435582Y-126634023D01*
X100427317Y-126634023D01*
X100427317Y-124108560D01*
X100552461Y-124394427D01*
X100734684Y-124655710D01*
X100964379Y-124876423D01*
X101232720Y-125048084D01*
X101529394Y-125164096D01*
X101843000Y-125220000D01*
X103823000Y-125220000D01*
X103823000Y-123727000D01*
X104077000Y-123727000D01*
X104077000Y-125220000D01*
X106057000Y-125220000D01*
X106370606Y-125164096D01*
X106667280Y-125048084D01*
X106687854Y-125034922D01*
X115543963Y-125034922D01*
X115595854Y-125491940D01*
X115735908Y-125930053D01*
X115919940Y-126274352D01*
X116255977Y-126454418D01*
X117710395Y-125000000D01*
X118069605Y-125000000D01*
X119524023Y-126454418D01*
X119860060Y-126274352D01*
X120070820Y-125865526D01*
X120197772Y-125423438D01*
X120230206Y-125034922D01*
X120623963Y-125034922D01*
X120675854Y-125491940D01*
X120815908Y-125930053D01*
X120999940Y-126274352D01*
X121335977Y-126454418D01*
X122790395Y-125000000D01*
X121335977Y-123545582D01*
X120999940Y-123725648D01*
X120789180Y-124134474D01*
X120662228Y-124576562D01*
X120623963Y-125034922D01*
X120230206Y-125034922D01*
X120236037Y-124965078D01*
X120184146Y-124508060D01*
X120044092Y-124069947D01*
X119860060Y-123725648D01*
X119524023Y-123545582D01*
X118069605Y-125000000D01*
X117710395Y-125000000D01*
X116255977Y-123545582D01*
X115919940Y-123725648D01*
X115709180Y-124134474D01*
X115582228Y-124576562D01*
X115543963Y-125034922D01*
X106687854Y-125034922D01*
X106935621Y-124876423D01*
X107165316Y-124655710D01*
X107347539Y-124394427D01*
X107475286Y-124102614D01*
X107505263Y-123978080D01*
X107385721Y-123727000D01*
X104077000Y-123727000D01*
X103823000Y-123727000D01*
X103803000Y-123727000D01*
X103803000Y-123473000D01*
X103823000Y-123473000D01*
X103823000Y-121980000D01*
X104077000Y-121980000D01*
X104077000Y-123473000D01*
X107385721Y-123473000D01*
X107436675Y-123365977D01*
X116435582Y-123365977D01*
X117890000Y-124820395D01*
X119344418Y-123365977D01*
X119164352Y-123029940D01*
X118755526Y-122819180D01*
X118313438Y-122692228D01*
X117855078Y-122653963D01*
X117398060Y-122705854D01*
X116959947Y-122845908D01*
X116615648Y-123029940D01*
X116435582Y-123365977D01*
X107436675Y-123365977D01*
X107505263Y-123221920D01*
X107475286Y-123097386D01*
X107347539Y-122805573D01*
X107165316Y-122544290D01*
X106935621Y-122323577D01*
X106667280Y-122151916D01*
X106370606Y-122035904D01*
X106057000Y-121980000D01*
X104077000Y-121980000D01*
X103823000Y-121980000D01*
X101843000Y-121980000D01*
X101529394Y-122035904D01*
X101232720Y-122151916D01*
X100964379Y-122323577D01*
X100734684Y-122544290D01*
X100552461Y-122805573D01*
X100427317Y-123091440D01*
X100427317Y-121127000D01*
X124573317Y-121127000D01*
X124573317Y-123286019D01*
G37*
X124573317Y-123286019D02*
X124538845Y-123251547D01*
X124424417Y-123365975D01*
X124244352Y-123029940D01*
X123835526Y-122819180D01*
X123393438Y-122692228D01*
X122935078Y-122653963D01*
X122478060Y-122705854D01*
X122039947Y-122845908D01*
X121695648Y-123029940D01*
X121515582Y-123365977D01*
X122970000Y-124820395D01*
X122984143Y-124806253D01*
X123163748Y-124985858D01*
X123149605Y-125000000D01*
X123163748Y-125014143D01*
X122984143Y-125193748D01*
X122970000Y-125179605D01*
X121515582Y-126634023D01*
X121695648Y-126970060D01*
X122104474Y-127180820D01*
X122546562Y-127307772D01*
X123004922Y-127346037D01*
X123461940Y-127294146D01*
X123900053Y-127154092D01*
X124244352Y-126970060D01*
X124424417Y-126634025D01*
X124538845Y-126748453D01*
X124573317Y-126713981D01*
X124573317Y-131373000D01*
X100427317Y-131373000D01*
X100427317Y-126634023D01*
X116435582Y-126634023D01*
X116615648Y-126970060D01*
X117024474Y-127180820D01*
X117466562Y-127307772D01*
X117924922Y-127346037D01*
X118381940Y-127294146D01*
X118820053Y-127154092D01*
X119164352Y-126970060D01*
X119344418Y-126634023D01*
X117890000Y-125179605D01*
X116435582Y-126634023D01*
X100427317Y-126634023D01*
X100427317Y-124108560D01*
X100552461Y-124394427D01*
X100734684Y-124655710D01*
X100964379Y-124876423D01*
X101232720Y-125048084D01*
X101529394Y-125164096D01*
X101843000Y-125220000D01*
X103823000Y-125220000D01*
X103823000Y-123727000D01*
X104077000Y-123727000D01*
X104077000Y-125220000D01*
X106057000Y-125220000D01*
X106370606Y-125164096D01*
X106667280Y-125048084D01*
X106687854Y-125034922D01*
X115543963Y-125034922D01*
X115595854Y-125491940D01*
X115735908Y-125930053D01*
X115919940Y-126274352D01*
X116255977Y-126454418D01*
X117710395Y-125000000D01*
X118069605Y-125000000D01*
X119524023Y-126454418D01*
X119860060Y-126274352D01*
X120070820Y-125865526D01*
X120197772Y-125423438D01*
X120230206Y-125034922D01*
X120623963Y-125034922D01*
X120675854Y-125491940D01*
X120815908Y-125930053D01*
X120999940Y-126274352D01*
X121335977Y-126454418D01*
X122790395Y-125000000D01*
X121335977Y-123545582D01*
X120999940Y-123725648D01*
X120789180Y-124134474D01*
X120662228Y-124576562D01*
X120623963Y-125034922D01*
X120230206Y-125034922D01*
X120236037Y-124965078D01*
X120184146Y-124508060D01*
X120044092Y-124069947D01*
X119860060Y-123725648D01*
X119524023Y-123545582D01*
X118069605Y-125000000D01*
X117710395Y-125000000D01*
X116255977Y-123545582D01*
X115919940Y-123725648D01*
X115709180Y-124134474D01*
X115582228Y-124576562D01*
X115543963Y-125034922D01*
X106687854Y-125034922D01*
X106935621Y-124876423D01*
X107165316Y-124655710D01*
X107347539Y-124394427D01*
X107475286Y-124102614D01*
X107505263Y-123978080D01*
X107385721Y-123727000D01*
X104077000Y-123727000D01*
X103823000Y-123727000D01*
X103803000Y-123727000D01*
X103803000Y-123473000D01*
X103823000Y-123473000D01*
X103823000Y-121980000D01*
X104077000Y-121980000D01*
X104077000Y-123473000D01*
X107385721Y-123473000D01*
X107436675Y-123365977D01*
X116435582Y-123365977D01*
X117890000Y-124820395D01*
X119344418Y-123365977D01*
X119164352Y-123029940D01*
X118755526Y-122819180D01*
X118313438Y-122692228D01*
X117855078Y-122653963D01*
X117398060Y-122705854D01*
X116959947Y-122845908D01*
X116615648Y-123029940D01*
X116435582Y-123365977D01*
X107436675Y-123365977D01*
X107505263Y-123221920D01*
X107475286Y-123097386D01*
X107347539Y-122805573D01*
X107165316Y-122544290D01*
X106935621Y-122323577D01*
X106667280Y-122151916D01*
X106370606Y-122035904D01*
X106057000Y-121980000D01*
X104077000Y-121980000D01*
X103823000Y-121980000D01*
X101843000Y-121980000D01*
X101529394Y-122035904D01*
X101232720Y-122151916D01*
X100964379Y-122323577D01*
X100734684Y-122544290D01*
X100552461Y-122805573D01*
X100427317Y-123091440D01*
X100427317Y-121127000D01*
X124573317Y-121127000D01*
X124573317Y-123286019D01*
G36*
X124573317Y-148286019D02*
G01*
X124538845Y-148251547D01*
X124424417Y-148365975D01*
X124244352Y-148029940D01*
X123835526Y-147819180D01*
X123393438Y-147692228D01*
X122935078Y-147653963D01*
X122478060Y-147705854D01*
X122039947Y-147845908D01*
X121695648Y-148029940D01*
X121515582Y-148365977D01*
X122970000Y-149820395D01*
X122984143Y-149806253D01*
X123163748Y-149985858D01*
X123149605Y-150000000D01*
X123163748Y-150014143D01*
X122984143Y-150193748D01*
X122970000Y-150179605D01*
X121515582Y-151634023D01*
X121695648Y-151970060D01*
X122104474Y-152180820D01*
X122546562Y-152307772D01*
X123004922Y-152346037D01*
X123461940Y-152294146D01*
X123900053Y-152154092D01*
X124244352Y-151970060D01*
X124424417Y-151634025D01*
X124538845Y-151748453D01*
X124573317Y-151713981D01*
X124573317Y-156373000D01*
X100427317Y-156373000D01*
X100427317Y-151634023D01*
X116435582Y-151634023D01*
X116615648Y-151970060D01*
X117024474Y-152180820D01*
X117466562Y-152307772D01*
X117924922Y-152346037D01*
X118381940Y-152294146D01*
X118820053Y-152154092D01*
X119164352Y-151970060D01*
X119344418Y-151634023D01*
X117890000Y-150179605D01*
X116435582Y-151634023D01*
X100427317Y-151634023D01*
X100427317Y-149108560D01*
X100552461Y-149394427D01*
X100734684Y-149655710D01*
X100964379Y-149876423D01*
X101232720Y-150048084D01*
X101529394Y-150164096D01*
X101843000Y-150220000D01*
X103823000Y-150220000D01*
X103823000Y-148727000D01*
X104077000Y-148727000D01*
X104077000Y-150220000D01*
X106057000Y-150220000D01*
X106370606Y-150164096D01*
X106667280Y-150048084D01*
X106687854Y-150034922D01*
X115543963Y-150034922D01*
X115595854Y-150491940D01*
X115735908Y-150930053D01*
X115919940Y-151274352D01*
X116255977Y-151454418D01*
X117710395Y-150000000D01*
X118069605Y-150000000D01*
X119524023Y-151454418D01*
X119860060Y-151274352D01*
X120070820Y-150865526D01*
X120197772Y-150423438D01*
X120230206Y-150034922D01*
X120623963Y-150034922D01*
X120675854Y-150491940D01*
X120815908Y-150930053D01*
X120999940Y-151274352D01*
X121335977Y-151454418D01*
X122790395Y-150000000D01*
X121335977Y-148545582D01*
X120999940Y-148725648D01*
X120789180Y-149134474D01*
X120662228Y-149576562D01*
X120623963Y-150034922D01*
X120230206Y-150034922D01*
X120236037Y-149965078D01*
X120184146Y-149508060D01*
X120044092Y-149069947D01*
X119860060Y-148725648D01*
X119524023Y-148545582D01*
X118069605Y-150000000D01*
X117710395Y-150000000D01*
X116255977Y-148545582D01*
X115919940Y-148725648D01*
X115709180Y-149134474D01*
X115582228Y-149576562D01*
X115543963Y-150034922D01*
X106687854Y-150034922D01*
X106935621Y-149876423D01*
X107165316Y-149655710D01*
X107347539Y-149394427D01*
X107475286Y-149102614D01*
X107505263Y-148978080D01*
X107385721Y-148727000D01*
X104077000Y-148727000D01*
X103823000Y-148727000D01*
X103803000Y-148727000D01*
X103803000Y-148473000D01*
X103823000Y-148473000D01*
X103823000Y-146980000D01*
X104077000Y-146980000D01*
X104077000Y-148473000D01*
X107385721Y-148473000D01*
X107436675Y-148365977D01*
X116435582Y-148365977D01*
X117890000Y-149820395D01*
X119344418Y-148365977D01*
X119164352Y-148029940D01*
X118755526Y-147819180D01*
X118313438Y-147692228D01*
X117855078Y-147653963D01*
X117398060Y-147705854D01*
X116959947Y-147845908D01*
X116615648Y-148029940D01*
X116435582Y-148365977D01*
X107436675Y-148365977D01*
X107505263Y-148221920D01*
X107475286Y-148097386D01*
X107347539Y-147805573D01*
X107165316Y-147544290D01*
X106935621Y-147323577D01*
X106667280Y-147151916D01*
X106370606Y-147035904D01*
X106057000Y-146980000D01*
X104077000Y-146980000D01*
X103823000Y-146980000D01*
X101843000Y-146980000D01*
X101529394Y-147035904D01*
X101232720Y-147151916D01*
X100964379Y-147323577D01*
X100734684Y-147544290D01*
X100552461Y-147805573D01*
X100427317Y-148091440D01*
X100427317Y-146127000D01*
X124573317Y-146127000D01*
X124573317Y-148286019D01*
G37*
X124573317Y-148286019D02*
X124538845Y-148251547D01*
X124424417Y-148365975D01*
X124244352Y-148029940D01*
X123835526Y-147819180D01*
X123393438Y-147692228D01*
X122935078Y-147653963D01*
X122478060Y-147705854D01*
X122039947Y-147845908D01*
X121695648Y-148029940D01*
X121515582Y-148365977D01*
X122970000Y-149820395D01*
X122984143Y-149806253D01*
X123163748Y-149985858D01*
X123149605Y-150000000D01*
X123163748Y-150014143D01*
X122984143Y-150193748D01*
X122970000Y-150179605D01*
X121515582Y-151634023D01*
X121695648Y-151970060D01*
X122104474Y-152180820D01*
X122546562Y-152307772D01*
X123004922Y-152346037D01*
X123461940Y-152294146D01*
X123900053Y-152154092D01*
X124244352Y-151970060D01*
X124424417Y-151634025D01*
X124538845Y-151748453D01*
X124573317Y-151713981D01*
X124573317Y-156373000D01*
X100427317Y-156373000D01*
X100427317Y-151634023D01*
X116435582Y-151634023D01*
X116615648Y-151970060D01*
X117024474Y-152180820D01*
X117466562Y-152307772D01*
X117924922Y-152346037D01*
X118381940Y-152294146D01*
X118820053Y-152154092D01*
X119164352Y-151970060D01*
X119344418Y-151634023D01*
X117890000Y-150179605D01*
X116435582Y-151634023D01*
X100427317Y-151634023D01*
X100427317Y-149108560D01*
X100552461Y-149394427D01*
X100734684Y-149655710D01*
X100964379Y-149876423D01*
X101232720Y-150048084D01*
X101529394Y-150164096D01*
X101843000Y-150220000D01*
X103823000Y-150220000D01*
X103823000Y-148727000D01*
X104077000Y-148727000D01*
X104077000Y-150220000D01*
X106057000Y-150220000D01*
X106370606Y-150164096D01*
X106667280Y-150048084D01*
X106687854Y-150034922D01*
X115543963Y-150034922D01*
X115595854Y-150491940D01*
X115735908Y-150930053D01*
X115919940Y-151274352D01*
X116255977Y-151454418D01*
X117710395Y-150000000D01*
X118069605Y-150000000D01*
X119524023Y-151454418D01*
X119860060Y-151274352D01*
X120070820Y-150865526D01*
X120197772Y-150423438D01*
X120230206Y-150034922D01*
X120623963Y-150034922D01*
X120675854Y-150491940D01*
X120815908Y-150930053D01*
X120999940Y-151274352D01*
X121335977Y-151454418D01*
X122790395Y-150000000D01*
X121335977Y-148545582D01*
X120999940Y-148725648D01*
X120789180Y-149134474D01*
X120662228Y-149576562D01*
X120623963Y-150034922D01*
X120230206Y-150034922D01*
X120236037Y-149965078D01*
X120184146Y-149508060D01*
X120044092Y-149069947D01*
X119860060Y-148725648D01*
X119524023Y-148545582D01*
X118069605Y-150000000D01*
X117710395Y-150000000D01*
X116255977Y-148545582D01*
X115919940Y-148725648D01*
X115709180Y-149134474D01*
X115582228Y-149576562D01*
X115543963Y-150034922D01*
X106687854Y-150034922D01*
X106935621Y-149876423D01*
X107165316Y-149655710D01*
X107347539Y-149394427D01*
X107475286Y-149102614D01*
X107505263Y-148978080D01*
X107385721Y-148727000D01*
X104077000Y-148727000D01*
X103823000Y-148727000D01*
X103803000Y-148727000D01*
X103803000Y-148473000D01*
X103823000Y-148473000D01*
X103823000Y-146980000D01*
X104077000Y-146980000D01*
X104077000Y-148473000D01*
X107385721Y-148473000D01*
X107436675Y-148365977D01*
X116435582Y-148365977D01*
X117890000Y-149820395D01*
X119344418Y-148365977D01*
X119164352Y-148029940D01*
X118755526Y-147819180D01*
X118313438Y-147692228D01*
X117855078Y-147653963D01*
X117398060Y-147705854D01*
X116959947Y-147845908D01*
X116615648Y-148029940D01*
X116435582Y-148365977D01*
X107436675Y-148365977D01*
X107505263Y-148221920D01*
X107475286Y-148097386D01*
X107347539Y-147805573D01*
X107165316Y-147544290D01*
X106935621Y-147323577D01*
X106667280Y-147151916D01*
X106370606Y-147035904D01*
X106057000Y-146980000D01*
X104077000Y-146980000D01*
X103823000Y-146980000D01*
X101843000Y-146980000D01*
X101529394Y-147035904D01*
X101232720Y-147151916D01*
X100964379Y-147323577D01*
X100734684Y-147544290D01*
X100552461Y-147805573D01*
X100427317Y-148091440D01*
X100427317Y-146127000D01*
X124573317Y-146127000D01*
X124573317Y-148286019D01*
G36*
X137340001Y-179519611D02*
G01*
X125627000Y-179519611D01*
X125627000Y-176729979D01*
X125755648Y-176970060D01*
X126164474Y-177180820D01*
X126606562Y-177307772D01*
X127064922Y-177346037D01*
X127521940Y-177294146D01*
X127960053Y-177154092D01*
X128304352Y-176970060D01*
X128484418Y-176634023D01*
X130655582Y-176634023D01*
X130835648Y-176970060D01*
X131244474Y-177180820D01*
X131686562Y-177307772D01*
X132144922Y-177346037D01*
X132601940Y-177294146D01*
X133040053Y-177154092D01*
X133384352Y-176970060D01*
X133564418Y-176634023D01*
X132110000Y-175179605D01*
X130655582Y-176634023D01*
X128484418Y-176634023D01*
X127030000Y-175179605D01*
X127015858Y-175193748D01*
X126836253Y-175014143D01*
X126850395Y-175000000D01*
X127209605Y-175000000D01*
X128664023Y-176454418D01*
X129000060Y-176274352D01*
X129210820Y-175865526D01*
X129337772Y-175423438D01*
X129370206Y-175034922D01*
X129763963Y-175034922D01*
X129815854Y-175491940D01*
X129955908Y-175930053D01*
X130139940Y-176274352D01*
X130475977Y-176454418D01*
X131930395Y-175000000D01*
X132289605Y-175000000D01*
X133744023Y-176454418D01*
X134080060Y-176274352D01*
X134290820Y-175865526D01*
X134417772Y-175423438D01*
X134456037Y-174965078D01*
X134404146Y-174508060D01*
X134264092Y-174069947D01*
X134080060Y-173725648D01*
X133744023Y-173545582D01*
X132289605Y-175000000D01*
X131930395Y-175000000D01*
X130475977Y-173545582D01*
X130139940Y-173725648D01*
X129929180Y-174134474D01*
X129802228Y-174576562D01*
X129763963Y-175034922D01*
X129370206Y-175034922D01*
X129376037Y-174965078D01*
X129324146Y-174508060D01*
X129184092Y-174069947D01*
X129000060Y-173725648D01*
X128664023Y-173545582D01*
X127209605Y-175000000D01*
X126850395Y-175000000D01*
X126836253Y-174985858D01*
X127015858Y-174806253D01*
X127030000Y-174820395D01*
X128484418Y-173365977D01*
X130655582Y-173365977D01*
X132110000Y-174820395D01*
X133564418Y-173365977D01*
X133384352Y-173029940D01*
X132975526Y-172819180D01*
X132533438Y-172692228D01*
X132075078Y-172653963D01*
X131618060Y-172705854D01*
X131179947Y-172845908D01*
X130835648Y-173029940D01*
X130655582Y-173365977D01*
X128484418Y-173365977D01*
X128304352Y-173029940D01*
X127895526Y-172819180D01*
X127453438Y-172692228D01*
X126995078Y-172653963D01*
X126538060Y-172705854D01*
X126099947Y-172845908D01*
X125755648Y-173029940D01*
X125627000Y-173270021D01*
X125627000Y-151729979D01*
X125755648Y-151970060D01*
X126164474Y-152180820D01*
X126606562Y-152307772D01*
X127064922Y-152346037D01*
X127521940Y-152294146D01*
X127960053Y-152154092D01*
X128304352Y-151970060D01*
X128484418Y-151634023D01*
X130655582Y-151634023D01*
X130835648Y-151970060D01*
X131244474Y-152180820D01*
X131686562Y-152307772D01*
X132144922Y-152346037D01*
X132601940Y-152294146D01*
X133040053Y-152154092D01*
X133384352Y-151970060D01*
X133564418Y-151634023D01*
X132110000Y-150179605D01*
X130655582Y-151634023D01*
X128484418Y-151634023D01*
X127030000Y-150179605D01*
X127015858Y-150193748D01*
X126836253Y-150014143D01*
X126850395Y-150000000D01*
X127209605Y-150000000D01*
X128664023Y-151454418D01*
X129000060Y-151274352D01*
X129210820Y-150865526D01*
X129337772Y-150423438D01*
X129370206Y-150034922D01*
X129763963Y-150034922D01*
X129815854Y-150491940D01*
X129955908Y-150930053D01*
X130139940Y-151274352D01*
X130475977Y-151454418D01*
X131930395Y-150000000D01*
X132289605Y-150000000D01*
X133744023Y-151454418D01*
X134080060Y-151274352D01*
X134290820Y-150865526D01*
X134417772Y-150423438D01*
X134456037Y-149965078D01*
X134404146Y-149508060D01*
X134264092Y-149069947D01*
X134080060Y-148725648D01*
X133744023Y-148545582D01*
X132289605Y-150000000D01*
X131930395Y-150000000D01*
X130475977Y-148545582D01*
X130139940Y-148725648D01*
X129929180Y-149134474D01*
X129802228Y-149576562D01*
X129763963Y-150034922D01*
X129370206Y-150034922D01*
X129376037Y-149965078D01*
X129324146Y-149508060D01*
X129184092Y-149069947D01*
X129000060Y-148725648D01*
X128664023Y-148545582D01*
X127209605Y-150000000D01*
X126850395Y-150000000D01*
X126836253Y-149985858D01*
X127015858Y-149806253D01*
X127030000Y-149820395D01*
X128484418Y-148365977D01*
X130655582Y-148365977D01*
X132110000Y-149820395D01*
X133564418Y-148365977D01*
X133384352Y-148029940D01*
X132975526Y-147819180D01*
X132533438Y-147692228D01*
X132075078Y-147653963D01*
X131618060Y-147705854D01*
X131179947Y-147845908D01*
X130835648Y-148029940D01*
X130655582Y-148365977D01*
X128484418Y-148365977D01*
X128304352Y-148029940D01*
X127895526Y-147819180D01*
X127453438Y-147692228D01*
X126995078Y-147653963D01*
X126538060Y-147705854D01*
X126099947Y-147845908D01*
X125755648Y-148029940D01*
X125627000Y-148270021D01*
X125627000Y-126729979D01*
X125755648Y-126970060D01*
X126164474Y-127180820D01*
X126606562Y-127307772D01*
X127064922Y-127346037D01*
X127521940Y-127294146D01*
X127960053Y-127154092D01*
X128304352Y-126970060D01*
X128484418Y-126634023D01*
X130655582Y-126634023D01*
X130835648Y-126970060D01*
X131244474Y-127180820D01*
X131686562Y-127307772D01*
X132144922Y-127346037D01*
X132601940Y-127294146D01*
X133040053Y-127154092D01*
X133384352Y-126970060D01*
X133564418Y-126634023D01*
X132110000Y-125179605D01*
X130655582Y-126634023D01*
X128484418Y-126634023D01*
X127030000Y-125179605D01*
X127015858Y-125193748D01*
X126836253Y-125014143D01*
X126850395Y-125000000D01*
X127209605Y-125000000D01*
X128664023Y-126454418D01*
X129000060Y-126274352D01*
X129210820Y-125865526D01*
X129337772Y-125423438D01*
X129370206Y-125034922D01*
X129763963Y-125034922D01*
X129815854Y-125491940D01*
X129955908Y-125930053D01*
X130139940Y-126274352D01*
X130475977Y-126454418D01*
X131930395Y-125000000D01*
X132289605Y-125000000D01*
X133744023Y-126454418D01*
X134080060Y-126274352D01*
X134290820Y-125865526D01*
X134417772Y-125423438D01*
X134456037Y-124965078D01*
X134404146Y-124508060D01*
X134264092Y-124069947D01*
X134080060Y-123725648D01*
X133744023Y-123545582D01*
X132289605Y-125000000D01*
X131930395Y-125000000D01*
X130475977Y-123545582D01*
X130139940Y-123725648D01*
X129929180Y-124134474D01*
X129802228Y-124576562D01*
X129763963Y-125034922D01*
X129370206Y-125034922D01*
X129376037Y-124965078D01*
X129324146Y-124508060D01*
X129184092Y-124069947D01*
X129000060Y-123725648D01*
X128664023Y-123545582D01*
X127209605Y-125000000D01*
X126850395Y-125000000D01*
X126836253Y-124985858D01*
X127015858Y-124806253D01*
X127030000Y-124820395D01*
X128484418Y-123365977D01*
X130655582Y-123365977D01*
X132110000Y-124820395D01*
X133564418Y-123365977D01*
X133384352Y-123029940D01*
X132975526Y-122819180D01*
X132533438Y-122692228D01*
X132075078Y-122653963D01*
X131618060Y-122705854D01*
X131179947Y-122845908D01*
X130835648Y-123029940D01*
X130655582Y-123365977D01*
X128484418Y-123365977D01*
X128304352Y-123029940D01*
X127895526Y-122819180D01*
X127453438Y-122692228D01*
X126995078Y-122653963D01*
X126538060Y-122705854D01*
X126099947Y-122845908D01*
X125755648Y-123029940D01*
X125627000Y-123270021D01*
X125627000Y-101729979D01*
X125755648Y-101970060D01*
X126164474Y-102180820D01*
X126606562Y-102307772D01*
X127064922Y-102346037D01*
X127521940Y-102294146D01*
X127960053Y-102154092D01*
X128304352Y-101970060D01*
X128484418Y-101634023D01*
X130655582Y-101634023D01*
X130835648Y-101970060D01*
X131244474Y-102180820D01*
X131686562Y-102307772D01*
X132144922Y-102346037D01*
X132601940Y-102294146D01*
X133040053Y-102154092D01*
X133384352Y-101970060D01*
X133564418Y-101634023D01*
X132110000Y-100179605D01*
X130655582Y-101634023D01*
X128484418Y-101634023D01*
X127030000Y-100179605D01*
X127015858Y-100193748D01*
X126836253Y-100014143D01*
X126850395Y-100000000D01*
X127209605Y-100000000D01*
X128664023Y-101454418D01*
X129000060Y-101274352D01*
X129210820Y-100865526D01*
X129337772Y-100423438D01*
X129370206Y-100034922D01*
X129763963Y-100034922D01*
X129815854Y-100491940D01*
X129955908Y-100930053D01*
X130139940Y-101274352D01*
X130475977Y-101454418D01*
X131930395Y-100000000D01*
X132289605Y-100000000D01*
X133744023Y-101454418D01*
X134080060Y-101274352D01*
X134290820Y-100865526D01*
X134417772Y-100423438D01*
X134456037Y-99965078D01*
X134404146Y-99508060D01*
X134264092Y-99069947D01*
X134080060Y-98725648D01*
X133744023Y-98545582D01*
X132289605Y-100000000D01*
X131930395Y-100000000D01*
X130475977Y-98545582D01*
X130139940Y-98725648D01*
X129929180Y-99134474D01*
X129802228Y-99576562D01*
X129763963Y-100034922D01*
X129370206Y-100034922D01*
X129376037Y-99965078D01*
X129324146Y-99508060D01*
X129184092Y-99069947D01*
X129000060Y-98725648D01*
X128664023Y-98545582D01*
X127209605Y-100000000D01*
X126850395Y-100000000D01*
X126836253Y-99985858D01*
X127015858Y-99806253D01*
X127030000Y-99820395D01*
X128484418Y-98365977D01*
X130655582Y-98365977D01*
X132110000Y-99820395D01*
X133564418Y-98365977D01*
X133384352Y-98029940D01*
X132975526Y-97819180D01*
X132533438Y-97692228D01*
X132075078Y-97653963D01*
X131618060Y-97705854D01*
X131179947Y-97845908D01*
X130835648Y-98029940D01*
X130655582Y-98365977D01*
X128484418Y-98365977D01*
X128304352Y-98029940D01*
X127895526Y-97819180D01*
X127453438Y-97692228D01*
X126995078Y-97653963D01*
X126538060Y-97705854D01*
X126099947Y-97845908D01*
X125755648Y-98029940D01*
X125627000Y-98270021D01*
X125627000Y-76729979D01*
X125755648Y-76970060D01*
X126164474Y-77180820D01*
X126606562Y-77307772D01*
X127064922Y-77346037D01*
X127521940Y-77294146D01*
X127960053Y-77154092D01*
X128304352Y-76970060D01*
X128484418Y-76634023D01*
X130655582Y-76634023D01*
X130835648Y-76970060D01*
X131244474Y-77180820D01*
X131686562Y-77307772D01*
X132144922Y-77346037D01*
X132601940Y-77294146D01*
X133040053Y-77154092D01*
X133384352Y-76970060D01*
X133564418Y-76634023D01*
X132110000Y-75179605D01*
X130655582Y-76634023D01*
X128484418Y-76634023D01*
X127030000Y-75179605D01*
X127015858Y-75193748D01*
X126836253Y-75014143D01*
X126850395Y-75000000D01*
X127209605Y-75000000D01*
X128664023Y-76454418D01*
X129000060Y-76274352D01*
X129210820Y-75865526D01*
X129337772Y-75423438D01*
X129370206Y-75034922D01*
X129763963Y-75034922D01*
X129815854Y-75491940D01*
X129955908Y-75930053D01*
X130139940Y-76274352D01*
X130475977Y-76454418D01*
X131930395Y-75000000D01*
X132289605Y-75000000D01*
X133744023Y-76454418D01*
X134080060Y-76274352D01*
X134290820Y-75865526D01*
X134417772Y-75423438D01*
X134456037Y-74965078D01*
X134404146Y-74508060D01*
X134264092Y-74069947D01*
X134080060Y-73725648D01*
X133744023Y-73545582D01*
X132289605Y-75000000D01*
X131930395Y-75000000D01*
X130475977Y-73545582D01*
X130139940Y-73725648D01*
X129929180Y-74134474D01*
X129802228Y-74576562D01*
X129763963Y-75034922D01*
X129370206Y-75034922D01*
X129376037Y-74965078D01*
X129324146Y-74508060D01*
X129184092Y-74069947D01*
X129000060Y-73725648D01*
X128664023Y-73545582D01*
X127209605Y-75000000D01*
X126850395Y-75000000D01*
X126836253Y-74985858D01*
X127015858Y-74806253D01*
X127030000Y-74820395D01*
X128484418Y-73365977D01*
X130655582Y-73365977D01*
X132110000Y-74820395D01*
X133564418Y-73365977D01*
X133384352Y-73029940D01*
X132975526Y-72819180D01*
X132533438Y-72692228D01*
X132075078Y-72653963D01*
X131618060Y-72705854D01*
X131179947Y-72845908D01*
X130835648Y-73029940D01*
X130655582Y-73365977D01*
X128484418Y-73365977D01*
X128304352Y-73029940D01*
X127895526Y-72819180D01*
X127453438Y-72692228D01*
X126995078Y-72653963D01*
X126538060Y-72705854D01*
X126099947Y-72845908D01*
X125755648Y-73029940D01*
X125627000Y-73270021D01*
X125627000Y-71773611D01*
X137340000Y-71773611D01*
X137340001Y-179519611D01*
G37*
X137340001Y-179519611D02*
X125627000Y-179519611D01*
X125627000Y-176729979D01*
X125755648Y-176970060D01*
X126164474Y-177180820D01*
X126606562Y-177307772D01*
X127064922Y-177346037D01*
X127521940Y-177294146D01*
X127960053Y-177154092D01*
X128304352Y-176970060D01*
X128484418Y-176634023D01*
X130655582Y-176634023D01*
X130835648Y-176970060D01*
X131244474Y-177180820D01*
X131686562Y-177307772D01*
X132144922Y-177346037D01*
X132601940Y-177294146D01*
X133040053Y-177154092D01*
X133384352Y-176970060D01*
X133564418Y-176634023D01*
X132110000Y-175179605D01*
X130655582Y-176634023D01*
X128484418Y-176634023D01*
X127030000Y-175179605D01*
X127015858Y-175193748D01*
X126836253Y-175014143D01*
X126850395Y-175000000D01*
X127209605Y-175000000D01*
X128664023Y-176454418D01*
X129000060Y-176274352D01*
X129210820Y-175865526D01*
X129337772Y-175423438D01*
X129370206Y-175034922D01*
X129763963Y-175034922D01*
X129815854Y-175491940D01*
X129955908Y-175930053D01*
X130139940Y-176274352D01*
X130475977Y-176454418D01*
X131930395Y-175000000D01*
X132289605Y-175000000D01*
X133744023Y-176454418D01*
X134080060Y-176274352D01*
X134290820Y-175865526D01*
X134417772Y-175423438D01*
X134456037Y-174965078D01*
X134404146Y-174508060D01*
X134264092Y-174069947D01*
X134080060Y-173725648D01*
X133744023Y-173545582D01*
X132289605Y-175000000D01*
X131930395Y-175000000D01*
X130475977Y-173545582D01*
X130139940Y-173725648D01*
X129929180Y-174134474D01*
X129802228Y-174576562D01*
X129763963Y-175034922D01*
X129370206Y-175034922D01*
X129376037Y-174965078D01*
X129324146Y-174508060D01*
X129184092Y-174069947D01*
X129000060Y-173725648D01*
X128664023Y-173545582D01*
X127209605Y-175000000D01*
X126850395Y-175000000D01*
X126836253Y-174985858D01*
X127015858Y-174806253D01*
X127030000Y-174820395D01*
X128484418Y-173365977D01*
X130655582Y-173365977D01*
X132110000Y-174820395D01*
X133564418Y-173365977D01*
X133384352Y-173029940D01*
X132975526Y-172819180D01*
X132533438Y-172692228D01*
X132075078Y-172653963D01*
X131618060Y-172705854D01*
X131179947Y-172845908D01*
X130835648Y-173029940D01*
X130655582Y-173365977D01*
X128484418Y-173365977D01*
X128304352Y-173029940D01*
X127895526Y-172819180D01*
X127453438Y-172692228D01*
X126995078Y-172653963D01*
X126538060Y-172705854D01*
X126099947Y-172845908D01*
X125755648Y-173029940D01*
X125627000Y-173270021D01*
X125627000Y-151729979D01*
X125755648Y-151970060D01*
X126164474Y-152180820D01*
X126606562Y-152307772D01*
X127064922Y-152346037D01*
X127521940Y-152294146D01*
X127960053Y-152154092D01*
X128304352Y-151970060D01*
X128484418Y-151634023D01*
X130655582Y-151634023D01*
X130835648Y-151970060D01*
X131244474Y-152180820D01*
X131686562Y-152307772D01*
X132144922Y-152346037D01*
X132601940Y-152294146D01*
X133040053Y-152154092D01*
X133384352Y-151970060D01*
X133564418Y-151634023D01*
X132110000Y-150179605D01*
X130655582Y-151634023D01*
X128484418Y-151634023D01*
X127030000Y-150179605D01*
X127015858Y-150193748D01*
X126836253Y-150014143D01*
X126850395Y-150000000D01*
X127209605Y-150000000D01*
X128664023Y-151454418D01*
X129000060Y-151274352D01*
X129210820Y-150865526D01*
X129337772Y-150423438D01*
X129370206Y-150034922D01*
X129763963Y-150034922D01*
X129815854Y-150491940D01*
X129955908Y-150930053D01*
X130139940Y-151274352D01*
X130475977Y-151454418D01*
X131930395Y-150000000D01*
X132289605Y-150000000D01*
X133744023Y-151454418D01*
X134080060Y-151274352D01*
X134290820Y-150865526D01*
X134417772Y-150423438D01*
X134456037Y-149965078D01*
X134404146Y-149508060D01*
X134264092Y-149069947D01*
X134080060Y-148725648D01*
X133744023Y-148545582D01*
X132289605Y-150000000D01*
X131930395Y-150000000D01*
X130475977Y-148545582D01*
X130139940Y-148725648D01*
X129929180Y-149134474D01*
X129802228Y-149576562D01*
X129763963Y-150034922D01*
X129370206Y-150034922D01*
X129376037Y-149965078D01*
X129324146Y-149508060D01*
X129184092Y-149069947D01*
X129000060Y-148725648D01*
X128664023Y-148545582D01*
X127209605Y-150000000D01*
X126850395Y-150000000D01*
X126836253Y-149985858D01*
X127015858Y-149806253D01*
X127030000Y-149820395D01*
X128484418Y-148365977D01*
X130655582Y-148365977D01*
X132110000Y-149820395D01*
X133564418Y-148365977D01*
X133384352Y-148029940D01*
X132975526Y-147819180D01*
X132533438Y-147692228D01*
X132075078Y-147653963D01*
X131618060Y-147705854D01*
X131179947Y-147845908D01*
X130835648Y-148029940D01*
X130655582Y-148365977D01*
X128484418Y-148365977D01*
X128304352Y-148029940D01*
X127895526Y-147819180D01*
X127453438Y-147692228D01*
X126995078Y-147653963D01*
X126538060Y-147705854D01*
X126099947Y-147845908D01*
X125755648Y-148029940D01*
X125627000Y-148270021D01*
X125627000Y-126729979D01*
X125755648Y-126970060D01*
X126164474Y-127180820D01*
X126606562Y-127307772D01*
X127064922Y-127346037D01*
X127521940Y-127294146D01*
X127960053Y-127154092D01*
X128304352Y-126970060D01*
X128484418Y-126634023D01*
X130655582Y-126634023D01*
X130835648Y-126970060D01*
X131244474Y-127180820D01*
X131686562Y-127307772D01*
X132144922Y-127346037D01*
X132601940Y-127294146D01*
X133040053Y-127154092D01*
X133384352Y-126970060D01*
X133564418Y-126634023D01*
X132110000Y-125179605D01*
X130655582Y-126634023D01*
X128484418Y-126634023D01*
X127030000Y-125179605D01*
X127015858Y-125193748D01*
X126836253Y-125014143D01*
X126850395Y-125000000D01*
X127209605Y-125000000D01*
X128664023Y-126454418D01*
X129000060Y-126274352D01*
X129210820Y-125865526D01*
X129337772Y-125423438D01*
X129370206Y-125034922D01*
X129763963Y-125034922D01*
X129815854Y-125491940D01*
X129955908Y-125930053D01*
X130139940Y-126274352D01*
X130475977Y-126454418D01*
X131930395Y-125000000D01*
X132289605Y-125000000D01*
X133744023Y-126454418D01*
X134080060Y-126274352D01*
X134290820Y-125865526D01*
X134417772Y-125423438D01*
X134456037Y-124965078D01*
X134404146Y-124508060D01*
X134264092Y-124069947D01*
X134080060Y-123725648D01*
X133744023Y-123545582D01*
X132289605Y-125000000D01*
X131930395Y-125000000D01*
X130475977Y-123545582D01*
X130139940Y-123725648D01*
X129929180Y-124134474D01*
X129802228Y-124576562D01*
X129763963Y-125034922D01*
X129370206Y-125034922D01*
X129376037Y-124965078D01*
X129324146Y-124508060D01*
X129184092Y-124069947D01*
X129000060Y-123725648D01*
X128664023Y-123545582D01*
X127209605Y-125000000D01*
X126850395Y-125000000D01*
X126836253Y-124985858D01*
X127015858Y-124806253D01*
X127030000Y-124820395D01*
X128484418Y-123365977D01*
X130655582Y-123365977D01*
X132110000Y-124820395D01*
X133564418Y-123365977D01*
X133384352Y-123029940D01*
X132975526Y-122819180D01*
X132533438Y-122692228D01*
X132075078Y-122653963D01*
X131618060Y-122705854D01*
X131179947Y-122845908D01*
X130835648Y-123029940D01*
X130655582Y-123365977D01*
X128484418Y-123365977D01*
X128304352Y-123029940D01*
X127895526Y-122819180D01*
X127453438Y-122692228D01*
X126995078Y-122653963D01*
X126538060Y-122705854D01*
X126099947Y-122845908D01*
X125755648Y-123029940D01*
X125627000Y-123270021D01*
X125627000Y-101729979D01*
X125755648Y-101970060D01*
X126164474Y-102180820D01*
X126606562Y-102307772D01*
X127064922Y-102346037D01*
X127521940Y-102294146D01*
X127960053Y-102154092D01*
X128304352Y-101970060D01*
X128484418Y-101634023D01*
X130655582Y-101634023D01*
X130835648Y-101970060D01*
X131244474Y-102180820D01*
X131686562Y-102307772D01*
X132144922Y-102346037D01*
X132601940Y-102294146D01*
X133040053Y-102154092D01*
X133384352Y-101970060D01*
X133564418Y-101634023D01*
X132110000Y-100179605D01*
X130655582Y-101634023D01*
X128484418Y-101634023D01*
X127030000Y-100179605D01*
X127015858Y-100193748D01*
X126836253Y-100014143D01*
X126850395Y-100000000D01*
X127209605Y-100000000D01*
X128664023Y-101454418D01*
X129000060Y-101274352D01*
X129210820Y-100865526D01*
X129337772Y-100423438D01*
X129370206Y-100034922D01*
X129763963Y-100034922D01*
X129815854Y-100491940D01*
X129955908Y-100930053D01*
X130139940Y-101274352D01*
X130475977Y-101454418D01*
X131930395Y-100000000D01*
X132289605Y-100000000D01*
X133744023Y-101454418D01*
X134080060Y-101274352D01*
X134290820Y-100865526D01*
X134417772Y-100423438D01*
X134456037Y-99965078D01*
X134404146Y-99508060D01*
X134264092Y-99069947D01*
X134080060Y-98725648D01*
X133744023Y-98545582D01*
X132289605Y-100000000D01*
X131930395Y-100000000D01*
X130475977Y-98545582D01*
X130139940Y-98725648D01*
X129929180Y-99134474D01*
X129802228Y-99576562D01*
X129763963Y-100034922D01*
X129370206Y-100034922D01*
X129376037Y-99965078D01*
X129324146Y-99508060D01*
X129184092Y-99069947D01*
X129000060Y-98725648D01*
X128664023Y-98545582D01*
X127209605Y-100000000D01*
X126850395Y-100000000D01*
X126836253Y-99985858D01*
X127015858Y-99806253D01*
X127030000Y-99820395D01*
X128484418Y-98365977D01*
X130655582Y-98365977D01*
X132110000Y-99820395D01*
X133564418Y-98365977D01*
X133384352Y-98029940D01*
X132975526Y-97819180D01*
X132533438Y-97692228D01*
X132075078Y-97653963D01*
X131618060Y-97705854D01*
X131179947Y-97845908D01*
X130835648Y-98029940D01*
X130655582Y-98365977D01*
X128484418Y-98365977D01*
X128304352Y-98029940D01*
X127895526Y-97819180D01*
X127453438Y-97692228D01*
X126995078Y-97653963D01*
X126538060Y-97705854D01*
X126099947Y-97845908D01*
X125755648Y-98029940D01*
X125627000Y-98270021D01*
X125627000Y-76729979D01*
X125755648Y-76970060D01*
X126164474Y-77180820D01*
X126606562Y-77307772D01*
X127064922Y-77346037D01*
X127521940Y-77294146D01*
X127960053Y-77154092D01*
X128304352Y-76970060D01*
X128484418Y-76634023D01*
X130655582Y-76634023D01*
X130835648Y-76970060D01*
X131244474Y-77180820D01*
X131686562Y-77307772D01*
X132144922Y-77346037D01*
X132601940Y-77294146D01*
X133040053Y-77154092D01*
X133384352Y-76970060D01*
X133564418Y-76634023D01*
X132110000Y-75179605D01*
X130655582Y-76634023D01*
X128484418Y-76634023D01*
X127030000Y-75179605D01*
X127015858Y-75193748D01*
X126836253Y-75014143D01*
X126850395Y-75000000D01*
X127209605Y-75000000D01*
X128664023Y-76454418D01*
X129000060Y-76274352D01*
X129210820Y-75865526D01*
X129337772Y-75423438D01*
X129370206Y-75034922D01*
X129763963Y-75034922D01*
X129815854Y-75491940D01*
X129955908Y-75930053D01*
X130139940Y-76274352D01*
X130475977Y-76454418D01*
X131930395Y-75000000D01*
X132289605Y-75000000D01*
X133744023Y-76454418D01*
X134080060Y-76274352D01*
X134290820Y-75865526D01*
X134417772Y-75423438D01*
X134456037Y-74965078D01*
X134404146Y-74508060D01*
X134264092Y-74069947D01*
X134080060Y-73725648D01*
X133744023Y-73545582D01*
X132289605Y-75000000D01*
X131930395Y-75000000D01*
X130475977Y-73545582D01*
X130139940Y-73725648D01*
X129929180Y-74134474D01*
X129802228Y-74576562D01*
X129763963Y-75034922D01*
X129370206Y-75034922D01*
X129376037Y-74965078D01*
X129324146Y-74508060D01*
X129184092Y-74069947D01*
X129000060Y-73725648D01*
X128664023Y-73545582D01*
X127209605Y-75000000D01*
X126850395Y-75000000D01*
X126836253Y-74985858D01*
X127015858Y-74806253D01*
X127030000Y-74820395D01*
X128484418Y-73365977D01*
X130655582Y-73365977D01*
X132110000Y-74820395D01*
X133564418Y-73365977D01*
X133384352Y-73029940D01*
X132975526Y-72819180D01*
X132533438Y-72692228D01*
X132075078Y-72653963D01*
X131618060Y-72705854D01*
X131179947Y-72845908D01*
X130835648Y-73029940D01*
X130655582Y-73365977D01*
X128484418Y-73365977D01*
X128304352Y-73029940D01*
X127895526Y-72819180D01*
X127453438Y-72692228D01*
X126995078Y-72653963D01*
X126538060Y-72705854D01*
X126099947Y-72845908D01*
X125755648Y-73029940D01*
X125627000Y-73270021D01*
X125627000Y-71773611D01*
X137340000Y-71773611D01*
X137340001Y-179519611D01*
G36*
X84873000Y-62373000D02*
G01*
X63127000Y-62373000D01*
X63127000Y-61115023D01*
X77571285Y-61115023D01*
X77660736Y-61381762D01*
X77859838Y-61639753D01*
X78105446Y-61853944D01*
X78388121Y-62016103D01*
X78697000Y-62120000D01*
X80677000Y-62120000D01*
X80677000Y-60873000D01*
X81423000Y-60873000D01*
X81423000Y-62120000D01*
X83403000Y-62120000D01*
X83711879Y-62016103D01*
X83994554Y-61853944D01*
X84240162Y-61639753D01*
X84439264Y-61381762D01*
X84528715Y-61115023D01*
X84442842Y-60873000D01*
X81423000Y-60873000D01*
X80677000Y-60873000D01*
X77657158Y-60873000D01*
X77571285Y-61115023D01*
X63127000Y-61115023D01*
X63127000Y-59884977D01*
X77571285Y-59884977D01*
X77657158Y-60127000D01*
X80677000Y-60127000D01*
X80677000Y-58880000D01*
X81423000Y-58880000D01*
X81423000Y-60127000D01*
X84442842Y-60127000D01*
X84528715Y-59884977D01*
X84439264Y-59618238D01*
X84240162Y-59360247D01*
X83994554Y-59146056D01*
X83711879Y-58983897D01*
X83403000Y-58880000D01*
X81423000Y-58880000D01*
X80677000Y-58880000D01*
X78697000Y-58880000D01*
X78388121Y-58983897D01*
X78105446Y-59146056D01*
X77859838Y-59360247D01*
X77660736Y-59618238D01*
X77571285Y-59884977D01*
X63127000Y-59884977D01*
X63127000Y-57154212D01*
X63398929Y-57259838D01*
X63851927Y-57339531D01*
X64311769Y-57329318D01*
X64760781Y-57229590D01*
X65089817Y-57093299D01*
X65290427Y-56787929D01*
X67849573Y-56787929D01*
X68050183Y-57093299D01*
X68478929Y-57259838D01*
X68931927Y-57339531D01*
X69391769Y-57329318D01*
X69840781Y-57229590D01*
X70169817Y-57093299D01*
X70370427Y-56787929D01*
X69110000Y-55527502D01*
X67849573Y-56787929D01*
X65290427Y-56787929D01*
X64030000Y-55527502D01*
X64015858Y-55541644D01*
X63488356Y-55014142D01*
X63502498Y-55000000D01*
X64557502Y-55000000D01*
X65817929Y-56260427D01*
X66123299Y-56059817D01*
X66289838Y-55631071D01*
X66369531Y-55178073D01*
X66361622Y-54821927D01*
X66770469Y-54821927D01*
X66780682Y-55281769D01*
X66880410Y-55730781D01*
X67016701Y-56059817D01*
X67322071Y-56260427D01*
X68582498Y-55000000D01*
X69637502Y-55000000D01*
X70897929Y-56260427D01*
X71203299Y-56059817D01*
X71369838Y-55631071D01*
X71449531Y-55178073D01*
X71439318Y-54718231D01*
X71339590Y-54269219D01*
X71203299Y-53940183D01*
X70897929Y-53739573D01*
X69637502Y-55000000D01*
X68582498Y-55000000D01*
X67322071Y-53739573D01*
X67016701Y-53940183D01*
X66850162Y-54368929D01*
X66770469Y-54821927D01*
X66361622Y-54821927D01*
X66359318Y-54718231D01*
X66259590Y-54269219D01*
X66123299Y-53940183D01*
X65817929Y-53739573D01*
X64557502Y-55000000D01*
X63502498Y-55000000D01*
X63488356Y-54985858D01*
X64015858Y-54458356D01*
X64030000Y-54472498D01*
X65290427Y-53212071D01*
X67849573Y-53212071D01*
X69110000Y-54472498D01*
X70370427Y-53212071D01*
X70169817Y-52906701D01*
X69741071Y-52740162D01*
X69288073Y-52660469D01*
X68828231Y-52670682D01*
X68379219Y-52770410D01*
X68050183Y-52906701D01*
X67849573Y-53212071D01*
X65290427Y-53212071D01*
X65089817Y-52906701D01*
X64661071Y-52740162D01*
X64208073Y-52660469D01*
X63748231Y-52670682D01*
X63299219Y-52770410D01*
X63127000Y-52841745D01*
X63127000Y-51127000D01*
X84873000Y-51127000D01*
X84873000Y-62373000D01*
G37*
X84873000Y-62373000D02*
X63127000Y-62373000D01*
X63127000Y-61115023D01*
X77571285Y-61115023D01*
X77660736Y-61381762D01*
X77859838Y-61639753D01*
X78105446Y-61853944D01*
X78388121Y-62016103D01*
X78697000Y-62120000D01*
X80677000Y-62120000D01*
X80677000Y-60873000D01*
X81423000Y-60873000D01*
X81423000Y-62120000D01*
X83403000Y-62120000D01*
X83711879Y-62016103D01*
X83994554Y-61853944D01*
X84240162Y-61639753D01*
X84439264Y-61381762D01*
X84528715Y-61115023D01*
X84442842Y-60873000D01*
X81423000Y-60873000D01*
X80677000Y-60873000D01*
X77657158Y-60873000D01*
X77571285Y-61115023D01*
X63127000Y-61115023D01*
X63127000Y-59884977D01*
X77571285Y-59884977D01*
X77657158Y-60127000D01*
X80677000Y-60127000D01*
X80677000Y-58880000D01*
X81423000Y-58880000D01*
X81423000Y-60127000D01*
X84442842Y-60127000D01*
X84528715Y-59884977D01*
X84439264Y-59618238D01*
X84240162Y-59360247D01*
X83994554Y-59146056D01*
X83711879Y-58983897D01*
X83403000Y-58880000D01*
X81423000Y-58880000D01*
X80677000Y-58880000D01*
X78697000Y-58880000D01*
X78388121Y-58983897D01*
X78105446Y-59146056D01*
X77859838Y-59360247D01*
X77660736Y-59618238D01*
X77571285Y-59884977D01*
X63127000Y-59884977D01*
X63127000Y-57154212D01*
X63398929Y-57259838D01*
X63851927Y-57339531D01*
X64311769Y-57329318D01*
X64760781Y-57229590D01*
X65089817Y-57093299D01*
X65290427Y-56787929D01*
X67849573Y-56787929D01*
X68050183Y-57093299D01*
X68478929Y-57259838D01*
X68931927Y-57339531D01*
X69391769Y-57329318D01*
X69840781Y-57229590D01*
X70169817Y-57093299D01*
X70370427Y-56787929D01*
X69110000Y-55527502D01*
X67849573Y-56787929D01*
X65290427Y-56787929D01*
X64030000Y-55527502D01*
X64015858Y-55541644D01*
X63488356Y-55014142D01*
X63502498Y-55000000D01*
X64557502Y-55000000D01*
X65817929Y-56260427D01*
X66123299Y-56059817D01*
X66289838Y-55631071D01*
X66369531Y-55178073D01*
X66361622Y-54821927D01*
X66770469Y-54821927D01*
X66780682Y-55281769D01*
X66880410Y-55730781D01*
X67016701Y-56059817D01*
X67322071Y-56260427D01*
X68582498Y-55000000D01*
X69637502Y-55000000D01*
X70897929Y-56260427D01*
X71203299Y-56059817D01*
X71369838Y-55631071D01*
X71449531Y-55178073D01*
X71439318Y-54718231D01*
X71339590Y-54269219D01*
X71203299Y-53940183D01*
X70897929Y-53739573D01*
X69637502Y-55000000D01*
X68582498Y-55000000D01*
X67322071Y-53739573D01*
X67016701Y-53940183D01*
X66850162Y-54368929D01*
X66770469Y-54821927D01*
X66361622Y-54821927D01*
X66359318Y-54718231D01*
X66259590Y-54269219D01*
X66123299Y-53940183D01*
X65817929Y-53739573D01*
X64557502Y-55000000D01*
X63502498Y-55000000D01*
X63488356Y-54985858D01*
X64015858Y-54458356D01*
X64030000Y-54472498D01*
X65290427Y-53212071D01*
X67849573Y-53212071D01*
X69110000Y-54472498D01*
X70370427Y-53212071D01*
X70169817Y-52906701D01*
X69741071Y-52740162D01*
X69288073Y-52660469D01*
X68828231Y-52670682D01*
X68379219Y-52770410D01*
X68050183Y-52906701D01*
X67849573Y-53212071D01*
X65290427Y-53212071D01*
X65089817Y-52906701D01*
X64661071Y-52740162D01*
X64208073Y-52660469D01*
X63748231Y-52670682D01*
X63299219Y-52770410D01*
X63127000Y-52841745D01*
X63127000Y-51127000D01*
X84873000Y-51127000D01*
X84873000Y-62373000D01*
G36*
X99373000Y-63873000D02*
G01*
X86127000Y-63873000D01*
X86127000Y-61923675D01*
X86288121Y-62016103D01*
X86597000Y-62120000D01*
X88577000Y-62120000D01*
X88577000Y-60873000D01*
X89323000Y-60873000D01*
X89323000Y-62120000D01*
X91303000Y-62120000D01*
X91611879Y-62016103D01*
X91894554Y-61853944D01*
X92140162Y-61639753D01*
X92339264Y-61381762D01*
X92428715Y-61115023D01*
X92342842Y-60873000D01*
X89323000Y-60873000D01*
X88577000Y-60873000D01*
X88557000Y-60873000D01*
X88557000Y-60127000D01*
X88577000Y-60127000D01*
X88577000Y-58880000D01*
X89323000Y-58880000D01*
X89323000Y-60127000D01*
X92342842Y-60127000D01*
X92428715Y-59884977D01*
X92339264Y-59618238D01*
X92140162Y-59360247D01*
X91894554Y-59146056D01*
X91611879Y-58983897D01*
X91303000Y-58880000D01*
X89323000Y-58880000D01*
X88577000Y-58880000D01*
X86597000Y-58880000D01*
X86288121Y-58983897D01*
X86127000Y-59076325D01*
X86127000Y-57627000D01*
X99373000Y-57627000D01*
X99373000Y-63873000D01*
G37*
X99373000Y-63873000D02*
X86127000Y-63873000D01*
X86127000Y-61923675D01*
X86288121Y-62016103D01*
X86597000Y-62120000D01*
X88577000Y-62120000D01*
X88577000Y-60873000D01*
X89323000Y-60873000D01*
X89323000Y-62120000D01*
X91303000Y-62120000D01*
X91611879Y-62016103D01*
X91894554Y-61853944D01*
X92140162Y-61639753D01*
X92339264Y-61381762D01*
X92428715Y-61115023D01*
X92342842Y-60873000D01*
X89323000Y-60873000D01*
X88577000Y-60873000D01*
X88557000Y-60873000D01*
X88557000Y-60127000D01*
X88577000Y-60127000D01*
X88577000Y-58880000D01*
X89323000Y-58880000D01*
X89323000Y-60127000D01*
X92342842Y-60127000D01*
X92428715Y-59884977D01*
X92339264Y-59618238D01*
X92140162Y-59360247D01*
X91894554Y-59146056D01*
X91611879Y-58983897D01*
X91303000Y-58880000D01*
X89323000Y-58880000D01*
X88577000Y-58880000D01*
X86597000Y-58880000D01*
X86288121Y-58983897D01*
X86127000Y-59076325D01*
X86127000Y-57627000D01*
X99373000Y-57627000D01*
X99373000Y-63873000D01*
G36*
X61873000Y-53815168D02*
G01*
X61757929Y-53739573D01*
X60497502Y-55000000D01*
X61757929Y-56260427D01*
X61873000Y-56184832D01*
X61873000Y-70373000D01*
X44500000Y-70373000D01*
X44475224Y-70375440D01*
X44451399Y-70382667D01*
X44429443Y-70394403D01*
X44410197Y-70410197D01*
X44394403Y-70429443D01*
X44382667Y-70451399D01*
X44375440Y-70475224D01*
X44373000Y-70500000D01*
X44373000Y-71873000D01*
X32660000Y-71873000D01*
X32660000Y-56787929D01*
X53629573Y-56787929D01*
X53830183Y-57093299D01*
X54258929Y-57259838D01*
X54711927Y-57339531D01*
X55171769Y-57329318D01*
X55620781Y-57229590D01*
X55949817Y-57093299D01*
X56150427Y-56787929D01*
X58709573Y-56787929D01*
X58910183Y-57093299D01*
X59338929Y-57259838D01*
X59791927Y-57339531D01*
X60251769Y-57329318D01*
X60700781Y-57229590D01*
X61029817Y-57093299D01*
X61230427Y-56787929D01*
X59970000Y-55527502D01*
X58709573Y-56787929D01*
X56150427Y-56787929D01*
X54890000Y-55527502D01*
X53629573Y-56787929D01*
X32660000Y-56787929D01*
X32660000Y-54821927D01*
X52550469Y-54821927D01*
X52560682Y-55281769D01*
X52660410Y-55730781D01*
X52796701Y-56059817D01*
X53102071Y-56260427D01*
X54362498Y-55000000D01*
X55417502Y-55000000D01*
X56677929Y-56260427D01*
X56983299Y-56059817D01*
X57149838Y-55631071D01*
X57229531Y-55178073D01*
X57221622Y-54821927D01*
X57630469Y-54821927D01*
X57640682Y-55281769D01*
X57740410Y-55730781D01*
X57876701Y-56059817D01*
X58182071Y-56260427D01*
X59442498Y-55000000D01*
X58182071Y-53739573D01*
X57876701Y-53940183D01*
X57710162Y-54368929D01*
X57630469Y-54821927D01*
X57221622Y-54821927D01*
X57219318Y-54718231D01*
X57119590Y-54269219D01*
X56983299Y-53940183D01*
X56677929Y-53739573D01*
X55417502Y-55000000D01*
X54362498Y-55000000D01*
X53102071Y-53739573D01*
X52796701Y-53940183D01*
X52630162Y-54368929D01*
X52550469Y-54821927D01*
X32660000Y-54821927D01*
X32660000Y-53212071D01*
X53629573Y-53212071D01*
X54890000Y-54472498D01*
X56150427Y-53212071D01*
X58709573Y-53212071D01*
X59970000Y-54472498D01*
X61230427Y-53212071D01*
X61029817Y-52906701D01*
X60601071Y-52740162D01*
X60148073Y-52660469D01*
X59688231Y-52670682D01*
X59239219Y-52770410D01*
X58910183Y-52906701D01*
X58709573Y-53212071D01*
X56150427Y-53212071D01*
X55949817Y-52906701D01*
X55521071Y-52740162D01*
X55068073Y-52660469D01*
X54608231Y-52670682D01*
X54159219Y-52770410D01*
X53830183Y-52906701D01*
X53629573Y-53212071D01*
X32660000Y-53212071D01*
X32660000Y-51127000D01*
X61873000Y-51127000D01*
X61873000Y-53815168D01*
G37*
X61873000Y-53815168D02*
X61757929Y-53739573D01*
X60497502Y-55000000D01*
X61757929Y-56260427D01*
X61873000Y-56184832D01*
X61873000Y-70373000D01*
X44500000Y-70373000D01*
X44475224Y-70375440D01*
X44451399Y-70382667D01*
X44429443Y-70394403D01*
X44410197Y-70410197D01*
X44394403Y-70429443D01*
X44382667Y-70451399D01*
X44375440Y-70475224D01*
X44373000Y-70500000D01*
X44373000Y-71873000D01*
X32660000Y-71873000D01*
X32660000Y-56787929D01*
X53629573Y-56787929D01*
X53830183Y-57093299D01*
X54258929Y-57259838D01*
X54711927Y-57339531D01*
X55171769Y-57329318D01*
X55620781Y-57229590D01*
X55949817Y-57093299D01*
X56150427Y-56787929D01*
X58709573Y-56787929D01*
X58910183Y-57093299D01*
X59338929Y-57259838D01*
X59791927Y-57339531D01*
X60251769Y-57329318D01*
X60700781Y-57229590D01*
X61029817Y-57093299D01*
X61230427Y-56787929D01*
X59970000Y-55527502D01*
X58709573Y-56787929D01*
X56150427Y-56787929D01*
X54890000Y-55527502D01*
X53629573Y-56787929D01*
X32660000Y-56787929D01*
X32660000Y-54821927D01*
X52550469Y-54821927D01*
X52560682Y-55281769D01*
X52660410Y-55730781D01*
X52796701Y-56059817D01*
X53102071Y-56260427D01*
X54362498Y-55000000D01*
X55417502Y-55000000D01*
X56677929Y-56260427D01*
X56983299Y-56059817D01*
X57149838Y-55631071D01*
X57229531Y-55178073D01*
X57221622Y-54821927D01*
X57630469Y-54821927D01*
X57640682Y-55281769D01*
X57740410Y-55730781D01*
X57876701Y-56059817D01*
X58182071Y-56260427D01*
X59442498Y-55000000D01*
X58182071Y-53739573D01*
X57876701Y-53940183D01*
X57710162Y-54368929D01*
X57630469Y-54821927D01*
X57221622Y-54821927D01*
X57219318Y-54718231D01*
X57119590Y-54269219D01*
X56983299Y-53940183D01*
X56677929Y-53739573D01*
X55417502Y-55000000D01*
X54362498Y-55000000D01*
X53102071Y-53739573D01*
X52796701Y-53940183D01*
X52630162Y-54368929D01*
X52550469Y-54821927D01*
X32660000Y-54821927D01*
X32660000Y-53212071D01*
X53629573Y-53212071D01*
X54890000Y-54472498D01*
X56150427Y-53212071D01*
X58709573Y-53212071D01*
X59970000Y-54472498D01*
X61230427Y-53212071D01*
X61029817Y-52906701D01*
X60601071Y-52740162D01*
X60148073Y-52660469D01*
X59688231Y-52670682D01*
X59239219Y-52770410D01*
X58910183Y-52906701D01*
X58709573Y-53212071D01*
X56150427Y-53212071D01*
X55949817Y-52906701D01*
X55521071Y-52740162D01*
X55068073Y-52660469D01*
X54608231Y-52670682D01*
X54159219Y-52770410D01*
X53830183Y-52906701D01*
X53629573Y-53212071D01*
X32660000Y-53212071D01*
X32660000Y-51127000D01*
X61873000Y-51127000D01*
X61873000Y-53815168D01*
G36*
X127373000Y-45673994D02*
G01*
X127350932Y-45727271D01*
X127315000Y-45907911D01*
X127315000Y-46092089D01*
X127350932Y-46272729D01*
X127373000Y-46326006D01*
X127373000Y-50500000D01*
X127375440Y-50524776D01*
X127382667Y-50548601D01*
X127394403Y-50570557D01*
X127410197Y-50589803D01*
X127429443Y-50605597D01*
X127451399Y-50617333D01*
X127475224Y-50624560D01*
X127500000Y-50627000D01*
X131673994Y-50627000D01*
X131727271Y-50649068D01*
X131907911Y-50685000D01*
X132092089Y-50685000D01*
X132272729Y-50649068D01*
X132326006Y-50627000D01*
X137340000Y-50627000D01*
X137340000Y-71873000D01*
X125627000Y-71873000D01*
X125627000Y-70000000D01*
X125624560Y-69975224D01*
X125617333Y-69951399D01*
X125605597Y-69929443D01*
X125589803Y-69910197D01*
X125570557Y-69894403D01*
X125548601Y-69882667D01*
X125524776Y-69875440D01*
X125500000Y-69873000D01*
X100627000Y-69873000D01*
X100627000Y-56500000D01*
X100624560Y-56475224D01*
X100617333Y-56451399D01*
X100605597Y-56429443D01*
X100589803Y-56410197D01*
X100570557Y-56394403D01*
X100548601Y-56382667D01*
X100524776Y-56375440D01*
X100500000Y-56373000D01*
X86127000Y-56373000D01*
X86127000Y-50000000D01*
X86124560Y-49975224D01*
X86117333Y-49951399D01*
X86105597Y-49929443D01*
X86089803Y-49910197D01*
X86070557Y-49894403D01*
X86048601Y-49882667D01*
X86024776Y-49875440D01*
X86000000Y-49873000D01*
X62000000Y-49873000D01*
X61975224Y-49875440D01*
X61951399Y-49882667D01*
X61929443Y-49894403D01*
X61910197Y-49910197D01*
X61894403Y-49929443D01*
X61882667Y-49951399D01*
X61875440Y-49975224D01*
X61873000Y-50000000D01*
X61873000Y-51373000D01*
X45127000Y-51373000D01*
X45127000Y-40660000D01*
X127373000Y-40660000D01*
X127373000Y-45673994D01*
G37*
X127373000Y-45673994D02*
X127350932Y-45727271D01*
X127315000Y-45907911D01*
X127315000Y-46092089D01*
X127350932Y-46272729D01*
X127373000Y-46326006D01*
X127373000Y-50500000D01*
X127375440Y-50524776D01*
X127382667Y-50548601D01*
X127394403Y-50570557D01*
X127410197Y-50589803D01*
X127429443Y-50605597D01*
X127451399Y-50617333D01*
X127475224Y-50624560D01*
X127500000Y-50627000D01*
X131673994Y-50627000D01*
X131727271Y-50649068D01*
X131907911Y-50685000D01*
X132092089Y-50685000D01*
X132272729Y-50649068D01*
X132326006Y-50627000D01*
X137340000Y-50627000D01*
X137340000Y-71873000D01*
X125627000Y-71873000D01*
X125627000Y-70000000D01*
X125624560Y-69975224D01*
X125617333Y-69951399D01*
X125605597Y-69929443D01*
X125589803Y-69910197D01*
X125570557Y-69894403D01*
X125548601Y-69882667D01*
X125524776Y-69875440D01*
X125500000Y-69873000D01*
X100627000Y-69873000D01*
X100627000Y-56500000D01*
X100624560Y-56475224D01*
X100617333Y-56451399D01*
X100605597Y-56429443D01*
X100589803Y-56410197D01*
X100570557Y-56394403D01*
X100548601Y-56382667D01*
X100524776Y-56375440D01*
X100500000Y-56373000D01*
X86127000Y-56373000D01*
X86127000Y-50000000D01*
X86124560Y-49975224D01*
X86117333Y-49951399D01*
X86105597Y-49929443D01*
X86089803Y-49910197D01*
X86070557Y-49894403D01*
X86048601Y-49882667D01*
X86024776Y-49875440D01*
X86000000Y-49873000D01*
X62000000Y-49873000D01*
X61975224Y-49875440D01*
X61951399Y-49882667D01*
X61929443Y-49894403D01*
X61910197Y-49910197D01*
X61894403Y-49929443D01*
X61882667Y-49951399D01*
X61875440Y-49975224D01*
X61873000Y-50000000D01*
X61873000Y-51373000D01*
X45127000Y-51373000D01*
X45127000Y-40660000D01*
X127373000Y-40660000D01*
X127373000Y-45673994D01*
M02*
