M48
; DRILL file {KiCad 5.1.5-52549c5~84~ubuntu18.04.1} date Sat 14 Mar 2020 06:31:47 PM MDT
; FORMAT={-:-/ absolute / inch / decimal}
; #@! TF.CreationDate,2020-03-14T18:31:47-06:00
; #@! TF.GenerationSoftware,Kicad,Pcbnew,5.1.5-52549c5~84~ubuntu18.04.1
; #@! TF.FileFunction,Plated,1,2,PTH
FMAT,2
INCH
T1C0.0157
T2C0.0500
T3C0.1000
T4C0.1969
%
G90
G05
T1
X1.3484Y-7.3228
X1.3917Y-7.2185
X1.3917Y-7.4272
X1.4961Y-7.1752
X1.4961Y-7.4705
X1.6004Y-7.2185
X1.6004Y-7.4272
X1.6437Y-7.3228
X5.0492Y-1.811
X5.0925Y-1.7067
X5.0925Y-1.9154
X5.1969Y-1.6634
X5.1969Y-1.9587
X5.3012Y-1.7067
X5.3012Y-1.9154
X5.3445Y-1.811
X1.3484Y-1.811
X1.3917Y-1.7067
X1.3917Y-1.9154
X1.4961Y-1.6634
X1.4961Y-1.9587
X1.6004Y-1.7067
X1.6004Y-1.9154
X1.6437Y-1.811
X5.0492Y-7.3228
X5.0925Y-7.2185
X5.0925Y-7.4272
X5.1969Y-7.1752
X5.1969Y-7.4705
X5.3012Y-7.2185
X5.3012Y-7.4272
X5.3445Y-7.3228
T3
X1.4917Y-4.9213
X1.6917Y-4.9213
X1.8516Y-4.9213
X2.0516Y-4.9213
X1.4917Y-2.9528
X1.6917Y-2.9528
X1.8516Y-2.9528
X2.0516Y-2.9528
X4.6413Y-4.9213
X4.8413Y-4.9213
X5.0012Y-4.9213
X5.2012Y-4.9213
X4.6413Y-6.8898
X4.8413Y-6.8898
X5.0012Y-6.8898
X5.2012Y-6.8898
X4.6413Y-5.9055
X4.8413Y-5.9055
X5.0012Y-5.9055
X5.2012Y-5.9055
X4.6413Y-3.937
X4.8413Y-3.937
X5.0012Y-3.937
X5.2012Y-3.937
X1.4917Y-6.8898
X1.6917Y-6.8898
X1.8516Y-6.8898
X2.0516Y-6.8898
X4.6413Y-2.9528
X4.8413Y-2.9528
X5.0012Y-2.9528
X5.2012Y-2.9528
X1.4917Y-3.937
X1.6917Y-3.937
X1.8516Y-3.937
X2.0516Y-3.937
X1.4917Y-5.9055
X1.6917Y-5.9055
X1.8516Y-5.9055
X2.0516Y-5.9055
X2.161Y-2.1654
X2.361Y-2.1654
X2.5209Y-2.1654
X2.7209Y-2.1654
T4
X5.1969Y-1.811
X1.4961Y-1.811
X5.1969Y-7.3228
X1.4961Y-7.3228
T2
G00X2.5224Y-3.9921
M15
G01X2.6783Y-3.9921
M16
G05
G00X2.8335Y-3.9921
M15
G01X2.9894Y-3.9921
M16
G05
G00X3.8594Y-2.8976
M15
G01X3.7035Y-2.8976
M16
G05
G00X4.1705Y-2.8976
M15
G01X4.0146Y-2.8976
M16
G05
G00X2.5224Y-4.9764
M15
G01X2.6783Y-4.9764
M16
G05
G00X2.8335Y-4.9764
M15
G01X2.9894Y-4.9764
M16
G05
G00X3.8594Y-3.8819
M15
G01X3.7035Y-3.8819
M16
G05
G00X4.1705Y-3.8819
M15
G01X4.0146Y-3.8819
M16
G05
G00X3.113Y-2.3819
M15
G01X3.2689Y-2.3819
M16
G05
G00X3.424Y-2.3819
M15
G01X3.5799Y-2.3819
M16
G05
G00X3.8594Y-5.8504
M15
G01X3.7035Y-5.8504
M16
G05
G00X4.1705Y-5.8504
M15
G01X4.0146Y-5.8504
M16
G05
G00X2.5224Y-5.9606
M15
G01X2.6783Y-5.9606
M16
G05
G00X2.8335Y-5.9606
M15
G01X2.9894Y-5.9606
M16
G05
G00X2.5224Y-6.9449
M15
G01X2.6783Y-6.9449
M16
G05
G00X2.8335Y-6.9449
M15
G01X2.9894Y-6.9449
M16
G05
G00X2.5224Y-3.0079
M15
G01X2.6783Y-3.0079
M16
G05
G00X2.8335Y-3.0079
M15
G01X2.9894Y-3.0079
M16
G05
G00X3.8594Y-6.8346
M15
G01X3.7035Y-6.8346
M16
G05
G00X4.1705Y-6.8346
M15
G01X4.0146Y-6.8346
M16
G05
G00X3.8594Y-4.8661
M15
G01X3.7035Y-4.8661
M16
G05
G00X4.1705Y-4.8661
M15
G01X4.0146Y-4.8661
M16
G05
T0
M30
