M48
; DRILL file {KiCad 5.1.5-52549c5~84~ubuntu18.04.1} date Mon 24 Feb 2020 10:59:16 PM MST
; FORMAT={-:-/ absolute / inch / decimal}
; #@! TF.CreationDate,2020-02-24T22:59:16-07:00
; #@! TF.GenerationSoftware,Kicad,Pcbnew,5.1.5-52549c5~84~ubuntu18.04.1
; #@! TF.FileFunction,Plated,1,2,PTH
FMAT,2
INCH
T1C0.0500
T2C0.1000
%
G90
G05
T2
X3.0665Y-4.6465
X3.2665Y-4.6465
X3.4264Y-4.6465
X3.6264Y-4.6465
X3.0665Y-5.2965
X3.2665Y-5.2965
X3.4264Y-5.2965
X3.6264Y-5.2965
X3.0665Y-3.9965
X3.2665Y-3.9965
X3.4264Y-3.9965
X3.6264Y-3.9965
X3.0665Y-3.3465
X3.2665Y-3.3465
X3.4264Y-3.3465
X3.6264Y-3.3465
T1
G00X4.487Y-5.4528
M15
G01X4.6429Y-5.4528
M16
G05
G00X4.176Y-2.874
M15
G01X4.3319Y-2.874
M16
G05
G00X4.487Y-2.874
M15
G01X4.6429Y-2.874
M16
G05
G00X4.176Y-3.5039
M15
G01X4.3319Y-3.5039
M16
G05
G00X4.487Y-3.5039
M15
G01X4.6429Y-3.5039
M16
G05
G00X4.176Y-4.1535
M15
G01X4.3319Y-4.1535
M16
G05
G00X4.487Y-4.1535
M15
G01X4.6429Y-4.1535
M16
G05
G00X4.176Y-4.8031
M15
G01X4.3319Y-4.8031
M16
G05
G00X4.487Y-4.8031
M15
G01X4.6429Y-4.8031
M16
G05
G00X4.176Y-5.4528
M15
G01X4.3319Y-5.4528
M16
G05
T0
M30
